<?xml version="1.0" encoding="UTF-8" standalone="no"?>
<!DOCTYPE svg PUBLIC "-//W3C//DTD SVG 1.1//EN" "http://www.w3.org/Graphics/SVG/1.1/DTD/svg11.dtd">
<svg xmlns="http://www.w3.org/2000/svg" xmlns:xlink="http://www.w3.org/1999/xlink" version="1.1" width="116.22222pt" height="116.22222pt" viewBox="0 0 116.22222 116.22222">
<g enable-background="new">
<clipPath id="cp0">
<path transform="matrix(.27777777,0,0,-.27777777,0,116.22222)" d="M 244.293 287.328 L 244.469 286.734 L 244.652 286.145 L 244.93 285.27 L 245.223 284.402 L 245.445 283.762 L 245.676 283.121 L 246.031 282.176 L 246.398 281.242 L 246.684 280.551 L 246.973 279.867 L 247.418 278.852 L 247.879 277.848 L 248.23 277.109 L 248.594 276.375 L 248.867 275.828 L 249.148 275.285 L 249.574 274.484 L 250.008 273.688 L 250.34 273.098 L 250.68 272.512 L 251.191 271.645 L 251.715 270.789 L 252.113 270.152 L 252.516 269.52 L 253.133 268.586 L 253.758 267.66 L 254.234 266.977 L 254.715 266.301 L 255.449 265.293 L 256.195 264.305 L 256.758 263.57 L 257.332 262.84 L 258.199 261.762 L 259.078 260.699 L 260.414 259.129 L 261.773 257.586 L 263.844 255.324 L 265.938 253.105 L 269.109 249.855 L 272.285 246.656 L 274.641 244.277 L 276.961 241.898 L 278.668 240.109 L 280.34 238.305 L 281.566 236.941 L 282.766 235.563 L 283.645 234.52 L 284.508 233.469 L 285.141 232.672 L 285.766 231.871 L 286.223 231.262 L 286.676 230.652 L 287.344 229.73 L 287.992 228.797 L 288.469 228.09 L 288.934 227.379 L 289.277 226.84 L 289.613 226.297 L 290.109 225.477 L 290.59 224.648 L 290.941 224.02 L 291.281 223.387 L 291.535 222.906 L 291.781 222.426 L 292.141 221.695 L 292.492 220.957 L 292.746 220.402 L 292.992 219.84 L 293.352 218.988 L 293.695 218.125 L 293.941 217.473 L 294.184 216.813 L 294.355 216.313 L 294.523 215.809 L 294.762 215.047 L 294.992 214.277 L 295.156 213.695 L 295.313 213.109 L 295.535 212.215 L 295.738 211.313 L 295.883 210.629 L 296.016 209.938 L 296.109 209.414 L 296.199 208.887 L 296.32 208.09 L 296.43 207.281 L 296.504 206.672 L 296.57 206.055 L 296.656 205.117 L 296.723 204.172 L 296.766 203.453 L 296.793 202.727 L 296.813 202.176 L 296.82 201.625 L 296.828 200.789 L 296.82 199.941 L 296.754 197.91 L 296.715 197.23 L 296.676 196.551 L 296.609 195.539 L 296.531 194.535 L 296.406 193.031 L 296.258 191.543 L 296.137 190.434 L 296.004 189.328 L 295.789 187.688 L 295.547 186.059 L 295.355 184.848 L 295.148 183.641 L 294.813 181.852 L 294.449 180.078 L 294.156 178.762 L 293.852 177.457 L 293.609 176.484 L 293.363 175.52 L 292.969 174.078 L 292.559 172.652 L 292.238 171.594 L 291.906 170.543 L 291.652 169.758 L 291.387 168.977 L 290.984 167.816 L 290.563 166.664 L 290.242 165.805 L 289.91 164.953 L 289.398 163.684 L 288.867 162.43 L 288.461 161.496 L 288.043 160.57 L 287.723 159.883 L 287.398 159.195 L 286.898 158.176 L 286.387 157.16 L 285.996 156.41 L 285.598 155.66 L 284.988 154.547 L 284.367 153.445 L 283.887 152.629 L 283.398 151.816 L 282.652 150.613 L 281.887 149.422 L 281.301 148.539 L 280.703 147.664 L 280.246 147.016 L 279.785 146.371 L 279.082 145.41 L 278.367 144.461 L 277.82 143.758 L 277.266 143.059 L 276.422 142.023 L 275.563 141.004 L 274.906 140.246 L 274.238 139.496 L 273.734 138.938 L 273.223 138.387 L 272.445 137.563 L 271.656 136.754 L 271.059 136.152 L 270.453 135.555 L 269.531 134.672 L 268.598 133.801 L 267.887 133.156 L 267.168 132.52 L 266.074 131.578 L 264.961 130.652 L 264.117 129.965 L 263.258 129.293 L 262.609 128.793 L 261.953 128.297 L 260.961 127.563 L 259.957 126.844 L 259.191 126.313 L 258.422 125.785 L 257.254 125.008 L 256.07 124.246 L 255.172 123.684 L 254.266 123.133 L 252.887 122.32 L 251.488 121.527 L 250.426 120.941 L 249.352 120.371 L 248.539 119.949 L 247.723 119.535 L 246.484 118.922 L 245.23 118.324 L 244.281 117.887 L 243.324 117.457 L 241.875 116.824 L 240.406 116.211 L 239.297 115.762 L 238.176 115.324 L 236.473 114.684 L 234.75 114.07 L 233.445 113.621 L 232.129 113.188 L 230.129 112.563 L 228.102 111.965 L 223.836 110.828 L 223.566 110.758 L 223.297 110.691 L 222.895 110.594 L 222.496 110.496 L 221.902 110.355 L 221.313 110.215 L 220.438 110.012 L 219.574 109.816 L 218.301 109.535 L 217.051 109.273 L 215.215 108.91 L 213.422 108.586 L 212.102 108.371 L 210.805 108.172 L 209.84 108.039 L 208.887 107.918 L 208.176 107.836 L 207.473 107.762 L 206.418 107.66 L 205.375 107.574 L 204.594 107.523 L 203.82 107.477 L 202.656 107.426 L 201.5 107.398 L 200.633 107.387 L 199.766 107.387 L 199.117 107.398 L 198.465 107.414 L 197.484 107.445 L 196.504 107.496 L 195.766 107.543 L 195.023 107.598 L 193.902 107.695 L 192.773 107.809 L 191.918 107.91 L 191.059 108.02 L 189.754 108.203 L 188.434 108.41 L 187.426 108.578 L 186.406 108.762 L 184.855 109.066 L 183.266 109.395 L 182.055 109.664 L 180.816 109.949 L 177.289 110.828 L 176.652 110.992 L 176.02 111.164 L 175.074 111.422 L 174.133 111.691 L 172.738 112.102 L 171.355 112.527 L 170.328 112.859 L 169.309 113.195 L 167.793 113.719 L 166.297 114.258 L 165.184 114.672 L 164.082 115.102 L 162.453 115.758 L 160.844 116.441 L 159.652 116.965 L 158.473 117.504 L 157.594 117.918 L 156.727 118.336 L 155.438 118.977 L 154.164 119.637 L 153.223 120.141 L 152.285 120.652 L 150.902 121.438 L 149.539 122.242 L 148.531 122.859 L 147.535 123.484 L 146.793 123.965 L 146.063 124.449 L 144.973 125.184 L 143.902 125.938 L 143.105 126.508 L 142.32 127.09 L 141.16 127.973 L 140.016 128.875 L 139.168 129.563 L 138.336 130.258 L 137.719 130.789 L 137.105 131.324 L 136.195 132.133 L 135.305 132.957 L 134.645 133.582 L 133.988 134.215 L 133.023 135.176 L 132.078 136.152 L 131.379 136.895 L 130.688 137.645 L 130.176 138.211 L 129.672 138.785 L 128.926 139.652 L 128.191 140.531 L 127.648 141.195 L 127.113 141.867 L 126.324 142.883 L 125.551 143.914 L 124.98 144.695 L 124.418 145.484 L 124.004 146.082 L 123.594 146.684 L 122.992 147.594 L 122.398 148.508 L 121.961 149.203 L 121.531 149.902 L 120.895 150.961 L 120.277 152.031 L 119.82 152.84 L 119.375 153.656 L 118.719 154.895 L 118.086 156.145 L 117.621 157.09 L 117.164 158.047 L 116.832 158.77 L 116.504 159.496 L 116.023 160.59 L 115.559 161.699 L 115.215 162.535 L 114.883 163.379 L 114.395 164.652 L 113.926 165.938 L 113.582 166.91 L 113.254 167.891 L 112.773 169.371 L 112.316 170.871 L 111.988 172.004 L 111.672 173.145 L 111.441 174.008 L 111.219 174.875 L 110.898 176.184 L 110.594 177.504 L 110.375 178.5 L 110.164 179.504 L 109.863 181.02 L 109.586 182.551 L 109.391 183.707 L 109.207 184.867 L 108.949 186.625 L 108.719 188.402 L 108.563 189.742 L 108.422 191.094 L 108.234 193.137 L 108.078 195.203 L 108.027 196.035 L 107.992 196.664 L 107.965 197.285 L 107.938 198.207 L 107.922 199.121 L 107.926 199.797 L 107.934 200.469 L 107.945 200.969 L 107.961 201.465 L 107.996 202.203 L 108.039 202.938 L 108.078 203.48 L 108.125 204.02 L 108.203 204.82 L 108.297 205.613 L 108.371 206.203 L 108.453 206.789 L 108.594 207.656 L 108.746 208.512 L 108.871 209.148 L 109 209.777 L 109.215 210.715 L 109.445 211.637 L 109.633 212.32 L 109.828 213 L 109.98 213.504 L 110.137 214.004 L 110.383 214.746 L 110.641 215.48 L 110.844 216.027 L 111.051 216.57 L 111.371 217.379 L 111.707 218.176 L 111.969 218.766 L 112.238 219.352 L 112.652 220.227 L 113.086 221.086 L 113.422 221.727 L 113.766 222.359 L 114.027 222.832 L 114.293 223.301 L 114.703 223.996 L 115.125 224.688 L 115.445 225.203 L 115.77 225.715 L 116.27 226.477 L 116.781 227.23 L 117.172 227.789 L 117.57 228.348 L 118.176 229.176 L 118.793 230 L 119.266 230.609 L 119.746 231.219 L 120.477 232.125 L 121.223 233.02 L 122.363 234.355 L 123.531 235.676 L 124.426 236.66 L 125.332 237.637 L 126.711 239.094 L 128.113 240.547 L 130.254 242.715 L 132.426 244.883 L 135.715 248.156 L 139.008 251.484 L 140.238 252.754 L 141.457 254.035 L 142.367 255.012 L 143.27 255.992 L 144.609 257.488 L 145.93 259.008 L 146.906 260.168 L 147.871 261.344 L 148.582 262.238 L 149.285 263.145 L 149.805 263.828 L 150.324 264.523 L 151.086 265.574 L 151.832 266.641 L 152.387 267.449 L 152.93 268.27 L 153.332 268.895 L 153.727 269.52 L 154.313 270.473 L 154.883 271.438 L 155.305 272.168 L 155.719 272.906 L 156.023 273.469 L 156.324 274.031 L 156.77 274.891 L 157.203 275.754 L 157.52 276.414 L 157.832 277.074 L 158.289 278.082 L 158.73 279.102 L 159.051 279.879 L 159.363 280.66 L 159.594 281.254 L 159.816 281.855 L 160.145 282.762 L 160.461 283.68 L 160.691 284.375 L 160.914 285.078 L 161.375 286.637 L 161.457 286.922 L 161.535 287.207 L 161.645 287.633 L 161.754 288.059 L 161.906 288.691 L 162.047 289.32 L 162.242 290.262 L 162.414 291.191 L 162.527 291.887 L 162.633 292.574 L 162.703 293.09 L 162.77 293.602 L 162.855 294.367 L 162.93 295.125 L 162.98 295.691 L 163.02 296.258 L 163.074 297.098 L 163.113 297.934 L 163.137 298.555 L 163.152 299.176 L 163.164 300.102 L 163.168 301.016 L 163.152 302.383 L 163.117 303.734 L 163.039 305.738 L 162.945 307.719 L 162.801 310.645 L 162.703 313.531 L 162.688 314.605 L 162.691 315.672 L 162.703 316.469 L 162.727 317.266 L 162.754 317.863 L 162.785 318.457 L 162.852 319.352 L 162.938 320.242 L 163.016 320.906 L 163.105 321.574 L 163.184 322.07 L 163.27 322.57 L 163.41 323.32 L 163.57 324.066 L 163.707 324.629 L 163.852 325.188 L 164.094 326.027 L 164.363 326.871 L 164.582 327.504 L 164.824 328.133 L 165.016 328.609 L 165.215 329.082 L 165.539 329.797 L 165.883 330.512 L 166.16 331.047 L 166.453 331.582 L 166.918 332.391 L 167.418 333.199 L 169.113 335.605 L 169.258 335.797 L 169.406 335.988 L 169.625 336.27 L 169.844 336.551 L 170.176 336.969 L 170.504 337.383 L 171 337.996 L 171.492 338.598 L 172.23 339.484 L 172.969 340.348 L 173.527 340.98 L 174.082 341.598 L 174.5 342.055 L 174.918 342.504 L 175.551 343.164 L 176.184 343.809 L 176.66 344.281 L 177.137 344.746 L 177.859 345.422 L 178.586 346.078 L 179.137 346.555 L 179.691 347.023 L 180.105 347.363 L 180.527 347.699 L 181.16 348.191 L 181.801 348.664 L 182.285 349.012 L 182.773 349.348 L 183.512 349.836 L 184.262 350.305 L 184.828 350.645 L 185.402 350.973 L 186.273 351.441 L 187.16 351.887 L 187.836 352.207 L 188.516 352.508 L 189.035 352.727 L 189.559 352.934 L 190.355 353.234 L 191.16 353.512 L 191.777 353.711 L 192.398 353.898 L 193.348 354.156 L 194.313 354.395 L 195.047 354.555 L 195.797 354.703 L 196.363 354.805 L 196.938 354.898 L 197.813 355.027 L 198.699 355.137 L 199.379 355.207 L 200.063 355.27 L 200.582 355.309 L 201.109 355.34 L 201.906 355.379 L 202.715 355.406 L 204.059 355.426 L 204.281 355.426 L 204.5 355.422 L 204.824 355.418 L 205.148 355.41 L 205.633 355.398 L 206.109 355.379 L 206.82 355.34 L 207.516 355.289 L 208.031 355.246 L 208.543 355.195 L 209.297 355.105 L 210.039 355.004 L 210.59 354.918 L 211.129 354.82 L 211.93 354.664 L 212.719 354.492 L 213.297 354.352 L 213.871 354.199 L 214.719 353.953 L 215.551 353.688 L 216.164 353.473 L 216.766 353.246 L 217.66 352.887 L 218.535 352.496 L 219.18 352.191 L 219.816 351.867 L 220.289 351.617 L 220.758 351.355 L 221.453 350.953 L 222.137 350.527 L 222.648 350.199 L 223.152 349.863 L 223.898 349.336 L 224.641 348.789 L 225.188 348.363 L 225.734 347.926 L 226.141 347.59 L 226.543 347.246 L 227.148 346.719 L 227.746 346.176 L 228.195 345.762 L 228.641 345.336 L 229.309 344.688 L 229.973 344.016 L 230.473 343.5 L 230.969 342.977 L 231.711 342.172 L 232.457 341.344 L 233.578 340.063 L 234.707 338.73 L 235.996 337.164 L 236.184 336.93 L 236.371 336.695 L 236.645 336.344 L 236.91 335.988 L 237.293 335.461 L 237.66 334.938 L 238.184 334.145 L 238.672 333.359 L 239.016 332.766 L 239.34 332.176 L 239.793 331.293 L 240.207 330.406 L 240.492 329.742 L 240.762 329.082 L 240.945 328.582 L 241.121 328.086 L 241.367 327.34 L 241.586 326.594 L 241.738 326.031 L 241.879 325.473 L 242.066 324.629 L 242.23 323.785 L 242.34 323.152 L 242.434 322.52 L 242.559 321.566 L 242.652 320.609 L 242.711 319.895 L 242.758 319.172 L 242.785 318.633 L 242.805 318.09 L 242.828 317.277 L 242.836 316.461 L 242.832 315.227 L 242.809 313.992 L 242.75 312.121 L 242.668 310.234 L 242.535 307.363 L 242.43 304.441 L 242.406 303.332 L 242.395 302.215 L 242.398 301.371 L 242.406 300.52 L 242.422 299.879 L 242.445 299.234 L 242.488 298.266 L 242.551 297.285 L 242.605 296.547 L 242.676 295.805 L 242.734 295.242 L 242.797 294.68 L 242.906 293.832 L 243.035 292.98 L 243.141 292.336 L 243.254 291.688 L 243.348 291.199 L 243.449 290.711 L 243.609 289.973 L 243.785 289.23 L 244.293 287.328 Z "/>
</clipPath>
<g clip-path="url(#cp0)">
<path transform="matrix(.27777777,0,0,-.27777777,0,116.22222)" d="M 107.922 107.387 L 296.828 107.387 L 296.828 355.426 L 107.922 355.426 Z " fill="#999999"/>
</g>
<clipPath id="cp1">
<path transform="matrix(.27777777,0,0,-.27777777,0,116.22222)" d="M 8.39844 11.1992 L 406.90644 11.1992 L 406.90644 409.70719 L 8.39844 409.70719 Z "/>
</clipPath>
<g clip-path="url(#cp1)">
<path transform="matrix(.27777777,0,0,-.27777777,0,116.22222)" stroke-width="6.97385" stroke-linecap="butt" stroke-miterlimit="10" stroke-linejoin="miter" fill="none" stroke="#000000" d="M 244.293 287.328 L 244.469 286.734 L 244.652 286.145 L 244.93 285.27 L 245.223 284.402 L 245.445 283.762 L 245.676 283.121 L 246.031 282.176 L 246.398 281.242 L 246.684 280.551 L 246.973 279.867 L 247.418 278.852 L 247.879 277.848 L 248.23 277.109 L 248.594 276.375 L 248.867 275.828 L 249.148 275.285 L 249.574 274.484 L 250.008 273.688 L 250.34 273.098 L 250.68 272.512 L 251.191 271.645 L 251.715 270.789 L 252.113 270.152 L 252.516 269.52 L 253.133 268.586 L 253.758 267.66 L 254.234 266.977 L 254.715 266.301 L 255.449 265.293 L 256.195 264.305 L 256.758 263.57 L 257.332 262.84 L 258.199 261.762 L 259.078 260.699 L 260.414 259.129 L 261.773 257.586 L 263.844 255.324 L 265.938 253.105 L 269.109 249.855 L 272.285 246.656 L 274.641 244.277 L 276.961 241.898 L 278.668 240.109 L 280.34 238.305 L 281.566 236.941 L 282.766 235.563 L 283.645 234.52 L 284.508 233.469 L 285.141 232.672 L 285.766 231.871 L 286.223 231.262 L 286.676 230.652 L 287.344 229.73 L 287.992 228.797 L 288.469 228.09 L 288.934 227.379 L 289.277 226.84 L 289.613 226.297 L 290.109 225.477 L 290.59 224.648 L 290.941 224.02 L 291.281 223.387 L 291.535 222.906 L 291.781 222.426 L 292.141 221.695 L 292.492 220.957 L 292.746 220.402 L 292.992 219.84 L 293.352 218.988 L 293.695 218.125 L 293.941 217.473 L 294.184 216.813 L 294.355 216.313 L 294.523 215.809 L 294.762 215.047 L 294.992 214.277 L 295.156 213.695 L 295.313 213.109 L 295.535 212.215 L 295.738 211.313 L 295.883 210.629 L 296.016 209.938 L 296.109 209.414 L 296.199 208.887 L 296.32 208.09 L 296.43 207.281 L 296.504 206.672 L 296.57 206.055 L 296.656 205.117 L 296.723 204.172 L 296.766 203.453 L 296.793 202.727 L 296.813 202.176 L 296.82 201.625 L 296.828 200.789 L 296.82 199.941 L 296.754 197.91 L 296.715 197.23 L 296.676 196.551 L 296.609 195.539 L 296.531 194.535 L 296.406 193.031 L 296.258 191.543 L 296.137 190.434 L 296.004 189.328 L 295.789 187.688 L 295.547 186.059 L 295.355 184.848 L 295.148 183.641 L 294.813 181.852 L 294.449 180.078 L 294.156 178.762 L 293.852 177.457 L 293.609 176.484 L 293.363 175.52 L 292.969 174.078 L 292.559 172.652 L 292.238 171.594 L 291.906 170.543 L 291.652 169.758 L 291.387 168.977 L 290.984 167.816 L 290.563 166.664 L 290.242 165.805 L 289.91 164.953 L 289.398 163.684 L 288.867 162.43 L 288.461 161.496 L 288.043 160.57 L 287.723 159.883 L 287.398 159.195 L 286.898 158.176 L 286.387 157.16 L 285.996 156.41 L 285.598 155.66 L 284.988 154.547 L 284.367 153.445 L 283.887 152.629 L 283.398 151.816 L 282.652 150.613 L 281.887 149.422 L 281.301 148.539 L 280.703 147.664 L 280.246 147.016 L 279.785 146.371 L 279.082 145.41 L 278.367 144.461 L 277.82 143.758 L 277.266 143.059 L 276.422 142.023 L 275.563 141.004 L 274.906 140.246 L 274.238 139.496 L 273.734 138.938 L 273.223 138.387 L 272.445 137.563 L 271.656 136.754 L 271.059 136.152 L 270.453 135.555 L 269.531 134.672 L 268.598 133.801 L 267.887 133.156 L 267.168 132.52 L 266.074 131.578 L 264.961 130.652 L 264.117 129.965 L 263.258 129.293 L 262.609 128.793 L 261.953 128.297 L 260.961 127.563 L 259.957 126.844 L 259.191 126.313 L 258.422 125.785 L 257.254 125.008 L 256.07 124.246 L 255.172 123.684 L 254.266 123.133 L 252.887 122.32 L 251.488 121.527 L 250.426 120.941 L 249.352 120.371 L 248.539 119.949 L 247.723 119.535 L 246.484 118.922 L 245.23 118.324 L 244.281 117.887 L 243.324 117.457 L 241.875 116.824 L 240.406 116.211 L 239.297 115.762 L 238.176 115.324 L 236.473 114.684 L 234.75 114.07 L 233.445 113.621 L 232.129 113.188 L 230.129 112.563 L 228.102 111.965 L 223.836 110.828 L 223.566 110.758 L 223.297 110.691 L 222.895 110.594 L 222.496 110.496 L 221.902 110.355 L 221.313 110.215 L 220.438 110.012 L 219.574 109.816 L 218.301 109.535 L 217.051 109.273 L 215.215 108.91 L 213.422 108.586 L 212.102 108.371 L 210.805 108.172 L 209.84 108.039 L 208.887 107.918 L 208.176 107.836 L 207.473 107.762 L 206.418 107.66 L 205.375 107.574 L 204.594 107.523 L 203.82 107.477 L 202.656 107.426 L 201.5 107.398 L 200.633 107.387 L 199.766 107.387 L 199.117 107.398 L 198.465 107.414 L 197.484 107.445 L 196.504 107.496 L 195.766 107.543 L 195.023 107.598 L 193.902 107.695 L 192.773 107.809 L 191.918 107.91 L 191.059 108.02 L 189.754 108.203 L 188.434 108.41 L 187.426 108.578 L 186.406 108.762 L 184.855 109.066 L 183.266 109.395 L 182.055 109.664 L 180.816 109.949 L 177.289 110.828 L 176.652 110.992 L 176.02 111.164 L 175.074 111.422 L 174.133 111.691 L 172.738 112.102 L 171.355 112.527 L 170.328 112.859 L 169.309 113.195 L 167.793 113.719 L 166.297 114.258 L 165.184 114.672 L 164.082 115.102 L 162.453 115.758 L 160.844 116.441 L 159.652 116.965 L 158.473 117.504 L 157.594 117.918 L 156.727 118.336 L 155.438 118.977 L 154.164 119.637 L 153.223 120.141 L 152.285 120.652 L 150.902 121.438 L 149.539 122.242 L 148.531 122.859 L 147.535 123.484 L 146.793 123.965 L 146.063 124.449 L 144.973 125.184 L 143.902 125.938 L 143.105 126.508 L 142.32 127.09 L 141.16 127.973 L 140.016 128.875 L 139.168 129.563 L 138.336 130.258 L 137.719 130.789 L 137.105 131.324 L 136.195 132.133 L 135.305 132.957 L 134.645 133.582 L 133.988 134.215 L 133.023 135.176 L 132.078 136.152 L 131.379 136.895 L 130.688 137.645 L 130.176 138.211 L 129.672 138.785 L 128.926 139.652 L 128.191 140.531 L 127.648 141.195 L 127.113 141.867 L 126.324 142.883 L 125.551 143.914 L 124.98 144.695 L 124.418 145.484 L 124.004 146.082 L 123.594 146.684 L 122.992 147.594 L 122.398 148.508 L 121.961 149.203 L 121.531 149.902 L 120.895 150.961 L 120.277 152.031 L 119.82 152.84 L 119.375 153.656 L 118.719 154.895 L 118.086 156.145 L 117.621 157.09 L 117.164 158.047 L 116.832 158.77 L 116.504 159.496 L 116.023 160.59 L 115.559 161.699 L 115.215 162.535 L 114.883 163.379 L 114.395 164.652 L 113.926 165.938 L 113.582 166.91 L 113.254 167.891 L 112.773 169.371 L 112.316 170.871 L 111.988 172.004 L 111.672 173.145 L 111.441 174.008 L 111.219 174.875 L 110.898 176.184 L 110.594 177.504 L 110.375 178.5 L 110.164 179.504 L 109.863 181.02 L 109.586 182.551 L 109.391 183.707 L 109.207 184.867 L 108.949 186.625 L 108.719 188.402 L 108.563 189.742 L 108.422 191.094 L 108.234 193.137 L 108.078 195.203 L 108.027 196.035 L 107.992 196.664 L 107.965 197.285 L 107.938 198.207 L 107.922 199.121 L 107.926 199.797 L 107.934 200.469 L 107.945 200.969 L 107.961 201.465 L 107.996 202.203 L 108.039 202.938 L 108.078 203.48 L 108.125 204.02 L 108.203 204.82 L 108.297 205.613 L 108.371 206.203 L 108.453 206.789 L 108.594 207.656 L 108.746 208.512 L 108.871 209.148 L 109 209.777 L 109.215 210.715 L 109.445 211.637 L 109.633 212.32 L 109.828 213 L 109.98 213.504 L 110.137 214.004 L 110.383 214.746 L 110.641 215.48 L 110.844 216.027 L 111.051 216.57 L 111.371 217.379 L 111.707 218.176 L 111.969 218.766 L 112.238 219.352 L 112.652 220.227 L 113.086 221.086 L 113.422 221.727 L 113.766 222.359 L 114.027 222.832 L 114.293 223.301 L 114.703 223.996 L 115.125 224.688 L 115.445 225.203 L 115.77 225.715 L 116.27 226.477 L 116.781 227.23 L 117.172 227.789 L 117.57 228.348 L 118.176 229.176 L 118.793 230 L 119.266 230.609 L 119.746 231.219 L 120.477 232.125 L 121.223 233.02 L 122.363 234.355 L 123.531 235.676 L 124.426 236.66 L 125.332 237.637 L 126.711 239.094 L 128.113 240.547 L 130.254 242.715 L 132.426 244.883 L 135.715 248.156 L 139.008 251.484 L 140.238 252.754 L 141.457 254.035 L 142.367 255.012 L 143.27 255.992 L 144.609 257.488 L 145.93 259.008 L 146.906 260.168 L 147.871 261.344 L 148.582 262.238 L 149.285 263.145 L 149.805 263.828 L 150.324 264.523 L 151.086 265.574 L 151.832 266.641 L 152.387 267.449 L 152.93 268.27 L 153.332 268.895 L 153.727 269.52 L 154.313 270.473 L 154.883 271.438 L 155.305 272.168 L 155.719 272.906 L 156.023 273.469 L 156.324 274.031 L 156.77 274.891 L 157.203 275.754 L 157.52 276.414 L 157.832 277.074 L 158.289 278.082 L 158.73 279.102 L 159.051 279.879 L 159.363 280.66 L 159.594 281.254 L 159.816 281.855 L 160.145 282.762 L 160.461 283.68 L 160.691 284.375 L 160.914 285.078 L 161.375 286.637 L 161.457 286.922 L 161.535 287.207 L 161.645 287.633 L 161.754 288.059 L 161.906 288.691 L 162.047 289.32 L 162.242 290.262 L 162.414 291.191 L 162.527 291.887 L 162.633 292.574 L 162.703 293.09 L 162.77 293.602 L 162.855 294.367 L 162.93 295.125 L 162.98 295.691 L 163.02 296.258 L 163.074 297.098 L 163.113 297.934 L 163.137 298.555 L 163.152 299.176 L 163.164 300.102 L 163.168 301.016 L 163.152 302.383 L 163.117 303.734 L 163.039 305.738 L 162.945 307.719 L 162.801 310.645 L 162.703 313.531 L 162.688 314.605 L 162.691 315.672 L 162.703 316.469 L 162.727 317.266 L 162.754 317.863 L 162.785 318.457 L 162.852 319.352 L 162.938 320.242 L 163.016 320.906 L 163.105 321.574 L 163.184 322.07 L 163.27 322.57 L 163.41 323.32 L 163.57 324.066 L 163.707 324.629 L 163.852 325.188 L 164.094 326.027 L 164.363 326.871 L 164.582 327.504 L 164.824 328.133 L 165.016 328.609 L 165.215 329.082 L 165.539 329.797 L 165.883 330.512 L 166.16 331.047 L 166.453 331.582 L 166.918 332.391 L 167.418 333.199 L 169.113 335.605 L 169.258 335.797 L 169.406 335.988 L 169.625 336.27 L 169.844 336.551 L 170.176 336.969 L 170.504 337.383 L 171 337.996 L 171.492 338.598 L 172.23 339.484 L 172.969 340.348 L 173.527 340.98 L 174.082 341.598 L 174.5 342.055 L 174.918 342.504 L 175.551 343.164 L 176.184 343.809 L 176.66 344.281 L 177.137 344.746 L 177.859 345.422 L 178.586 346.078 L 179.137 346.555 L 179.691 347.023 L 180.105 347.363 L 180.527 347.699 L 181.16 348.191 L 181.801 348.664 L 182.285 349.012 L 182.773 349.348 L 183.512 349.836 L 184.262 350.305 L 184.828 350.645 L 185.402 350.973 L 186.273 351.441 L 187.16 351.887 L 187.836 352.207 L 188.516 352.508 L 189.035 352.727 L 189.559 352.934 L 190.355 353.234 L 191.16 353.512 L 191.777 353.711 L 192.398 353.898 L 193.348 354.156 L 194.313 354.395 L 195.047 354.555 L 195.797 354.703 L 196.363 354.805 L 196.938 354.898 L 197.813 355.027 L 198.699 355.137 L 199.379 355.207 L 200.063 355.27 L 200.582 355.309 L 201.109 355.34 L 201.906 355.379 L 202.715 355.406 L 204.059 355.426 L 204.281 355.426 L 204.5 355.422 L 204.824 355.418 L 205.148 355.41 L 205.633 355.398 L 206.109 355.379 L 206.82 355.34 L 207.516 355.289 L 208.031 355.246 L 208.543 355.195 L 209.297 355.105 L 210.039 355.004 L 210.59 354.918 L 211.129 354.82 L 211.93 354.664 L 212.719 354.492 L 213.297 354.352 L 213.871 354.199 L 214.719 353.953 L 215.551 353.688 L 216.164 353.473 L 216.766 353.246 L 217.66 352.887 L 218.535 352.496 L 219.18 352.191 L 219.816 351.867 L 220.289 351.617 L 220.758 351.355 L 221.453 350.953 L 222.137 350.527 L 222.648 350.199 L 223.152 349.863 L 223.898 349.336 L 224.641 348.789 L 225.188 348.363 L 225.734 347.926 L 226.141 347.59 L 226.543 347.246 L 227.148 346.719 L 227.746 346.176 L 228.195 345.762 L 228.641 345.336 L 229.309 344.688 L 229.973 344.016 L 230.473 343.5 L 230.969 342.977 L 231.711 342.172 L 232.457 341.344 L 233.578 340.063 L 234.707 338.73 L 235.996 337.164 L 236.184 336.93 L 236.371 336.695 L 236.645 336.344 L 236.91 335.988 L 237.293 335.461 L 237.66 334.938 L 238.184 334.145 L 238.672 333.359 L 239.016 332.766 L 239.34 332.176 L 239.793 331.293 L 240.207 330.406 L 240.492 329.742 L 240.762 329.082 L 240.945 328.582 L 241.121 328.086 L 241.367 327.34 L 241.586 326.594 L 241.738 326.031 L 241.879 325.473 L 242.066 324.629 L 242.23 323.785 L 242.34 323.152 L 242.434 322.52 L 242.559 321.566 L 242.652 320.609 L 242.711 319.895 L 242.758 319.172 L 242.785 318.633 L 242.805 318.09 L 242.828 317.277 L 242.836 316.461 L 242.832 315.227 L 242.809 313.992 L 242.75 312.121 L 242.668 310.234 L 242.535 307.363 L 242.43 304.441 L 242.406 303.332 L 242.395 302.215 L 242.398 301.371 L 242.406 300.52 L 242.422 299.879 L 242.445 299.234 L 242.488 298.266 L 242.551 297.285 L 242.605 296.547 L 242.676 295.805 L 242.734 295.242 L 242.797 294.68 L 242.906 293.832 L 243.035 292.98 L 243.141 292.336 L 243.254 291.688 L 243.348 291.199 L 243.449 290.711 L 243.609 289.973 L 243.785 289.23 L 244.293 287.328 Z "/>
<path transform="matrix(.27777777,0,0,-.27777777,0,116.22222)" stroke-width="6.97385" stroke-linecap="butt" stroke-miterlimit="10" stroke-linejoin="miter" fill="none" stroke="#000000" d="M 235.77 389.781 L 235.629 389.789 L 235.488 389.801 L 235.277 389.813 L 235.066 389.824 L 234.758 389.84 L 234.445 389.855 L 233.988 389.871 L 233.535 389.883 L 232.863 389.895 L 232.207 389.891 L 231.242 389.867 L 230.297 389.82 L 229.605 389.766 L 228.926 389.695 L 228.422 389.633 L 227.926 389.563 L 227.191 389.441 L 226.469 389.297 L 225.934 389.176 L 225.406 389.043 L 224.625 388.824 L 223.855 388.574 L 223.281 388.371 L 222.715 388.152 L 221.875 387.797 L 221.039 387.402 L 220.418 387.082 L 219.801 386.742 L 219.34 386.469 L 218.879 386.188 L 218.188 385.742 L 217.496 385.27 L 216.977 384.898 L 216.457 384.508 L 216.066 384.207 L 215.676 383.895 L 215.086 383.41 L 214.492 382.902 L 213.438 381.961 L 213.313 381.848 L 213.191 381.734 L 213.008 381.563 L 212.824 381.391 L 212.559 381.133 L 212.293 380.875 L 211.902 380.488 L 211.523 380.102 L 210.973 379.52 L 210.441 378.934 L 210.059 378.492 L 209.684 378.051 L 209.148 377.387 L 208.637 376.719 L 208.27 376.215 L 207.914 375.707 L 207.414 374.941 L 206.945 374.168 L 206.613 373.582 L 206.301 372.992 L 205.863 372.102 L 205.465 371.195 L 205.191 370.508 L 204.941 369.813 L 204.766 369.289 L 204.605 368.758 L 204.387 367.953 L 204.195 367.137 L 204.066 366.516 L 203.957 365.891 L 203.816 364.938 L 203.711 363.969 L 203.656 363.23 L 203.617 362.484 L 203.602 361.914 L 203.594 361.34 L 203.602 360.469 L 203.637 359.582 L 203.676 358.906 L 203.727 358.227 L 203.773 357.707 L 203.828 357.184 L 203.926 356.391 L 204.035 355.586 L 204.059 355.426 "/>
</g>
<clipPath id="cp2">
<path transform="matrix(.27777777,0,0,-.27777777,0,116.22222)" d="M 157.84 399.742 L 257.465 399.742 L 257.465 361.887 L 157.84 361.887 L 157.84 399.742 Z "/>
</clipPath>
<g clip-path="url(#cp2)">
<path transform="matrix(.27777777,0,0,-.27777777,0,116.22222)" d="M 157.84 361.887 L 257.465 361.887 L 257.465 399.7425 L 157.84 399.7425 Z " fill="#ffffff"/>
</g>
<clipPath id="cp3">
<path transform="matrix(.27777777,0,0,-.27777777,0,116.22222)" d="M 8.39844 11.1992 L 406.90644 11.1992 L 406.90644 409.70719 L 8.39844 409.70719 Z "/>
</clipPath>
<g clip-path="url(#cp3)">
<path transform="matrix(.27777777,0,0,-.27777777,0,116.22222)" stroke-width="6.97385" stroke-linecap="butt" stroke-miterlimit="10" stroke-linejoin="miter" fill="none" stroke="#ffffff" d="M 157.84 399.742 L 257.465 399.742 L 257.465 361.887 L 157.84 361.887 L 157.84 399.742 Z "/>
</g>
<clipPath id="cp4">
<path transform="matrix(.27777777,0,0,-.27777777,0,116.22222)" d="M 229.383 347.934 L 229.383 347.934 L 228.164 349.383 L 223.863 353.207 L 217.406 357.121 L 210.258 359.551 L 204.566 360.391 L 202.672 360.391 L 200.773 360.391 L 195.082 359.551 L 187.934 357.121 L 181.477 353.207 L 177.176 349.383 L 175.961 347.934 Z "/>
</clipPath>
<g clip-path="url(#cp4)">
<path transform="matrix(.27777777,0,0,-.27777777,0,116.22222)" d="M 175.961 347.934 L 229.3829 347.934 L 229.3829 360.391 L 175.961 360.391 Z "/>
</g>
<clipPath id="cp5">
<path transform="matrix(.27777777,0,0,-.27777777,0,116.22222)" d="M 243.52 326.02 L 161.824 318.051 Z "/>
</clipPath>
<g clip-path="url(#cp5)">
<path transform="matrix(.27777777,0,0,-.27777777,0,116.22222)" d="M 161.824 318.051 L 243.5193 318.051 L 243.5193 326.01976 L 161.824 326.01976 Z "/>
</g>
<clipPath id="cp6">
<path transform="matrix(.27777777,0,0,-.27777777,0,116.22222)" d="M 8.39844 11.1992 L 406.90644 11.1992 L 406.90644 409.70719 L 8.39844 409.70719 Z "/>
</clipPath>
<g clip-path="url(#cp6)">
<path transform="matrix(.27777777,0,0,-.27777777,0,116.22222)" stroke-width="6.97385" stroke-linecap="butt" stroke-miterlimit="10" stroke-linejoin="miter" fill="none" stroke="#000000" d="M 243.52 326.02 L 161.824 318.051 Z "/>
</g>
<clipPath id="cp7">
<path transform="matrix(.27777777,0,0,-.27777777,0,116.22222)" d="M 243.52 312.07 L 161.824 304.102 Z "/>
</clipPath>
<g clip-path="url(#cp7)">
<path transform="matrix(.27777777,0,0,-.27777777,0,116.22222)" d="M 161.824 304.102 L 243.5193 304.102 L 243.5193 312.07075 L 161.824 312.07075 Z "/>
</g>
<clipPath id="cp8">
<path transform="matrix(.27777777,0,0,-.27777777,0,116.22222)" d="M 8.39844 11.1992 L 406.90644 11.1992 L 406.90644 409.70719 L 8.39844 409.70719 Z "/>
</clipPath>
<g clip-path="url(#cp8)">
<path transform="matrix(.27777777,0,0,-.27777777,0,116.22222)" stroke-width="6.97385" stroke-linecap="butt" stroke-miterlimit="10" stroke-linejoin="miter" fill="none" stroke="#000000" d="M 243.52 312.07 L 161.824 304.102 Z "/>
</g>
<clipPath id="cp9">
<path transform="matrix(.27777777,0,0,-.27777777,0,116.22222)" d="M 243.52 298.125 L 161.824 290.152 Z "/>
</clipPath>
<g clip-path="url(#cp9)">
<path transform="matrix(.27777777,0,0,-.27777777,0,116.22222)" d="M 161.824 290.152 L 243.5193 290.152 L 243.5193 298.12467 L 161.824 298.12467 Z "/>
</g>
<clipPath id="cp10">
<path transform="matrix(.27777777,0,0,-.27777777,0,116.22222)" d="M 8.39844 11.1992 L 406.90644 11.1992 L 406.90644 409.70719 L 8.39844 409.70719 Z "/>
</clipPath>
<g clip-path="url(#cp10)">
<path transform="matrix(.27777777,0,0,-.27777777,0,116.22222)" stroke-width="6.97385" stroke-linecap="butt" stroke-miterlimit="10" stroke-linejoin="miter" fill="none" stroke="#000000" d="M 243.52 298.125 L 161.824 290.152 Z "/>
</g>
</g>
</svg>
