<?xml version="1.0" encoding="UTF-8" standalone="no"?>
<!DOCTYPE svg PUBLIC "-//W3C//DTD SVG 1.1//EN" "http://www.w3.org/Graphics/SVG/1.1/DTD/svg11.dtd">
<svg xmlns="http://www.w3.org/2000/svg" xmlns:xlink="http://www.w3.org/1999/xlink" version="1.1" width="1383.6945pt" height="276.74998pt" viewBox="0 0 1383.6945 276.74998">
<g enable-background="new">
<symbol id="font_0_1">
<path d="M .11 .074 C .100999999 .039 .09900001 .029000001 .029000003 .029000001 C .010000002 .029000001 0 .029000001 0 .011000001 C 0 0 .006000001 0 .026000005 0 L .34300003 0 C .545 0 .74200007 .209 .74200007 .432 C .74200007 .57600006 .656 .683 .513 .683 L .192 .683 C .17300001 .683 .164 .683 .164 .66400006 C .164 .65400007 .17300001 .65400007 .18800001 .65400007 C .249 .65400007 .249 .646 .249 .63500007 C .249 .633 .249 .62700006 .24500002 .61200007 L .11 .074 M .32100005 .615 C .33 .652 .33400003 .65400007 .37300004 .65400007 L .48300005 .65400007 C .577 .65400007 .66300007 .60300007 .66300007 .46500004 C .66300007 .41500003 .64300009 .24100001 .54600009 .13100001 C .518 .098000008 .44200004 .029000001 .32700003 .029000001 L .21300002 .029000001 C .199 .029000001 .19700001 .029000001 .191 .030000002 C .18 .031000002 .179 .033 .179 .041 C .179 .048 .18100001 .054 .183 .063 L .32100005 .615 Z "/>
</symbol>
<use xlink:href="#font_0_1" transform="matrix(33.20889,0,0,-33.20889,22.561263,48.749696)"/>
<symbol id="font_1_2">
<path d="M .21800001 .637 C .21800001 .66400006 .216 .665 .18900003 .665 C .14800002 .625 .09500001 .601 0 .601 L 0 .568 C .027000003 .568 .081 .568 .13900002 .595 L .13900002 .082 C .13900002 .045 .136 .033 .04100001 .033 L .0060000049 .033 L .0060000049 0 C .047000007 .003 .13300002 .003 .17800002 .003 C .223 .003 .31 .003 .351 0 L .351 .033 L .31600005 .033 C .221 .033 .21800001 .045 .21800001 .082 L .21800001 .637 Z "/>
</symbol>
<symbol id="font_1_1">
<path d="M .448 .34 C .448 .44700004 .437 .512 .404 .57600006 C .36 .66400006 .279 .68600007 .224 .68600007 C .09800001 .68600007 .052 .59200009 .038000004 .56400009 C .0020000004 .49100004 0 .39200003 0 .34 C 0 .27400003 .0030000024 .17300001 .051000008 .09300001 C .09700001 .019000002 .171 0 .224 0 C .272 0 .358 .0150000019 .40800003 .11400001 C .44500003 .186 .448 .275 .448 .34 M .224 .028 C .19 .028 .121 .044000005 .1 .149 C .08900001 .206 .08900001 .3 .08900001 .35200004 C .08900001 .421 .08900001 .49100004 .1 .54600009 C .121 .64800009 .199 .65800008 .224 .65800008 C .25800003 .65800008 .32700003 .64100006 .347 .5500001 C .359 .49500004 .359 .42000003 .359 .35200004 C .359 .293 .359 .20300001 .347 .147 C .326 .042000005 .257 .028 .224 .028 Z "/>
</symbol>
<use xlink:href="#font_1_2" transform="matrix(22.139193,0,0,-22.139193,50.125585,53.74971)"/>
<use xlink:href="#font_1_1" transform="matrix(22.139193,0,0,-22.139193,60.574594,54.214635)"/>
<use xlink:href="#font_1_1" transform="matrix(22.139193,0,0,-22.139193,72.24126,54.214635)"/>
<symbol id="font_2_7">
<path d="M .621 .18599999 C .635 .18599999 .653 .18599999 .653 .204 C .653 .22300002 .63600006 .22300002 .621 .22300002 L .032 .22300002 C .018000003 .22300002 0 .22300002 0 .20500002 C 0 .18599999 .017 .18599999 .032 .18599999 L .621 .18599999 M .621 0 C .635 0 .653 0 .653 .017999992 C .653 .037 .63600006 .037 .621 .037 L .032 .037 C .018000003 .037 0 .037 0 .018999994 C 0 0 .017 0 .032 0 L .621 0 Z "/>
</symbol>
<symbol id="font_2_a">
<path d="M .19700001 .64100006 C .19700001 .66400006 .19700001 .665 .177 .665 C .15300001 .638 .103 .601 0 .601 L 0 .572 C .023000002 .572 .073 .572 .128 .59800007 L .128 .07700001 C .128 .041 .125 .029000001 .037 .029000001 L .0059999974 .029000001 L .0059999974 0 C .033 .002 .13000001 .002 .163 .002 C .196 .002 .292 .002 .319 0 L .319 .029000001 L .288 .029000001 C .2 .029000001 .19700001 .041 .19700001 .07700001 L .19700001 .64100006 Z "/>
</symbol>
<symbol id="font_2_8">
<path d="M .34500004 .30800004 L .621 .30800004 C .635 .30800004 .653 .30800004 .653 .32600004 C .653 .34500004 .63600006 .34500004 .621 .34500004 L .34500004 .34500004 L .34500004 .62100008 C .34500004 .63500007 .34500004 .65300008 .32700003 .65300008 C .30800004 .65300008 .30800004 .63600006 .30800004 .62100008 L .30800004 .34500004 L .032 .34500004 C .018000003 .34500004 0 .34500004 0 .32700003 C 0 .30800004 .017 .30800004 .032 .30800004 L .30800004 .30800004 L .30800004 .032000007 C .30800004 .018000003 .30800004 0 .32600004 0 C .34500004 0 .34500004 .017000005 .34500004 .032000007 L .34500004 .30800004 Z "/>
</symbol>
<symbol id="font_2_b">
<path d="M .39100004 .16800002 L .36900003 .16800002 C .36600004 .15100001 .358 .096 .34800003 .080000009 C .34100003 .071 .284 .071 .254 .071 L .069000009 .071 C .09600001 .094000007 .157 .158 .183 .18200001 C .335 .32200004 .39100004 .374 .39100004 .47300003 C .39100004 .588 .3 .665 .18400002 .665 C .068 .665 0 .56600007 0 .48000003 C 0 .42900003 .044 .42900003 .047 .42900003 C .068 .42900003 .094000007 .44400005 .094000007 .476 C .094000007 .504 .075 .523 .047 .523 C .038000004 .523 .036 .523 .033 .522 C .052 .59000006 .106 .63600006 .171 .63600006 C .256 .63600006 .30800004 .565 .30800004 .47300003 C .30800004 .388 .25900004 .314 .20200002 .25 L 0 .024 L 0 0 L .36500005 0 L .39100004 .16800002 Z "/>
</symbol>
<symbol id="font_2_c">
<path d="M .143 .38000003 C .12600002 .379 .122 .37800003 .122 .36900003 C .122 .35900004 .127 .35900004 .14500001 .35900004 L .19100002 .35900004 C .276 .35900004 .314 .289 .314 .193 C .314 .062000004 .24599999 .027000003 .197 .027000003 C .14900002 .027000003 .067 .050000006 .038000004 .11600001 C .07000001 .111 .099 .12900001 .099 .165 C .099 .194 .078 .214 .050000006 .214 C .026 .214 0 .2 0 .162 C 0 .073 .08900001 0 .20000002 0 C .319 0 .407 .091000009 .407 .192 C .407 .284 .333 .356 .23700002 .37300004 C .324 .398 .38000003 .47100003 .38000003 .549 C .38000003 .6280001 .298 .68600007 .201 .68600007 C .101 .68600007 .027000003 .62500008 .027000003 .55200007 C .027000003 .512 .058000007 .504 .07300001 .504 C .094000007 .504 .11800001 .51900008 .11800001 .549 C .11800001 .58100005 .094000007 .595 .072000008 .595 C .06600001 .595 .064 .595 .061000006 .59400007 C .099 .66200008 .19300002 .66200008 .19800002 .66200008 C .231 .66200008 .296 .6470001 .296 .549 C .296 .53000006 .293 .474 .264 .43100003 C .234 .38700003 .20000002 .384 .17300001 .38300003 L .143 .38000003 Z "/>
</symbol>
<symbol id="font_2_1">
<path d="M .33400003 .651 C .33400003 .67 .33400003 .675 .32 .675 C .312 .675 .30900003 .675 .301 .66300007 L 0 .19600001 L 0 .16700001 L .263 .16700001 L .263 .076000008 C .263 .039 .261 .029000001 .18800001 .029000001 L .16800002 .029000001 L .16800002 0 C .19100002 .002 .27 .002 .298 .002 C .326 .002 .40600003 .002 .42900003 0 L .42900003 .029000001 L .409 .029000001 C .337 .029000001 .33400003 .039 .33400003 .076000008 L .33400003 .16700001 L .435 .16700001 L .435 .19600001 L .33400003 .19600001 L .33400003 .651 M .268 .573 L .268 .19600001 L .025 .19600001 L .268 .573 Z "/>
</symbol>
<symbol id="font_2_2">
<path d="M .079 .59400007 C .122 .58000007 .157 .57900008 .16800002 .57900008 C .28100003 .57900008 .35300002 .66200008 .35300002 .67600008 C .35300002 .68000009 .351 .68500009 .34500004 .68500009 C .34300003 .68500009 .34100003 .68500009 .33200003 .68100008 C .27600003 .65700009 .22800002 .65400007 .20200002 .65400007 C .136 .65400007 .08900001 .6740001 .07 .68200007 C .063 .68500009 .061000006 .68500009 .060000004 .68500009 C .052 .68500009 .052 .6790001 .052 .66300007 L .052 .36600004 C .052 .34800003 .052 .342 .064 .342 C .069000009 .342 .07 .34300003 .080000009 .35500003 C .108 .39600004 .155 .42000003 .20500002 .42000003 C .25800003 .42000003 .284 .37100003 .29200004 .354 C .30900003 .315 .31000004 .266 .31000004 .22800002 C .31000004 .19000001 .31000004 .133 .28200004 .088 C .26000003 .052 .22100002 .027000003 .17700002 .027000003 C .11100001 .027000003 .046000005 .072000008 .028000005 .14500001 C .033 .143 .039000006 .142 .044 .142 C .061000006 .142 .08800001 .15200001 .08800001 .186 C .08800001 .214 .069000009 .23 .044 .23 C .026 .23 0 .221 0 .18200001 C 0 .097 .068 0 .17900002 0 C .29200004 0 .39100004 .095 .39100004 .222 C .39100004 .34100003 .31100003 .44000004 .20600003 .44000004 C .14900002 .44000004 .10500001 .41500003 .079 .38700003 L .079 .59400007 Z "/>
</symbol>
<symbol id="font_2_3">
<path d="M .082 .36900003 C .082 .62200006 .20500002 .66200008 .259 .66200008 C .29500003 .66200008 .331 .6510001 .35000003 .62100008 C .338 .62100008 .3 .62100008 .3 .58000007 C .3 .558 .315 .53900006 .34100003 .53900006 C .366 .53900006 .38300003 .5540001 .38300003 .58300009 C .38300003 .63500007 .345 .68600007 .25800003 .68600007 C .132 .68600007 0 .55700007 0 .337 C 0 .062000004 .12000001 0 .20500002 0 C .314 0 .407 .095 .407 .22500001 C .407 .358 .314 .44700004 .21400002 .44700004 C .125 .44700004 .092 .37 .082 .342 L .082 .36900003 M .20500002 .027000003 C .14200002 .027000003 .11200001 .083000008 .10300001 .104 C .094000007 .13000001 .084 .179 .084 .24900002 C .084 .328 .12000001 .42700003 .21000001 .42700003 C .26500003 .42700003 .294 .39000003 .30900003 .356 C .32500003 .319 .32500003 .26900003 .32500003 .22600001 C .32500003 .17500001 .32500003 .13000001 .306 .09200001 C .28100003 .044000005 .245 .027000003 .20500002 .027000003 Z "/>
</symbol>
<symbol id="font_2_4">
<path d="M .42100004 .6420001 L .42100004 .6650001 L .18 .6650001 C .059000005 .6650001 .057000009 .67800006 .053000008 .6970001 L .031 .6970001 L 0 .497 L .022000004 .497 C .025000003 .51500007 .034000007 .5770001 .047000003 .58800008 C .055000005 .59400007 .13000001 .59400007 .14400001 .59400007 L .35600005 .59400007 L .25000004 .44200004 C .223 .40300004 .12200001 .23900001 .12200001 .051000004 C .12200001 .040000004 .12200001 0 .163 0 C .205 0 .205 .039000006 .205 .052 L .205 .102 C .205 .25100003 .22900002 .367 .27600003 .43400003 L .42100004 .6420001 Z "/>
</symbol>
<symbol id="font_2_5">
<path d="M .257 .38200004 C .307 .409 .38000003 .455 .38000003 .53900006 C .38000003 .62600007 .296 .68600007 .204 .68600007 C .10500001 .68600007 .027000003 .61300006 .027000003 .5220001 C .027000003 .488 .037 .45400004 .065000008 .42000003 C .076000008 .407 .07700001 .40600003 .14700002 .35700003 C .050000006 .312 0 .245 0 .172 C 0 .066 .101 0 .20300001 0 C .314 0 .407 .082 .407 .187 C .407 .289 .335 .33400003 .257 .38200004 M .121 .47200004 C .108 .481 .068 .507 .068 .55600008 C .068 .62100008 .136 .66200008 .20300001 .66200008 C .275 .66200008 .33900003 .6100001 .33900003 .53800007 C .33900003 .47700004 .29500003 .428 .23700002 .39600004 L .121 .47200004 M .16800002 .34300003 L .289 .26400004 C .315 .24700001 .361 .216 .361 .155 C .361 .079 .284 .027000003 .204 .027000003 C .11900001 .027000003 .046000005 .089 .046000005 .172 C .046000005 .25000004 .10300001 .31300003 .16800002 .34300003 Z "/>
</symbol>
<symbol id="font_2_6">
<path d="M .32500003 .312 C .32500003 .076000008 .22 .027000003 .16 .027000003 C .136 .027000003 .083000008 .030000002 .058000007 .065000008 L .064 .065000008 C .071 .06300001 .107 .069000009 .107 .106000009 C .107 .128 .092 .147 .06600001 .147 C .04 .147 .024000004 .13000001 .024000004 .104 C .024000004 .042000005 .074 0 .16100002 0 C .286 0 .407 .133 .407 .35000003 C .407 .6190001 .29500003 .68600007 .20700002 .68600007 C .09700001 .68600007 0 .59400007 0 .462 C 0 .33 .093 .24000001 .19300002 .24000001 C .26700003 .24000001 .305 .294 .32500003 .345 L .32500003 .312 M .197 .26000003 C .134 .26000003 .107 .31100003 .09800001 .33 C .082 .368 .082 .416 .082 .46100004 C .082 .517 .082 .56500008 .108 .60600009 C .12600002 .6330001 .153 .66200008 .20700002 .66200008 C .264 .66200008 .293 .61200007 .303 .58900007 C .323 .5400001 .323 .455 .323 .44000004 C .323 .356 .285 .26000003 .197 .26000003 Z "/>
</symbol>
<symbol id="font_2_9">
<path d="M .407 .34100003 C .407 .42400003 .402 .50500008 .366 .58100005 C .32500003 .66400006 .253 .68600007 .204 .68600007 C .146 .68600007 .075 .65700009 .038000004 .57400009 C .010000002 .51100006 0 .44900004 0 .34100003 C 0 .244 .0069999995 .171 .043000007 .10000001 C .082 .024000003 .151 0 .20300001 0 C .29000003 0 .34 .052 .36900003 .11 C .405 .185 .407 .28300003 .407 .34100003 M .20300001 .020000002 C .171 .020000002 .106 .038000004 .087000008 .147 C .076000008 .207 .076000008 .28300003 .076000008 .35300002 C .076000008 .43500004 .076000008 .50900009 .092 .5680001 C .109000008 .63500007 .16 .66600009 .20300001 .66600009 C .241 .66600009 .299 .64300009 .31800003 .55700007 C .331 .50000008 .331 .421 .331 .35300002 C .331 .286 .331 .21000001 .32000003 .149 C .301 .039000006 .238 .020000002 .20300001 .020000002 Z "/>
</symbol>
<use xlink:href="#font_2_7" transform="matrix(33.20889,0,0,-33.20889,95.79295,44.166868)"/>
<use xlink:href="#font_2_a" transform="matrix(33.20889,0,0,-33.20889,131.35555,48.749696)"/>
<use xlink:href="#font_2_8" transform="matrix(33.20889,0,0,-33.20889,148.4602,51.306779)"/>
<use xlink:href="#font_2_b" transform="matrix(33.20889,0,0,-33.20889,175.62714,48.749696)"/>
<use xlink:href="#font_2_8" transform="matrix(33.20889,0,0,-33.20889,194.12657,51.306779)"/>
<use xlink:href="#font_2_c" transform="matrix(33.20889,0,0,-33.20889,221.02783,49.447084)"/>
<use xlink:href="#font_2_8" transform="matrix(33.20889,0,0,-33.20889,239.79296,51.306779)"/>
<use xlink:href="#font_2_1" transform="matrix(33.20889,0,0,-33.20889,266.2293,48.749696)"/>
<use xlink:href="#font_2_8" transform="matrix(33.20889,0,0,-33.20889,285.45933,51.306779)"/>
<use xlink:href="#font_2_2" transform="matrix(33.20889,0,0,-33.20889,312.62626,49.447084)"/>
<use xlink:href="#font_2_8" transform="matrix(33.20889,0,0,-33.20889,331.12565,51.306779)"/>
<use xlink:href="#font_2_3" transform="matrix(33.20889,0,0,-33.20889,358.0269,49.447084)"/>
<use xlink:href="#font_2_8" transform="matrix(33.20889,0,0,-33.20889,376.4589,51.306779)"/>
<use xlink:href="#font_2_4" transform="matrix(33.20889,0,0,-33.20889,403.45875,49.447084)"/>
<use xlink:href="#font_2_8" transform="matrix(33.20889,0,0,-33.20889,421.79216,51.306779)"/>
<use xlink:href="#font_2_5" transform="matrix(33.20889,0,0,-33.20889,448.36033,49.447084)"/>
<use xlink:href="#font_2_8" transform="matrix(33.20889,0,0,-33.20889,467.12544,51.306779)"/>
<use xlink:href="#font_2_6" transform="matrix(33.20889,0,0,-33.20889,493.69358,49.447084)"/>
<use xlink:href="#font_2_8" transform="matrix(33.20889,0,0,-33.20889,512.1256,51.306779)"/>
<use xlink:href="#font_2_a" transform="matrix(33.20889,0,0,-33.20889,540.68728,48.749696)"/>
<use xlink:href="#font_2_9" transform="matrix(33.20889,0,0,-33.20889,555.0273,49.447084)"/>
<use xlink:href="#font_2_8" transform="matrix(33.20889,0,0,-33.20889,573.7924,51.306779)"/>
<use xlink:href="#font_2_a" transform="matrix(33.20889,0,0,-33.20889,602.02108,48.749696)"/>
<use xlink:href="#font_2_a" transform="matrix(33.20889,0,0,-33.20889,618.3545,48.749696)"/>
<use xlink:href="#font_2_8" transform="matrix(33.20889,0,0,-33.20889,635.1262,51.306779)"/>
<use xlink:href="#font_2_a" transform="matrix(33.20889,0,0,-33.20889,663.688,48.749696)"/>
<use xlink:href="#font_2_b" transform="matrix(33.20889,0,0,-33.20889,678.29379,48.749696)"/>
<use xlink:href="#font_2_8" transform="matrix(33.20889,0,0,-33.20889,696.7932,51.306779)"/>
<use xlink:href="#font_2_a" transform="matrix(33.20889,0,0,-33.20889,725.0218,48.749696)"/>
<use xlink:href="#font_2_c" transform="matrix(33.20889,0,0,-33.20889,739.69479,49.447084)"/>
<use xlink:href="#font_2_8" transform="matrix(33.20889,0,0,-33.20889,758.127,51.306779)"/>
<use xlink:href="#font_2_a" transform="matrix(33.20889,0,0,-33.20889,786.6887,48.749696)"/>
<use xlink:href="#font_2_1" transform="matrix(33.20889,0,0,-33.20889,800.5639,48.749696)"/>
<use xlink:href="#font_2_8" transform="matrix(33.20889,0,0,-33.20889,819.79397,51.306779)"/>
<use xlink:href="#font_2_a" transform="matrix(33.20889,0,0,-33.20889,848.0225,48.749696)"/>
<use xlink:href="#font_2_2" transform="matrix(33.20889,0,0,-33.20889,862.9612,49.447084)"/>
<use xlink:href="#font_2_8" transform="matrix(33.20889,0,0,-33.20889,881.12777,51.306779)"/>
<use xlink:href="#font_2_a" transform="matrix(33.20889,0,0,-33.20889,909.6895,48.749696)"/>
<use xlink:href="#font_2_3" transform="matrix(33.20889,0,0,-33.20889,924.02957,49.447084)"/>
<use xlink:href="#font_2_8" transform="matrix(33.20889,0,0,-33.20889,942.7947,51.306779)"/>
<use xlink:href="#font_2_a" transform="matrix(33.20889,0,0,-33.20889,971.0233,48.749696)"/>
<use xlink:href="#font_2_4" transform="matrix(33.20889,0,0,-33.20889,986.128,49.447084)"/>
<use xlink:href="#font_2_8" transform="matrix(33.20889,0,0,-33.20889,1004.1285,51.306779)"/>
<use xlink:href="#font_2_a" transform="matrix(33.20889,0,0,-33.20889,1032.6902,48.749696)"/>
<use xlink:href="#font_2_5" transform="matrix(33.20889,0,0,-33.20889,1047.0303,49.447084)"/>
<use xlink:href="#font_2_8" transform="matrix(33.20889,0,0,-33.20889,1065.7955,51.306779)"/>
<use xlink:href="#font_2_a" transform="matrix(33.20889,0,0,-33.20889,1094.024,48.749696)"/>
<use xlink:href="#font_2_6" transform="matrix(33.20889,0,0,-33.20889,1108.697,49.447084)"/>
<use xlink:href="#font_2_8" transform="matrix(33.20889,0,0,-33.20889,1127.1293,51.306779)"/>
<use xlink:href="#font_2_b" transform="matrix(33.20889,0,0,-33.20889,1154.2962,48.749696)"/>
<use xlink:href="#font_2_9" transform="matrix(33.20889,0,0,-33.20889,1170.0309,49.447084)"/>
<use xlink:href="#font_2_8" transform="matrix(33.20889,0,0,-33.20889,1188.793,51.306779)"/>
<use xlink:href="#font_2_b" transform="matrix(33.20889,0,0,-33.20889,1215.6266,48.749696)"/>
<use xlink:href="#font_2_a" transform="matrix(33.20889,0,0,-33.20889,1233.3546,48.749696)"/>
<use xlink:href="#font_2_8" transform="matrix(33.20889,0,0,-33.20889,1250.1265,51.306779)"/>
<use xlink:href="#font_2_b" transform="matrix(33.20889,0,0,-33.20889,1277.2933,48.749696)"/>
<use xlink:href="#font_2_b" transform="matrix(33.20889,0,0,-33.20889,1293.2937,48.749696)"/>
<use xlink:href="#font_2_8" transform="matrix(33.20889,0,0,-33.20889,1311.7932,51.306779)"/>
<use xlink:href="#font_2_b" transform="matrix(33.20889,0,0,-33.20889,1338.6268,48.749696)"/>
<use xlink:href="#font_2_c" transform="matrix(33.20889,0,0,-33.20889,1354.6945,49.447084)"/>
<use xlink:href="#font_2_8" transform="matrix(33.20889,0,0,-33.20889,132.1263,99.97316)"/>
<use xlink:href="#font_2_b" transform="matrix(33.20889,0,0,-33.20889,159.29325,97.41608)"/>
<use xlink:href="#font_2_1" transform="matrix(33.20889,0,0,-33.20889,174.89601,97.41608)"/>
<use xlink:href="#font_2_8" transform="matrix(33.20889,0,0,-33.20889,194.12625,99.97316)"/>
<use xlink:href="#font_2_b" transform="matrix(33.20889,0,0,-33.20889,221.29322,97.41608)"/>
<use xlink:href="#font_2_2" transform="matrix(33.20889,0,0,-33.20889,237.62657,98.113468)"/>
<use xlink:href="#font_2_8" transform="matrix(33.20889,0,0,-33.20889,256.12623,99.97316)"/>
<use xlink:href="#font_2_b" transform="matrix(33.20889,0,0,-33.20889,283.29316,97.41608)"/>
<use xlink:href="#font_2_3" transform="matrix(33.20889,0,0,-33.20889,299.36088,98.113468)"/>
<use xlink:href="#font_2_8" transform="matrix(33.20889,0,0,-33.20889,318.12614,99.97316)"/>
<use xlink:href="#font_2_b" transform="matrix(33.20889,0,0,-33.20889,345.29307,97.41608)"/>
<use xlink:href="#font_2_4" transform="matrix(33.20889,0,0,-33.20889,361.79249,98.113468)"/>
<use xlink:href="#font_2_8" transform="matrix(33.20889,0,0,-33.20889,380.12608,99.97316)"/>
<use xlink:href="#font_2_b" transform="matrix(33.20889,0,0,-33.20889,406.9599,97.41608)"/>
<use xlink:href="#font_2_5" transform="matrix(33.20889,0,0,-33.20889,423.02766,98.113468)"/>
<use xlink:href="#font_2_8" transform="matrix(33.20889,0,0,-33.20889,441.45985,99.97316)"/>
<use xlink:href="#font_2_b" transform="matrix(33.20889,0,0,-33.20889,468.62675,97.41608)"/>
<use xlink:href="#font_2_6" transform="matrix(33.20889,0,0,-33.20889,484.36158,98.113468)"/>
<use xlink:href="#font_2_8" transform="matrix(33.20889,0,0,-33.20889,503.12666,99.97316)"/>
<use xlink:href="#font_2_c" transform="matrix(33.20889,0,0,-33.20889,529.6948,98.113468)"/>
<use xlink:href="#font_2_9" transform="matrix(33.20889,0,0,-33.20889,546.0282,98.113468)"/>
<use xlink:href="#font_2_8" transform="matrix(33.20889,0,0,-33.20889,564.46047,99.97316)"/>
<use xlink:href="#font_2_c" transform="matrix(33.20889,0,0,-33.20889,591.3617,98.113468)"/>
<use xlink:href="#font_2_a" transform="matrix(33.20889,0,0,-33.20889,609.0227,97.41608)"/>
<use xlink:href="#font_2_8" transform="matrix(33.20889,0,0,-33.20889,626.1274,99.97316)"/>
<use xlink:href="#font_2_c" transform="matrix(33.20889,0,0,-33.20889,652.6955,98.113468)"/>
<use xlink:href="#font_2_b" transform="matrix(33.20889,0,0,-33.20889,669.2946,97.41608)"/>
<use xlink:href="#font_2_8" transform="matrix(33.20889,0,0,-33.20889,687.4611,99.97316)"/>
<use xlink:href="#font_2_c" transform="matrix(33.20889,0,0,-33.20889,714.3624,98.113468)"/>
<use xlink:href="#font_2_c" transform="matrix(33.20889,0,0,-33.20889,730.363,98.113468)"/>
<use xlink:href="#font_2_8" transform="matrix(33.20889,0,0,-33.20889,749.1281,99.97316)"/>
<use xlink:href="#font_2_c" transform="matrix(33.20889,0,0,-33.20889,775.6963,98.113468)"/>
<use xlink:href="#font_2_1" transform="matrix(33.20889,0,0,-33.20889,791.56478,97.41608)"/>
<use xlink:href="#font_2_8" transform="matrix(33.20889,0,0,-33.20889,810.4619,99.97316)"/>
<use xlink:href="#font_2_c" transform="matrix(33.20889,0,0,-33.20889,837.3632,98.113468)"/>
<use xlink:href="#font_2_2" transform="matrix(33.20889,0,0,-33.20889,853.62948,98.113468)"/>
<use xlink:href="#font_2_8" transform="matrix(33.20889,0,0,-33.20889,872.1289,99.97316)"/>
<use xlink:href="#font_2_c" transform="matrix(33.20889,0,0,-33.20889,898.697,98.113468)"/>
<use xlink:href="#font_2_3" transform="matrix(33.20889,0,0,-33.20889,915.03048,98.113468)"/>
<use xlink:href="#font_2_8" transform="matrix(33.20889,0,0,-33.20889,933.4627,99.97316)"/>
<use xlink:href="#font_2_c" transform="matrix(33.20889,0,0,-33.20889,960.36398,98.113468)"/>
<use xlink:href="#font_2_4" transform="matrix(33.20889,0,0,-33.20889,976.7962,98.113468)"/>
<use xlink:href="#font_2_8" transform="matrix(33.20889,0,0,-33.20889,995.12966,99.97316)"/>
<use xlink:href="#font_2_c" transform="matrix(33.20889,0,0,-33.20889,1021.69778,98.113468)"/>
<use xlink:href="#font_2_5" transform="matrix(33.20889,0,0,-33.20889,1038.0313,98.113468)"/>
<use xlink:href="#font_2_8" transform="matrix(33.20889,0,0,-33.20889,1056.4635,99.97316)"/>
<use xlink:href="#font_2_c" transform="matrix(33.20889,0,0,-33.20889,1083.3648,98.113468)"/>
<use xlink:href="#font_2_6" transform="matrix(33.20889,0,0,-33.20889,1099.3652,98.113468)"/>
<use xlink:href="#font_2_8" transform="matrix(33.20889,0,0,-33.20889,1118.1305,99.97316)"/>
<use xlink:href="#font_2_1" transform="matrix(33.20889,0,0,-33.20889,1144.2335,97.41608)"/>
<use xlink:href="#font_2_9" transform="matrix(33.20889,0,0,-33.20889,1161.0317,98.113468)"/>
<use xlink:href="#font_2_8" transform="matrix(33.20889,0,0,-33.20889,1179.4597,99.97316)"/>
<use xlink:href="#font_2_1" transform="matrix(33.20889,0,0,-33.20889,1205.5628,97.41608)"/>
<use xlink:href="#font_2_a" transform="matrix(33.20889,0,0,-33.20889,1224.0214,97.41608)"/>
<use xlink:href="#font_2_8" transform="matrix(33.20889,0,0,-33.20889,1241.1264,99.97316)"/>
<use xlink:href="#font_2_1" transform="matrix(33.20889,0,0,-33.20889,1267.2294,97.41608)"/>
<use xlink:href="#font_2_b" transform="matrix(33.20889,0,0,-33.20889,1284.2932,97.41608)"/>
<use xlink:href="#font_2_8" transform="matrix(33.20889,0,0,-33.20889,1302.4598,99.97316)"/>
<use xlink:href="#font_2_1" transform="matrix(33.20889,0,0,-33.20889,1328.5629,97.41608)"/>
<use xlink:href="#font_2_c" transform="matrix(33.20889,0,0,-33.20889,1345.3611,98.113468)"/>
<use xlink:href="#font_2_8" transform="matrix(33.20889,0,0,-33.20889,132.1263,148.64067)"/>
<use xlink:href="#font_2_1" transform="matrix(33.20889,0,0,-33.20889,158.56264,146.08359)"/>
<use xlink:href="#font_2_1" transform="matrix(33.20889,0,0,-33.20889,174.89601,146.08359)"/>
<use xlink:href="#font_2_8" transform="matrix(33.20889,0,0,-33.20889,194.12625,148.64067)"/>
<use xlink:href="#font_2_1" transform="matrix(33.20889,0,0,-33.20889,220.5626,146.08359)"/>
<use xlink:href="#font_2_2" transform="matrix(33.20889,0,0,-33.20889,237.62657,146.78098)"/>
<use xlink:href="#font_2_8" transform="matrix(33.20889,0,0,-33.20889,256.12623,148.64067)"/>
<use xlink:href="#font_2_1" transform="matrix(33.20889,0,0,-33.20889,282.56257,146.08359)"/>
<use xlink:href="#font_2_3" transform="matrix(33.20889,0,0,-33.20889,299.36088,146.78098)"/>
<use xlink:href="#font_2_8" transform="matrix(33.20889,0,0,-33.20889,318.12614,148.64067)"/>
<use xlink:href="#font_2_1" transform="matrix(33.20889,0,0,-33.20889,344.56248,146.08359)"/>
<use xlink:href="#font_2_4" transform="matrix(33.20889,0,0,-33.20889,361.79249,146.78098)"/>
<use xlink:href="#font_2_8" transform="matrix(33.20889,0,0,-33.20889,380.12608,148.64067)"/>
<use xlink:href="#font_2_1" transform="matrix(33.20889,0,0,-33.20889,406.2293,146.08359)"/>
<use xlink:href="#font_2_5" transform="matrix(33.20889,0,0,-33.20889,423.02766,146.78098)"/>
<use xlink:href="#font_2_8" transform="matrix(33.20889,0,0,-33.20889,441.45985,148.64067)"/>
<use xlink:href="#font_2_1" transform="matrix(33.20889,0,0,-33.20889,467.89616,146.08359)"/>
<use xlink:href="#font_2_6" transform="matrix(33.20889,0,0,-33.20889,484.36158,146.78098)"/>
<use xlink:href="#font_2_8" transform="matrix(33.20889,0,0,-33.20889,503.12666,148.64067)"/>
<use xlink:href="#font_2_2" transform="matrix(33.20889,0,0,-33.20889,529.9605,146.78098)"/>
<use xlink:href="#font_2_9" transform="matrix(33.20889,0,0,-33.20889,546.0282,146.78098)"/>
<use xlink:href="#font_2_8" transform="matrix(33.20889,0,0,-33.20889,564.46047,148.64067)"/>
<use xlink:href="#font_2_2" transform="matrix(33.20889,0,0,-33.20889,591.6274,146.78098)"/>
<use xlink:href="#font_2_a" transform="matrix(33.20889,0,0,-33.20889,609.0227,146.08359)"/>
<use xlink:href="#font_2_8" transform="matrix(33.20889,0,0,-33.20889,626.1274,148.64067)"/>
<use xlink:href="#font_2_2" transform="matrix(33.20889,0,0,-33.20889,652.9612,146.78098)"/>
<use xlink:href="#font_2_b" transform="matrix(33.20889,0,0,-33.20889,669.2946,146.08359)"/>
<use xlink:href="#font_2_8" transform="matrix(33.20889,0,0,-33.20889,687.4611,148.64067)"/>
<use xlink:href="#font_2_2" transform="matrix(33.20889,0,0,-33.20889,714.6281,146.78098)"/>
<use xlink:href="#font_2_c" transform="matrix(33.20889,0,0,-33.20889,730.363,146.78098)"/>
<use xlink:href="#font_2_8" transform="matrix(33.20889,0,0,-33.20889,749.1281,148.64067)"/>
<use xlink:href="#font_2_2" transform="matrix(33.20889,0,0,-33.20889,775.962,146.78098)"/>
<use xlink:href="#font_2_c" transform="matrix(33.20889,0,0,-33.20889,792.02969,146.78098)"/>
<use xlink:href="#font_2_8" transform="matrix(33.20889,0,0,-33.20889,810.4619,148.64067)"/>
<use xlink:href="#font_2_2" transform="matrix(33.20889,0,0,-33.20889,837.6289,146.78098)"/>
<use xlink:href="#font_2_1" transform="matrix(33.20889,0,0,-33.20889,852.89889,146.08359)"/>
<use xlink:href="#font_2_8" transform="matrix(33.20889,0,0,-33.20889,872.1289,148.64067)"/>
<use xlink:href="#font_2_2" transform="matrix(33.20889,0,0,-33.20889,898.9627,146.78098)"/>
<use xlink:href="#font_2_2" transform="matrix(33.20889,0,0,-33.20889,915.29617,146.78098)"/>
<use xlink:href="#font_2_8" transform="matrix(33.20889,0,0,-33.20889,933.4627,148.64067)"/>
<use xlink:href="#font_2_2" transform="matrix(33.20889,0,0,-33.20889,960.62966,146.78098)"/>
<use xlink:href="#font_2_3" transform="matrix(33.20889,0,0,-33.20889,976.3645,146.78098)"/>
<use xlink:href="#font_2_8" transform="matrix(33.20889,0,0,-33.20889,995.12966,148.64067)"/>
<use xlink:href="#font_2_2" transform="matrix(33.20889,0,0,-33.20889,1021.96347,146.78098)"/>
<use xlink:href="#font_2_4" transform="matrix(33.20889,0,0,-33.20889,1038.463,146.78098)"/>
<use xlink:href="#font_2_8" transform="matrix(33.20889,0,0,-33.20889,1056.4635,148.64067)"/>
<use xlink:href="#font_2_2" transform="matrix(33.20889,0,0,-33.20889,1083.6304,146.78098)"/>
<use xlink:href="#font_2_5" transform="matrix(33.20889,0,0,-33.20889,1099.3652,146.78098)"/>
<use xlink:href="#font_2_8" transform="matrix(33.20889,0,0,-33.20889,1118.1305,148.64067)"/>
<use xlink:href="#font_2_2" transform="matrix(33.20889,0,0,-33.20889,1144.9641,146.78098)"/>
<use xlink:href="#font_2_6" transform="matrix(33.20889,0,0,-33.20889,1161.0317,146.78098)"/>
<use xlink:href="#font_2_8" transform="matrix(33.20889,0,0,-33.20889,1179.4597,148.64067)"/>
<use xlink:href="#font_2_2" transform="matrix(33.20889,0,0,-33.20889,1206.2933,146.78098)"/>
<use xlink:href="#font_2_6" transform="matrix(33.20889,0,0,-33.20889,1222.361,146.78098)"/>
<use xlink:href="#font_2_8" transform="matrix(33.20889,0,0,-33.20889,1241.1264,148.64067)"/>
<use xlink:href="#font_2_3" transform="matrix(33.20889,0,0,-33.20889,1267.6943,146.78098)"/>
<use xlink:href="#font_2_9" transform="matrix(33.20889,0,0,-33.20889,1284.0276,146.78098)"/>
<use xlink:href="#font_2_8" transform="matrix(33.20889,0,0,-33.20889,1302.4598,148.64067)"/>
<use xlink:href="#font_2_3" transform="matrix(33.20889,0,0,-33.20889,1329.0278,146.78098)"/>
<use xlink:href="#font_2_a" transform="matrix(33.20889,0,0,-33.20889,1347.0215,146.08359)"/>
<use xlink:href="#font_2_8" transform="matrix(33.20889,0,0,-33.20889,132.1263,197.30706)"/>
<use xlink:href="#font_2_3" transform="matrix(33.20889,0,0,-33.20889,159.02756,195.44736)"/>
<use xlink:href="#font_2_b" transform="matrix(33.20889,0,0,-33.20889,175.62662,194.74997)"/>
<use xlink:href="#font_2_8" transform="matrix(33.20889,0,0,-33.20889,194.12625,197.30706)"/>
<use xlink:href="#font_2_3" transform="matrix(33.20889,0,0,-33.20889,221.02753,195.44736)"/>
<use xlink:href="#font_2_c" transform="matrix(33.20889,0,0,-33.20889,237.36089,195.44736)"/>
<use xlink:href="#font_2_8" transform="matrix(33.20889,0,0,-33.20889,256.12623,197.30706)"/>
<use xlink:href="#font_2_3" transform="matrix(33.20889,0,0,-33.20889,283.0275,195.44736)"/>
<use xlink:href="#font_2_1" transform="matrix(33.20889,0,0,-33.20889,298.89595,194.74997)"/>
<use xlink:href="#font_2_8" transform="matrix(33.20889,0,0,-33.20889,318.12614,197.30706)"/>
<use xlink:href="#font_2_3" transform="matrix(33.20889,0,0,-33.20889,345.0274,195.44736)"/>
<use xlink:href="#font_2_2" transform="matrix(33.20889,0,0,-33.20889,361.62644,195.44736)"/>
<use xlink:href="#font_2_8" transform="matrix(33.20889,0,0,-33.20889,380.12608,197.30706)"/>
<use xlink:href="#font_2_3" transform="matrix(33.20889,0,0,-33.20889,406.69425,195.44736)"/>
<use xlink:href="#font_2_3" transform="matrix(33.20889,0,0,-33.20889,423.02766,195.44736)"/>
<use xlink:href="#font_2_8" transform="matrix(33.20889,0,0,-33.20889,441.45985,197.30706)"/>
<use xlink:href="#font_2_3" transform="matrix(33.20889,0,0,-33.20889,468.36109,195.44736)"/>
<use xlink:href="#font_2_4" transform="matrix(33.20889,0,0,-33.20889,484.79328,195.44736)"/>
<use xlink:href="#font_2_8" transform="matrix(33.20889,0,0,-33.20889,503.12666,197.30706)"/>
<use xlink:href="#font_2_3" transform="matrix(33.20889,0,0,-33.20889,529.6948,195.44736)"/>
<use xlink:href="#font_2_5" transform="matrix(33.20889,0,0,-33.20889,546.0282,195.44736)"/>
<use xlink:href="#font_2_8" transform="matrix(33.20889,0,0,-33.20889,564.46047,197.30706)"/>
<use xlink:href="#font_2_3" transform="matrix(33.20889,0,0,-33.20889,591.3617,195.44736)"/>
<use xlink:href="#font_2_6" transform="matrix(33.20889,0,0,-33.20889,607.36227,195.44736)"/>
<use xlink:href="#font_2_8" transform="matrix(33.20889,0,0,-33.20889,626.1274,197.30706)"/>
<use xlink:href="#font_2_4" transform="matrix(33.20889,0,0,-33.20889,653.1272,195.44736)"/>
<use xlink:href="#font_2_9" transform="matrix(33.20889,0,0,-33.20889,669.02896,195.44736)"/>
<use xlink:href="#font_2_8" transform="matrix(33.20889,0,0,-33.20889,687.4611,197.30706)"/>
<use xlink:href="#font_2_4" transform="matrix(33.20889,0,0,-33.20889,714.7941,195.44736)"/>
<use xlink:href="#font_2_a" transform="matrix(33.20889,0,0,-33.20889,732.02346,194.74997)"/>
<use xlink:href="#font_2_8" transform="matrix(33.20889,0,0,-33.20889,749.1281,197.30706)"/>
<use xlink:href="#font_2_4" transform="matrix(33.20889,0,0,-33.20889,776.128,195.44736)"/>
<use xlink:href="#font_2_b" transform="matrix(33.20889,0,0,-33.20889,792.29537,194.74997)"/>
<use xlink:href="#font_2_8" transform="matrix(33.20889,0,0,-33.20889,810.4619,197.30706)"/>
<use xlink:href="#font_2_4" transform="matrix(33.20889,0,0,-33.20889,837.7949,195.44736)"/>
<use xlink:href="#font_2_c" transform="matrix(33.20889,0,0,-33.20889,853.3638,195.44736)"/>
<use xlink:href="#font_2_8" transform="matrix(33.20889,0,0,-33.20889,872.1289,197.30706)"/>
<use xlink:href="#font_2_4" transform="matrix(33.20889,0,0,-33.20889,899.1287,195.44736)"/>
<use xlink:href="#font_2_1" transform="matrix(33.20889,0,0,-33.20889,914.56558,194.74997)"/>
<use xlink:href="#font_2_8" transform="matrix(33.20889,0,0,-33.20889,933.4627,197.30706)"/>
<use xlink:href="#font_2_4" transform="matrix(33.20889,0,0,-33.20889,960.79568,195.44736)"/>
<use xlink:href="#font_2_2" transform="matrix(33.20889,0,0,-33.20889,976.6302,195.44736)"/>
<use xlink:href="#font_2_8" transform="matrix(33.20889,0,0,-33.20889,995.12966,197.30706)"/>
<use xlink:href="#font_2_4" transform="matrix(33.20889,0,0,-33.20889,1022.12948,195.44736)"/>
<use xlink:href="#font_2_3" transform="matrix(33.20889,0,0,-33.20889,1038.0313,195.44736)"/>
<use xlink:href="#font_2_8" transform="matrix(33.20889,0,0,-33.20889,1056.4635,197.30706)"/>
<use xlink:href="#font_2_4" transform="matrix(33.20889,0,0,-33.20889,1083.7965,195.44736)"/>
<use xlink:href="#font_2_4" transform="matrix(33.20889,0,0,-33.20889,1099.797,195.44736)"/>
<use xlink:href="#font_2_8" transform="matrix(33.20889,0,0,-33.20889,1118.1305,197.30706)"/>
<use xlink:href="#font_2_4" transform="matrix(33.20889,0,0,-33.20889,1145.1303,195.44736)"/>
<use xlink:href="#font_2_5" transform="matrix(33.20889,0,0,-33.20889,1161.0317,195.44736)"/>
<use xlink:href="#font_2_8" transform="matrix(33.20889,0,0,-33.20889,1179.4597,197.30706)"/>
<use xlink:href="#font_2_4" transform="matrix(33.20889,0,0,-33.20889,1206.4595,195.44736)"/>
<use xlink:href="#font_2_6" transform="matrix(33.20889,0,0,-33.20889,1222.361,195.44736)"/>
<use xlink:href="#font_2_8" transform="matrix(33.20889,0,0,-33.20889,1241.1264,197.30706)"/>
<use xlink:href="#font_2_5" transform="matrix(33.20889,0,0,-33.20889,1267.6943,195.44736)"/>
<use xlink:href="#font_2_9" transform="matrix(33.20889,0,0,-33.20889,1284.0276,195.44736)"/>
<use xlink:href="#font_2_8" transform="matrix(33.20889,0,0,-33.20889,1302.4598,197.30706)"/>
<use xlink:href="#font_2_5" transform="matrix(33.20889,0,0,-33.20889,1329.0278,195.44736)"/>
<use xlink:href="#font_2_a" transform="matrix(33.20889,0,0,-33.20889,1347.0215,194.74997)"/>
<use xlink:href="#font_2_8" transform="matrix(33.20889,0,0,-33.20889,132.1263,246.30649)"/>
<use xlink:href="#font_2_5" transform="matrix(33.20889,0,0,-33.20889,159.02756,244.4468)"/>
<use xlink:href="#font_2_b" transform="matrix(33.20889,0,0,-33.20889,175.62662,243.7494)"/>
<use xlink:href="#font_2_8" transform="matrix(33.20889,0,0,-33.20889,194.12625,246.30649)"/>
<use xlink:href="#font_2_5" transform="matrix(33.20889,0,0,-33.20889,221.02753,244.4468)"/>
<use xlink:href="#font_2_c" transform="matrix(33.20889,0,0,-33.20889,237.36089,244.4468)"/>
<use xlink:href="#font_2_8" transform="matrix(33.20889,0,0,-33.20889,256.12623,246.30649)"/>
<use xlink:href="#font_2_5" transform="matrix(33.20889,0,0,-33.20889,283.0275,244.4468)"/>
<use xlink:href="#font_2_1" transform="matrix(33.20889,0,0,-33.20889,298.89595,243.7494)"/>
<use xlink:href="#font_2_8" transform="matrix(33.20889,0,0,-33.20889,318.12614,246.30649)"/>
<use xlink:href="#font_2_5" transform="matrix(33.20889,0,0,-33.20889,345.0274,244.4468)"/>
<use xlink:href="#font_2_2" transform="matrix(33.20889,0,0,-33.20889,361.62644,244.4468)"/>
<use xlink:href="#font_2_8" transform="matrix(33.20889,0,0,-33.20889,380.12608,246.30649)"/>
<use xlink:href="#font_2_5" transform="matrix(33.20889,0,0,-33.20889,406.69425,244.4468)"/>
<use xlink:href="#font_2_3" transform="matrix(33.20889,0,0,-33.20889,423.02766,244.4468)"/>
<use xlink:href="#font_2_8" transform="matrix(33.20889,0,0,-33.20889,441.45985,246.30649)"/>
<use xlink:href="#font_2_5" transform="matrix(33.20889,0,0,-33.20889,468.36109,244.4468)"/>
<use xlink:href="#font_2_4" transform="matrix(33.20889,0,0,-33.20889,484.79328,244.4468)"/>
<use xlink:href="#font_2_8" transform="matrix(33.20889,0,0,-33.20889,503.12666,246.30649)"/>
<use xlink:href="#font_2_5" transform="matrix(33.20889,0,0,-33.20889,529.6948,244.4468)"/>
<use xlink:href="#font_2_5" transform="matrix(33.20889,0,0,-33.20889,546.0282,244.4468)"/>
<use xlink:href="#font_2_8" transform="matrix(33.20889,0,0,-33.20889,564.46047,246.30649)"/>
<use xlink:href="#font_2_5" transform="matrix(33.20889,0,0,-33.20889,591.3617,244.4468)"/>
<use xlink:href="#font_2_6" transform="matrix(33.20889,0,0,-33.20889,607.36227,244.4468)"/>
<use xlink:href="#font_2_8" transform="matrix(33.20889,0,0,-33.20889,626.1274,246.30649)"/>
<use xlink:href="#font_2_6" transform="matrix(33.20889,0,0,-33.20889,652.6955,244.4468)"/>
<use xlink:href="#font_2_9" transform="matrix(33.20889,0,0,-33.20889,669.02896,244.4468)"/>
<use xlink:href="#font_2_8" transform="matrix(33.20889,0,0,-33.20889,687.4611,246.30649)"/>
<use xlink:href="#font_2_6" transform="matrix(33.20889,0,0,-33.20889,714.3624,244.4468)"/>
<use xlink:href="#font_2_a" transform="matrix(33.20889,0,0,-33.20889,732.02346,243.7494)"/>
<use xlink:href="#font_2_8" transform="matrix(33.20889,0,0,-33.20889,749.1281,246.30649)"/>
<use xlink:href="#font_2_6" transform="matrix(33.20889,0,0,-33.20889,775.6963,244.4468)"/>
<use xlink:href="#font_2_b" transform="matrix(33.20889,0,0,-33.20889,792.29537,243.7494)"/>
<use xlink:href="#font_2_8" transform="matrix(33.20889,0,0,-33.20889,810.4619,246.30649)"/>
<use xlink:href="#font_2_6" transform="matrix(33.20889,0,0,-33.20889,837.3632,244.4468)"/>
<use xlink:href="#font_2_c" transform="matrix(33.20889,0,0,-33.20889,853.3638,244.4468)"/>
<use xlink:href="#font_2_8" transform="matrix(33.20889,0,0,-33.20889,872.1289,246.30649)"/>
<use xlink:href="#font_2_6" transform="matrix(33.20889,0,0,-33.20889,898.697,244.4468)"/>
<use xlink:href="#font_2_1" transform="matrix(33.20889,0,0,-33.20889,914.56558,243.7494)"/>
<use xlink:href="#font_2_8" transform="matrix(33.20889,0,0,-33.20889,933.4627,246.30649)"/>
<use xlink:href="#font_2_6" transform="matrix(33.20889,0,0,-33.20889,960.36398,244.4468)"/>
<use xlink:href="#font_2_2" transform="matrix(33.20889,0,0,-33.20889,976.6302,244.4468)"/>
<use xlink:href="#font_2_8" transform="matrix(33.20889,0,0,-33.20889,995.12966,246.30649)"/>
<use xlink:href="#font_2_6" transform="matrix(33.20889,0,0,-33.20889,1021.69778,244.4468)"/>
<use xlink:href="#font_2_3" transform="matrix(33.20889,0,0,-33.20889,1038.0313,244.4468)"/>
<use xlink:href="#font_2_8" transform="matrix(33.20889,0,0,-33.20889,1056.4635,246.30649)"/>
<use xlink:href="#font_2_6" transform="matrix(33.20889,0,0,-33.20889,1083.3648,244.4468)"/>
<use xlink:href="#font_2_4" transform="matrix(33.20889,0,0,-33.20889,1099.797,244.4468)"/>
<use xlink:href="#font_2_8" transform="matrix(33.20889,0,0,-33.20889,1118.1305,246.30649)"/>
<use xlink:href="#font_2_6" transform="matrix(33.20889,0,0,-33.20889,1144.6985,244.4468)"/>
<use xlink:href="#font_2_5" transform="matrix(33.20889,0,0,-33.20889,1161.0317,244.4468)"/>
<use xlink:href="#font_2_8" transform="matrix(33.20889,0,0,-33.20889,1179.4597,246.30649)"/>
<use xlink:href="#font_2_6" transform="matrix(33.20889,0,0,-33.20889,1206.0277,244.4468)"/>
<use xlink:href="#font_2_6" transform="matrix(33.20889,0,0,-33.20889,1222.361,244.4468)"/>
<use xlink:href="#font_2_8" transform="matrix(33.20889,0,0,-33.20889,1241.1264,246.30649)"/>
<use xlink:href="#font_2_a" transform="matrix(33.20889,0,0,-33.20889,1269.3547,243.7494)"/>
<use xlink:href="#font_2_9" transform="matrix(33.20889,0,0,-33.20889,1284.0276,244.4468)"/>
<use xlink:href="#font_2_9" transform="matrix(33.20889,0,0,-33.20889,1300.361,244.4468)"/>
</g>
</svg>
