<?xml version="1.0" encoding="UTF-8" standalone="no"?>
<!DOCTYPE svg PUBLIC "-//W3C//DTD SVG 1.1//EN" "http://www.w3.org/Graphics/SVG/1.1/DTD/svg11.dtd">
<svg xmlns="http://www.w3.org/2000/svg" xmlns:xlink="http://www.w3.org/1999/xlink" version="1.1" width="470.44444pt" height="83.02777pt" viewBox="0 0 470.44444 83.02777">
<g enable-background="new">
<symbol id="font_0_4">
<path d="M 0 .683 L 0 .65400007 L .02 .65400007 C .092 .65400007 .095000009 .64400008 .095000009 .60700008 L .095000009 .076000008 C .095000009 .039 .092 .029000001 .02 .029000001 L 0 .029000001 L 0 0 L .35000003 0 C .517 0 .651 .15 .651 .335 C .651 .528 .51600006 .683 .35000003 .683 L 0 .683 M .22000003 .029000001 C .176 .029000001 .174 .036000004 .174 .069000009 L .174 .614 C .174 .647 .176 .65400007 .22000003 .65400007 L .32500003 .65400007 C .40800003 .65400007 .47400005 .614 .51500007 .54800006 C .56000009 .47700004 .56000009 .37600003 .56000009 .33600004 C .56000009 .28 .559 .186 .50200006 .112 C .46900005 .07 .40900005 .029000001 .32500003 .029000001 L .22000003 .029000001 Z "/>
</symbol>
<symbol id="font_0_8">
<path d="M .342 .277 C .342 .331 .342 .37100003 .298 .41 C .263 .442 .21800003 .456 .17400001 .456 C .09200001 .456 .029000003 .402 .029000003 .337 C .029000003 .308 .048000006 .294 .070999998 .294 C .09500001 .294 .112 .31100003 .112 .335 C .112 .37600003 .076000008 .37600003 .061 .37600003 C .08400001 .418 .13200002 .43600003 .172 .43600003 C .21800003 .43600003 .277 .398 .277 .308 L .277 .268 C .076000008 .26500003 0 .18100001 0 .104 C 0 .025000003 .09200001 0 .15300001 0 C .21900001 0 .26400004 .040000004 .28300003 .088 C .28700004 .041 .31800003 .0050000005 .36100004 .0050000005 C .38200004 .0050000005 .44000004 .019000002 .44000004 .099 L .44000004 .15500002 L .418 .15500002 L .418 .099 C .418 .042000005 .39400003 .034 .38000003 .034 C .342 .034 .342 .087000008 .342 .102000009 L .342 .277 M .277 .15100001 C .277 .053000004 .20400001 .020000002 .16100002 .020000002 C .112 .020000002 .070999998 .056000007 .070999998 .104 C .070999998 .23600002 .24100003 .24800001 .277 .25 L .277 .15100001 Z "/>
</symbol>
<symbol id="font_0_6">
<path d="M .29500003 .433 C .29500003 .451 .29500003 .456 .28500004 .456 C .277 .456 .25800003 .43400003 .25100003 .425 C .22000003 .45000003 .18900001 .456 .157 .456 C .036000007 .456 0 .39000003 0 .335 C 0 .324 0 .289 .038000004 .254 C .07000001 .22600001 .10400001 .21900001 .15 .21000001 C .20500002 .19900002 .21800003 .19600001 .24300003 .17600002 C .261 .16100002 .27400003 .13900002 .27400003 .111 C .27400003 .068 .24900002 .020000002 .16100002 .020000002 C .095000009 .020000002 .047000007 .058000003 .025000003 .158 C .021000002 .17600002 .021000002 .17700002 .020000004 .17800002 C .018000003 .18200001 .014000002 .18200001 .011000004 .18200001 C 0 .18200001 0 .17700002 0 .15900001 L 0 .023000002 C 0 .0050000005 0 0 .010000002 0 C .015000001 0 .016000003 .0010000002 .033 .022 C .038000004 .029000003 .038000004 .031000004 .053000004 .047000003 C .091000009 0 .14500001 0 .162 0 C .26700003 0 .31900005 .058000003 .31900005 .13700001 C .31900005 .19100002 .286 .22300002 .277 .23200003 C .24100003 .263 .21400002 .269 .148 .28100003 C .11800001 .287 .045 .301 .045 .361 C .045 .39200003 .06600001 .43800003 .15600002 .43800003 C .26500003 .43800003 .27100004 .345 .27300004 .314 C .27400003 .306 .28100003 .306 .284 .306 C .29500003 .306 .29500003 .31100003 .29500003 .329 L .29500003 .433 Z "/>
</symbol>
<symbol id="font_0_2">
<path d="M .42900003 .22400002 C .42900003 .35300002 .33100004 .456 .215 .456 C .095 .456 0 .35 0 .22400002 C 0 .096 .10000001 0 .21400002 0 C .33200003 0 .42900003 .098000008 .42900003 .22400002 M .215 .022 C .178 .022 .133 .038000004 .104 .087000008 C .07700001 .13200002 .076000008 .19100002 .076000008 .23300001 C .076000008 .271 .076000008 .33200003 .10700001 .377 C .135 .42000003 .179 .43600003 .21400002 .43600003 C .25300003 .43600003 .29500003 .418 .32200004 .379 C .35300002 .333 .35300002 .27 .35300002 .23300001 C .35300002 .19800002 .35300002 .136 .32700003 .089 C .29900003 .041 .25300003 .022 .215 .022 Z "/>
</symbol>
<symbol id="font_0_3">
<path d="M .21700001 .029 C .15300001 .029 .14100002 .029 .14100002 .074 L .14100002 .24800001 C .15900001 .223 .20000002 .184 .26400004 .184 C .379 .184 .48000003 .28100003 .48000003 .41000004 C .48000003 .53700008 .38600005 .635 .277 .635 C .18900001 .635 .142 .572 .13900002 .568 L .13900002 .635 L 0 .624 L 0 .595 C .07000001 .595 .076000008 .58800008 .076000008 .544 L .076000008 .074 C .076000008 .029 .065 .029 0 .029 L 0 0 C .026 .002000004 .08 .002000004 .10800001 .002000004 C .13700001 .002000004 .19100002 .002000004 .21700001 0 L .21700001 .029 M .14100002 .513 C .14100002 .53200009 .14100002 .533 .15200001 .549 C .18200001 .594 .231 .61300006 .26900003 .61300006 C .344 .61300006 .404 .522 .404 .41000004 C .404 .291 .33600004 .20400001 .259 .20400001 C .22800002 .20400001 .19900002 .21700001 .17900002 .236 C .15600002 .259 .14100002 .279 .14100002 .307 L .14100002 .513 Z "/>
</symbol>
<symbol id="font_0_b">
<path d="M .35300002 .24200002 C .37500004 .24200002 .377 .24200002 .377 .261 C .377 .36200003 .323 .456 .202 .456 C .08800001 .456 0 .35300002 0 .22900002 C 0 .097 .102 0 .21300002 0 C .33200003 0 .377 .108 .377 .12900001 C .377 .135 .372 .13900002 .36600004 .13900002 C .358 .13900002 .356 .134 .354 .12900001 C .328 .045 .261 .022 .21900001 .022 C .17700002 .022 .076000008 .050000006 .076000008 .22300002 L .076000008 .24200002 L .35300002 .24200002 M .07700001 .261 C .085 .418 .17300001 .43600003 .201 .43600003 C .30800004 .43600003 .314 .29500003 .31500004 .261 L .07700001 .261 Z "/>
</symbol>
<symbol id="font_0_10">
<path d="M .139 .694 L 0 .683 L 0 .65400007 C .068 .65400007 .076000008 .647 .076000008 .59800007 L .076000008 .074 C .076000008 .029000001 .065000008 .029000001 0 .029000001 L 0 0 C .028000005 .002 .07700001 .002 .107 .002 C .137 .002 .187 .002 .215 0 L .215 .029000001 C .15100003 .029000001 .139 .029000001 .139 .074 L .139 .694 Z "/>
</symbol>
<symbol id="font_0_7">
<path d="M .15 .412 L .291 .412 L .291 .441 L .15 .441 L .15 .625 L .128 .625 C .127 .531 .091000009 .435 0 .432 L 0 .412 L .08500001 .412 L .08500001 .134 C .08500001 .023000002 .159 0 .212 0 C .275 0 .308 .062000004 .308 .134 L .308 .19100002 L .286 .19100002 L .286 .136 C .286 .064 .257 .022 .21800001 .022 C .15 .022 .15 .115 .15 .13200002 L .15 .412 Z "/>
</symbol>
<symbol id="font_0_e">
<path d="M .141 .61600008 C .141 .642 .12000001 .665 .092 .665 C .06600001 .665 .044000009 .64400008 .044000009 .61700007 C .044000009 .587 .068 .568 .092 .568 C .123 .568 .141 .59400007 .141 .61600008 M .0030000024 .43 L .0030000024 .40100003 C .067 .40100003 .076000008 .395 .076000008 .34600003 L .076000008 .074 C .076000008 .029000001 .065000008 .029000001 0 .029000001 L 0 0 C .028000005 .002 .076000008 .002 .10500001 .002 C .116000007 .002 .17400003 .002 .208 0 L .208 .029000001 C .143 .029000001 .139 .034 .139 .07300001 L .139 .441 L .0030000024 .43 Z "/>
</symbol>
<symbol id="font_0_1">
<path d="M .41300003 .24300002 C .41300003 .33600004 .41300003 .36400003 .39000003 .39600004 C .361 .43500004 .314 .441 .28 .441 C .183 .441 .145 .358 .13700001 .33800004 L .136 .33800004 L .136 .441 L 0 .43 L 0 .40100003 C .068 .40100003 .076000008 .39400003 .076000008 .34500004 L .076000008 .074 C .076000008 .029000001 .065 .029000001 0 .029000001 L 0 0 C .026 .002 .08 .002 .107999999 .002 C .13700001 .002 .191 .002 .21700001 0 L .21700001 .029000001 C .153 .029000001 .141 .029000001 .141 .074 L .141 .26000003 C .141 .365 .21000001 .42100004 .272 .42100004 C .33400003 .42100004 .34800003 .37 .34800003 .30900003 L .34800003 .074 C .34800003 .029000001 .337 .029000001 .272 .029000001 L .272 0 C .298 .002 .352 .002 .38000003 .002 C .409 .002 .46300004 .002 .48900003 0 L .48900003 .029000001 C .439 .029000001 .414 .029000001 .41300003 .059000005 L .41300003 .24300002 Z "/>
</symbol>
<symbol id="font_0_5">
<path d="M .13900002 .23300001 C .13900002 .33 .17900002 .42100004 .256 .42100004 C .26400004 .42100004 .266 .42100004 .27 .42000003 C .26200003 .416 .24600002 .41000004 .24600002 .38300003 C .24600002 .354 .26900003 .34300003 .28500004 .34300003 C .305 .34300003 .32500003 .356 .32500003 .38300003 C .32500003 .41300003 .298 .441 .25500003 .441 C .17000002 .441 .14100002 .349 .135 .33 L .134 .33 L .134 .441 L 0 .43 L 0 .40100003 C .068 .40100003 .076000008 .39400003 .076000008 .34500004 L .076000008 .074 C .076000008 .029000001 .065 .029000001 0 .029000001 L 0 0 C .028 .002 .083000008 .002 .113000009 .002 C .14000002 .002 .21100001 .002 .23400003 0 L .23400003 .029000001 L .21400002 .029000001 C .14100002 .029000001 .13900002 .040000004 .13900002 .076000008 L .13900002 .23300001 Z "/>
</symbol>
<symbol id="font_0_9">
<path d="M .32700003 .38 C .31500004 .38 .27800004 .38 .27800004 .33900003 C .27800004 .315 .29500003 .298 .319 .298 C .342 .298 .36100004 .312 .36100004 .34100003 C .36100004 .40800003 .291 .456 .21000001 .456 C .09300001 .456 0 .352 0 .22600001 C 0 .098000008 .096000019 0 .20900002 0 C .34100003 0 .37100003 .120000008 .37100003 .12900001 C .37100003 .13800001 .36400003 .13800001 .36100004 .13800001 C .35200004 .13800001 .351 .135 .34800003 .123 C .32600004 .052000006 .272 .022 .21800003 .022 C .157 .022 .076000008 .075 .076000008 .22700002 C .076000008 .393 .16100002 .43400003 .21100001 .43400003 C .24900002 .43400003 .30400003 .419 .32700003 .38 Z "/>
</symbol>
<symbol id="font_0_f">
<path d="M .252 .26500003 C .252 .266 .245 .27400003 .245 .275 C .245 .27800004 .30800004 .33200003 .316 .34 C .38500003 .4 .42900003 .40100003 .45000003 .402 L .45000003 .43100003 C .43000005 .42900003 .404 .42900003 .374 .42900003 C .34800003 .42900003 .29700003 .42900003 .27400003 .43100003 L .27400003 .402 C .291 .40100003 .30300004 .39200003 .30300004 .37600003 C .30300004 .356 .28300003 .33800004 .282 .33800004 L .13900002 .21200001 L .13900002 .694 L 0 .683 L 0 .65400007 C .068 .65400007 .076000008 .647 .076000008 .59800007 L .076000008 .074 C .076000008 .029000001 .065 .029000001 0 .029000001 L 0 0 C .028 .002 .076000008 .002 .106000009 .002 C .136 .002 .18400002 .002 .21200001 0 L .21200001 .029000001 C .14800002 .029000001 .136 .029000001 .136 .074 L .136 .18 L .20000002 .23600002 L .296 .098000008 C .31100003 .07700001 .31800003 .066 .31800003 .052 C .31800003 .034 .30400003 .029000001 .28300003 .029000001 L .28300003 0 C .30800004 .002 .35700003 .002 .38400004 .002 C .42700003 .002 .42900003 .002 .472 0 L .472 .029000001 C .44500003 .029000001 .41400004 .029000001 .38600005 .07 L .252 .26500003 Z "/>
</symbol>
<symbol id="font_0_a">
<path d="M .354 .40300004 C .363 .41400004 .363 .416 .363 .42000003 C .363 .43100003 .356 .43100003 .33900003 .43100003 L .025 .43100003 L .014 .272 L .036 .272 C .042000005 .374 .061000006 .411 .17000002 .411 L .286 .411 L 0 .018000002 C 0 0 .0020000004 0 .024000003 0 L .35 0 L .366 .18400002 L .344 .18400002 C .335 .07 .31800003 .022000002 .19900002 .022000002 L .078 .022000002 L .354 .40300004 Z "/>
</symbol>
<symbol id="font_0_c">
<path d="M .41300003 .24300002 C .41300003 .33600004 .41300003 .36400003 .39000003 .39600004 C .361 .43500004 .314 .441 .28 .441 C .194 .441 .154 .37600003 .14 .34500004 L .139 .34500004 L .139 .694 L 0 .683 L 0 .65400007 C .068 .65400007 .076000008 .647 .076000008 .59800007 L .076000008 .074 C .076000008 .029000001 .065 .029000001 0 .029000001 L 0 0 C .026 .002 .08 .002 .107999999 .002 C .13700001 .002 .191 .002 .21700001 0 L .21700001 .029000001 C .153 .029000001 .141 .029000001 .141 .074 L .141 .26000003 C .141 .365 .21000001 .42100004 .272 .42100004 C .33400003 .42100004 .34800003 .37 .34800003 .30900003 L .34800003 .074 C .34800003 .029000001 .337 .029000001 .272 .029000001 L .272 0 C .298 .002 .352 .002 .38000003 .002 C .409 .002 .46300004 .002 .48900003 0 L .48900003 .029000001 C .439 .029000001 .414 .029000001 .41300003 .059000005 L .41300003 .24300002 Z "/>
</symbol>
<symbol id="font_0_d">
<path d="M .38000003 .361 C .47900004 .384 .55600008 .44700004 .55600008 .52400007 C .55600008 .62100008 .44300003 .70400008 .29900003 .70400008 L 0 .70400008 L 0 .6750001 L .02 .6750001 C .092 .6750001 .095000009 .6650001 .095000009 .6280001 L .095000009 .097 C .095000009 .060000004 .092 .050000006 .02 .050000006 L 0 .050000006 L 0 .021000002 C .023000002 .023000002 .105 .023000002 .134 .023000002 C .16300002 .023000002 .24600002 .023000002 .26900003 .021000002 L .26900003 .050000006 L .24900002 .050000006 C .17700002 .050000006 .174 .060000004 .174 .097 L .174 .35300002 L .29000003 .35300002 C .32900004 .35300002 .36600004 .342 .39300005 .314 C .42700003 .27600003 .42700003 .25500003 .42700003 .186 C .42700003 .10700001 .42700003 .081 .47100003 .038000004 C .486 .023000002 .52800008 0 .58400008 0 C .66200008 0 .675 .087 .675 .10800001 C .675 .11400001 .675 .12300001 .66400006 .12300001 C .65400007 .12300001 .65400007 .117 .65300008 .10700001 C .64800009 .047000003 .619 .020000002 .587 .020000002 C .541 .020000002 .531 .067 .523 .120000008 C .522 .127 .51600006 .17 .513 .19500001 C .50600007 .245 .50200006 .277 .472 .308 C .46100004 .319 .43500004 .34600003 .38000003 .361 M .286 .37300004 L .174 .37300004 L .174 .63500007 C .174 .65800008 .174 .6700001 .19500003 .6740001 C .204 .6750001 .23400003 .6750001 .254 .6750001 C .335 .6750001 .463 .6750001 .463 .52400007 C .463 .437 .41600005 .37300004 .286 .37300004 Z "/>
</symbol>
<symbol id="font_0_11">
<path d="M .09700001 .049000004 C .09700001 .076000008 .07400001 .097 .049000004 .097 C .020000004 .097 0 .074 0 .049000004 C 0 .019000002 .024999999 0 .048 0 C .074999999 0 .09700001 .021000002 .09700001 .049000004 Z "/>
</symbol>
<use xlink:href="#font_0_4" transform="matrix(33.20889,0,0,-33.20889,3.7276734,25.305275)"/>
<use xlink:href="#font_0_8" transform="matrix(33.20889,0,0,-33.20889,28.79416,25.637364)"/>
<use xlink:href="#font_0_6" transform="matrix(33.20889,0,0,-33.20889,44.762239,25.637364)"/>
<use xlink:href="#font_0_4" transform="matrix(33.20889,0,0,-33.20889,68.394748,25.305275)"/>
<use xlink:href="#font_0_2" transform="matrix(33.20889,0,0,-33.20889,92.99631,25.637364)"/>
<use xlink:href="#font_0_3" transform="matrix(33.20889,0,0,-33.20889,109.26325,31.747799)"/>
<use xlink:href="#font_0_3" transform="matrix(33.20889,0,0,-33.20889,127.26329,31.747799)"/>
<use xlink:href="#font_0_b" transform="matrix(33.20889,0,0,-33.20889,146.32978,25.637364)"/>
<use xlink:href="#font_0_10" transform="matrix(33.20889,0,0,-33.20889,160.76274,25.305275)"/>
<use xlink:href="#font_0_7" transform="matrix(33.20889,0,0,-33.20889,169.26424,25.637364)"/>
<use xlink:href="#font_0_b" transform="matrix(33.20889,0,0,-33.20889,182.32944,25.637364)"/>
<use xlink:href="#font_0_b" transform="matrix(33.20889,0,0,-33.20889,207.66307,25.637364)"/>
<use xlink:href="#font_0_e" transform="matrix(33.20889,0,0,-33.20889,222.09607,25.305275)"/>
<use xlink:href="#font_0_1" transform="matrix(33.20889,0,0,-33.20889,231.06247,25.305275)"/>
<use xlink:href="#font_0_b" transform="matrix(33.20889,0,0,-33.20889,248.9961,25.637364)"/>
<use xlink:href="#font_0_5" transform="matrix(33.20889,0,0,-33.20889,263.26304,25.305275)"/>
<use xlink:href="#font_0_4" transform="matrix(33.20889,0,0,-33.20889,287.72828,25.305275)"/>
<use xlink:href="#font_0_5" transform="matrix(33.20889,0,0,-33.20889,312.26344,25.305275)"/>
<use xlink:href="#font_0_b" transform="matrix(33.20889,0,0,-33.20889,324.99656,25.637364)"/>
<use xlink:href="#font_0_e" transform="matrix(33.20889,0,0,-33.20889,339.4295,25.305275)"/>
<use xlink:href="#font_0_b" transform="matrix(33.20889,0,0,-33.20889,348.32954,25.637364)"/>
<use xlink:href="#font_0_9" transform="matrix(33.20889,0,0,-33.20889,362.82893,25.637364)"/>
<use xlink:href="#font_0_f" transform="matrix(33.20889,0,0,-33.20889,375.92964,25.305275)"/>
<use xlink:href="#font_0_6" transform="matrix(33.20889,0,0,-33.20889,393.0957,25.637364)"/>
<use xlink:href="#font_0_a" transform="matrix(33.20889,0,0,-33.20889,405.56315,25.305275)"/>
<use xlink:href="#font_0_8" transform="matrix(33.20889,0,0,-33.20889,420.46107,25.637364)"/>
<use xlink:href="#font_0_c" transform="matrix(33.20889,0,0,-33.20889,436.3959,25.305275)"/>
<use xlink:href="#font_0_10" transform="matrix(33.20889,0,0,-33.20889,454.4292,25.305275)"/>
<use xlink:href="#font_0_e" transform="matrix(33.20889,0,0,-33.20889,3.4287933,63.30555)"/>
<use xlink:href="#font_0_6" transform="matrix(33.20889,0,0,-33.20889,12.428402,63.637639)"/>
<use xlink:href="#font_0_7" transform="matrix(33.20889,0,0,-33.20889,24.596968,63.637639)"/>
<use xlink:href="#font_0_b" transform="matrix(33.20889,0,0,-33.20889,48.661989,63.637639)"/>
<use xlink:href="#font_0_e" transform="matrix(33.20889,0,0,-33.20889,63.094987,63.30555)"/>
<use xlink:href="#font_0_1" transform="matrix(33.20889,0,0,-33.20889,72.06138,63.30555)"/>
<use xlink:href="#font_0_b" transform="matrix(33.20889,0,0,-33.20889,89.995029,63.637639)"/>
<use xlink:href="#font_0_d" transform="matrix(33.20889,0,0,-33.20889,116.06006,64.00294)"/>
<use xlink:href="#font_0_b" transform="matrix(33.20889,0,0,-33.20889,139.6616,63.637639)"/>
<use xlink:href="#font_0_9" transform="matrix(33.20889,0,0,-33.20889,154.16103,63.637639)"/>
<use xlink:href="#font_0_c" transform="matrix(33.20889,0,0,-33.20889,167.39476,63.30555)"/>
<use xlink:href="#font_0_7" transform="matrix(33.20889,0,0,-33.20889,183.92967,63.637639)"/>
<use xlink:href="#font_0_b" transform="matrix(33.20889,0,0,-33.20889,196.99488,63.637639)"/>
<use xlink:href="#font_0_9" transform="matrix(33.20889,0,0,-33.20889,211.49431,63.637639)"/>
<use xlink:href="#font_0_f" transform="matrix(33.20889,0,0,-33.20889,224.595,63.30555)"/>
<use xlink:href="#font_0_6" transform="matrix(33.20889,0,0,-33.20889,241.76108,63.637639)"/>
<use xlink:href="#font_0_a" transform="matrix(33.20889,0,0,-33.20889,254.22852,63.30555)"/>
<use xlink:href="#font_0_8" transform="matrix(33.20889,0,0,-33.20889,269.12644,63.637639)"/>
<use xlink:href="#font_0_c" transform="matrix(33.20889,0,0,-33.20889,285.06129,63.30555)"/>
<use xlink:href="#font_0_10" transform="matrix(33.20889,0,0,-33.20889,303.09458,63.30555)"/>
<use xlink:href="#font_0_11" transform="matrix(33.20889,0,0,-33.20889,313.88749,63.30555)"/>
</g>
</svg>
