<?xml version="1.0" encoding="UTF-8" standalone="no"?>
<!DOCTYPE svg PUBLIC "-//W3C//DTD SVG 1.1//EN" "http://www.w3.org/Graphics/SVG/1.1/DTD/svg11.dtd">
<svg xmlns="http://www.w3.org/2000/svg" xmlns:xlink="http://www.w3.org/1999/xlink" version="1.1" width="525.80557pt" height="83.02777pt" viewBox="0 0 525.80557 83.02777">
<g enable-background="new">
<symbol id="font_0_3">
<path d="M 0 .683 L 0 .65400007 L .02 .65400007 C .092 .65400007 .095000009 .64400008 .095000009 .60700008 L .095000009 .076000008 C .095000009 .039 .092 .029000001 .02 .029000001 L 0 .029000001 L 0 0 L .35000003 0 C .517 0 .651 .15 .651 .335 C .651 .528 .51600006 .683 .35000003 .683 L 0 .683 M .22000003 .029000001 C .176 .029000001 .174 .036000004 .174 .069000009 L .174 .614 C .174 .647 .176 .65400007 .22000003 .65400007 L .32500003 .65400007 C .40800003 .65400007 .47400005 .614 .51500007 .54800006 C .56000009 .47700004 .56000009 .37600003 .56000009 .33600004 C .56000009 .28 .559 .186 .50200006 .112 C .46900005 .07 .40900005 .029000001 .32500003 .029000001 L .22000003 .029000001 Z "/>
</symbol>
<symbol id="font_0_10">
<path d="M .141 .61600008 C .141 .642 .12000001 .665 .092 .665 C .06600001 .665 .044000009 .64400008 .044000009 .61700007 C .044000009 .587 .068 .568 .092 .568 C .123 .568 .141 .59400007 .141 .61600008 M .0030000024 .43 L .0030000024 .40100003 C .067 .40100003 .076000008 .395 .076000008 .34600003 L .076000008 .074 C .076000008 .029000001 .065000008 .029000001 0 .029000001 L 0 0 C .028000005 .002 .076000008 .002 .10500001 .002 C .116000007 .002 .17400003 .002 .208 0 L .208 .029000001 C .143 .029000001 .139 .034 .139 .07300001 L .139 .441 L .0030000024 .43 Z "/>
</symbol>
<symbol id="font_0_c">
<path d="M .35300002 .24200002 C .37500004 .24200002 .377 .24200002 .377 .261 C .377 .36200003 .323 .456 .202 .456 C .08800001 .456 0 .35300002 0 .22900002 C 0 .097 .102 0 .21300002 0 C .33200003 0 .377 .108 .377 .12900001 C .377 .135 .372 .13900002 .36600004 .13900002 C .358 .13900002 .356 .134 .354 .12900001 C .328 .045 .261 .022 .21900001 .022 C .17700002 .022 .076000008 .050000006 .076000008 .22300002 L .076000008 .24200002 L .35300002 .24200002 M .07700001 .261 C .085 .418 .17300001 .43600003 .201 .43600003 C .30800004 .43600003 .314 .29500003 .31500004 .261 L .07700001 .261 Z "/>
</symbol>
<symbol id="font_0_1">
<path d="M .35600005 .69600006 C .35200004 .708 .35000003 .71400007 .33600004 .71400007 C .32200004 .71400007 .32000003 .711 .31500004 .69500008 L .106000009 .097 C .092 .056 .064 .030000002 0 .029000001 L 0 0 C .061000006 .002 .063 .002 .096 .002 C .124 .002 .172 .002 .19800002 0 L .19800002 .029000001 C .156 .030000002 .131 .051000004 .131 .079 C .131 .085 .131 .087000008 .136 .1 L .18200001 .23300001 L .43400005 .23300001 L .48900006 .076000008 C .49400006 .064 .49400006 .062000004 .49400006 .059000005 C .49400006 .029000001 .44300006 .029000001 .41800005 .029000001 L .41800005 0 C .44100005 .002 .52 .002 .54800006 .002 C .57600006 .002 .648 .002 .671 0 L .671 .029000001 C .606 .029000001 .588 .029000001 .574 .07 L .35600005 .69600006 M .30800004 .595 L .42400003 .26200003 L .192 .26200003 L .30800004 .595 Z "/>
</symbol>
<symbol id="font_0_2">
<path d="M .41300003 .24300002 C .41300003 .33600004 .41300003 .36400003 .39000003 .39600004 C .361 .43500004 .314 .441 .28 .441 C .183 .441 .145 .358 .13700001 .33800004 L .136 .33800004 L .136 .441 L 0 .43 L 0 .40100003 C .068 .40100003 .076000008 .39400003 .076000008 .34500004 L .076000008 .074 C .076000008 .029000001 .065 .029000001 0 .029000001 L 0 0 C .026 .002 .08 .002 .107999999 .002 C .13700001 .002 .191 .002 .21700001 0 L .21700001 .029000001 C .153 .029000001 .141 .029000001 .141 .074 L .141 .26000003 C .141 .365 .21000001 .42100004 .272 .42100004 C .33400003 .42100004 .34800003 .37 .34800003 .30900003 L .34800003 .074 C .34800003 .029000001 .337 .029000001 .272 .029000001 L .272 0 C .298 .002 .352 .002 .38000003 .002 C .409 .002 .46300004 .002 .48900003 0 L .48900003 .029000001 C .439 .029000001 .414 .029000001 .41300003 .059000005 L .41300003 .24300002 Z "/>
</symbol>
<symbol id="font_0_b">
<path d="M .354 .40300004 C .363 .41400004 .363 .416 .363 .42000003 C .363 .43100003 .356 .43100003 .33900003 .43100003 L .025 .43100003 L .014 .272 L .036 .272 C .042000005 .374 .061000006 .411 .17000002 .411 L .286 .411 L 0 .018000002 C 0 0 .0020000004 0 .024000003 0 L .35 0 L .366 .18400002 L .344 .18400002 C .335 .07 .31800003 .022000002 .19900002 .022000002 L .078 .022000002 L .354 .40300004 Z "/>
</symbol>
<symbol id="font_0_8">
<path d="M .342 .277 C .342 .331 .342 .37100003 .298 .41 C .263 .442 .21800003 .456 .17400001 .456 C .09200001 .456 .029000003 .402 .029000003 .337 C .029000003 .308 .048000006 .294 .070999998 .294 C .09500001 .294 .112 .31100003 .112 .335 C .112 .37600003 .076000008 .37600003 .061 .37600003 C .08400001 .418 .13200002 .43600003 .172 .43600003 C .21800003 .43600003 .277 .398 .277 .308 L .277 .268 C .076000008 .26500003 0 .18100001 0 .104 C 0 .025000003 .09200001 0 .15300001 0 C .21900001 0 .26400004 .040000004 .28300003 .088 C .28700004 .041 .31800003 .0050000005 .36100004 .0050000005 C .38200004 .0050000005 .44000004 .019000002 .44000004 .099 L .44000004 .15500002 L .418 .15500002 L .418 .099 C .418 .042000005 .39400003 .034 .38000003 .034 C .342 .034 .342 .087000008 .342 .102000009 L .342 .277 M .277 .15100001 C .277 .053000004 .20400001 .020000002 .16100002 .020000002 C .112 .020000002 .070999998 .056000007 .070999998 .104 C .070999998 .23600002 .24100003 .24800001 .277 .25 L .277 .15100001 Z "/>
</symbol>
<symbol id="font_0_e">
<path d="M .41300003 .24300002 C .41300003 .33600004 .41300003 .36400003 .39000003 .39600004 C .361 .43500004 .314 .441 .28 .441 C .194 .441 .154 .37600003 .14 .34500004 L .139 .34500004 L .139 .694 L 0 .683 L 0 .65400007 C .068 .65400007 .076000008 .647 .076000008 .59800007 L .076000008 .074 C .076000008 .029000001 .065 .029000001 0 .029000001 L 0 0 C .026 .002 .08 .002 .107999999 .002 C .13700001 .002 .191 .002 .21700001 0 L .21700001 .029000001 C .153 .029000001 .141 .029000001 .141 .074 L .141 .26000003 C .141 .365 .21000001 .42100004 .272 .42100004 C .33400003 .42100004 .34800003 .37 .34800003 .30900003 L .34800003 .074 C .34800003 .029000001 .337 .029000001 .272 .029000001 L .272 0 C .298 .002 .352 .002 .38000003 .002 C .409 .002 .46300004 .002 .48900003 0 L .48900003 .029000001 C .439 .029000001 .414 .029000001 .41300003 .059000005 L .41300003 .24300002 Z "/>
</symbol>
<symbol id="font_0_13">
<path d="M .139 .694 L 0 .683 L 0 .65400007 C .068 .65400007 .076000008 .647 .076000008 .59800007 L .076000008 .074 C .076000008 .029000001 .065000008 .029000001 0 .029000001 L 0 0 C .028000005 .002 .07700001 .002 .107 .002 C .137 .002 .187 .002 .215 0 L .215 .029000001 C .15100003 .029000001 .139 .029000001 .139 .074 L .139 .694 Z "/>
</symbol>
<symbol id="font_0_d">
<path d="M .176 .31800003 L .34500004 .31800003 C .462 .31800003 .569 .397 .569 .49800004 C .569 .595 .472 .683 .337 .683 L 0 .683 L 0 .65400007 L .02 .65400007 C .092 .65400007 .095000009 .64400008 .095000009 .60700008 L .095000009 .076000008 C .095000009 .039 .092 .029000001 .02 .029000001 L 0 .029000001 L 0 0 C .023999997 .002 .106 .002 .13499999 .002 C .16500002 .002 .24700001 .002 .27100004 0 L .27100004 .029000001 L .25100003 .029000001 C .17900002 .029000001 .176 .039 .176 .076000008 L .176 .31800003 M .174 .342 L .174 .614 C .174 .647 .176 .65400007 .22000003 .65400007 L .314 .65400007 C .476 .65400007 .476 .541 .476 .49800004 C .476 .45600004 .476 .342 .31300003 .342 L .174 .342 Z "/>
</symbol>
<symbol id="font_0_7">
<path d="M .272 .44 L .272 .411 C .34 .411 .34800003 .404 .34800003 .35500003 L .34800003 .17600002 C .34800003 .091 .303 .020000002 .22800002 .020000002 C .146 .020000002 .141 .067 .141 .120000008 L .141 .451 L 0 .44 L 0 .411 C .076000008 .411 .076000008 .40800003 .076000008 .319 L .076000008 .16900002 C .076000008 .107 .076000008 .071 .106000009 .038000004 C .13 .012000001 .171 0 .222 0 C .23900002 0 .271 0 .305 .029000003 C .33400003 .052000006 .35000003 .09 .35000003 .09 L .35000003 0 L .48900003 .010000001 L .48900003 .039 C .421 .039 .41300003 .046000005 .41300003 .095 L .41300003 .451 L .272 .44 Z "/>
</symbol>
<symbol id="font_0_12">
<path d="M .252 .26500003 C .252 .266 .245 .27400003 .245 .275 C .245 .27800004 .30800004 .33200003 .316 .34 C .38500003 .4 .42900003 .40100003 .45000003 .402 L .45000003 .43100003 C .43000005 .42900003 .404 .42900003 .374 .42900003 C .34800003 .42900003 .29700003 .42900003 .27400003 .43100003 L .27400003 .402 C .291 .40100003 .30300004 .39200003 .30300004 .37600003 C .30300004 .356 .28300003 .33800004 .282 .33800004 L .13900002 .21200001 L .13900002 .694 L 0 .683 L 0 .65400007 C .068 .65400007 .076000008 .647 .076000008 .59800007 L .076000008 .074 C .076000008 .029000001 .065 .029000001 0 .029000001 L 0 0 C .028 .002 .076000008 .002 .106000009 .002 C .136 .002 .18400002 .002 .21200001 0 L .21200001 .029000001 C .14800002 .029000001 .136 .029000001 .136 .074 L .136 .18 L .20000002 .23600002 L .296 .098000008 C .31100003 .07700001 .31800003 .066 .31800003 .052 C .31800003 .034 .30400003 .029000001 .28300003 .029000001 L .28300003 0 C .30800004 .002 .35700003 .002 .38400004 .002 C .42700003 .002 .42900003 .002 .472 0 L .472 .029000001 C .44500003 .029000001 .41400004 .029000001 .38600005 .07 L .252 .26500003 Z "/>
</symbol>
<symbol id="font_0_6">
<path d="M .15 .412 L .291 .412 L .291 .441 L .15 .441 L .15 .625 L .128 .625 C .127 .531 .091000009 .435 0 .432 L 0 .412 L .08500001 .412 L .08500001 .134 C .08500001 .023000002 .159 0 .212 0 C .275 0 .308 .062000004 .308 .134 L .308 .19100002 L .286 .19100002 L .286 .136 C .286 .064 .257 .022 .21800001 .022 C .15 .022 .15 .115 .15 .13200002 L .15 .412 Z "/>
</symbol>
<symbol id="font_0_5">
<path d="M .29500003 .433 C .29500003 .451 .29500003 .456 .28500004 .456 C .277 .456 .25800003 .43400003 .25100003 .425 C .22000003 .45000003 .18900001 .456 .157 .456 C .036000007 .456 0 .39000003 0 .335 C 0 .324 0 .289 .038000004 .254 C .07000001 .22600001 .10400001 .21900001 .15 .21000001 C .20500002 .19900002 .21800003 .19600001 .24300003 .17600002 C .261 .16100002 .27400003 .13900002 .27400003 .111 C .27400003 .068 .24900002 .020000002 .16100002 .020000002 C .095000009 .020000002 .047000007 .058000003 .025000003 .158 C .021000002 .17600002 .021000002 .17700002 .020000004 .17800002 C .018000003 .18200001 .014000002 .18200001 .011000004 .18200001 C 0 .18200001 0 .17700002 0 .15900001 L 0 .023000002 C 0 .0050000005 0 0 .010000002 0 C .015000001 0 .016000003 .0010000002 .033 .022 C .038000004 .029000003 .038000004 .031000004 .053000004 .047000003 C .091000009 0 .14500001 0 .162 0 C .26700003 0 .31900005 .058000003 .31900005 .13700001 C .31900005 .19100002 .286 .22300002 .277 .23200003 C .24100003 .263 .21400002 .269 .148 .28100003 C .11800001 .287 .045 .301 .045 .361 C .045 .39200003 .06600001 .43800003 .15600002 .43800003 C .26500003 .43800003 .27100004 .345 .27300004 .314 C .27400003 .306 .28100003 .306 .284 .306 C .29500003 .306 .29500003 .31100003 .29500003 .329 L .29500003 .433 Z "/>
</symbol>
<symbol id="font_0_f">
<path d="M .38000003 .361 C .47900004 .384 .55600008 .44700004 .55600008 .52400007 C .55600008 .62100008 .44300003 .70400008 .29900003 .70400008 L 0 .70400008 L 0 .6750001 L .02 .6750001 C .092 .6750001 .095000009 .6650001 .095000009 .6280001 L .095000009 .097 C .095000009 .060000004 .092 .050000006 .02 .050000006 L 0 .050000006 L 0 .021000002 C .023000002 .023000002 .105 .023000002 .134 .023000002 C .16300002 .023000002 .24600002 .023000002 .26900003 .021000002 L .26900003 .050000006 L .24900002 .050000006 C .17700002 .050000006 .174 .060000004 .174 .097 L .174 .35300002 L .29000003 .35300002 C .32900004 .35300002 .36600004 .342 .39300005 .314 C .42700003 .27600003 .42700003 .25500003 .42700003 .186 C .42700003 .10700001 .42700003 .081 .47100003 .038000004 C .486 .023000002 .52800008 0 .58400008 0 C .66200008 0 .675 .087 .675 .10800001 C .675 .11400001 .675 .12300001 .66400006 .12300001 C .65400007 .12300001 .65400007 .117 .65300008 .10700001 C .64800009 .047000003 .619 .020000002 .587 .020000002 C .541 .020000002 .531 .067 .523 .120000008 C .522 .127 .51600006 .17 .513 .19500001 C .50600007 .245 .50200006 .277 .472 .308 C .46100004 .319 .43500004 .34600003 .38000003 .361 M .286 .37300004 L .174 .37300004 L .174 .63500007 C .174 .65800008 .174 .6700001 .19500003 .6740001 C .204 .6750001 .23400003 .6750001 .254 .6750001 C .335 .6750001 .463 .6750001 .463 .52400007 C .463 .437 .41600005 .37300004 .286 .37300004 Z "/>
</symbol>
<symbol id="font_0_a">
<path d="M .32700003 .38 C .31500004 .38 .27800004 .38 .27800004 .33900003 C .27800004 .315 .29500003 .298 .319 .298 C .342 .298 .36100004 .312 .36100004 .34100003 C .36100004 .40800003 .291 .456 .21000001 .456 C .09300001 .456 0 .352 0 .22600001 C 0 .098000008 .096000019 0 .20900002 0 C .34100003 0 .37100003 .120000008 .37100003 .12900001 C .37100003 .13800001 .36400003 .13800001 .36100004 .13800001 C .35200004 .13800001 .351 .135 .34800003 .123 C .32600004 .052000006 .272 .022 .21800003 .022 C .157 .022 .076000008 .075 .076000008 .22700002 C .076000008 .393 .16100002 .43400003 .21100001 .43400003 C .24900002 .43400003 .30400003 .419 .32700003 .38 Z "/>
</symbol>
<symbol id="font_0_9">
<path d="M .13900002 .704 L 0 .693 L 0 .66400006 C .068 .66400006 .076000008 .657 .076000008 .60800006 L .076000008 .010000001 L .098000008 .010000001 C .10200001 .018000002 .13000001 .068 .134 .075 C .157 .038000004 .20000002 0 .26400004 0 C .379 0 .48000003 .097 .48000003 .22600001 C .48000003 .35300002 .38600005 .451 .275 .451 C .22000002 .451 .17300001 .426 .13900002 .384 L .13900002 .704 M .14100002 .33 C .14100002 .34800003 .14100002 .35 .15200001 .366 C .17600002 .402 .22000002 .43100003 .26900003 .43100003 C .29900003 .43100003 .404 .419 .404 .22700002 C .404 .16000001 .39400003 .118 .37000004 .082 C .35000003 .051000004 .31000004 .020000002 .26000003 .020000002 C .20600002 .020000002 .17100002 .055000005 .15400002 .082 C .14100002 .103 .14100002 .107 .14100002 .124000009 L .14100002 .33 Z "/>
</symbol>
<symbol id="font_0_4">
<path d="M .13900002 .23300001 C .13900002 .33 .17900002 .42100004 .256 .42100004 C .26400004 .42100004 .266 .42100004 .27 .42000003 C .26200003 .416 .24600002 .41000004 .24600002 .38300003 C .24600002 .354 .26900003 .34300003 .28500004 .34300003 C .305 .34300003 .32500003 .356 .32500003 .38300003 C .32500003 .41300003 .298 .441 .25500003 .441 C .17000002 .441 .14100002 .349 .135 .33 L .134 .33 L .134 .441 L 0 .43 L 0 .40100003 C .068 .40100003 .076000008 .39400003 .076000008 .34500004 L .076000008 .074 C .076000008 .029000001 .065 .029000001 0 .029000001 L 0 0 C .028 .002 .083000008 .002 .113000009 .002 C .14000002 .002 .21100001 .002 .23400003 0 L .23400003 .029000001 L .21400002 .029000001 C .14100002 .029000001 .13900002 .040000004 .13900002 .076000008 L .13900002 .23300001 Z "/>
</symbol>
<symbol id="font_0_11">
<path d="M .154 .43800003 C .103 .451 .058000003 .50100007 .058000003 .56500008 C .058000003 .63500007 .11400001 .6980001 .192 .6980001 C .35600005 .6980001 .37800003 .5360001 .38400004 .49300004 C .38600005 .481 .38600005 .47700004 .39600004 .47700004 C .40700004 .47700004 .40700004 .48200003 .40700004 .50000008 L .40700004 .7020001 C .40700004 .7200001 .40700004 .7250001 .39700005 .7250001 C .39400003 .7250001 .39000006 .7250001 .38300003 .7120001 L .35000003 .6510001 C .30200003 .71300008 .23600002 .7250001 .192 .7250001 C .081 .7250001 0 .63600006 0 .53400006 C 0 .48600004 .017 .44200004 .054 .402 C .089 .363 .124 .354 .19500001 .33600004 C .23 .328 .28500004 .314 .29900003 .308 C .34600003 .285 .37700004 .231 .37700004 .17500001 C .37700004 .10000001 .32400004 .029000003 .24100001 .029000003 C .196 .029000003 .134 .040000004 .08500001 .083000008 C .026999999 .135 .023000006 .207 .022000004 .24000001 C .021000002 .24800001 .013 .24800001 .011000004 .24800001 C 0 .24800001 0 .24300002 0 .22500001 L 0 .023000002 C 0 .005000001 0 0 .010000002 0 C .015999999 0 .017 .0020000004 .024 .014000001 C .028 .022000002 .049000008 .059000005 .057000009 .074 C .092999998 .034 .156 0 .242 0 C .35400004 0 .43500004 .095 .43500004 .20500002 C .43500004 .266 .41200004 .31100003 .38500003 .344 C .34800003 .38900004 .30300004 .4 .26400004 .41000004 L .154 .43800003 Z "/>
</symbol>
<symbol id="font_0_14">
<path d="M .685 .24300002 C .685 .33600004 .685 .36400003 .662 .39600004 C .633 .43500004 .586 .441 .55200007 .441 C .46900005 .441 .42700003 .381 .411 .342 C .397 .41900004 .34300003 .441 .28 .441 C .183 .441 .145 .358 .13700001 .33800004 L .136 .33800004 L .136 .441 L 0 .43 L 0 .40100003 C .068 .40100003 .076000008 .39400003 .076000008 .34500004 L .076000008 .074 C .076000008 .029000001 .065 .029000001 0 .029000001 L 0 0 C .026 .002 .08 .002 .107999999 .002 C .13700001 .002 .191 .002 .21700001 0 L .21700001 .029000001 C .153 .029000001 .141 .029000001 .141 .074 L .141 .26000003 C .141 .365 .21000001 .42100004 .272 .42100004 C .33400003 .42100004 .34800003 .37 .34800003 .30900003 L .34800003 .074 C .34800003 .029000001 .337 .029000001 .272 .029000001 L .272 0 C .298 .002 .352 .002 .38000003 .002 C .409 .002 .46300004 .002 .48900003 0 L .48900003 .029000001 C .425 .029000001 .41300003 .029000001 .41300003 .074 L .41300003 .26000003 C .41300003 .365 .482 .42100004 .544 .42100004 C .606 .42100004 .62 .37 .62 .30900003 L .62 .074 C .62 .029000001 .609 .029000001 .544 .029000001 L .544 0 C .57000008 .002 .624 .002 .652 .002 C .68100008 .002 .735 .002 .76100006 0 L .76100006 .029000001 C .711 .029000001 .68600007 .029000001 .685 .059000005 L .685 .24300002 Z "/>
</symbol>
<symbol id="font_0_15">
<path d="M .09700001 .049000004 C .09700001 .076000008 .07400001 .097 .049000004 .097 C .020000004 .097 0 .074 0 .049000004 C 0 .019000002 .024999999 0 .048 0 C .074999999 0 .09700001 .021000002 .09700001 .049000004 Z "/>
</symbol>
<use xlink:href="#font_0_3" transform="matrix(33.20889,0,0,-33.20889,3.7276734,25.305275)"/>
<use xlink:href="#font_0_10" transform="matrix(33.20889,0,0,-33.20889,28.428864,25.305275)"/>
<use xlink:href="#font_0_c" transform="matrix(33.20889,0,0,-33.20889,37.328847,25.637364)"/>
<use xlink:href="#font_0_1" transform="matrix(33.20889,0,0,-33.20889,62.69589,25.305275)"/>
<use xlink:href="#font_0_2" transform="matrix(33.20889,0,0,-33.20889,87.062488,25.305275)"/>
<use xlink:href="#font_0_b" transform="matrix(33.20889,0,0,-33.20889,104.89649,25.305275)"/>
<use xlink:href="#font_0_8" transform="matrix(33.20889,0,0,-33.20889,119.79441,25.637364)"/>
<use xlink:href="#font_0_e" transform="matrix(33.20889,0,0,-33.20889,135.72928,25.305275)"/>
<use xlink:href="#font_0_13" transform="matrix(33.20889,0,0,-33.20889,153.76253,25.305275)"/>
<use xlink:href="#font_0_d" transform="matrix(33.20889,0,0,-33.20889,174.0615,25.305275)"/>
<use xlink:href="#font_0_7" transform="matrix(33.20889,0,0,-33.20889,195.72948,25.637364)"/>
<use xlink:href="#font_0_2" transform="matrix(33.20889,0,0,-33.20889,213.72953,25.305275)"/>
<use xlink:href="#font_0_12" transform="matrix(33.20889,0,0,-33.20889,231.59676,25.305275)"/>
<use xlink:href="#font_0_6" transform="matrix(33.20889,0,0,-33.20889,248.26471,25.637364)"/>
<use xlink:href="#font_0_c" transform="matrix(33.20889,0,0,-33.20889,261.32994,25.637364)"/>
<use xlink:href="#font_0_c" transform="matrix(33.20889,0,0,-33.20889,286.99668,25.637364)"/>
<use xlink:href="#font_0_10" transform="matrix(33.20889,0,0,-33.20889,301.42967,25.305275)"/>
<use xlink:href="#font_0_2" transform="matrix(33.20889,0,0,-33.20889,310.39607,25.305275)"/>
<use xlink:href="#font_0_c" transform="matrix(33.20889,0,0,-33.20889,328.3297,25.637364)"/>
<use xlink:href="#font_0_5" transform="matrix(33.20889,0,0,-33.20889,342.76274,25.637364)"/>
<use xlink:href="#font_0_f" transform="matrix(33.20889,0,0,-33.20889,367.0619,26.002663)"/>
<use xlink:href="#font_0_c" transform="matrix(33.20889,0,0,-33.20889,390.66349,25.637364)"/>
<use xlink:href="#font_0_a" transform="matrix(33.20889,0,0,-33.20889,405.1629,25.637364)"/>
<use xlink:href="#font_0_e" transform="matrix(33.20889,0,0,-33.20889,418.39665,25.305275)"/>
<use xlink:href="#font_0_6" transform="matrix(33.20889,0,0,-33.20889,434.93153,25.637364)"/>
<use xlink:href="#font_0_c" transform="matrix(33.20889,0,0,-33.20889,447.99674,25.637364)"/>
<use xlink:href="#font_0_a" transform="matrix(33.20889,0,0,-33.20889,462.49617,25.637364)"/>
<use xlink:href="#font_0_12" transform="matrix(33.20889,0,0,-33.20889,475.59684,25.305275)"/>
<use xlink:href="#font_0_5" transform="matrix(33.20889,0,0,-33.20889,492.7629,25.637364)"/>
<use xlink:href="#font_0_9" transform="matrix(33.20889,0,0,-33.20889,3.2627488,56.970975)"/>
<use xlink:href="#font_0_c" transform="matrix(33.20889,0,0,-33.20889,22.328787,56.970975)"/>
<use xlink:href="#font_0_4" transform="matrix(33.20889,0,0,-33.20889,36.59574,56.638887)"/>
<use xlink:href="#font_0_c" transform="matrix(33.20889,0,0,-33.20889,49.32886,56.970975)"/>
<use xlink:href="#font_0_a" transform="matrix(33.20889,0,0,-33.20889,63.828275,56.970975)"/>
<use xlink:href="#font_0_e" transform="matrix(33.20889,0,0,-33.20889,77.06224,56.638887)"/>
<use xlink:href="#font_0_2" transform="matrix(33.20889,0,0,-33.20889,95.06229,56.638887)"/>
<use xlink:href="#font_0_c" transform="matrix(33.20889,0,0,-33.20889,112.995929,56.970975)"/>
<use xlink:href="#font_0_6" transform="matrix(33.20889,0,0,-33.20889,126.93079,56.970975)"/>
<use xlink:href="#font_0_5" transform="matrix(33.20889,0,0,-33.20889,151.76253,56.970975)"/>
<use xlink:href="#font_0_10" transform="matrix(33.20889,0,0,-33.20889,164.42922,56.638887)"/>
<use xlink:href="#font_0_a" transform="matrix(33.20889,0,0,-33.20889,173.49526,56.970975)"/>
<use xlink:href="#font_0_e" transform="matrix(33.20889,0,0,-33.20889,186.72899,56.638887)"/>
<use xlink:href="#font_0_8" transform="matrix(33.20889,0,0,-33.20889,216.46137,56.970975)"/>
<use xlink:href="#font_0_13" transform="matrix(33.20889,0,0,-33.20889,232.42942,56.638887)"/>
<use xlink:href="#font_0_5" transform="matrix(33.20889,0,0,-33.20889,241.42903,56.970975)"/>
<use xlink:href="#font_0_11" transform="matrix(33.20889,0,0,-33.20889,265.4596,57.336275)"/>
<use xlink:href="#font_0_c" transform="matrix(33.20889,0,0,-33.20889,282.66264,56.970975)"/>
<use xlink:href="#font_0_10" transform="matrix(33.20889,0,0,-33.20889,297.09565,56.638887)"/>
<use xlink:href="#font_0_6" transform="matrix(33.20889,0,0,-33.20889,305.59715,56.970975)"/>
<use xlink:href="#font_0_c" transform="matrix(33.20889,0,0,-33.20889,318.66239,56.970975)"/>
<use xlink:href="#font_0_14" transform="matrix(33.20889,0,0,-33.20889,344.39576,56.638887)"/>
<use xlink:href="#font_0_8" transform="matrix(33.20889,0,0,-33.20889,371.7943,56.970975)"/>
<use xlink:href="#font_0_13" transform="matrix(33.20889,0,0,-33.20889,387.7624,56.638887)"/>
<use xlink:href="#font_0_11" transform="matrix(33.20889,0,0,-33.20889,408.4594,57.336275)"/>
<use xlink:href="#font_0_c" transform="matrix(33.20889,0,0,-33.20889,425.66249,56.970975)"/>
<use xlink:href="#font_0_10" transform="matrix(33.20889,0,0,-33.20889,440.09547,56.638887)"/>
<use xlink:href="#font_0_6" transform="matrix(33.20889,0,0,-33.20889,448.59693,56.970975)"/>
<use xlink:href="#font_0_c" transform="matrix(33.20889,0,0,-33.20889,461.6622,56.970975)"/>
<use xlink:href="#font_0_15" transform="matrix(33.20889,0,0,-33.20889,477.88847,56.638887)"/>
</g>
</svg>
