<?xml version="1.0" encoding="UTF-8" standalone="no"?>
<!DOCTYPE svg PUBLIC "-//W3C//DTD SVG 1.1//EN" "http://www.w3.org/Graphics/SVG/1.1/DTD/svg11.dtd">
<svg xmlns="http://www.w3.org/2000/svg" xmlns:xlink="http://www.w3.org/1999/xlink" version="1.1" width="470.44444pt" height="110.694438pt" viewBox="0 0 470.44444 110.694438">
<g enable-background="new">
<symbol id="font_0_3">
<path d="M .597 .256 L .57500007 .256 C .551 .1 .527 .029000001 .358 .029000001 L .222 .029000001 C .178 .029000001 .176 .036000004 .176 .069000009 L .176 .33900003 L .26700003 .33900003 C .363 .33900003 .374 .30800004 .374 .22200002 L .396 .22200002 L .396 .485 L .374 .485 C .374 .39900003 .363 .36800004 .26700003 .36800004 L .176 .36800004 L .176 .61200007 C .176 .64500007 .178 .652 .222 .652 L .35500003 .652 C .50200006 .652 .533 .60200008 .54800006 .45800004 L .57 .45800004 L .544 .68100008 L 0 .68100008 L 0 .652 L .020000004 .652 C .092 .652 .095000009 .642 .095000009 .605 L .095000009 .076000008 C .095000009 .039 .092 .029000001 .020000004 .029000001 L 0 .029000001 L 0 0 L .55700007 0 L .597 .256 Z "/>
</symbol>
<symbol id="font_0_5">
<path d="M .29500003 .433 C .29500003 .451 .29500003 .456 .28500004 .456 C .277 .456 .25800003 .43400003 .25100003 .425 C .22000003 .45000003 .18900001 .456 .157 .456 C .036000007 .456 0 .39000003 0 .335 C 0 .324 0 .289 .038000004 .254 C .07000001 .22600001 .10400001 .21900001 .15 .21000001 C .20500002 .19900002 .21800003 .19600001 .24300003 .17600002 C .261 .16100002 .27400003 .13900002 .27400003 .111 C .27400003 .068 .24900002 .020000002 .16100002 .020000002 C .095000009 .020000002 .047000007 .058000003 .025000003 .158 C .021000002 .17600002 .021000002 .17700002 .020000004 .17800002 C .018000003 .18200001 .014000002 .18200001 .011000004 .18200001 C 0 .18200001 0 .17700002 0 .15900001 L 0 .023000002 C 0 .0050000005 0 0 .010000002 0 C .015000001 0 .016000003 .0010000002 .033 .022 C .038000004 .029000003 .038000004 .031000004 .053000004 .047000003 C .091000009 0 .14500001 0 .162 0 C .26700003 0 .31900005 .058000003 .31900005 .13700001 C .31900005 .19100002 .286 .22300002 .277 .23200003 C .24100003 .263 .21400002 .269 .148 .28100003 C .11800001 .287 .045 .301 .045 .361 C .045 .39200003 .06600001 .43800003 .15600002 .43800003 C .26500003 .43800003 .27100004 .345 .27300004 .314 C .27400003 .306 .28100003 .306 .284 .306 C .29500003 .306 .29500003 .31100003 .29500003 .329 L .29500003 .433 Z "/>
</symbol>
<symbol id="font_0_f">
<path d="M .141 .61600008 C .141 .642 .12000001 .665 .092 .665 C .06600001 .665 .044000009 .64400008 .044000009 .61700007 C .044000009 .587 .068 .568 .092 .568 C .123 .568 .141 .59400007 .141 .61600008 M .0030000024 .43 L .0030000024 .40100003 C .067 .40100003 .076000008 .395 .076000008 .34600003 L .076000008 .074 C .076000008 .029000001 .065000008 .029000001 0 .029000001 L 0 0 C .028000005 .002 .076000008 .002 .10500001 .002 C .116000007 .002 .17400003 .002 .208 0 L .208 .029000001 C .143 .029000001 .139 .034 .139 .07300001 L .139 .441 L .0030000024 .43 Z "/>
</symbol>
<symbol id="font_0_6">
<path d="M .15 .412 L .291 .412 L .291 .441 L .15 .441 L .15 .625 L .128 .625 C .127 .531 .091000009 .435 0 .432 L 0 .412 L .08500001 .412 L .08500001 .134 C .08500001 .023000002 .159 0 .212 0 C .275 0 .308 .062000004 .308 .134 L .308 .19100002 L .286 .19100002 L .286 .136 C .286 .064 .257 .022 .21800001 .022 C .15 .022 .15 .115 .15 .13200002 L .15 .412 Z "/>
</symbol>
<symbol id="font_0_9">
<path d="M .13900002 .704 L 0 .693 L 0 .66400006 C .068 .66400006 .076000008 .657 .076000008 .60800006 L .076000008 .010000001 L .098000008 .010000001 C .10200001 .018000002 .13000001 .068 .134 .075 C .157 .038000004 .20000002 0 .26400004 0 C .379 0 .48000003 .097 .48000003 .22600001 C .48000003 .35300002 .38600005 .451 .275 .451 C .22000002 .451 .17300001 .426 .13900002 .384 L .13900002 .704 M .14100002 .33 C .14100002 .34800003 .14100002 .35 .15200001 .366 C .17600002 .402 .22000002 .43100003 .26900003 .43100003 C .29900003 .43100003 .404 .419 .404 .22700002 C .404 .16000001 .39400003 .118 .37000004 .082 C .35000003 .051000004 .31000004 .020000002 .26000003 .020000002 C .20600002 .020000002 .17100002 .055000005 .15400002 .082 C .14100002 .103 .14100002 .107 .14100002 .124000009 L .14100002 .33 Z "/>
</symbol>
<symbol id="font_0_c">
<path d="M .35300002 .24200002 C .37500004 .24200002 .377 .24200002 .377 .261 C .377 .36200003 .323 .456 .202 .456 C .08800001 .456 0 .35300002 0 .22900002 C 0 .097 .102 0 .21300002 0 C .33200003 0 .377 .108 .377 .12900001 C .377 .135 .372 .13900002 .36600004 .13900002 C .358 .13900002 .356 .134 .354 .12900001 C .328 .045 .261 .022 .21900001 .022 C .17700002 .022 .076000008 .050000006 .076000008 .22300002 L .076000008 .24200002 L .35300002 .24200002 M .07700001 .261 C .085 .418 .17300001 .43600003 .201 .43600003 C .30800004 .43600003 .314 .29500003 .31500004 .261 L .07700001 .261 Z "/>
</symbol>
<symbol id="font_0_4">
<path d="M .13900002 .23300001 C .13900002 .33 .17900002 .42100004 .256 .42100004 C .26400004 .42100004 .266 .42100004 .27 .42000003 C .26200003 .416 .24600002 .41000004 .24600002 .38300003 C .24600002 .354 .26900003 .34300003 .28500004 .34300003 C .305 .34300003 .32500003 .356 .32500003 .38300003 C .32500003 .41300003 .298 .441 .25500003 .441 C .17000002 .441 .14100002 .349 .135 .33 L .134 .33 L .134 .441 L 0 .43 L 0 .40100003 C .068 .40100003 .076000008 .39400003 .076000008 .34500004 L .076000008 .074 C .076000008 .029000001 .065 .029000001 0 .029000001 L 0 0 C .028 .002 .083000008 .002 .113000009 .002 C .14000002 .002 .21100001 .002 .23400003 0 L .23400003 .029000001 L .21400002 .029000001 C .14100002 .029000001 .13900002 .040000004 .13900002 .076000008 L .13900002 .23300001 Z "/>
</symbol>
<symbol id="font_0_b">
<path d="M .26500003 .693 L .26500003 .66400006 C .33300004 .66400006 .34100003 .657 .34100003 .60800006 L .34100003 .387 C .32000003 .416 .277 .451 .21600002 .451 C .10000001 .451 0 .35300002 0 .22500001 C 0 .098000008 .09500001 0 .20500002 0 C .28100003 0 .32500003 .050000006 .33900003 .069000009 L .33900003 0 L .48000006 .010000001 L .48000006 .039 C .41200004 .039 .404 .046000005 .404 .095 L .404 .704 L .26500003 .693 M .33900003 .127 C .33900003 .109000008 .33900003 .106 .32500003 .084 C .30100004 .049000004 .26000003 .020000002 .21000001 .020000002 C .18400002 .020000002 .076000008 .030000002 .076000008 .22400002 C .076000008 .296 .088 .336 .110000018 .36900003 C .13000001 .4 .17000002 .43100003 .22000003 .43100003 C .282 .43100003 .31700004 .386 .32700003 .37 C .33900003 .35300002 .33900003 .351 .33900003 .333 L .33900003 .127 Z "/>
</symbol>
<symbol id="font_0_d">
<path d="M .092 .38600005 C .13900002 .35500003 .17900002 .35500003 .19000001 .35500003 C .28 .35500003 .347 .42300005 .347 .5 C .347 .52700009 .33900003 .56500008 .307 .597 C .34600003 .637 .393 .637 .398 .637 C .402 .637 .407 .637 .411 .635 C .40100003 .63100007 .396 .62100008 .396 .61 C .396 .5960001 .40600003 .584 .42200003 .584 C .43 .584 .448 .589 .448 .61100009 C .448 .62900009 .43400003 .65700009 .39900003 .65700009 C .347 .65700009 .308 .625 .294 .61 C .264 .633 .22900002 .646 .19100002 .646 C .101 .646 .034 .57800009 .034 .50100007 C .034 .444 .069 .407 .079 .398 C .067 .38300003 .049000004 .35400004 .049000004 .31500004 C .049000004 .25700004 .08400001 .23200001 .092 .22700002 C .046000005 .21400002 0 .17800002 0 .12600002 C 0 .05700001 .094000007 0 .21700002 0 C .336 0 .435 .053000004 .435 .128 C .435 .15300001 .428 .21200001 .368 .24300002 C .317 .26900003 .267 .26900003 .18100001 .26900003 C .12 .26900003 .113 .26900003 .095000009 .28800003 C .085 .298 .076000008 .31700004 .076000008 .338 C .076000008 .35500003 .082 .37200005 .092 .38600005 M .19100002 .37600003 C .10300001 .37600003 .10300001 .47700004 .10300001 .5 C .10300001 .518 .10300001 .559 .12 .586 C .13900002 .615 .16900002 .625 .19000001 .625 C .278 .625 .278 .52400007 .278 .50100007 C .278 .48300005 .278 .44200004 .261 .41500003 C .24200003 .38600005 .21200001 .37600003 .19100002 .37600003 M .21800001 .020999998 C .122 .020999998 .049000004 .07000001 .049000004 .127 C .049000004 .13500002 .051 .17400001 .089 .20000002 C .11100001 .21400002 .12 .21400002 .19000001 .21400002 C .273 .21400002 .386 .21400002 .386 .127 C .386 .068 .31 .020999998 .21800001 .020999998 Z "/>
</symbol>
<symbol id="font_0_8">
<path d="M .342 .277 C .342 .331 .342 .37100003 .298 .41 C .263 .442 .21800003 .456 .17400001 .456 C .09200001 .456 .029000003 .402 .029000003 .337 C .029000003 .308 .048000006 .294 .070999998 .294 C .09500001 .294 .112 .31100003 .112 .335 C .112 .37600003 .076000008 .37600003 .061 .37600003 C .08400001 .418 .13200002 .43600003 .172 .43600003 C .21800003 .43600003 .277 .398 .277 .308 L .277 .268 C .076000008 .26500003 0 .18100001 0 .104 C 0 .025000003 .09200001 0 .15300001 0 C .21900001 0 .26400004 .040000004 .28300003 .088 C .28700004 .041 .31800003 .0050000005 .36100004 .0050000005 C .38200004 .0050000005 .44000004 .019000002 .44000004 .099 L .44000004 .15500002 L .418 .15500002 L .418 .099 C .418 .042000005 .39400003 .034 .38000003 .034 C .342 .034 .342 .087000008 .342 .102000009 L .342 .277 M .277 .15100001 C .277 .053000004 .20400001 .020000002 .16100002 .020000002 C .112 .020000002 .070999998 .056000007 .070999998 .104 C .070999998 .23600002 .24100003 .24800001 .277 .25 L .277 .15100001 Z "/>
</symbol>
<symbol id="font_0_2">
<path d="M .48100005 .648 C .48900006 .661 .48900006 .66200008 .48900006 .669 C .48900006 .683 .48400007 .683 .46500007 .683 L .025000003 .683 L .014000002 .46 L .036000004 .46 C .043 .573 .074 .65400007 .23600002 .65400007 L .39600004 .65400007 L 0 .024 C 0 .001 .001000002 0 .024 0 L .47800002 0 L .49400006 .264 L .47200004 .264 C .46500007 .123 .44400005 .031000002 .26200003 .031000002 L .092999998 .031000002 L .48100005 .648 Z "/>
</symbol>
<symbol id="font_0_e">
<path d="M .41300003 .24300002 C .41300003 .33600004 .41300003 .36400003 .39000003 .39600004 C .361 .43500004 .314 .441 .28 .441 C .194 .441 .154 .37600003 .14 .34500004 L .139 .34500004 L .139 .694 L 0 .683 L 0 .65400007 C .068 .65400007 .076000008 .647 .076000008 .59800007 L .076000008 .074 C .076000008 .029000001 .065 .029000001 0 .029000001 L 0 0 C .026 .002 .08 .002 .107999999 .002 C .13700001 .002 .191 .002 .21700001 0 L .21700001 .029000001 C .153 .029000001 .141 .029000001 .141 .074 L .141 .26000003 C .141 .365 .21000001 .42100004 .272 .42100004 C .33400003 .42100004 .34800003 .37 .34800003 .30900003 L .34800003 .074 C .34800003 .029000001 .337 .029000001 .272 .029000001 L .272 0 C .298 .002 .352 .002 .38000003 .002 C .409 .002 .46300004 .002 .48900003 0 L .48900003 .029000001 C .439 .029000001 .414 .029000001 .41300003 .059000005 L .41300003 .24300002 Z "/>
</symbol>
<symbol id="font_0_10">
<path d="M .139 .694 L 0 .683 L 0 .65400007 C .068 .65400007 .076000008 .647 .076000008 .59800007 L .076000008 .074 C .076000008 .029000001 .065000008 .029000001 0 .029000001 L 0 0 C .028000005 .002 .07700001 .002 .107 .002 C .137 .002 .187 .002 .215 0 L .215 .029000001 C .15100003 .029000001 .139 .029000001 .139 .074 L .139 .694 Z "/>
</symbol>
<symbol id="font_0_a">
<path d="M .354 .40300004 C .363 .41400004 .363 .416 .363 .42000003 C .363 .43100003 .356 .43100003 .33900003 .43100003 L .025 .43100003 L .014 .272 L .036 .272 C .042000005 .374 .061000006 .411 .17000002 .411 L .286 .411 L 0 .018000002 C 0 0 .0020000004 0 .024000003 0 L .35 0 L .366 .18400002 L .344 .18400002 C .335 .07 .31800003 .022000002 .19900002 .022000002 L .078 .022000002 L .354 .40300004 Z "/>
</symbol>
<symbol id="font_0_7">
<path d="M .272 .44 L .272 .411 C .34 .411 .34800003 .404 .34800003 .35500003 L .34800003 .17600002 C .34800003 .091 .303 .020000002 .22800002 .020000002 C .146 .020000002 .141 .067 .141 .120000008 L .141 .451 L 0 .44 L 0 .411 C .076000008 .411 .076000008 .40800003 .076000008 .319 L .076000008 .16900002 C .076000008 .107 .076000008 .071 .106000009 .038000004 C .13 .012000001 .171 0 .222 0 C .23900002 0 .271 0 .305 .029000003 C .33400003 .052000006 .35000003 .09 .35000003 .09 L .35000003 0 L .48900003 .010000001 L .48900003 .039 C .421 .039 .41300003 .046000005 .41300003 .095 L .41300003 .451 L .272 .44 Z "/>
</symbol>
<symbol id="font_0_1">
<path d="M .41300003 .24300002 C .41300003 .33600004 .41300003 .36400003 .39000003 .39600004 C .361 .43500004 .314 .441 .28 .441 C .183 .441 .145 .358 .13700001 .33800004 L .136 .33800004 L .136 .441 L 0 .43 L 0 .40100003 C .068 .40100003 .076000008 .39400003 .076000008 .34500004 L .076000008 .074 C .076000008 .029000001 .065 .029000001 0 .029000001 L 0 0 C .026 .002 .08 .002 .107999999 .002 C .13700001 .002 .191 .002 .21700001 0 L .21700001 .029000001 C .153 .029000001 .141 .029000001 .141 .074 L .141 .26000003 C .141 .365 .21000001 .42100004 .272 .42100004 C .33400003 .42100004 .34800003 .37 .34800003 .30900003 L .34800003 .074 C .34800003 .029000001 .337 .029000001 .272 .029000001 L .272 0 C .298 .002 .352 .002 .38000003 .002 C .409 .002 .46300004 .002 .48900003 0 L .48900003 .029000001 C .439 .029000001 .414 .029000001 .41300003 .059000005 L .41300003 .24300002 Z "/>
</symbol>
<use xlink:href="#font_0_3" transform="matrix(33.20889,0,0,-33.20889,3.6944643,25.19416)"/>
<use xlink:href="#font_0_5" transform="matrix(33.20889,0,0,-33.20889,25.428854,25.526249)"/>
<use xlink:href="#font_0_f" transform="matrix(33.20889,0,0,-33.20889,49.429349,25.19416)"/>
<use xlink:href="#font_0_5" transform="matrix(33.20889,0,0,-33.20889,58.42896,25.526249)"/>
<use xlink:href="#font_0_6" transform="matrix(33.20889,0,0,-33.20889,70.597537,25.526249)"/>
<use xlink:href="#font_0_9" transform="matrix(33.20889,0,0,-33.20889,94.59613,25.526249)"/>
<use xlink:href="#font_0_c" transform="matrix(33.20889,0,0,-33.20889,113.66217,25.526249)"/>
<use xlink:href="#font_0_5" transform="matrix(33.20889,0,0,-33.20889,128.09517,25.526249)"/>
<use xlink:href="#font_0_5" transform="matrix(33.20889,0,0,-33.20889,140.76187,25.526249)"/>
<use xlink:href="#font_0_c" transform="matrix(33.20889,0,0,-33.20889,153.32895,25.526249)"/>
<use xlink:href="#font_0_4" transform="matrix(33.20889,0,0,-33.20889,167.59589,25.19416)"/>
<use xlink:href="#font_0_b" transform="matrix(33.20889,0,0,-33.20889,191.82865,25.526249)"/>
<use xlink:href="#font_0_f" transform="matrix(33.20889,0,0,-33.20889,209.76229,25.19416)"/>
<use xlink:href="#font_0_c" transform="matrix(33.20889,0,0,-33.20889,218.66226,25.526249)"/>
<use xlink:href="#font_0_d" transform="matrix(33.20889,0,0,-33.20889,243.89562,32.001985)"/>
<use xlink:href="#font_0_c" transform="matrix(33.20889,0,0,-33.20889,260.3286,25.526249)"/>
<use xlink:href="#font_0_4" transform="matrix(33.20889,0,0,-33.20889,274.59556,25.19416)"/>
<use xlink:href="#font_0_8" transform="matrix(33.20889,0,0,-33.20889,287.7936,25.526249)"/>
<use xlink:href="#font_0_b" transform="matrix(33.20889,0,0,-33.20889,303.8281,25.526249)"/>
<use xlink:href="#font_0_c" transform="matrix(33.20889,0,0,-33.20889,321.66215,25.526249)"/>
<use xlink:href="#font_0_2" transform="matrix(33.20889,0,0,-33.20889,347.7928,25.19416)"/>
<use xlink:href="#font_0_8" transform="matrix(33.20889,0,0,-33.20889,367.4608,25.526249)"/>
<use xlink:href="#font_0_e" transform="matrix(33.20889,0,0,-33.20889,383.39564,25.19416)"/>
<use xlink:href="#font_0_10" transform="matrix(33.20889,0,0,-33.20889,401.4289,25.19416)"/>
<use xlink:href="#font_0_a" transform="matrix(33.20889,0,0,-33.20889,3.2295399,63.194444)"/>
<use xlink:href="#font_0_7" transform="matrix(33.20889,0,0,-33.20889,17.728959,63.52653)"/>
<use xlink:href="#font_0_e" transform="matrix(33.20889,0,0,-33.20889,46.729055,63.194444)"/>
<use xlink:href="#font_0_8" transform="matrix(33.20889,0,0,-33.20889,65.12761,63.52653)"/>
<use xlink:href="#font_0_10" transform="matrix(33.20889,0,0,-33.20889,81.09568,63.194444)"/>
<use xlink:href="#font_0_9" transform="matrix(33.20889,0,0,-33.20889,89.929248,63.52653)"/>
<use xlink:href="#font_0_f" transform="matrix(33.20889,0,0,-33.20889,108.09534,63.194444)"/>
<use xlink:href="#font_0_c" transform="matrix(33.20889,0,0,-33.20889,116.99533,63.52653)"/>
<use xlink:href="#font_0_4" transform="matrix(33.20889,0,0,-33.20889,131.26229,63.194444)"/>
<use xlink:href="#font_0_c" transform="matrix(33.20889,0,0,-33.20889,143.99539,63.52653)"/>
<use xlink:href="#font_0_1" transform="matrix(33.20889,0,0,-33.20889,158.39516,63.194444)"/>
</g>
</svg>
