<?xml version="1.0" encoding="UTF-8" standalone="no"?>
<!DOCTYPE svg PUBLIC "-//W3C//DTD SVG 1.1//EN" "http://www.w3.org/Graphics/SVG/1.1/DTD/svg11.dtd">
<svg xmlns="http://www.w3.org/2000/svg" xmlns:xlink="http://www.w3.org/1999/xlink" version="1.1" width="260.1389pt" height="290.5833pt" viewBox="0 0 260.1389 290.5833">
<g enable-background="new">
<clipPath id="cp0">
<path transform="matrix(.27777777,0,0,-.27777777,0,290.5833)" d="M 789.363 477.152 L 789.363 477.152 L 787.031 483.559 L 779.031 502.426 L 766.898 526.559 L 753.066 549.473 L 737.625 571.109 L 720.672 591.402 L 702.305 610.277 L 682.613 627.672 L 661.699 643.523 L 639.652 657.758 L 616.57 670.309 L 592.551 681.113 L 567.684 690.105 L 542.074 697.215 L 515.805 702.375 L 488.984 705.52 L 468.52 706.586 L 461.699 706.586 L 452.785 706.586 L 426.047 704.785 L 391.426 699.5 L 358.008 690.906 L 325.973 679.18 L 295.492 664.496 L 266.742 647.031 L 239.898 626.957 L 215.137 604.453 L 192.633 579.688 L 172.559 552.844 L 155.09 524.094 L 140.406 493.613 L 128.684 461.578 L 120.09 428.16 L 114.805 393.539 L 113.008 366.801 L 113.008 357.891 L 113.008 348.977 L 114.805 322.238 L 120.09 287.617 L 128.684 254.199 L 140.406 222.164 L 155.09 191.684 L 172.559 162.934 L 192.633 136.09 L 215.137 111.328 L 239.898 88.8242 L 266.742 68.75 L 295.492 51.2813 L 325.973 36.5977 L 358.008 24.875 L 391.426 16.2813 L 426.047 10.9961 L 452.785 9.19922 L 461.699 9.19922 L 470.078 9.19922 L 495.219 10.793 L 527.887 15.4883 L 559.539 23.1367 L 590.031 33.6055 L 619.203 46.7461 L 646.906 62.418 L 672.977 80.4883 L 697.273 100.809 L 719.633 123.238 L 739.902 147.637 L 757.934 173.863 L 773.566 201.781 L 786.652 231.242 L 797.031 262.109 L 804.555 294.242 L 808.336 319.148 L 809.066 327.5 L 809.066 327.504 L 880.133 327.504 L 789.363 477.152 Z "/>
</clipPath>
<g clip-path="url(#cp0)">
<path transform="matrix(.27777777,0,0,-.27777777,0,290.5833)" d="M 113.008 9.19922 L 880.133 9.19922 L 880.133 706.58627 L 113.008 706.58627 Z " fill="#ffffff"/>
</g>
<path transform="matrix(.27777777,0,0,-.27777777,0,290.5833)" stroke-width="4.98132" stroke-linecap="butt" stroke-miterlimit="10" stroke-linejoin="miter" fill="none" stroke="#000000" d="M 789.363 477.152 L 789.363 477.152 C 739.227 614.898 608.285 706.586 461.699 706.586 C 269.125 706.586 113.008 550.465 113.008 357.891 C 113.008 165.316 269.125 9.19922 461.699 9.19922 C 642.496 9.19922 793.313 147.391 809.066 327.5 L 809.066 327.504 L 880.133 327.504 L 789.363 477.152 Z "/>
<clipPath id="cp1">
<path transform="matrix(.27777777,0,0,-.27777777,0,290.5833)" d="M 685.836 625.008 L 685.836 625.008 L 679.977 629.922 L 661.535 643.641 L 635.848 659.98 L 608.934 673.973 L 580.957 685.555 L 552.082 694.664 L 522.473 701.246 L 492.289 705.238 L 469.344 706.586 L 461.699 706.586 L 452.785 706.586 L 426.047 704.785 L 391.426 699.5 L 358.008 690.906 L 325.973 679.18 L 295.492 664.496 L 266.742 647.031 L 239.898 626.957 L 215.137 604.453 L 192.633 579.688 L 172.559 552.844 L 155.09 524.094 L 140.406 493.613 L 128.684 461.578 L 120.09 428.16 L 114.805 393.539 L 113.008 366.801 L 113.008 357.891 L 113.008 350.242 L 114.352 327.297 L 118.344 297.117 L 124.926 267.508 L 134.035 238.633 L 145.617 210.656 L 159.609 183.742 L 175.949 158.055 L 189.668 139.613 L 194.586 133.758 Z "/>
</clipPath>
<g clip-path="url(#cp1)">
<path transform="matrix(.27777777,0,0,-.27777777,0,290.5833)" stroke-width="34.8692" stroke-linecap="butt" stroke-miterlimit="10" stroke-linejoin="miter" fill="none" stroke="#000000" d="M 147.879 98.8867 L 147.879 741.457 "/>
<path transform="matrix(.27777777,0,0,-.27777777,0,290.5833)" stroke-width="34.8692" stroke-linecap="butt" stroke-miterlimit="10" stroke-linejoin="miter" fill="none" stroke="#000000" d="M 217.617 98.8867 L 217.617 741.457 "/>
<path transform="matrix(.27777777,0,0,-.27777777,0,290.5833)" stroke-width="34.8692" stroke-linecap="butt" stroke-miterlimit="10" stroke-linejoin="miter" fill="none" stroke="#000000" d="M 287.355 98.8867 L 287.355 741.457 "/>
<path transform="matrix(.27777777,0,0,-.27777777,0,290.5833)" stroke-width="34.8692" stroke-linecap="butt" stroke-miterlimit="10" stroke-linejoin="miter" fill="none" stroke="#000000" d="M 357.094 98.8867 L 357.094 741.457 "/>
<path transform="matrix(.27777777,0,0,-.27777777,0,290.5833)" stroke-width="34.8692" stroke-linecap="butt" stroke-miterlimit="10" stroke-linejoin="miter" fill="none" stroke="#000000" d="M 426.832 98.8867 L 426.832 741.457 "/>
<path transform="matrix(.27777777,0,0,-.27777777,0,290.5833)" stroke-width="34.8692" stroke-linecap="butt" stroke-miterlimit="10" stroke-linejoin="miter" fill="none" stroke="#000000" d="M 496.57 98.8867 L 496.57 741.457 "/>
<path transform="matrix(.27777777,0,0,-.27777777,0,290.5833)" stroke-width="34.8692" stroke-linecap="butt" stroke-miterlimit="10" stroke-linejoin="miter" fill="none" stroke="#000000" d="M 566.309 98.8867 L 566.309 741.457 "/>
<path transform="matrix(.27777777,0,0,-.27777777,0,290.5833)" stroke-width="34.8692" stroke-linecap="butt" stroke-miterlimit="10" stroke-linejoin="miter" fill="none" stroke="#000000" d="M 636.047 98.8867 L 636.047 741.457 "/>
</g>
<clipPath id="cp2">
<path transform="matrix(.27777777,0,0,-.27777777,0,290.5833)" d="M 698.813 427.629 L 698.813 427.629 L 698.813 429.031 L 698.242 433.246 L 696.617 438.484 L 694.043 443.223 L 690.637 447.352 L 686.508 450.758 L 681.77 453.332 L 676.531 454.957 L 672.316 455.527 L 670.914 455.527 L 669.508 455.527 L 665.293 454.957 L 660.055 453.332 L 655.316 450.758 L 651.188 447.352 L 647.781 443.223 L 645.211 438.484 L 643.586 433.246 L 643.02 429.031 L 643.02 427.629 L 643.02 426.223 L 643.586 422.008 L 645.211 416.77 L 647.781 412.031 L 651.188 407.902 L 655.316 404.496 L 660.055 401.926 L 665.293 400.301 L 669.508 399.734 L 670.914 399.734 L 672.316 399.734 L 676.531 400.301 L 681.77 401.926 L 686.508 404.496 L 690.637 407.902 L 694.043 412.031 L 696.617 416.77 L 698.242 422.008 L 698.813 426.223 L 698.813 427.629 Z "/>
</clipPath>
<g clip-path="url(#cp2)">
<path transform="matrix(.27777777,0,0,-.27777777,0,290.5833)" d="M 643.02 399.734 L 698.813 399.734 L 698.813 455.527 L 643.02 455.527 Z "/>
</g>
<path transform="matrix(.27777777,0,0,-.27777777,0,290.5833)" stroke-width="4.98132" stroke-linecap="butt" stroke-miterlimit="10" stroke-linejoin="miter" fill="none" stroke="#000000" d="M 698.813 427.629 L 698.813 427.629 C 698.813 443.031 686.316 455.527 670.914 455.527 C 655.512 455.527 643.02 443.031 643.02 427.629 C 643.02 412.227 655.512 399.734 670.914 399.734 C 686.316 399.734 698.813 412.227 698.813 427.629 Z "/>
<symbol id="font_3_20">
<path d="M .25300003 .19900002 L .25300003 .246 C .254 .291 .268 .31300003 .33200003 .37 C .407 .43800003 .43199999 .48200003 .43199999 .549 C .43199999 .666 .34900005 .74100008 .219 .74100008 C .074 .74100008 0 .66200008 0 .507 L .08499999 .507 C .08499999 .615 .124 .66300007 .214 .66300007 C .291 .66300007 .342 .61700007 .342 .549 C .342 .503 .32 .46400003 .26700003 .41700004 C .182 .342 .163 .31300003 .163 .254 L .163 .19900002 L .25300003 .19900002 M .25300003 .104 L .163 .104 L .163 0 L .25300003 0 L .25300003 .104 Z "/>
</symbol>
<use xlink:href="#font_3_20" transform="matrix(79.342159,-55.55593,-55.55593,-79.342159,59.758508,97.23551)"/>
<use xlink:href="#font_3_20" transform="matrix(96.49035,-8.441804,-8.441804,-96.49035,115.900859,75.5747)"/>
<use xlink:href="#font_3_20" transform="matrix(87.78398,40.93431,40.93431,-87.78398,175.35214,84.88665)"/>
</g>
</svg>
