<?xml version="1.0" encoding="UTF-8" standalone="no"?>
<!DOCTYPE svg PUBLIC "-//W3C//DTD SVG 1.1//EN" "http://www.w3.org/Graphics/SVG/1.1/DTD/svg11.dtd">
<svg xmlns="http://www.w3.org/2000/svg" xmlns:xlink="http://www.w3.org/1999/xlink" version="1.1" width="154.97222pt" height="154.97222pt" viewBox="0 0 154.97222 154.97222">
<g enable-background="new">
<clipPath id="cp0">
<path transform="matrix(.27777777,0,0,-.27777777,0,154.97222)" d="M 277.391 10.8008 L 499.078 10.8008 L 506.605 11.8125 L 515.957 14.7148 L 524.418 19.3086 L 531.789 25.3906 L 537.871 32.7617 L 542.465 41.2227 L 545.367 50.5742 L 546.383 58.1016 L 546.383 60.6133 L 546.383 498.969 L 546.383 501.477 L 545.367 509.004 L 542.465 518.355 L 537.871 526.816 L 531.789 534.188 L 524.418 540.27 L 515.957 544.863 L 506.605 547.766 L 499.078 548.781 L 496.57 548.781 L 58.2148 548.781 L 55.7031 548.781 L 48.1719 547.766 L 38.8242 544.863 L 30.3594 540.27 L 22.9883 534.188 L 16.9063 526.816 L 12.3125 518.355 L 9.41016 509.004 L 8.39844 501.477 L 8.39844 498.969 L 8.39844 60.6133 L 8.39844 58.1016 L 9.41016 50.5742 L 12.3125 41.2227 L 16.9063 32.7617 L 22.9883 25.3906 L 30.3594 19.3086 L 38.8242 14.7148 L 48.1719 11.8125 L 55.7031 10.8008 L 58.2148 10.8008 L 277.391 10.8008 Z "/>
</clipPath>
<g clip-path="url(#cp0)">
<path transform="matrix(.27777777,0,0,-.27777777,0,154.97222)" d="M 8.39844 10.8008 L 546.38247 10.8008 L 546.38247 548.78079 L 8.39844 548.78079 Z " fill="#c0c0c0"/>
</g>
<symbol id="font_1_3">
<path d="M .147 .29900003 L .379 .29900003 C .41000004 .29900003 .427 .30600003 .427 .34600003 C .427 .38300003 .41399998 .393 .379 .393 L .147 .393 L .147 .59000006 L .19000001 .59000006 C .265 .59000006 .34100003 .587 .416 .587 C .45 .587 .473 .587 .473 .63500007 L .473 .643 C .473 .675 .46600003 .69100007 .425 .69100007 L .048000009 .69100007 C .012000002 .69100007 0 .68 0 .643 L 0 .048 C 0 .012 .011 0 .048000009 0 L .09900001 0 C .13700001 0 .147 .013 .147 .048 L .147 .29900003 Z "/>
</symbol>
<symbol id="font_1_a">
<path d="M .048000006 .69500008 C .015999999 .69500008 0 .689 0 .64900007 L 0 .60300007 C 0 .57100006 .010000002 .558 .047000003 .558 L .09900001 .558 C .147 .558 .147 .57900008 .147 .62600007 C .147 .674 .147 .69500008 .09900001 .69500008 L .048000006 .69500008 M .14 .41000004 C .14 .44200004 .133 .45800004 .09200001 .45800004 L .055000005 .45800004 C .019000005 .45800004 .007000003 .44700004 .007000003 .41000004 L .007000003 .048 C .007000003 .012 .018000003 0 .055000005 0 L .09200001 0 C .13000001 0 .14 .013 .14 .048 L .14 .41000004 Z "/>
</symbol>
<symbol id="font_1_8">
<path d="M .175 .29800005 C .139 .29800005 .125 .29800005 .11100001 .31 C .107 .314 .09 .32900004 .09 .35500003 C .09 .36200003 .091000009 .36400003 .09200001 .37 C .139 .34400005 .198 .34400005 .21900001 .34400005 C .261 .34400005 .42000003 .34400005 .42000003 .509 C .42000003 .56700006 .398 .60200008 .38900004 .61300006 C .40600003 .61300006 .441 .61300006 .48200003 .60200008 C .48600004 .6 .493 .59800007 .49600003 .59800007 C .50400009 .59800007 .50900009 .60400006 .50900009 .61100009 C .50900009 .615 .50400009 .63900008 .50200006 .64900007 C .498 .67300006 .498 .675 .48 .675 C .44900004 .675 .39900003 .66300007 .361 .64000007 C .314 .67100009 .262 .675 .21900001 .675 C .177 .675 .018000002 .675 .018000002 .51000007 C .018000002 .47000004 .029000001 .42000003 .06700001 .38700003 C .040000008 .35000003 .040000008 .31100003 .040000008 .30600003 C .040000008 .287 .046000005 .254 .06700001 .22700002 C .05200001 .22100002 0 .20300001 0 .13900002 C 0 .10800001 .015000002 .05600001 .07800001 .02700001 C .135 .001000002 .202 0 .24900002 0 C .308 0 .49900005 0 .49900005 .14200002 C .49900005 .29800005 .358 .29800005 .223 .29800005 L .175 .29800005 M .21900001 .416 C .149 .416 .146 .45400004 .146 .509 C .146 .564 .149 .60300007 .21900001 .60300007 C .289 .60300007 .292 .56500008 .292 .51000007 C .292 .45500005 .289 .416 .21900001 .416 M .273 .18900001 C .354 .18900001 .39600004 .17500001 .39600004 .13900002 C .39600004 .07200001 .282 .07200001 .25 .07200001 C .21000001 .07200001 .10300001 .07200001 .10300001 .14200002 C .10300001 .18900001 .134 .18900001 .157 .18900001 L .273 .18900001 Z "/>
</symbol>
<symbol id="font_1_4">
<path d="M .44 .42100004 C .44 .45300005 .43300004 .46900005 .39200003 .46900005 L .35200004 .46900005 C .314 .46900005 .30400003 .45600004 .30400003 .42100004 L .30400003 .18400002 C .30400003 .11800001 .26900003 .061 .19800002 .061 C .142 .061 .136 .075 .136 .128 L .136 .42100004 C .136 .45300005 .12900001 .46900005 .088 .46900005 L .048 .46900005 C .012000002 .46900005 0 .45800004 0 .42100004 L 0 .13700001 C 0 .030000002 .058000007 0 .16200002 0 C .18900001 0 .26000003 0 .307 .085 L .307 .059 C .307 .027000003 .314 .011000001 .35500003 .011000001 L .39200003 .011000001 C .43 .011000001 .44 .024 .44 .059 L .44 .42100004 Z "/>
</symbol>
<symbol id="font_1_2">
<path d="M .133 .23 C .133 .32500003 .212 .36400003 .27500005 .36800004 C .29299999 .36900003 .29500003 .36900003 .29500003 .395 L .29500003 .44200004 C .29500003 .462 .29500003 .469 .277 .469 C .249 .469 .17600002 .45900003 .12900001 .351 L .128 .351 L .128 .416 C .128 .448 .12100001 .46400003 .08 .46400003 L .048 .46400003 C .012000002 .46400003 0 .453 0 .416 L 0 .048 C 0 .012 .011 0 .048 0 L .08500001 0 C .12300001 0 .133 .013 .133 .048 L .133 .23 Z "/>
</symbol>
<symbol id="font_1_7">
<path d="M .40000005 .22500003 C .42300005 .22500003 .44800005 .22600001 .44800005 .27100004 C .44800005 .40000005 .38800005 .48600004 .23900001 .48600004 C .079 .48600004 0 .39600004 0 .24400002 C 0 .080000009 .095 0 .25200004 0 C .29000003 0 .34700004 .005000001 .41300006 .038000004 C .43500004 .049000004 .44200004 .052 .44200004 .064 C .44200004 .071 .43900005 .1 .43800003 .108 C .43400005 .13900002 .43300004 .14000002 .42400003 .14000002 C .42000006 .14000002 .41800005 .14000002 .40700004 .13000001 C .34800003 .079 .28800003 .072000008 .256 .072000008 C .143 .072000008 .131 .16100002 .128 .22500003 L .40000005 .22500003 M .12900001 .27800004 C .132 .33900003 .15200001 .41400004 .23900001 .41400004 C .31900005 .41400004 .33400003 .35600005 .33700005 .27800004 L .12900001 .27800004 Z "/>
</symbol>
<symbol id="font_1_1">
<path d="M .44 .32500003 C .44 .42800004 .39600004 .469 .294 .469 C .18900001 .469 .14400001 .393 .13100001 .36600004 L .13000001 .36600004 L .13000001 .416 C .13000001 .448 .12300001 .46400003 .082 .46400003 L .048 .46400003 C .012000002 .46400003 0 .453 0 .416 L 0 .048 C 0 .012 .011 0 .048 0 L .088 0 C .126 0 .136 .013 .136 .048 L .136 .26900003 C .136 .356 .194 .397 .24600002 .397 C .294 .397 .30400003 .374 .30400003 .323 L .30400003 .048 C .30400003 .016 .31100003 0 .35200004 0 L .39200003 0 C .43 0 .44 .013 .44 .048 L .44 .32500003 Z "/>
</symbol>
<symbol id="font_1_c">
<path d="M .245 0 C .25700004 0 .293 0 .293 .036000015 C .293 .07200001 .25700004 .07200001 .245 .07200001 L .048 .07200001 C .036 .07200001 0 .07200001 0 .036000015 C 0 0 .036 0 .048 0 L .245 0 Z "/>
</symbol>
<symbol id="font_1_6">
<path d="M .39500005 .38200004 C .40500004 .395 .40700004 .4 .40700004 .416 C .40700004 .45800004 .37600003 .45800004 .35900004 .45800004 L .063 .45800004 C .049999998 .45800004 .015000002 .45800004 .015000002 .42000003 C .015000002 .38300003 .047 .38300003 .074 .38300003 C .106000009 .38300003 .187 .38500003 .219 .38500003 L .256 .38500003 L .012 .076000008 C .0019999985 .063 0 .058000003 0 .042000005 C 0 0 .031000002 0 .048 0 L .36200003 0 C .37500004 0 .41000004 0 .41000004 .037 C .41000004 .075 .37900005 .075 .35000003 .075 C .30000005 .075 .24700003 .07300001 .19700001 .07300001 L .15100001 .07300001 L .39500005 .38200004 Z "/>
</symbol>
<symbol id="font_1_5">
<path d="M .43300004 .32700003 C .43300004 .48500005 .28100003 .48600004 .23100002 .48600004 C .184 .48600004 .134 .48200003 .067 .45400004 C .046000005 .44500003 .041 .44200004 .041 .43100003 C .041 .42400003 .047 .36600004 .048 .358 C .049000004 .35200004 .053999999 .34700004 .061000006 .34700004 C .066 .34700004 .069 .35000003 .072000008 .35300002 C .11500001 .39800004 .165 .42000003 .22700002 .42000003 C .28100003 .42000003 .29700003 .38700003 .29700003 .328 L .29700003 .293 C .26200003 .293 0 .291 0 .14400001 C 0 .074 .056 0 .14400001 0 C .178 0 .25300003 .010000001 .30000005 .079 L .30000005 .059 C .30000005 .027000003 .30700005 .011000001 .34800003 .011000001 L .38500003 .011000001 C .42300005 .011000001 .43300004 .024 .43300004 .059 L .43300004 .32700003 M .29700003 .16500002 C .29700003 .072000008 .202 .072000008 .199 .072000008 C .157 .072000008 .13000001 .108 .13000001 .14600002 C .13000001 .24400002 .26900003 .25100003 .29700003 .252 L .29700003 .16500002 Z "/>
</symbol>
<symbol id="font_1_9">
<path d="M .44 .32500003 C .44 .42800004 .39600004 .469 .294 .469 C .194 .469 .148 .4 .134 .372 L .133 .372 L .133 .646 C .133 .67800006 .126 .694 .08500001 .694 L .048 .694 C .012000002 .694 0 .683 0 .646 L 0 .048 C 0 .012 .011 0 .048 0 L .088 0 C .126 0 .136 .013 .136 .048 L .136 .26900003 C .136 .356 .194 .397 .24600002 .397 C .294 .397 .30400003 .374 .30400003 .323 L .30400003 .048 C .30400003 .016 .31100003 0 .35200004 0 L .39200003 0 C .43 0 .44 .013 .44 .048 L .44 .32500003 Z "/>
</symbol>
<symbol id="font_1_b">
<path d="M .133 .646 C .133 .67800006 .126 .694 .08500001 .694 L .048 .694 C .012000002 .694 0 .683 0 .646 L 0 .048 C 0 .012 .011 0 .048 0 L .08500001 0 C .12300001 0 .133 .013 .133 .048 L .133 .646 Z "/>
</symbol>
<use xlink:href="#font_1_3" transform="matrix(19.371804,0,0,-19.371804,42.095888,71.638889)"/>
<use xlink:href="#font_1_a" transform="matrix(19.371804,0,0,-19.371804,53.379137,71.638889)"/>
<use xlink:href="#font_1_8" transform="matrix(19.371804,0,0,-19.371804,57.817354,75.62948)"/>
<use xlink:href="#font_1_4" transform="matrix(19.371804,0,0,-19.371804,69.16203,71.851978)"/>
<use xlink:href="#font_1_2" transform="matrix(19.371804,0,0,-19.371804,80.18141,71.638889)"/>
<use xlink:href="#font_1_7" transform="matrix(19.371804,0,0,-19.371804,86.933589,71.851978)"/>
<use xlink:href="#font_1_1" transform="matrix(19.371804,0,0,-19.371804,97.495388,71.638889)"/>
<use xlink:href="#font_1_c" transform="matrix(19.371804,0,0,-19.371804,107.565547,67.90013)"/>
<use xlink:href="#font_1_6" transform="matrix(19.371804,0,0,-19.371804,49.600027,96.30577)"/>
<use xlink:href="#font_1_5" transform="matrix(19.371804,0,0,-19.371804,58.933359,96.51886)"/>
<use xlink:href="#font_1_9" transform="matrix(19.371804,0,0,-19.371804,69.828479,96.30577)"/>
<use xlink:href="#font_1_b" transform="matrix(19.371804,0,0,-19.371804,80.847858,96.30577)"/>
<use xlink:href="#font_1_7" transform="matrix(19.371804,0,0,-19.371804,85.2667,96.51886)"/>
<use xlink:href="#font_1_1" transform="matrix(19.371804,0,0,-19.371804,95.82849,96.30577)"/>
</g>
</svg>
