<?xml version="1.0" encoding="UTF-8" standalone="no"?>
<!DOCTYPE svg PUBLIC "-//W3C//DTD SVG 1.1//EN" "http://www.w3.org/Graphics/SVG/1.1/DTD/svg11.dtd">
<svg xmlns="http://www.w3.org/2000/svg" xmlns:xlink="http://www.w3.org/1999/xlink" version="1.1" width="154.97222pt" height="154.97222pt" viewBox="0 0 154.97222 154.97222">
<g enable-background="new">
<clipPath id="cp0">
<path transform="matrix(.27777777,0,0,-.27777777,0,154.97222)" d="M 277.391 10.8008 L 499.078 10.8008 L 506.605 11.8125 L 515.957 14.7148 L 524.418 19.3086 L 531.789 25.3906 L 537.871 32.7617 L 542.465 41.2227 L 545.367 50.5742 L 546.383 58.1016 L 546.383 60.6133 L 546.383 498.969 L 546.383 501.477 L 545.367 509.004 L 542.465 518.355 L 537.871 526.816 L 531.789 534.188 L 524.418 540.27 L 515.957 544.863 L 506.605 547.766 L 499.078 548.781 L 496.57 548.781 L 58.2148 548.781 L 55.7031 548.781 L 48.1719 547.766 L 38.8242 544.863 L 30.3594 540.27 L 22.9883 534.188 L 16.9063 526.816 L 12.3125 518.355 L 9.41016 509.004 L 8.39844 501.477 L 8.39844 498.969 L 8.39844 60.6133 L 8.39844 58.1016 L 9.41016 50.5742 L 12.3125 41.2227 L 16.9063 32.7617 L 22.9883 25.3906 L 30.3594 19.3086 L 38.8242 14.7148 L 48.1719 11.8125 L 55.7031 10.8008 L 58.2148 10.8008 L 277.391 10.8008 Z "/>
</clipPath>
<g clip-path="url(#cp0)">
<path transform="matrix(.27777777,0,0,-.27777777,0,154.97222)" d="M 8.39844 10.8008 L 546.38247 10.8008 L 546.38247 548.78079 L 8.39844 548.78079 Z " fill="#c0c0c0"/>
</g>
<symbol id="font_1_2">
<path d="M .048000009 .694 C .012000002 .694 0 .683 0 .646 L 0 .048 C 0 .012 .011 0 .048000009 0 L .32200004 0 C .39600004 0 .58 .013 .58 .194 C .58 .335 .44099999 .35700003 .40400005 .363 C .496 .384 .549 .43600003 .549 .514 C .549 .694 .33600004 .694 .29400004 .694 L .048000009 .694 M .141 .397 L .141 .60800006 L .25800003 .60800006 C .297 .60800006 .413 .605 .413 .51100006 C .413 .397 .282 .397 .25700004 .397 L .141 .397 M .141 .086 L .141 .32500003 L .26700003 .32500003 C .302 .32500003 .44099999 .32500003 .44099999 .19600001 C .44099999 .093 .334 .086 .286 .086 L .141 .086 Z "/>
</symbol>
<symbol id="font_1_b">
<path d="M .40000005 .22500003 C .42300005 .22500003 .44800005 .22600001 .44800005 .27100004 C .44800005 .40000005 .38800005 .48600004 .23900001 .48600004 C .079 .48600004 0 .39600004 0 .24400002 C 0 .080000009 .095 0 .25200004 0 C .29000003 0 .34700004 .005000001 .41300006 .038000004 C .43500004 .049000004 .44200004 .052 .44200004 .064 C .44200004 .071 .43900005 .1 .43800003 .108 C .43400005 .13900002 .43300004 .14000002 .42400003 .14000002 C .42000006 .14000002 .41800005 .14000002 .40700004 .13000001 C .34800003 .079 .28800003 .072000008 .256 .072000008 C .143 .072000008 .131 .16100002 .128 .22500003 L .40000005 .22500003 M .12900001 .27800004 C .132 .33900003 .15200001 .41400004 .23900001 .41400004 C .31900005 .41400004 .33400003 .35600005 .33700005 .27800004 L .12900001 .27800004 Z "/>
</symbol>
<symbol id="font_1_5">
<path d="M .133 .23 C .133 .32500003 .212 .36400003 .27500005 .36800004 C .29299999 .36900003 .29500003 .36900003 .29500003 .395 L .29500003 .44200004 C .29500003 .462 .29500003 .469 .277 .469 C .249 .469 .17600002 .45900003 .12900001 .351 L .128 .351 L .128 .416 C .128 .448 .12100001 .46400003 .08 .46400003 L .048 .46400003 C .012000002 .46400003 0 .453 0 .416 L 0 .048 C 0 .012 .011 0 .048 0 L .08500001 0 C .12300001 0 .133 .013 .133 .048 L .133 .23 Z "/>
</symbol>
<symbol id="font_1_9">
<path d="M .42000003 .061 C .42000003 .072000008 .416 .11800001 .41400004 .13100001 C .41400004 .134 .41200004 .14400001 .402 .14400001 C .39800004 .14400001 .39600004 .14400001 .386 .134 C .36900003 .119 .32200004 .078 .24000001 .078 C .136 .078 .136 .17900002 .136 .24300002 C .136 .32400004 .141 .40800003 .243 .40800003 C .30800004 .40800003 .335 .39200003 .37100003 .36200003 C .38300003 .351 .38500003 .351 .38900004 .351 C .39900003 .351 .40100003 .36 .402 .36400003 C .404 .37200005 .41400004 .42800004 .41400004 .43300004 C .41400004 .44200004 .40700004 .44600005 .39000003 .45400004 C .342 .47600005 .312 .48600004 .24200002 .48600004 C .09300001 .48600004 0 .41600005 0 .24100001 C 0 .075 .086 0 .23700002 0 C .26400004 0 .32400004 .0010000002 .39100004 .035 C .41900004 .05 .42000003 .051000004 .42000003 .061 Z "/>
</symbol>
<symbol id="font_1_d">
<path d="M .44 .32500003 C .44 .42800004 .39600004 .469 .294 .469 C .194 .469 .148 .4 .134 .372 L .133 .372 L .133 .646 C .133 .67800006 .126 .694 .08500001 .694 L .048 .694 C .012000002 .694 0 .683 0 .646 L 0 .048 C 0 .012 .011 0 .048 0 L .088 0 C .126 0 .136 .013 .136 .048 L .136 .26900003 C .136 .356 .194 .397 .24600002 .397 C .294 .397 .30400003 .374 .30400003 .323 L .30400003 .048 C .30400003 .016 .31100003 0 .35200004 0 L .39200003 0 C .43 0 .44 .013 .44 .048 L .44 .32500003 Z "/>
</symbol>
<symbol id="font_1_1">
<path d="M .44 .32500003 C .44 .42800004 .39600004 .469 .294 .469 C .18900001 .469 .14400001 .393 .13100001 .36600004 L .13000001 .36600004 L .13000001 .416 C .13000001 .448 .12300001 .46400003 .082 .46400003 L .048 .46400003 C .012000002 .46400003 0 .453 0 .416 L 0 .048 C 0 .012 .011 0 .048 0 L .088 0 C .126 0 .136 .013 .136 .048 L .136 .26900003 C .136 .356 .194 .397 .24600002 .397 C .294 .397 .30400003 .374 .30400003 .323 L .30400003 .048 C .30400003 .016 .31100003 0 .35200004 0 L .39200003 0 C .43 0 .44 .013 .44 .048 L .44 .32500003 Z "/>
</symbol>
<symbol id="font_1_7">
<path d="M .44 .42100004 C .44 .45300005 .43300004 .46900005 .39200003 .46900005 L .35200004 .46900005 C .314 .46900005 .30400003 .45600004 .30400003 .42100004 L .30400003 .18400002 C .30400003 .11800001 .26900003 .061 .19800002 .061 C .142 .061 .136 .075 .136 .128 L .136 .42100004 C .136 .45300005 .12900001 .46900005 .088 .46900005 L .048 .46900005 C .012000002 .46900005 0 .45800004 0 .42100004 L 0 .13700001 C 0 .030000002 .058000007 0 .16200002 0 C .18900001 0 .26000003 0 .307 .085 L .307 .059 C .307 .027000003 .314 .011000001 .35500003 .011000001 L .39200003 .011000001 C .43 .011000001 .44 .024 .44 .059 L .44 .42100004 Z "/>
</symbol>
<symbol id="font_1_c">
<path d="M .175 .29800005 C .139 .29800005 .125 .29800005 .11100001 .31 C .107 .314 .09 .32900004 .09 .35500003 C .09 .36200003 .091000009 .36400003 .09200001 .37 C .139 .34400005 .198 .34400005 .21900001 .34400005 C .261 .34400005 .42000003 .34400005 .42000003 .509 C .42000003 .56700006 .398 .60200008 .38900004 .61300006 C .40600003 .61300006 .441 .61300006 .48200003 .60200008 C .48600004 .6 .493 .59800007 .49600003 .59800007 C .50400009 .59800007 .50900009 .60400006 .50900009 .61100009 C .50900009 .615 .50400009 .63900008 .50200006 .64900007 C .498 .67300006 .498 .675 .48 .675 C .44900004 .675 .39900003 .66300007 .361 .64000007 C .314 .67100009 .262 .675 .21900001 .675 C .177 .675 .018000002 .675 .018000002 .51000007 C .018000002 .47000004 .029000001 .42000003 .06700001 .38700003 C .040000008 .35000003 .040000008 .31100003 .040000008 .30600003 C .040000008 .287 .046000005 .254 .06700001 .22700002 C .05200001 .22100002 0 .20300001 0 .13900002 C 0 .10800001 .015000002 .05600001 .07800001 .02700001 C .135 .001000002 .202 0 .24900002 0 C .308 0 .49900005 0 .49900005 .14200002 C .49900005 .29800005 .358 .29800005 .223 .29800005 L .175 .29800005 M .21900001 .416 C .149 .416 .146 .45400004 .146 .509 C .146 .564 .149 .60300007 .21900001 .60300007 C .289 .60300007 .292 .56500008 .292 .51000007 C .292 .45500005 .289 .416 .21900001 .416 M .273 .18900001 C .354 .18900001 .39600004 .17500001 .39600004 .13900002 C .39600004 .07200001 .282 .07200001 .25 .07200001 C .21000001 .07200001 .10300001 .07200001 .10300001 .14200002 C .10300001 .18900001 .134 .18900001 .157 .18900001 L .273 .18900001 Z "/>
</symbol>
<symbol id="font_1_e">
<path d="M .048000006 .69500008 C .015999999 .69500008 0 .689 0 .64900007 L 0 .60300007 C 0 .57100006 .010000002 .558 .047000003 .558 L .09900001 .558 C .147 .558 .147 .57900008 .147 .62600007 C .147 .674 .147 .69500008 .09900001 .69500008 L .048000006 .69500008 M .14 .41000004 C .14 .44200004 .133 .45800004 .09200001 .45800004 L .055000005 .45800004 C .019000005 .45800004 .007000003 .44700004 .007000003 .41000004 L .007000003 .048 C .007000003 .012 .018000003 0 .055000005 0 L .09200001 0 C .13000001 0 .14 .013 .14 .048 L .14 .41000004 Z "/>
</symbol>
<symbol id="font_1_3">
<path d="M .48700003 .23600002 C .48700003 .40000005 .40700004 .48600004 .244 .48600004 C .077 .48600004 0 .397 0 .23600002 C 0 .07300001 .086 0 .24300002 0 C .40000005 0 .48700003 .072000008 .48700003 .23600002 M .244 .078 C .136 .078 .136 .16800002 .136 .24800003 C .136 .32500003 .136 .41400004 .24300002 .41400004 C .35100005 .41400004 .35100005 .32600004 .35100005 .24800003 C .35100005 .16900002 .35100005 .078 .244 .078 Z "/>
</symbol>
<symbol id="font_1_6">
<path d="M .36500005 .15200001 C .36500005 .20800002 .33500005 .24300002 .31700004 .259 C .27700005 .29500003 .242 .30100004 .2 .30900003 C .14500001 .31900005 .105000007 .32700003 .105000007 .36600004 C .105000007 .40700004 .13800001 .41500003 .177 .41500003 C .244 .41500003 .28000004 .39000003 .30600003 .36800004 C .316 .358 .31800003 .358 .32200004 .358 C .33200003 .358 .33400003 .367 .33500005 .37100003 C .33700005 .37900005 .34700004 .43500004 .34700004 .44000004 C .34700004 .45600004 .29400004 .47000004 .28300003 .47400005 C .24300002 .48500005 .21100001 .48600004 .185 .48600004 C .14 .48600004 .005999999 .48600004 .005999999 .34300003 C .005999999 .29400004 .028000003 .26400004 .055 .24000003 C .09 .20800002 .12900001 .20100002 .186 .19000001 C .215 .18500002 .26600004 .17600002 .26600004 .13200002 C .26600004 .085 .22700002 .078 .18800001 .078 C .14400001 .078 .088 .091000009 .041 .14700002 C .036 .15200001 .033 .15500002 .027 .15500002 C .016999999 .15500002 .015000002 .14600002 .014 .14000002 C .012 .126 0 .069000009 0 .059 C 0 .041 .074 .018000002 .075 .017 C .13000001 0 .171 0 .18800001 0 C .23900001 0 .36500005 .0040000008 .36500005 .15200001 Z "/>
</symbol>
<symbol id="font_1_4">
<path d="M .048000009 .694 C .012000002 .694 0 .683 0 .646 L 0 .048 C 0 .012 .011 0 .048000009 0 L .31200005 0 C .556 0 .64100006 .14600002 .64100006 .342 C .64100006 .42100004 .628 .518 .572 .58900007 C .49699999 .68200007 .37700004 .694 .31200005 .694 L .048000009 .694 M .14400001 .086 L .14400001 .60800006 L .272 .60800006 C .48800005 .60800006 .49699999 .45400004 .49699999 .342 C .49699999 .22900002 .486 .086 .273 .086 L .14400001 .086 Z "/>
</symbol>
<symbol id="font_1_f">
<path d="M .24400002 .272 L .398 .41500003 C .41000004 .42600004 .41300003 .42900003 .41300003 .437 C .41300003 .45800004 .393 .45800004 .379 .45800004 L .321 .45800004 C .303 .45800004 .284 .45800004 .261 .437 L .117 .303 L .117 .646 C .117 .67800006 .11 .694 .069000009 .694 L .048 .694 C .0119999949 .694 0 .683 0 .646 L 0 .048 C 0 .012 .011 0 .048 0 L .066 0 C .104 0 .11400001 .013 .11400001 .048 L .11400001 .15200001 L .161 .19500001 L .291 .025 C .308 .003 .315 0 .344 0 L .39200003 0 C .40600003 0 .428 0 .428 .022000002 C .428 .024 .428 .031000002 .418 .044000005 L .24400002 .272 Z "/>
</symbol>
<symbol id="font_1_a">
<path d="M .39500005 .38200004 C .40500004 .395 .40700004 .4 .40700004 .416 C .40700004 .45800004 .37600003 .45800004 .35900004 .45800004 L .063 .45800004 C .049999998 .45800004 .015000002 .45800004 .015000002 .42000003 C .015000002 .38300003 .047 .38300003 .074 .38300003 C .106000009 .38300003 .187 .38500003 .219 .38500003 L .256 .38500003 L .012 .076000008 C .0019999985 .063 0 .058000003 0 .042000005 C 0 0 .031000002 0 .048 0 L .36200003 0 C .37500004 0 .41000004 0 .41000004 .037 C .41000004 .075 .37900005 .075 .35000003 .075 C .30000005 .075 .24700003 .07300001 .19700001 .07300001 L .15100001 .07300001 L .39500005 .38200004 Z "/>
</symbol>
<symbol id="font_1_8">
<path d="M .43300004 .32700003 C .43300004 .48500005 .28100003 .48600004 .23100002 .48600004 C .184 .48600004 .134 .48200003 .067 .45400004 C .046000005 .44500003 .041 .44200004 .041 .43100003 C .041 .42400003 .047 .36600004 .048 .358 C .049000004 .35200004 .053999999 .34700004 .061000006 .34700004 C .066 .34700004 .069 .35000003 .072000008 .35300002 C .11500001 .39800004 .165 .42000003 .22700002 .42000003 C .28100003 .42000003 .29700003 .38700003 .29700003 .328 L .29700003 .293 C .26200003 .293 0 .291 0 .14400001 C 0 .074 .056 0 .14400001 0 C .178 0 .25300003 .010000001 .30000005 .079 L .30000005 .059 C .30000005 .027000003 .30700005 .011000001 .34800003 .011000001 L .38500003 .011000001 C .42300005 .011000001 .43300004 .024 .43300004 .059 L .43300004 .32700003 M .29700003 .16500002 C .29700003 .072000008 .202 .072000008 .199 .072000008 C .157 .072000008 .13000001 .108 .13000001 .14600002 C .13000001 .24400002 .26900003 .25100003 .29700003 .252 L .29700003 .16500002 Z "/>
</symbol>
<symbol id="font_1_10">
<path d="M .133 .646 C .133 .67800006 .126 .694 .08500001 .694 L .048 .694 C .012000002 .694 0 .683 0 .646 L 0 .048 C 0 .012 .011 0 .048 0 L .08500001 0 C .12300001 0 .133 .013 .133 .048 L .133 .646 Z "/>
</symbol>
<use xlink:href="#font_1_2" transform="matrix(19.371804,0,0,-19.371804,26.429724,54.972215)"/>
<use xlink:href="#font_1_b" transform="matrix(19.371804,0,0,-19.371804,39.60075,55.185304)"/>
<use xlink:href="#font_1_5" transform="matrix(19.371804,0,0,-19.371804,50.181917,54.972215)"/>
<use xlink:href="#font_1_b" transform="matrix(19.371804,0,0,-19.371804,56.93409,55.185304)"/>
<use xlink:href="#font_1_9" transform="matrix(19.371804,0,0,-19.371804,67.05033,55.185304)"/>
<use xlink:href="#font_1_d" transform="matrix(19.371804,0,0,-19.371804,76.829219,54.972215)"/>
<use xlink:href="#font_1_1" transform="matrix(19.371804,0,0,-19.371804,87.82922,54.972215)"/>
<use xlink:href="#font_1_7" transform="matrix(19.371804,0,0,-19.371804,98.82922,55.185304)"/>
<use xlink:href="#font_1_1" transform="matrix(19.371804,0,0,-19.371804,109.82922,54.972215)"/>
<use xlink:href="#font_1_c" transform="matrix(19.371804,0,0,-19.371804,120.15122,58.962808)"/>
<use xlink:href="#font_1_b" transform="matrix(19.371804,0,0,-19.371804,19.934306,85.51836)"/>
<use xlink:href="#font_1_e" transform="matrix(19.371804,0,0,-19.371804,30.379858,85.30527)"/>
<use xlink:href="#font_1_1" transform="matrix(19.371804,0,0,-19.371804,35.49609,85.30527)"/>
<use xlink:href="#font_1_b" transform="matrix(19.371804,0,0,-19.371804,45.93431,85.51836)"/>
<use xlink:href="#font_1_5" transform="matrix(19.371804,0,0,-19.371804,56.515474,85.30527)"/>
<use xlink:href="#font_1_c" transform="matrix(19.371804,0,0,-19.371804,69.81809,89.29586)"/>
<use xlink:href="#font_1_5" transform="matrix(19.371804,0,0,-19.371804,81.18214,85.30527)"/>
<use xlink:href="#font_1_3" transform="matrix(19.371804,0,0,-19.371804,87.93432,85.51836)"/>
<use xlink:href="#font_1_6" transform="matrix(19.371804,0,0,-19.371804,98.60098,85.51836)"/>
<use xlink:href="#font_1_6" transform="matrix(19.371804,0,0,-19.371804,106.93432,85.51836)"/>
<use xlink:href="#font_1_b" transform="matrix(19.371804,0,0,-19.371804,115.26765,85.51836)"/>
<use xlink:href="#font_1_1" transform="matrix(19.371804,0,0,-19.371804,125.82944,85.30527)"/>
<use xlink:href="#font_1_4" transform="matrix(19.371804,0,0,-19.371804,23.762629,115.97249)"/>
<use xlink:href="#font_1_5" transform="matrix(19.371804,0,0,-19.371804,38.514814,115.97249)"/>
<use xlink:href="#font_1_b" transform="matrix(19.371804,0,0,-19.371804,45.266988,116.18558)"/>
<use xlink:href="#font_1_e" transform="matrix(19.371804,0,0,-19.371804,55.712549,115.97249)"/>
<use xlink:href="#font_1_b" transform="matrix(19.371804,0,0,-19.371804,60.26699,116.18558)"/>
<use xlink:href="#font_1_9" transform="matrix(19.371804,0,0,-19.371804,70.38323,116.18558)"/>
<use xlink:href="#font_1_f" transform="matrix(19.371804,0,0,-19.371804,80.336467,115.97249)"/>
<use xlink:href="#font_1_6" transform="matrix(19.371804,0,0,-19.371804,89.93366,116.18558)"/>
<use xlink:href="#font_1_a" transform="matrix(19.371804,0,0,-19.371804,98.267,115.97249)"/>
<use xlink:href="#font_1_8" transform="matrix(19.371804,0,0,-19.371804,107.600337,116.18558)"/>
<use xlink:href="#font_1_d" transform="matrix(19.371804,0,0,-19.371804,118.49544,115.97249)"/>
<use xlink:href="#font_1_10" transform="matrix(19.371804,0,0,-19.371804,129.51483,115.97249)"/>
</g>
</svg>
