<?xml version="1.0" encoding="UTF-8" standalone="no"?>
<!DOCTYPE svg PUBLIC "-//W3C//DTD SVG 1.1//EN" "http://www.w3.org/Graphics/SVG/1.1/DTD/svg11.dtd">
<svg xmlns="http://www.w3.org/2000/svg" xmlns:xlink="http://www.w3.org/1999/xlink" version="1.1" width="154.97222pt" height="154.97222pt" viewBox="0 0 154.97222 154.97222">
<g enable-background="new">
<clipPath id="cp0">
<path transform="matrix(.27777777,0,0,-.27777777,0,154.97222)" d="M 277.391 10.8008 L 499.078 10.8008 L 506.605 11.8125 L 515.957 14.7148 L 524.418 19.3086 L 531.789 25.3906 L 537.871 32.7617 L 542.465 41.2227 L 545.367 50.5742 L 546.383 58.1016 L 546.383 60.6133 L 546.383 498.969 L 546.383 501.477 L 545.367 509.004 L 542.465 518.355 L 537.871 526.816 L 531.789 534.188 L 524.418 540.27 L 515.957 544.863 L 506.605 547.766 L 499.078 548.781 L 496.57 548.781 L 58.2148 548.781 L 55.7031 548.781 L 48.1719 547.766 L 38.8242 544.863 L 30.3594 540.27 L 22.9883 534.188 L 16.9063 526.816 L 12.3125 518.355 L 9.41016 509.004 L 8.39844 501.477 L 8.39844 498.969 L 8.39844 60.6133 L 8.39844 58.1016 L 9.41016 50.5742 L 12.3125 41.2227 L 16.9063 32.7617 L 22.9883 25.3906 L 30.3594 19.3086 L 38.8242 14.7148 L 48.1719 11.8125 L 55.7031 10.8008 L 58.2148 10.8008 L 277.391 10.8008 Z "/>
</clipPath>
<g clip-path="url(#cp0)">
<path transform="matrix(.27777777,0,0,-.27777777,0,154.97222)" d="M 8.39844 10.8008 L 546.38247 10.8008 L 546.38247 548.78079 L 8.39844 548.78079 Z " fill="#c0c0c0"/>
</g>
<symbol id="font_1_e">
<path d="M .39200003 .32000003 C .45499999 .335 .55 .37300004 .55 .497 C .55 .694 .333 .694 .288 .694 L .048000009 .694 C .012000002 .694 0 .683 0 .646 L 0 .048 C 0 .012 .011 0 .048000009 0 L .096 0 C .134 0 .14400001 .013 .14400001 .048 L .14400001 .31100003 L .255 .31100003 L .41900004 .024 C .43300004 0 .444 0 .46600003 0 L .52500006 0 C .545 0 .56200006 0 .56200006 .030000002 L .39200003 .32000003 M .14400001 .38300003 L .14400001 .60800006 L .274 .60800006 C .39000006 .60800006 .411 .56200006 .411 .49600003 C .411 .437 .397 .38300003 .274 .38300003 L .14400001 .38300003 Z "/>
</symbol>
<symbol id="font_1_c">
<path d="M .40000005 .22500003 C .42300005 .22500003 .44800005 .22600001 .44800005 .27100004 C .44800005 .40000005 .38800005 .48600004 .23900001 .48600004 C .079 .48600004 0 .39600004 0 .24400002 C 0 .080000009 .095 0 .25200004 0 C .29000003 0 .34700004 .005000001 .41300006 .038000004 C .43500004 .049000004 .44200004 .052 .44200004 .064 C .44200004 .071 .43900005 .1 .43800003 .108 C .43400005 .13900002 .43300004 .14000002 .42400003 .14000002 C .42000006 .14000002 .41800005 .14000002 .40700004 .13000001 C .34800003 .079 .28800003 .072000008 .256 .072000008 C .143 .072000008 .131 .16100002 .128 .22500003 L .40000005 .22500003 M .12900001 .27800004 C .132 .33900003 .15200001 .41400004 .23900001 .41400004 C .31900005 .41400004 .33400003 .35600005 .33700005 .27800004 L .12900001 .27800004 Z "/>
</symbol>
<symbol id="font_1_14">
<path d="M .18900001 .386 L .24600002 .386 C .25800003 .386 .294 .386 .294 .42200003 C .294 .45800004 .25800003 .45800004 .24600002 .45800004 L .186 .45800004 L .186 .572 C .186 .6 .18800001 .633 .21900001 .633 C .25100003 .633 .263 .61300006 .268 .606 C .272 .59900006 .275 .595 .28100003 .595 C .294 .595 .294 .605 .294 .62100008 L .294 .66700008 C .294 .69000008 .294 .69200006 .26900003 .698 C .24400002 .70500007 .23200003 .70500007 .21700001 .70500007 C .113000009 .70500007 .056 .65000006 .056 .54 L .056 .45800004 C .035000005 .45800004 0 .45800004 0 .42200003 C 0 .386 .034 .386 .056 .386 L .056 .048 C .056 .012 .067 0 .104 0 L .141 0 C .179 0 .18900001 .013 .18900001 .048 L .18900001 .386 M .49400006 .646 C .49400006 .67800006 .48700003 .694 .446 .694 L .409 .694 C .37100003 .694 .36100004 .68100008 .36100004 .646 L .36100004 .048 C .36100004 .016 .36800004 0 .409 0 L .446 0 C .484 0 .49400006 .013 .49400006 .048 L .49400006 .646 Z "/>
</symbol>
<symbol id="font_1_8">
<path d="M .27700005 .23700002 L .42200003 .41500003 C .43200005 .42700003 .43200005 .43100003 .43200005 .43600003 C .43200005 .45800004 .41200004 .45800004 .39700005 .45800004 L .35400004 .45800004 C .33600004 .45800004 .32400004 .45800004 .31000004 .44300003 C .30500005 .43800003 .24 .351 .223 .328 L .13700001 .43600003 C .120000008 .45700003 .109 .45800004 .08600001 .45800004 L .042 .45800004 C .029000003 .45800004 .007000001 .45800004 .007000001 .43600003 C .007000001 .42900003 .010000002 .425 .017 .41700004 L .168 .23700002 L .010000002 .042000005 C .0040000008 .035 0 .030000002 0 .022000002 C 0 0 .022000004 0 .036000004 0 L .07900001 0 C .112 0 .11400001 .003 .136 .036000004 L .222 .164 L .32400004 .020000002 C .33800004 0 .35000003 0 .37100003 0 L .41500003 0 C .42900003 0 .45000006 0 .45000006 .022000002 C .45000006 .030000002 .44600005 .034 .43900005 .043 L .27700005 .23700002 Z "/>
</symbol>
<symbol id="font_1_f">
<path d="M .048000006 .69500008 C .015999999 .69500008 0 .689 0 .64900007 L 0 .60300007 C 0 .57100006 .010000002 .558 .047000003 .558 L .09900001 .558 C .147 .558 .147 .57900008 .147 .62600007 C .147 .674 .147 .69500008 .09900001 .69500008 L .048000006 .69500008 M .14 .41000004 C .14 .44200004 .133 .45800004 .09200001 .45800004 L .055000005 .45800004 C .019000005 .45800004 .007000003 .44700004 .007000003 .41000004 L .007000003 .048 C .007000003 .012 .018000003 0 .055000005 0 L .09200001 0 C .13000001 0 .14 .013 .14 .048 L .14 .41000004 Z "/>
</symbol>
<symbol id="font_1_2">
<path d="M .48700003 .23600002 C .48700003 .40000005 .40700004 .48600004 .244 .48600004 C .077 .48600004 0 .397 0 .23600002 C 0 .07300001 .086 0 .24300002 0 C .40000005 0 .48700003 .072000008 .48700003 .23600002 M .244 .078 C .136 .078 .136 .16800002 .136 .24800003 C .136 .32500003 .136 .41400004 .24300002 .41400004 C .35100005 .41400004 .35100005 .32600004 .35100005 .24800003 C .35100005 .16900002 .35100005 .078 .244 .078 Z "/>
</symbol>
<symbol id="font_1_1">
<path d="M .44 .32500003 C .44 .42800004 .39600004 .469 .294 .469 C .18900001 .469 .14400001 .393 .13100001 .36600004 L .13000001 .36600004 L .13000001 .416 C .13000001 .448 .12300001 .46400003 .082 .46400003 L .048 .46400003 C .012000002 .46400003 0 .453 0 .416 L 0 .048 C 0 .012 .011 0 .048 0 L .088 0 C .126 0 .136 .013 .136 .048 L .136 .26900003 C .136 .356 .194 .397 .24600002 .397 C .294 .397 .30400003 .374 .30400003 .323 L .30400003 .048 C .30400003 .016 .31100003 0 .35200004 0 L .39200003 0 C .43 0 .44 .013 .44 .048 L .44 .32500003 Z "/>
</symbol>
<symbol id="font_1_13">
<path d="M .048000009 .11500001 C .016000003 .11500001 0 .10899997 0 .069000009 L 0 .046000005 C 0 .009000003 .013999999 0 .048000009 0 L .09300001 0 C .141 0 .141 .024999977 .141 .05699998 C .141 .09099996 .141 .11500001 .09300001 .11500001 L .048000009 .11500001 M .305 0 C .337 0 .35300005 .0059999825 .35300005 .046000005 L .35300005 .069000009 C .35300005 .106000009 .339 .11500001 .305 .11500001 L .26 .11500001 C .212 .11500001 .212 .089999977 .212 .05799997 C .212 .023999989 .212 0 .26 0 L .305 0 Z "/>
</symbol>
<symbol id="font_1_6">
<path d="M .44 .42100004 C .44 .45300005 .43300004 .46900005 .39200003 .46900005 L .35200004 .46900005 C .314 .46900005 .30400003 .45600004 .30400003 .42100004 L .30400003 .18400002 C .30400003 .11800001 .26900003 .061 .19800002 .061 C .142 .061 .136 .075 .136 .128 L .136 .42100004 C .136 .45300005 .12900001 .46900005 .088 .46900005 L .048 .46900005 C .012000002 .46900005 0 .45800004 0 .42100004 L 0 .13700001 C 0 .030000002 .058000007 0 .16200002 0 C .18900001 0 .26000003 0 .307 .085 L .307 .059 C .307 .027000003 .314 .011000001 .35500003 .011000001 L .39200003 .011000001 C .43 .011000001 .44 .024 .44 .059 L .44 .42100004 Z "/>
</symbol>
<symbol id="font_1_9">
<path d="M .133 .657 C .133 .689 .126 .705 .08500001 .705 L .048 .705 C .012000002 .705 0 .694 0 .657 L 0 .059 C 0 .023000002 .011 .011000001 .048 .011000001 L .088 .011000001 C .105000007 .011000001 .135 .011000001 .136 .05 C .18200001 0 .233 0 .249 0 C .462 0 .462 .19200002 .462 .24200002 C .462 .29000003 .462 .48000003 .274 .48000003 C .19200002 .48000003 .142 .43400003 .133 .42400003 L .133 .657 M .136 .37300004 C .149 .38500003 .179 .40800003 .22500001 .40800003 C .32600004 .40800003 .32600004 .316 .32600004 .24100001 C .32600004 .16700001 .32600004 .072000008 .214 .072000008 C .172 .072000008 .147 .097 .136 .111 L .136 .37300004 Z "/>
</symbol>
<symbol id="font_1_3">
<path d="M .133 .23 C .133 .32500003 .212 .36400003 .27500005 .36800004 C .29299999 .36900003 .29500003 .36900003 .29500003 .395 L .29500003 .44200004 C .29500003 .462 .29500003 .469 .277 .469 C .249 .469 .17600002 .45900003 .12900001 .351 L .128 .351 L .128 .416 C .128 .448 .12100001 .46400003 .08 .46400003 L .048 .46400003 C .012000002 .46400003 0 .453 0 .416 L 0 .048 C 0 .012 .011 0 .048 0 L .08500001 0 C .12300001 0 .133 .013 .133 .048 L .133 .23 Z "/>
</symbol>
<symbol id="font_1_b">
<path d="M .462 .657 C .462 .689 .455 .705 .41400004 .705 L .37700004 .705 C .33900003 .705 .32900004 .69200006 .32900004 .657 L .32900004 .43000005 C .284 .47300003 .23400003 .48000003 .20300001 .48000003 C 0 .48000003 0 .28800003 0 .23900002 C 0 .19300002 0 0 .19800002 0 C .24000001 0 .28300003 .012000001 .326 .058000003 C .326 .021000002 .34 .011000001 .374 .011000001 L .41400004 .011000001 C .45200003 .011000001 .462 .024 .462 .059 L .462 .657 M .326 .136 C .326 .119 .326 .11000001 .29700003 .09 C .272 .074 .24900002 .072000008 .23700002 .072000008 C .136 .072000008 .136 .16400002 .136 .23900002 C .136 .314 .136 .40800003 .24800003 .40800003 C .277 .40800003 .30400003 .39800004 .326 .37700004 L .326 .136 Z "/>
</symbol>
<symbol id="font_1_7">
<path d="M .43300004 .32700003 C .43300004 .48500005 .28100003 .48600004 .23100002 .48600004 C .184 .48600004 .134 .48200003 .067 .45400004 C .046000005 .44500003 .041 .44200004 .041 .43100003 C .041 .42400003 .047 .36600004 .048 .358 C .049000004 .35200004 .053999999 .34700004 .061000006 .34700004 C .066 .34700004 .069 .35000003 .072000008 .35300002 C .11500001 .39800004 .165 .42000003 .22700002 .42000003 C .28100003 .42000003 .29700003 .38700003 .29700003 .328 L .29700003 .293 C .26200003 .293 0 .291 0 .14400001 C 0 .074 .056 0 .14400001 0 C .178 0 .25300003 .010000001 .30000005 .079 L .30000005 .059 C .30000005 .027000003 .30700005 .011000001 .34800003 .011000001 L .38500003 .011000001 C .42300005 .011000001 .43300004 .024 .43300004 .059 L .43300004 .32700003 M .29700003 .16500002 C .29700003 .072000008 .202 .072000008 .199 .072000008 C .157 .072000008 .13000001 .108 .13000001 .14600002 C .13000001 .24400002 .26900003 .25100003 .29700003 .252 L .29700003 .16500002 Z "/>
</symbol>
<symbol id="font_1_4">
<path d="M .36500005 .15200001 C .36500005 .20800002 .33500005 .24300002 .31700004 .259 C .27700005 .29500003 .242 .30100004 .2 .30900003 C .14500001 .31900005 .105000007 .32700003 .105000007 .36600004 C .105000007 .40700004 .13800001 .41500003 .177 .41500003 C .244 .41500003 .28000004 .39000003 .30600003 .36800004 C .316 .358 .31800003 .358 .32200004 .358 C .33200003 .358 .33400003 .367 .33500005 .37100003 C .33700005 .37900005 .34700004 .43500004 .34700004 .44000004 C .34700004 .45600004 .29400004 .47000004 .28300003 .47400005 C .24300002 .48500005 .21100001 .48600004 .185 .48600004 C .14 .48600004 .005999999 .48600004 .005999999 .34300003 C .005999999 .29400004 .028000003 .26400004 .055 .24000003 C .09 .20800002 .12900001 .20100002 .186 .19000001 C .215 .18500002 .26600004 .17600002 .26600004 .13200002 C .26600004 .085 .22700002 .078 .18800001 .078 C .14400001 .078 .088 .091000009 .041 .14700002 C .036 .15200001 .033 .15500002 .027 .15500002 C .016999999 .15500002 .015000002 .14600002 .014 .14000002 C .012 .126 0 .069000009 0 .059 C 0 .041 .074 .018000002 .075 .017 C .13000001 0 .171 0 .18800001 0 C .23900001 0 .36500005 .0040000008 .36500005 .15200001 Z "/>
</symbol>
<symbol id="font_1_12">
<path d="M .986 .646 C .99000009 .66 .99000009 .66400006 .99000009 .665 C .99000009 .694 .96300008 .694 .94900009 .694 L .92800006 .694 C .90800008 .694 .88000008 .694 .86800006 .65000006 L .762 .256 C .748 .20500002 .739 .172 .73 .128 L .72900006 .128 C .72400006 .155 .72400006 .157 .70000007 .245 L .59200009 .65000006 C .58100005 .689 .56100007 .694 .53200009 .694 L .46600003 .694 C .44500003 .694 .41700004 .694 .40500004 .65000006 L .31700004 .32200004 L .29200004 .223 C .28100003 .17600002 .27300004 .14400001 .27100004 .128 L .27 .128 C .26200003 .18 .23800002 .268 .221 .33100004 L .135 .651 C .122999999 .694 .09400001 .694 .075 .694 L .041000006 .694 C .027000003 .694 0 .694 0 .665 C 0 .66400006 0 .66 .0040000008 .646 L .168 .042000005 C .179 0 .207 0 .228 0 L .29400004 0 C .31500004 0 .34300003 0 .35500003 .046000005 L .46000005 .437 C .47500003 .49100004 .48200006 .51900008 .49200005 .56700006 L .49300004 .56700006 C .50500008 .509 .51100006 .48400004 .52900007 .41900004 L .63100007 .042000005 C .642 0 .67 0 .69000008 0 L .762 0 C .78300008 0 .81100007 0 .822 .042000005 L .986 .646 Z "/>
</symbol>
<symbol id="font_1_a">
<path d="M .464 .32700003 C .44300003 .27600003 .40600003 .18400002 .398 .149 L .397 .149 C .388 .185 .347 .284 .32600004 .337 L .198 .65300008 C .18100001 .694 .149 .694 .13100001 .694 L .048000009 .694 C .012000002 .694 0 .683 0 .646 L 0 .048 C 0 .012 .011 0 .048000009 0 L .075 0 C .113000009 0 .12300001 .013 .12300001 .048 L .12300001 .565 L .124 .565 C .135 .52000007 .18000002 .409 .20400001 .35000003 L .32 .065000008 C .338 .022000002 .362 .022000002 .39600004 .022000002 C .43 .022000002 .454 .022000002 .472 .065000008 L .6 .379 C .61 .40300004 .66400006 .53900006 .671 .565 L .672 .565 L .672 .048 C .672 .016 .679 0 .72 0 L .74700006 0 C .785 0 .795 .013 .795 .048 L .795 .646 C .795 .67800006 .78800007 .694 .74700006 .694 L .663 .694 C .638 .694 .61300006 .69200006 .596 .651 L .464 .32700003 Z "/>
</symbol>
<symbol id="font_1_5">
<path d="M .19800002 .397 L .287 .397 C .299 .397 .335 .397 .335 .43300004 C .335 .46900005 .299 .46900005 .287 .46900005 L .19800002 .46900005 L .19800002 .552 C .19800002 .584 .19100002 .6 .15 .6 L .11900001 .6 C .083000008 .6 .071 .589 .071 .552 L .071 .46900005 L .048 .46900005 C .037 .46900005 0 .46900005 0 .43300004 C 0 .397 .036 .397 .048 .397 L .068 .397 L .068 .14400001 C .068 .043 .104 0 .17300001 0 C .18200001 0 .22600001 0 .278 .016 C .29500003 .021000002 .35300002 .039 .35300002 .058000003 C .35300002 .061 .351 .068 .345 .089 C .34 .109000008 .338 .115 .329 .115 C .324 .115 .323 .11400001 .317 .108 C .306 .1 .279 .078 .237 .078 C .21300002 .078 .19800002 .095000009 .19800002 .16100002 L .19800002 .397 Z "/>
</symbol>
<symbol id="font_1_d">
<path d="M .44 .32500003 C .44 .42800004 .39600004 .469 .294 .469 C .194 .469 .148 .4 .134 .372 L .133 .372 L .133 .646 C .133 .67800006 .126 .694 .08500001 .694 L .048 .694 C .012000002 .694 0 .683 0 .646 L 0 .048 C 0 .012 .011 0 .048 0 L .088 0 C .126 0 .136 .013 .136 .048 L .136 .26900003 C .136 .356 .194 .397 .24600002 .397 C .294 .397 .30400003 .374 .30400003 .323 L .30400003 .048 C .30400003 .016 .31100003 0 .35200004 0 L .39200003 0 C .43 0 .44 .013 .44 .048 L .44 .32500003 Z "/>
</symbol>
<symbol id="font_1_11">
<path d="M .74600008 .32500003 C .74600008 .42800004 .702 .469 .6 .469 C .52900007 .469 .47400005 .43600003 .43800003 .37 C .42200003 .46600003 .337 .469 .29500003 .469 C .27600003 .469 .234 .469 .18900001 .43600003 C .158 .41300003 .13800001 .381 .13100001 .36600004 L .13000001 .36600004 L .13000001 .416 C .13000001 .448 .12300001 .46400003 .082 .46400003 L .048 .46400003 C .012000002 .46400003 0 .453 0 .416 L 0 .048 C 0 .012 .011 0 .048 0 L .088 0 C .126 0 .136 .013 .136 .048 L .136 .26900003 C .136 .35900004 .197 .397 .24600002 .397 C .294 .397 .305 .37600003 .305 .323 L .305 .048 C .305 .012 .316 0 .35300002 0 L .393 0 C .43100003 0 .44100005 .013 .44100005 .048 L .44100005 .26900003 C .44100005 .35900004 .50200006 .397 .551 .397 C .59900006 .397 .61 .37600003 .61 .323 L .61 .048 C .61 .012 .62100008 0 .65800008 0 L .698 0 C .73600009 0 .74600008 .013 .74600008 .048 L .74600008 .32500003 Z "/>
</symbol>
<symbol id="font_1_10">
<path d="M .24400002 .272 L .398 .41500003 C .41000004 .42600004 .41300003 .42900003 .41300003 .437 C .41300003 .45800004 .393 .45800004 .379 .45800004 L .321 .45800004 C .303 .45800004 .284 .45800004 .261 .437 L .117 .303 L .117 .646 C .117 .67800006 .11 .694 .069000009 .694 L .048 .694 C .0119999949 .694 0 .683 0 .646 L 0 .048 C 0 .012 .011 0 .048 0 L .066 0 C .104 0 .11400001 .013 .11400001 .048 L .11400001 .15200001 L .161 .19500001 L .291 .025 C .308 .003 .315 0 .344 0 L .39200003 0 C .40600003 0 .428 0 .428 .022000002 C .428 .024 .428 .031000002 .418 .044000005 L .24400002 .272 Z "/>
</symbol>
<use xlink:href="#font_1_e" transform="matrix(19.371804,0,0,-19.371804,28.096388,46.638887)"/>
<use xlink:href="#font_1_c" transform="matrix(19.371804,0,0,-19.371804,40.60075,46.851976)"/>
<use xlink:href="#font_1_14" transform="matrix(19.371804,0,0,-19.371804,50.581388,46.638887)"/>
<use xlink:href="#font_1_c" transform="matrix(19.371804,0,0,-19.371804,61.93409,46.851976)"/>
<use xlink:href="#font_1_8" transform="matrix(19.371804,0,0,-19.371804,71.79849,46.638887)"/>
<use xlink:href="#font_1_f" transform="matrix(19.371804,0,0,-19.371804,82.04631,46.638887)"/>
<use xlink:href="#font_1_2" transform="matrix(19.371804,0,0,-19.371804,86.60076,46.851976)"/>
<use xlink:href="#font_1_1" transform="matrix(19.371804,0,0,-19.371804,97.829219,46.638887)"/>
<use xlink:href="#font_1_c" transform="matrix(19.371804,0,0,-19.371804,108.26744,46.851976)"/>
<use xlink:href="#font_1_1" transform="matrix(19.371804,0,0,-19.371804,118.82922,46.638887)"/>
<use xlink:href="#font_1_13" transform="matrix(19.371804,0,0,-19.371804,41.232213,60.403238)"/>
<use xlink:href="#font_1_6" transform="matrix(19.371804,0,0,-19.371804,40.496084,71.851978)"/>
<use xlink:href="#font_1_9" transform="matrix(19.371804,0,0,-19.371804,51.51546,71.851978)"/>
<use xlink:href="#font_1_c" transform="matrix(19.371804,0,0,-19.371804,62.60141,71.851978)"/>
<use xlink:href="#font_1_3" transform="matrix(19.371804,0,0,-19.371804,73.18257,71.638889)"/>
<use xlink:href="#font_1_b" transform="matrix(19.371804,0,0,-19.371804,86.38411,71.851978)"/>
<use xlink:href="#font_1_7" transform="matrix(19.371804,0,0,-19.371804,97.26788,71.851978)"/>
<use xlink:href="#font_1_4" transform="matrix(19.371804,0,0,-19.371804,107.60121,71.851978)"/>
<use xlink:href="#font_1_12" transform="matrix(19.371804,0,0,-19.371804,30.79806,96.30577)"/>
<use xlink:href="#font_1_c" transform="matrix(19.371804,0,0,-19.371804,50.267438,96.51886)"/>
<use xlink:href="#font_1_4" transform="matrix(19.371804,0,0,-19.371804,60.26744,96.51886)"/>
<use xlink:href="#font_1_c" transform="matrix(19.371804,0,0,-19.371804,68.600788,96.51886)"/>
<use xlink:href="#font_1_1" transform="matrix(19.371804,0,0,-19.371804,79.16257,96.30577)"/>
<use xlink:href="#font_1_b" transform="matrix(19.371804,0,0,-19.371804,96.71725,96.51886)"/>
<use xlink:href="#font_1_c" transform="matrix(19.371804,0,0,-19.371804,107.60102,96.51886)"/>
<use xlink:href="#font_1_3" transform="matrix(19.371804,0,0,-19.371804,118.18218,96.30577)"/>
<use xlink:href="#font_1_a" transform="matrix(19.371804,0,0,-19.371804,25.096194,121.30577)"/>
<use xlink:href="#font_1_7" transform="matrix(19.371804,0,0,-19.371804,42.933889,121.51886)"/>
<use xlink:href="#font_1_5" transform="matrix(19.371804,0,0,-19.371804,53.054136,121.51886)"/>
<use xlink:href="#font_1_d" transform="matrix(19.371804,0,0,-19.371804,61.495676,121.30577)"/>
<use xlink:href="#font_1_c" transform="matrix(19.371804,0,0,-19.371804,71.9339,121.51886)"/>
<use xlink:href="#font_1_11" transform="matrix(19.371804,0,0,-19.371804,82.49569,121.30577)"/>
<use xlink:href="#font_1_7" transform="matrix(19.371804,0,0,-19.371804,98.60057,121.51886)"/>
<use xlink:href="#font_1_5" transform="matrix(19.371804,0,0,-19.371804,108.72082,121.51886)"/>
<use xlink:href="#font_1_f" transform="matrix(19.371804,0,0,-19.371804,117.04612,121.30577)"/>
<use xlink:href="#font_1_10" transform="matrix(19.371804,0,0,-19.371804,122.33669,121.30577)"/>
</g>
</svg>
