<?xml version="1.0" encoding="UTF-8" standalone="no"?>
<!DOCTYPE svg PUBLIC "-//W3C//DTD SVG 1.1//EN" "http://www.w3.org/Graphics/SVG/1.1/DTD/svg11.dtd">
<svg xmlns="http://www.w3.org/2000/svg" xmlns:xlink="http://www.w3.org/1999/xlink" version="1.1" width="830.2222pt" height="276.74998pt" viewBox="0 0 830.2222 276.74998">
<g enable-background="new">
<symbol id="font_0_a">
<path d="M .18100001 .60700008 C .18100001 .64400008 .18400002 .65400007 .259 .65400007 L .281 .65400007 L .281 .683 C .257 .68100008 .17100002 .68100008 .141 .68100008 C .111 .68100008 .024 .68100008 0 .683 L 0 .65400007 L .022 .65400007 C .097 .65400007 .10000001 .64400008 .10000001 .60700008 L .10000001 .076000008 C .10000001 .039 .097 .029000001 .022 .029000001 L 0 .029000001 L 0 0 C .024 .002 .110000018 .002 .14000002 .002 C .17000002 .002 .257 .002 .281 0 L .281 .029000001 L .259 .029000001 C .18400002 .029000001 .18100001 .039 .18100001 .076000008 L .18100001 .60700008 Z "/>
</symbol>
<symbol id="font_0_7">
<path d="M .29500003 .433 C .29500003 .451 .29500003 .456 .28500004 .456 C .277 .456 .25800003 .43400003 .25100003 .425 C .22000003 .45000003 .18900001 .456 .157 .456 C .036000007 .456 0 .39000003 0 .335 C 0 .324 0 .289 .038000004 .254 C .07000001 .22600001 .10400001 .21900001 .15 .21000001 C .20500002 .19900002 .21800003 .19600001 .24300003 .17600002 C .261 .16100002 .27400003 .13900002 .27400003 .111 C .27400003 .068 .24900002 .020000002 .16100002 .020000002 C .095000009 .020000002 .047000007 .058000003 .025000003 .158 C .021000002 .17600002 .021000002 .17700002 .020000004 .17800002 C .018000003 .18200001 .014000002 .18200001 .011000004 .18200001 C 0 .18200001 0 .17700002 0 .15900001 L 0 .023000002 C 0 .0050000005 0 0 .010000002 0 C .015000001 0 .016000003 .0010000002 .033 .022 C .038000004 .029000003 .038000004 .031000004 .053000004 .047000003 C .091000009 0 .14500001 0 .162 0 C .26700003 0 .31900005 .058000003 .31900005 .13700001 C .31900005 .19100002 .286 .22300002 .277 .23200003 C .24100003 .263 .21400002 .269 .148 .28100003 C .11800001 .287 .045 .301 .045 .361 C .045 .39200003 .06600001 .43800003 .15600002 .43800003 C .26500003 .43800003 .27100004 .345 .27300004 .314 C .27400003 .306 .28100003 .306 .284 .306 C .29500003 .306 .29500003 .31100003 .29500003 .329 L .29500003 .433 Z "/>
</symbol>
<symbol id="font_0_8">
<path d="M .15 .412 L .291 .412 L .291 .441 L .15 .441 L .15 .625 L .128 .625 C .127 .531 .091000009 .435 0 .432 L 0 .412 L .08500001 .412 L .08500001 .134 C .08500001 .023000002 .159 0 .212 0 C .275 0 .308 .062000004 .308 .134 L .308 .19100002 L .286 .19100002 L .286 .136 C .286 .064 .257 .022 .21800001 .022 C .15 .022 .15 .115 .15 .13200002 L .15 .412 Z "/>
</symbol>
<use xlink:href="#font_0_a" transform="matrix(33.20889,0,0,-33.20889,3.52842,31.416916)"/>
<use xlink:href="#font_0_7" transform="matrix(33.20889,0,0,-33.20889,15.095491,31.749005)"/>
<use xlink:href="#font_0_8" transform="matrix(33.20889,0,0,-33.20889,27.264058,31.749005)"/>
<symbol id="font_1_1">
<path d="M .17900002 .303 C .18100001 .30900003 .20600002 .359 .24300002 .391 C .269 .41500003 .303 .43100003 .342 .43100003 C .382 .43100003 .396 .40100003 .396 .361 C .396 .304 .35500003 .19000001 .335 .136 C .326 .112 .321 .099 .321 .081 C .321 .036000004 .352 0 .4 0 C .49300004 0 .528 .14700002 .528 .15300001 C .528 .158 .524 .16200002 .518 .16200002 C .509 .16200002 .508 .15900001 .503 .142 C .48000003 .060000004 .442 .020000002 .403 .020000002 C .393 .020000002 .377 .021000002 .377 .053000004 C .377 .078 .388 .108 .39400003 .122 C .414 .17700002 .456 .289 .456 .34600003 C .456 .40600003 .421 .451 .345 .451 C .256 .451 .20900002 .388 .19100002 .363 C .18800001 .42000003 .14700002 .451 .10300001 .451 C .071 .451 .049000004 .432 .032000007 .398 C .014 .36200003 0 .30200003 0 .298 C 0 .294 .0040000008 .289 .011000002 .289 C .019000004 .289 .020000002 .29 .026000003 .313 C .042000005 .374 .060000004 .43100003 .1 .43100003 C .123 .43100003 .13100001 .41500003 .13100001 .38500003 C .13100001 .363 .121 .324 .114 .293 L .086 .18500002 C .082 .16600001 .071 .12100001 .066 .103 C .059 .077 .048 .030000002 .048 .025000003 C .048 .011000001 .059 0 .074 0 C .086 0 .1 .0060000007 .108 .021000002 C .11000001 .026 .11900001 .061000006 .124000009 .081 L .14600002 .17100002 L .17900002 .303 Z "/>
</symbol>
<use xlink:href="#font_1_1" transform="matrix(33.20889,0,0,-33.20889,53.56259,31.749005)"/>
<symbol id="font_0_11">
<path d="M .26500003 .693 L .26500003 .66400006 C .33300004 .66400006 .34100003 .657 .34100003 .60800006 L .34100003 .387 C .32000003 .416 .277 .451 .21600002 .451 C .10000001 .451 0 .35300002 0 .22500001 C 0 .098000008 .09500001 0 .20500002 0 C .28100003 0 .32500003 .050000006 .33900003 .069000009 L .33900003 0 L .48000006 .010000001 L .48000006 .039 C .41200004 .039 .404 .046000005 .404 .095 L .404 .704 L .26500003 .693 M .33900003 .127 C .33900003 .109000008 .33900003 .106 .32500003 .084 C .30100004 .049000004 .26000003 .020000002 .21000001 .020000002 C .18400002 .020000002 .076000008 .030000002 .076000008 .22400002 C .076000008 .296 .088 .336 .110000018 .36900003 C .13000001 .4 .17000002 .43100003 .22000003 .43100003 C .282 .43100003 .31700004 .386 .32700003 .37 C .33900003 .35300002 .33900003 .351 .33900003 .333 L .33900003 .127 Z "/>
</symbol>
<symbol id="font_0_17">
<path d="M .141 .61600008 C .141 .642 .12000001 .665 .092 .665 C .06600001 .665 .044000009 .64400008 .044000009 .61700007 C .044000009 .587 .068 .568 .092 .568 C .123 .568 .141 .59400007 .141 .61600008 M .0030000024 .43 L .0030000024 .40100003 C .067 .40100003 .076000008 .395 .076000008 .34600003 L .076000008 .074 C .076000008 .029000001 .065000008 .029000001 0 .029000001 L 0 0 C .028000005 .002 .076000008 .002 .10500001 .002 C .116000007 .002 .17400003 .002 .208 0 L .208 .029000001 C .143 .029000001 .139 .034 .139 .07300001 L .139 .441 L .0030000024 .43 Z "/>
</symbol>
<symbol id="font_0_13">
<path d="M .35300002 .24200002 C .37500004 .24200002 .377 .24200002 .377 .261 C .377 .36200003 .323 .456 .202 .456 C .08800001 .456 0 .35300002 0 .22900002 C 0 .097 .102 0 .21300002 0 C .33200003 0 .377 .108 .377 .12900001 C .377 .135 .372 .13900002 .36600004 .13900002 C .358 .13900002 .356 .134 .354 .12900001 C .328 .045 .261 .022 .21900001 .022 C .17700002 .022 .076000008 .050000006 .076000008 .22300002 L .076000008 .24200002 L .35300002 .24200002 M .07700001 .261 C .085 .418 .17300001 .43600003 .201 .43600003 C .30800004 .43600003 .314 .29500003 .31500004 .261 L .07700001 .261 Z "/>
</symbol>
<symbol id="font_0_1">
<path d="M .35600005 .69600006 C .35200004 .708 .35000003 .71400007 .33600004 .71400007 C .32200004 .71400007 .32000003 .711 .31500004 .69500008 L .106000009 .097 C .092 .056 .064 .030000002 0 .029000001 L 0 0 C .061000006 .002 .063 .002 .096 .002 C .124 .002 .172 .002 .19800002 0 L .19800002 .029000001 C .156 .030000002 .131 .051000004 .131 .079 C .131 .085 .131 .087000008 .136 .1 L .18200001 .23300001 L .43400005 .23300001 L .48900006 .076000008 C .49400006 .064 .49400006 .062000004 .49400006 .059000005 C .49400006 .029000001 .44300006 .029000001 .41800005 .029000001 L .41800005 0 C .44100005 .002 .52 .002 .54800006 .002 C .57600006 .002 .648 .002 .671 0 L .671 .029000001 C .606 .029000001 .588 .029000001 .574 .07 L .35600005 .69600006 M .30800004 .595 L .42400003 .26200003 L .192 .26200003 L .30800004 .595 Z "/>
</symbol>
<symbol id="font_0_2">
<path d="M .41300003 .24300002 C .41300003 .33600004 .41300003 .36400003 .39000003 .39600004 C .361 .43500004 .314 .441 .28 .441 C .183 .441 .145 .358 .13700001 .33800004 L .136 .33800004 L .136 .441 L 0 .43 L 0 .40100003 C .068 .40100003 .076000008 .39400003 .076000008 .34500004 L .076000008 .074 C .076000008 .029000001 .065 .029000001 0 .029000001 L 0 0 C .026 .002 .08 .002 .107999999 .002 C .13700001 .002 .191 .002 .21700001 0 L .21700001 .029000001 C .153 .029000001 .141 .029000001 .141 .074 L .141 .26000003 C .141 .365 .21000001 .42100004 .272 .42100004 C .33400003 .42100004 .34800003 .37 .34800003 .30900003 L .34800003 .074 C .34800003 .029000001 .337 .029000001 .272 .029000001 L .272 0 C .298 .002 .352 .002 .38000003 .002 C .409 .002 .46300004 .002 .48900003 0 L .48900003 .029000001 C .439 .029000001 .414 .029000001 .41300003 .059000005 L .41300003 .24300002 Z "/>
</symbol>
<symbol id="font_0_10">
<path d="M .354 .40300004 C .363 .41400004 .363 .416 .363 .42000003 C .363 .43100003 .356 .43100003 .33900003 .43100003 L .025 .43100003 L .014 .272 L .036 .272 C .042000005 .374 .061000006 .411 .17000002 .411 L .286 .411 L 0 .018000002 C 0 0 .0020000004 0 .024000003 0 L .35 0 L .366 .18400002 L .344 .18400002 C .335 .07 .31800003 .022000002 .19900002 .022000002 L .078 .022000002 L .354 .40300004 Z "/>
</symbol>
<symbol id="font_0_d">
<path d="M .342 .277 C .342 .331 .342 .37100003 .298 .41 C .263 .442 .21800003 .456 .17400001 .456 C .09200001 .456 .029000003 .402 .029000003 .337 C .029000003 .308 .048000006 .294 .070999998 .294 C .09500001 .294 .112 .31100003 .112 .335 C .112 .37600003 .076000008 .37600003 .061 .37600003 C .08400001 .418 .13200002 .43600003 .172 .43600003 C .21800003 .43600003 .277 .398 .277 .308 L .277 .268 C .076000008 .26500003 0 .18100001 0 .104 C 0 .025000003 .09200001 0 .15300001 0 C .21900001 0 .26400004 .040000004 .28300003 .088 C .28700004 .041 .31800003 .0050000005 .36100004 .0050000005 C .38200004 .0050000005 .44000004 .019000002 .44000004 .099 L .44000004 .15500002 L .418 .15500002 L .418 .099 C .418 .042000005 .39400003 .034 .38000003 .034 C .342 .034 .342 .087000008 .342 .102000009 L .342 .277 M .277 .15100001 C .277 .053000004 .20400001 .020000002 .16100002 .020000002 C .112 .020000002 .070999998 .056000007 .070999998 .104 C .070999998 .23600002 .24100003 .24800001 .277 .25 L .277 .15100001 Z "/>
</symbol>
<symbol id="font_0_16">
<path d="M .41300003 .24300002 C .41300003 .33600004 .41300003 .36400003 .39000003 .39600004 C .361 .43500004 .314 .441 .28 .441 C .194 .441 .154 .37600003 .14 .34500004 L .139 .34500004 L .139 .694 L 0 .683 L 0 .65400007 C .068 .65400007 .076000008 .647 .076000008 .59800007 L .076000008 .074 C .076000008 .029000001 .065 .029000001 0 .029000001 L 0 0 C .026 .002 .08 .002 .107999999 .002 C .13700001 .002 .191 .002 .21700001 0 L .21700001 .029000001 C .153 .029000001 .141 .029000001 .141 .074 L .141 .26000003 C .141 .365 .21000001 .42100004 .272 .42100004 C .33400003 .42100004 .34800003 .37 .34800003 .30900003 L .34800003 .074 C .34800003 .029000001 .337 .029000001 .272 .029000001 L .272 0 C .298 .002 .352 .002 .38000003 .002 C .409 .002 .46300004 .002 .48900003 0 L .48900003 .029000001 C .439 .029000001 .414 .029000001 .41300003 .059000005 L .41300003 .24300002 Z "/>
</symbol>
<symbol id="font_0_1b">
<path d="M .139 .694 L 0 .683 L 0 .65400007 C .068 .65400007 .076000008 .647 .076000008 .59800007 L .076000008 .074 C .076000008 .029000001 .065000008 .029000001 0 .029000001 L 0 0 C .028000005 .002 .07700001 .002 .107 .002 C .137 .002 .187 .002 .215 0 L .215 .029000001 C .15100003 .029000001 .139 .029000001 .139 .074 L .139 .694 Z "/>
</symbol>
<symbol id="font_0_6">
<path d="M .13900002 .23300001 C .13900002 .33 .17900002 .42100004 .256 .42100004 C .26400004 .42100004 .266 .42100004 .27 .42000003 C .26200003 .416 .24600002 .41000004 .24600002 .38300003 C .24600002 .354 .26900003 .34300003 .28500004 .34300003 C .305 .34300003 .32500003 .356 .32500003 .38300003 C .32500003 .41300003 .298 .441 .25500003 .441 C .17000002 .441 .14100002 .349 .135 .33 L .134 .33 L .134 .441 L 0 .43 L 0 .40100003 C .068 .40100003 .076000008 .39400003 .076000008 .34500004 L .076000008 .074 C .076000008 .029000001 .065 .029000001 0 .029000001 L 0 0 C .028 .002 .083000008 .002 .113000009 .002 C .14000002 .002 .21100001 .002 .23400003 0 L .23400003 .029000001 L .21400002 .029000001 C .14100002 .029000001 .13900002 .040000004 .13900002 .076000008 L .13900002 .23300001 Z "/>
</symbol>
<symbol id="font_0_5">
<path d="M .597 .256 L .57500007 .256 C .551 .1 .527 .029000001 .358 .029000001 L .222 .029000001 C .178 .029000001 .176 .036000004 .176 .069000009 L .176 .33900003 L .26700003 .33900003 C .363 .33900003 .374 .30800004 .374 .22200002 L .396 .22200002 L .396 .485 L .374 .485 C .374 .39900003 .363 .36800004 .26700003 .36800004 L .176 .36800004 L .176 .61200007 C .176 .64500007 .178 .652 .222 .652 L .35500003 .652 C .50200006 .652 .533 .60200008 .54800006 .45800004 L .57 .45800004 L .544 .68100008 L 0 .68100008 L 0 .652 L .020000004 .652 C .092 .652 .095000009 .642 .095000009 .605 L .095000009 .076000008 C .095000009 .039 .092 .029000001 .020000004 .029000001 L 0 .029000001 L 0 0 L .55700007 0 L .597 .256 Z "/>
</symbol>
<symbol id="font_0_f">
<path d="M .32700003 .38 C .31500004 .38 .27800004 .38 .27800004 .33900003 C .27800004 .315 .29500003 .298 .319 .298 C .342 .298 .36100004 .312 .36100004 .34100003 C .36100004 .40800003 .291 .456 .21000001 .456 C .09300001 .456 0 .352 0 .22600001 C 0 .098000008 .096000019 0 .20900002 0 C .34100003 0 .37100003 .120000008 .37100003 .12900001 C .37100003 .13800001 .36400003 .13800001 .36100004 .13800001 C .35200004 .13800001 .351 .135 .34800003 .123 C .32600004 .052000006 .272 .022 .21800003 .022 C .157 .022 .076000008 .075 .076000008 .22700002 C .076000008 .393 .16100002 .43400003 .21100001 .43400003 C .24900002 .43400003 .30400003 .419 .32700003 .38 Z "/>
</symbol>
<symbol id="font_0_1a">
<path d="M .252 .26500003 C .252 .266 .245 .27400003 .245 .275 C .245 .27800004 .30800004 .33200003 .316 .34 C .38500003 .4 .42900003 .40100003 .45000003 .402 L .45000003 .43100003 C .43000005 .42900003 .404 .42900003 .374 .42900003 C .34800003 .42900003 .29700003 .42900003 .27400003 .43100003 L .27400003 .402 C .291 .40100003 .30300004 .39200003 .30300004 .37600003 C .30300004 .356 .28300003 .33800004 .282 .33800004 L .13900002 .21200001 L .13900002 .694 L 0 .683 L 0 .65400007 C .068 .65400007 .076000008 .647 .076000008 .59800007 L .076000008 .074 C .076000008 .029000001 .065 .029000001 0 .029000001 L 0 0 C .028 .002 .076000008 .002 .106000009 .002 C .136 .002 .18400002 .002 .21200001 0 L .21200001 .029000001 C .14800002 .029000001 .136 .029000001 .136 .074 L .136 .18 L .20000002 .23600002 L .296 .098000008 C .31100003 .07700001 .31800003 .066 .31800003 .052 C .31800003 .034 .30400003 .029000001 .28300003 .029000001 L .28300003 0 C .30800004 .002 .35700003 .002 .38400004 .002 C .42700003 .002 .42900003 .002 .472 0 L .472 .029000001 C .44500003 .029000001 .41400004 .029000001 .38600005 .07 L .252 .26500003 Z "/>
</symbol>
<symbol id="font_0_1f">
<path d="M .108 .18900001 C .108 .25100003 .087000008 .29000003 .048 .29000003 C .019000002 .29000003 0 .268 0 .24200002 C 0 .215 .019000002 .193 .049000004 .193 C .064 .193 .074999999 .2 .08100001 .205 C .084 .208 .085 .208 .086 .208 C .08800001 .208 .08800001 .194 .08800001 .18900001 C .08800001 .125 .062 .065 .018 .018999994 C .013999999 .016000003 .012999997 .013999999 .012999997 .00999999 C .012999997 .004999995 .018 0 .023000002 0 C .031999999 0 .108 .074 .108 .18900001 Z "/>
</symbol>
<symbol id="font_0_3">
<path d="M .42900003 .22400002 C .42900003 .35300002 .33100004 .456 .215 .456 C .095 .456 0 .35 0 .22400002 C 0 .096 .10000001 0 .21400002 0 C .33200003 0 .42900003 .098000008 .42900003 .22400002 M .215 .022 C .178 .022 .133 .038000004 .104 .087000008 C .07700001 .13200002 .076000008 .19100002 .076000008 .23300001 C .076000008 .271 .076000008 .33200003 .10700001 .377 C .135 .42000003 .179 .43600003 .21400002 .43600003 C .25300003 .43600003 .29500003 .418 .32200004 .379 C .35300002 .333 .35300002 .27 .35300002 .23300001 C .35300002 .19800002 .35300002 .136 .32700003 .089 C .29900003 .041 .25300003 .022 .215 .022 Z "/>
</symbol>
<use xlink:href="#font_0_11" transform="matrix(33.20889,0,0,-33.20889,86.16104,31.749005)"/>
<use xlink:href="#font_0_17" transform="matrix(33.20889,0,0,-33.20889,104.094669,31.416916)"/>
<use xlink:href="#font_0_13" transform="matrix(33.20889,0,0,-33.20889,112.99465,31.749005)"/>
<use xlink:href="#font_0_1" transform="matrix(33.20889,0,0,-33.20889,140.69483,31.416916)"/>
<use xlink:href="#font_0_2" transform="matrix(33.20889,0,0,-33.20889,165.06142,31.416916)"/>
<use xlink:href="#font_0_10" transform="matrix(33.20889,0,0,-33.20889,182.89542,31.416916)"/>
<use xlink:href="#font_0_d" transform="matrix(33.20889,0,0,-33.20889,197.79337,31.749005)"/>
<use xlink:href="#font_0_16" transform="matrix(33.20889,0,0,-33.20889,213.72821,31.416916)"/>
<use xlink:href="#font_0_1b" transform="matrix(33.20889,0,0,-33.20889,231.76146,31.416916)"/>
<use xlink:href="#font_0_11" transform="matrix(33.20889,0,0,-33.20889,253.82778,31.749005)"/>
<use xlink:href="#font_0_13" transform="matrix(33.20889,0,0,-33.20889,271.6618,31.749005)"/>
<use xlink:href="#font_0_6" transform="matrix(33.20889,0,0,-33.20889,285.92878,31.416916)"/>
<use xlink:href="#font_0_5" transform="matrix(33.20889,0,0,-33.20889,312.36054,31.416916)"/>
<use xlink:href="#font_0_f" transform="matrix(33.20889,0,0,-33.20889,334.16133,31.749005)"/>
<use xlink:href="#font_0_1a" transform="matrix(33.20889,0,0,-33.20889,347.26203,31.416916)"/>
<use xlink:href="#font_0_13" transform="matrix(33.20889,0,0,-33.20889,363.3289,31.749005)"/>
<use xlink:href="#font_0_2" transform="matrix(33.20889,0,0,-33.20889,377.72868,31.416916)"/>
<use xlink:href="#font_0_1f" transform="matrix(33.20889,0,0,-33.20889,397.55525,37.826234)"/>
<use xlink:href="#font_0_7" transform="matrix(33.20889,0,0,-33.20889,419.0945,31.749005)"/>
<use xlink:href="#font_0_3" transform="matrix(33.20889,0,0,-33.20889,431.66157,31.749005)"/>
<use xlink:href="#font_0_17" transform="matrix(33.20889,0,0,-33.20889,461.09437,31.416916)"/>
<use xlink:href="#font_0_7" transform="matrix(33.20889,0,0,-33.20889,470.09397,31.749005)"/>
<use xlink:href="#font_0_8" transform="matrix(33.20889,0,0,-33.20889,482.26249,31.749005)"/>
<use xlink:href="#font_0_11" transform="matrix(33.20889,0,0,-33.20889,508.49336,31.749005)"/>
<use xlink:href="#font_0_17" transform="matrix(33.20889,0,0,-33.20889,526.427,31.416916)"/>
<use xlink:href="#font_0_13" transform="matrix(33.20889,0,0,-33.20889,535.32699,31.749005)"/>
<use xlink:href="#font_1_1" transform="matrix(33.20889,0,0,-33.20889,562.8954,31.749005)"/>
<symbol id="font_2_2">
<path d="M .162 .39300005 L .30600003 .39300005 L .30600003 .45500005 L .162 .45500005 L .162 .582 L .08800001 .582 L .08800001 .45500005 L 0 .45500005 L 0 .39300005 L .085 .39300005 L .085 .13700001 C .085 .078 .098000008 0 .171 0 C .215 0 .26700003 .009000001 .323 .037 L .30600003 .1 C .28000004 .080000009 .245 .068 .21400002 .068 C .17500001 .068 .162 .10300001 .162 .15500002 L .162 .39300005 Z "/>
</symbol>
<symbol id="font_2_3">
<path d="M .39200003 .23000002 C .39200003 .261 .39100004 .337 .35200004 .397 C .31000004 .46000005 .24600002 .47200004 .20800002 .47200004 C .09200001 .47200004 0 .365 0 .23700002 C 0 .105000007 .098000008 0 .22300002 0 C .27100004 0 .32900004 .012000001 .38700003 .049000004 L .381 .11800001 C .31800003 .07300001 .259 .065000008 .224 .065000008 C .14100002 .065000008 .07700001 .13800001 .074 .23000002 L .39200003 .23000002 M .08 .28900004 C .096000019 .35300002 .14500001 .40700004 .20800002 .40700004 C .245 .40700004 .31300003 .39000003 .33200003 .28900004 L .08 .28900004 Z "/>
</symbol>
<use xlink:href="#font_2_2" transform="matrix(24.90661,0,0,-24.90661,581.8068,19.691119)"/>
<use xlink:href="#font_2_3" transform="matrix(24.90661,0,0,-24.90661,591.5387,19.691119)"/>
<symbol id="font_0_1c">
<path d="M .685 .24300002 C .685 .33600004 .685 .36400003 .662 .39600004 C .633 .43500004 .586 .441 .55200007 .441 C .46900005 .441 .42700003 .381 .411 .342 C .397 .41900004 .34300003 .441 .28 .441 C .183 .441 .145 .358 .13700001 .33800004 L .136 .33800004 L .136 .441 L 0 .43 L 0 .40100003 C .068 .40100003 .076000008 .39400003 .076000008 .34500004 L .076000008 .074 C .076000008 .029000001 .065 .029000001 0 .029000001 L 0 0 C .026 .002 .08 .002 .107999999 .002 C .13700001 .002 .191 .002 .21700001 0 L .21700001 .029000001 C .153 .029000001 .141 .029000001 .141 .074 L .141 .26000003 C .141 .365 .21000001 .42100004 .272 .42100004 C .33400003 .42100004 .34800003 .37 .34800003 .30900003 L .34800003 .074 C .34800003 .029000001 .337 .029000001 .272 .029000001 L .272 0 C .298 .002 .352 .002 .38000003 .002 C .409 .002 .46300004 .002 .48900003 0 L .48900003 .029000001 C .425 .029000001 .41300003 .029000001 .41300003 .074 L .41300003 .26000003 C .41300003 .365 .482 .42100004 .544 .42100004 C .606 .42100004 .62 .37 .62 .30900003 L .62 .074 C .62 .029000001 .609 .029000001 .544 .029000001 L .544 0 C .57000008 .002 .624 .002 .652 .002 C .68100008 .002 .735 .002 .76100006 0 L .76100006 .029000001 C .711 .029000001 .68600007 .029000001 .685 .059000005 L .685 .24300002 Z "/>
</symbol>
<symbol id="font_0_19">
<path d="M .23700002 .82000008 C .23700002 .85 .213 .869 .18900001 .869 C .16100002 .869 .14000002 .847 .14000002 .82000008 C .14000002 .794 .162 .772 .18800003 .772 C .21800003 .772 .23700002 .796 .23700002 .82000008 M .09 .634 L .09 .605 C .16500002 .605 .174 .59800007 .174 .549 L .174 .149 C .174 .094000007 .16300002 .019999996 .105000007 .019999996 C .10300001 .019999996 .072000008 .019999996 .049000004 .03400001 C .075 .039000006 .083000008 .058 .083000008 .075 C .083000008 .098000008 .066 .116000007 .042000005 .116000007 C .017 .116000007 0 .098000008 0 .074 C 0 .026000008 .054000006 0 .106000009 0 C .178 0 .23700002 .062000008 .23700002 .15300001 L .23700002 .64500007 L .09 .634 Z "/>
</symbol>
<symbol id="font_0_1d">
<path d="M .22700002 .008000001 C .22700002 .011000007 .22700002 .013000011 .21000003 .030000002 C .11 .13100001 .054000006 .296 .054000006 .5 C .054000006 .694 .10100001 .86100009 .21700002 .9790001 C .22700002 .98800006 .22700002 .99 .22700002 .99300006 C .22700002 .9990001 .22200002 1.001 .21800001 1.001 C .205 1.001 .12300001 .929 .074 .8310001 C .023000002 .73 0 .623 0 .5 C 0 .411 .013999999 .29200004 .066 .18500002 C .125 .06500001 .207 0 .21800001 0 C .22200002 0 .22700002 .002000004 .22700002 .008000001 Z "/>
</symbol>
<symbol id="font_0_21">
<path d="M .19700001 .64100006 C .19700001 .66400006 .19700001 .665 .177 .665 C .15300001 .638 .103 .601 0 .601 L 0 .572 C .023000002 .572 .073 .572 .128 .59800007 L .128 .07700001 C .128 .041 .125 .029000001 .037 .029000001 L .0059999974 .029000001 L .0059999974 0 C .033 .002 .13000001 .002 .163 .002 C .196 .002 .292 .002 .319 0 L .319 .029000001 L .288 .029000001 C .2 .029000001 .19700001 .041 .19700001 .07700001 L .19700001 .64100006 Z "/>
</symbol>
<symbol id="font_0_e">
<path d="M .13900002 .704 L 0 .693 L 0 .66400006 C .068 .66400006 .076000008 .657 .076000008 .60800006 L .076000008 .010000001 L .098000008 .010000001 C .10200001 .018000002 .13000001 .068 .134 .075 C .157 .038000004 .20000002 0 .26400004 0 C .379 0 .48000003 .097 .48000003 .22600001 C .48000003 .35300002 .38600005 .451 .275 .451 C .22000002 .451 .17300001 .426 .13900002 .384 L .13900002 .704 M .14100002 .33 C .14100002 .34800003 .14100002 .35 .15200001 .366 C .17600002 .402 .22000002 .43100003 .26900003 .43100003 C .29900003 .43100003 .404 .419 .404 .22700002 C .404 .16000001 .39400003 .118 .37000004 .082 C .35000003 .051000004 .31000004 .020000002 .26000003 .020000002 C .20600002 .020000002 .17100002 .055000005 .15400002 .082 C .14100002 .103 .14100002 .107 .14100002 .124000009 L .14100002 .33 Z "/>
</symbol>
<use xlink:href="#font_0_5" transform="matrix(33.20889,0,0,-33.20889,617.6952,31.416916)"/>
<use xlink:href="#font_0_f" transform="matrix(33.20889,0,0,-33.20889,639.496,31.749005)"/>
<use xlink:href="#font_0_1a" transform="matrix(33.20889,0,0,-33.20889,652.59677,31.416916)"/>
<use xlink:href="#font_0_13" transform="matrix(33.20889,0,0,-33.20889,668.6636,31.749005)"/>
<use xlink:href="#font_0_1c" transform="matrix(33.20889,0,0,-33.20889,696.7303,31.416916)"/>
<use xlink:href="#font_0_17" transform="matrix(33.20889,0,0,-33.20889,723.76358,31.416916)"/>
<use xlink:href="#font_0_8" transform="matrix(33.20889,0,0,-33.20889,732.2651,31.749005)"/>
<use xlink:href="#font_0_19" transform="matrix(33.20889,0,0,-33.20889,756.538,38.19153)"/>
<use xlink:href="#font_0_13" transform="matrix(33.20889,0,0,-33.20889,768.66348,31.749005)"/>
<use xlink:href="#font_0_11" transform="matrix(33.20889,0,0,-33.20889,783.1629,31.749005)"/>
<use xlink:href="#font_0_13" transform="matrix(33.20889,0,0,-33.20889,800.99697,31.749005)"/>
<use xlink:href="#font_0_6" transform="matrix(33.20889,0,0,-33.20889,815.2639,31.416916)"/>
<use xlink:href="#font_0_11" transform="matrix(33.20889,0,0,-33.20889,3.4959734,67.74846)"/>
<use xlink:href="#font_0_13" transform="matrix(33.20889,0,0,-33.20889,21.329979,67.74846)"/>
<use xlink:href="#font_0_6" transform="matrix(33.20889,0,0,-33.20889,35.59693,67.41637)"/>
<use xlink:href="#font_0_d" transform="matrix(33.20889,0,0,-33.20889,59.461244,67.74846)"/>
<use xlink:href="#font_0_2" transform="matrix(33.20889,0,0,-33.20889,75.3961,67.41637)"/>
<use xlink:href="#font_0_11" transform="matrix(33.20889,0,0,-33.20889,93.49578,67.74846)"/>
<use xlink:href="#font_0_13" transform="matrix(33.20889,0,0,-33.20889,111.329799,67.74846)"/>
<use xlink:href="#font_0_6" transform="matrix(33.20889,0,0,-33.20889,125.59675,67.41637)"/>
<use xlink:href="#font_0_13" transform="matrix(33.20889,0,0,-33.20889,138.32987,67.74846)"/>
<use xlink:href="#font_0_2" transform="matrix(33.20889,0,0,-33.20889,152.72963,67.41637)"/>
<use xlink:href="#font_0_5" transform="matrix(33.20889,0,0,-33.20889,181.69484,67.41637)"/>
<use xlink:href="#font_0_f" transform="matrix(33.20889,0,0,-33.20889,203.49567,67.74846)"/>
<use xlink:href="#font_0_1a" transform="matrix(33.20889,0,0,-33.20889,216.59636,67.41637)"/>
<use xlink:href="#font_0_13" transform="matrix(33.20889,0,0,-33.20889,232.66324,67.74846)"/>
<use xlink:href="#font_0_2" transform="matrix(33.20889,0,0,-33.20889,247.06304,67.41637)"/>
<use xlink:href="#font_0_1d" transform="matrix(33.20889,0,0,-33.20889,278.25495,75.7518)"/>
<use xlink:href="#font_0_d" transform="matrix(33.20889,0,0,-33.20889,289.12834,67.74846)"/>
<use xlink:href="#font_0_1b" transform="matrix(33.20889,0,0,-33.20889,305.0964,67.41637)"/>
<use xlink:href="#font_0_7" transform="matrix(33.20889,0,0,-33.20889,314.096,67.74846)"/>
<use xlink:href="#font_0_3" transform="matrix(33.20889,0,0,-33.20889,326.66313,67.74846)"/>
<use xlink:href="#font_0_21" transform="matrix(33.20889,0,0,-33.20889,355.35514,67.41637)"/>
<use xlink:href="#font_0_e" transform="matrix(33.20889,0,0,-33.20889,379.92973,67.74846)"/>
<use xlink:href="#font_0_17" transform="matrix(33.20889,0,0,-33.20889,398.09584,67.41637)"/>
<use xlink:href="#font_0_7" transform="matrix(33.20889,0,0,-33.20889,407.09544,67.74846)"/>
<use xlink:href="#font_1_1" transform="matrix(33.20889,0,0,-33.20889,429.89698,67.74846)"/>
<symbol id="font_3_1">
<path d="M .57600006 0 C .59300008 0 .611 0 .611 .019999996 C .611 .040000008 .59300008 .040000008 .57600006 .040000008 L .035000005 .040000008 C .018 .040000008 0 .040000008 0 .019999996 C 0 0 .018 0 .035000005 0 L .57600006 0 Z "/>
</symbol>
<use xlink:href="#font_3_1" transform="matrix(33.20889,0,0,-33.20889,457.7571,59.77832)"/>
<symbol id="font_0_1e">
<path d="M .227 .5 C .227 .57600006 .21700001 .70000007 .161 .816 C .102 .9360001 .02 1.001 .009 1.001 C .004999999 1.001 0 .9990001 0 .99300006 C 0 .99 0 .98800006 .017 .9710001 C .117 .87 .17300001 .70500007 .17300001 .50100007 C .17300001 .307 .126 .14000002 .010000002 .022 C 0 .013000011 0 .011000007 0 .008000001 C 0 .002000004 .004999999 0 .009 0 C .022000004 0 .104 .07200001 .153 .17000002 C .204 .272 .227 .38000003 .227 .5 Z "/>
</symbol>
<symbol id="font_0_b">
<path d="M .39000003 .34600003 C .39900003 .368 .416 .411 .48000003 .412 L .48000003 .441 C .451 .439 .437 .439 .40600003 .439 C .38500003 .439 .37 .439 .324 .441 L .324 .412 C .366 .41 .37100003 .38 .37100003 .36900003 C .37100003 .36 .36900003 .35500003 .36400003 .343 L .262 .085 L .15 .367 C .145 .381 .144 .381 .144 .386 C .144 .412 .182 .412 .2 .412 L .2 .441 C .175 .439 .123 .439 .09600001 .439 C .063 .439 .061000006 .439 0 .441 L 0 .412 C .056 .412 .06600001 .40800003 .078 .377 L .221 .019000002 C .22600001 .0050000005 .228 0 .24000001 0 C .24700001 0 .25300003 .0020000004 .26000003 .019000002 L .39000003 .34600003 Z "/>
</symbol>
<symbol id="font_0_9">
<path d="M .272 .44 L .272 .411 C .34 .411 .34800003 .404 .34800003 .35500003 L .34800003 .17600002 C .34800003 .091 .303 .020000002 .22800002 .020000002 C .146 .020000002 .141 .067 .141 .120000008 L .141 .451 L 0 .44 L 0 .411 C .076000008 .411 .076000008 .40800003 .076000008 .319 L .076000008 .16900002 C .076000008 .107 .076000008 .071 .106000009 .038000004 C .13 .012000001 .171 0 .222 0 C .23900002 0 .271 0 .305 .029000003 C .33400003 .052000006 .35000003 .09 .35000003 .09 L .35000003 0 L .48900003 .010000001 L .48900003 .039 C .421 .039 .41300003 .046000005 .41300003 .095 L .41300003 .451 L .272 .44 Z "/>
</symbol>
<symbol id="font_0_20">
<path d="M .09700001 .049000004 C .09700001 .076000008 .07400001 .097 .049000004 .097 C .020000004 .097 0 .074 0 .049000004 C 0 .019000002 .024999999 0 .048 0 C .074999999 0 .09700001 .021000002 .09700001 .049000004 Z "/>
</symbol>
<symbol id="font_0_4">
<path d="M 0 .683 L 0 .65400007 L .02 .65400007 C .092 .65400007 .095000009 .64400008 .095000009 .60700008 L .095000009 .076000008 C .095000009 .039 .092 .029000001 .02 .029000001 L 0 .029000001 L 0 0 L .35000003 0 C .517 0 .651 .15 .651 .335 C .651 .528 .51600006 .683 .35000003 .683 L 0 .683 M .22000003 .029000001 C .176 .029000001 .174 .036000004 .174 .069000009 L .174 .614 C .174 .647 .176 .65400007 .22000003 .65400007 L .32500003 .65400007 C .40800003 .65400007 .47400005 .614 .51500007 .54800006 C .56000009 .47700004 .56000009 .37600003 .56000009 .33600004 C .56000009 .28 .559 .186 .50200006 .112 C .46900005 .07 .40900005 .029000001 .32500003 .029000001 L .22000003 .029000001 Z "/>
</symbol>
<use xlink:href="#font_0_21" transform="matrix(33.20889,0,0,-33.20889,490.02247,67.41637)"/>
<use xlink:href="#font_0_1e" transform="matrix(33.20889,0,0,-33.20889,505.16035,75.7518)"/>
<use xlink:href="#font_0_b" transform="matrix(33.20889,0,0,-33.20889,526.93209,67.74846)"/>
<use xlink:href="#font_0_13" transform="matrix(33.20889,0,0,-33.20889,543.33108,67.74846)"/>
<use xlink:href="#font_0_6" transform="matrix(33.20889,0,0,-33.20889,557.598,67.41637)"/>
<use xlink:href="#font_0_e" transform="matrix(33.20889,0,0,-33.20889,570.2647,67.74846)"/>
<use xlink:href="#font_0_9" transform="matrix(33.20889,0,0,-33.20889,588.3976,67.74846)"/>
<use xlink:href="#font_0_2" transform="matrix(33.20889,0,0,-33.20889,606.3977,67.41637)"/>
<use xlink:href="#font_0_11" transform="matrix(33.20889,0,0,-33.20889,624.49728,67.74846)"/>
<use xlink:href="#font_0_13" transform="matrix(33.20889,0,0,-33.20889,642.33139,67.74846)"/>
<use xlink:href="#font_0_2" transform="matrix(33.20889,0,0,-33.20889,656.7312,67.41637)"/>
<use xlink:href="#font_0_20" transform="matrix(33.20889,0,0,-33.20889,676.55776,67.41637)"/>
<use xlink:href="#font_0_4" transform="matrix(33.20889,0,0,-33.20889,699.06277,67.41637)"/>
<use xlink:href="#font_0_17" transform="matrix(33.20889,0,0,-33.20889,723.7639,67.41637)"/>
<use xlink:href="#font_0_13" transform="matrix(33.20889,0,0,-33.20889,732.66397,67.74846)"/>
<use xlink:href="#font_0_7" transform="matrix(33.20889,0,0,-33.20889,747.0969,67.74846)"/>
<use xlink:href="#font_0_7" transform="matrix(33.20889,0,0,-33.20889,770.0973,67.74846)"/>
<use xlink:href="#font_0_17" transform="matrix(33.20889,0,0,-33.20889,782.76406,67.41637)"/>
<use xlink:href="#font_0_2" transform="matrix(33.20889,0,0,-33.20889,791.73049,67.41637)"/>
<use xlink:href="#font_0_11" transform="matrix(33.20889,0,0,-33.20889,809.8301,67.74846)"/>
<use xlink:href="#font_1_1" transform="matrix(33.20889,0,0,-33.20889,3.2304719,103.74902)"/>
<use xlink:href="#font_3_1" transform="matrix(33.20889,0,0,-33.20889,29.089726,95.778888)"/>
<symbol id="font_0_18">
<path d="M .154 .43800003 C .103 .451 .058000003 .50100007 .058000003 .56500008 C .058000003 .63500007 .11400001 .6980001 .192 .6980001 C .35600005 .6980001 .37800003 .5360001 .38400004 .49300004 C .38600005 .481 .38600005 .47700004 .39600004 .47700004 C .40700004 .47700004 .40700004 .48200003 .40700004 .50000008 L .40700004 .7020001 C .40700004 .7200001 .40700004 .7250001 .39700005 .7250001 C .39400003 .7250001 .39000006 .7250001 .38300003 .7120001 L .35000003 .6510001 C .30200003 .71300008 .23600002 .7250001 .192 .7250001 C .081 .7250001 0 .63600006 0 .53400006 C 0 .48600004 .017 .44200004 .054 .402 C .089 .363 .124 .354 .19500001 .33600004 C .23 .328 .28500004 .314 .29900003 .308 C .34600003 .285 .37700004 .231 .37700004 .17500001 C .37700004 .10000001 .32400004 .029000003 .24100001 .029000003 C .196 .029000003 .134 .040000004 .08500001 .083000008 C .026999999 .135 .023000006 .207 .022000004 .24000001 C .021000002 .24800001 .013 .24800001 .011000004 .24800001 C 0 .24800001 0 .24300002 0 .22500001 L 0 .023000002 C 0 .005000001 0 0 .010000002 0 C .015999999 0 .017 .0020000004 .024 .014000001 C .028 .022000002 .049000008 .059000005 .057000009 .074 C .092999998 .034 .156 0 .242 0 C .35400004 0 .43500004 .095 .43500004 .20500002 C .43500004 .266 .41200004 .31100003 .38500003 .344 C .34800003 .38900004 .30300004 .4 .26400004 .41000004 L .154 .43800003 Z "/>
</symbol>
<symbol id="font_0_15">
<path d="M .092 .38600005 C .13900002 .35500003 .17900002 .35500003 .19000001 .35500003 C .28 .35500003 .347 .42300005 .347 .5 C .347 .52700009 .33900003 .56500008 .307 .597 C .34600003 .637 .393 .637 .398 .637 C .402 .637 .407 .637 .411 .635 C .40100003 .63100007 .396 .62100008 .396 .61 C .396 .5960001 .40600003 .584 .42200003 .584 C .43 .584 .448 .589 .448 .61100009 C .448 .62900009 .43400003 .65700009 .39900003 .65700009 C .347 .65700009 .308 .625 .294 .61 C .264 .633 .22900002 .646 .19100002 .646 C .101 .646 .034 .57800009 .034 .50100007 C .034 .444 .069 .407 .079 .398 C .067 .38300003 .049000004 .35400004 .049000004 .31500004 C .049000004 .25700004 .08400001 .23200001 .092 .22700002 C .046000005 .21400002 0 .17800002 0 .12600002 C 0 .05700001 .094000007 0 .21700002 0 C .336 0 .435 .053000004 .435 .128 C .435 .15300001 .428 .21200001 .368 .24300002 C .317 .26900003 .267 .26900003 .18100001 .26900003 C .12 .26900003 .113 .26900003 .095000009 .28800003 C .085 .298 .076000008 .31700004 .076000008 .338 C .076000008 .35500003 .082 .37200005 .092 .38600005 M .19100002 .37600003 C .10300001 .37600003 .10300001 .47700004 .10300001 .5 C .10300001 .518 .10300001 .559 .12 .586 C .13900002 .615 .16900002 .625 .19000001 .625 C .278 .625 .278 .52400007 .278 .50100007 C .278 .48300005 .278 .44200004 .261 .41500003 C .24200003 .38600005 .21200001 .37600003 .19100002 .37600003 M .21800001 .020999998 C .122 .020999998 .049000004 .07000001 .049000004 .127 C .049000004 .13500002 .051 .17400001 .089 .20000002 C .11100001 .21400002 .12 .21400002 .19000001 .21400002 C .273 .21400002 .386 .21400002 .386 .127 C .386 .068 .31 .020999998 .21800001 .020999998 Z "/>
</symbol>
<symbol id="font_0_12">
<path d="M .185 .669 C .176 .68200007 .17500001 .683 .153 .683 L 0 .683 L 0 .65400007 C .043000007 .65400007 .068 .65400007 .095000009 .647 L .095000009 .105000007 C .095000009 .076000008 .095000009 .029000001 0 .029000001 L 0 0 C .026 .002 .079 .002 .107 .002 C .13500002 .002 .18800003 .002 .21400002 0 L .21400002 .029000001 C .11900001 .029000001 .11900001 .076000008 .11900001 .105000007 L .11900001 .63100007 C .127 .623 .127 .62100008 .136 .609 L .526 .015000001 C .536 .001 .537 0 .544 0 C .55300006 0 .555 .004 .556 .006 L .556 .578 C .556 .60700008 .556 .65400007 .651 .65400007 L .651 .683 C .625 .68100008 .572 .68100008 .544 .68100008 C .51600006 .68100008 .463 .68100008 .437 .683 L .437 .65400007 C .532 .65400007 .532 .60700008 .532 .578 L .532 .141 L .185 .669 Z "/>
</symbol>
<symbol id="font_0_c">
<path d="M .587 .34600003 C .609 .409 .653 .411 .67 .412 L .67 .441 C .64500007 .439 .62700006 .439 .596 .439 C .56700006 .439 .565 .439 .51100006 .441 L .51100006 .412 C .556 .41 .568 .38300003 .568 .364 C .568 .363 .568 .356 .564 .34600003 L .472 .084 L .372 .367 C .367 .379 .367 .381 .367 .384 C .367 .412 .404 .412 .425 .412 L .425 .441 C .397 .439 .356 .439 .32700003 .439 C .29500003 .439 .293 .439 .23700002 .441 L .23700002 .412 C .275 .412 .28800003 .41 .299 .397 C .30400003 .391 .316 .358 .323 .338 L .238 .094000007 L .142 .366 C .137 .379 .137 .381 .137 .38500003 C .137 .412 .176 .412 .19500001 .412 L .19500001 .441 C .17 .439 .12000001 .439 .09300001 .439 C .065000008 .439 .063 .439 0 .441 L 0 .412 C .051000008 .412 .061000006 .40800003 .072000008 .37600003 L .198 .018000002 C .202 .0070000009 .205 0 .216 0 C .22500001 0 .23 .0030000006 .23500002 .019000002 L .335 .304 L .435 .019000002 C .44000004 .0030000006 .44500003 0 .45400004 0 C .465 0 .46800003 .0070000009 .472 .018000002 L .587 .34600003 Z "/>
</symbol>
<use xlink:href="#font_0_21" transform="matrix(33.20889,0,0,-33.20889,59.68845,103.41693)"/>
<use xlink:href="#font_0_18" transform="matrix(33.20889,0,0,-33.20889,84.79334,104.11432)"/>
<use xlink:href="#font_0_13" transform="matrix(33.20889,0,0,-33.20889,101.996379,103.74902)"/>
<use xlink:href="#font_0_17" transform="matrix(33.20889,0,0,-33.20889,116.429378,103.41693)"/>
<use xlink:href="#font_0_8" transform="matrix(33.20889,0,0,-33.20889,124.930858,103.74902)"/>
<use xlink:href="#font_0_13" transform="matrix(33.20889,0,0,-33.20889,137.99605,103.74902)"/>
<use xlink:href="#font_0_2" transform="matrix(33.20889,0,0,-33.20889,152.39585,103.41693)"/>
<use xlink:href="#font_0_9" transform="matrix(33.20889,0,0,-33.20889,180.39618,103.74902)"/>
<use xlink:href="#font_0_2" transform="matrix(33.20889,0,0,-33.20889,198.39623,103.41693)"/>
<use xlink:href="#font_0_11" transform="matrix(33.20889,0,0,-33.20889,216.4959,103.74902)"/>
<use xlink:href="#font_0_4" transform="matrix(33.20889,0,0,-33.20889,244.3949,103.41693)"/>
<use xlink:href="#font_0_17" transform="matrix(33.20889,0,0,-33.20889,269.09608,103.41693)"/>
<use xlink:href="#font_0_d" transform="matrix(33.20889,0,0,-33.20889,278.461,103.74902)"/>
<use xlink:href="#font_0_15" transform="matrix(33.20889,0,0,-33.20889,294.2298,110.224758)"/>
<use xlink:href="#font_0_3" transform="matrix(33.20889,0,0,-33.20889,310.66279,103.74902)"/>
<use xlink:href="#font_0_2" transform="matrix(33.20889,0,0,-33.20889,327.06254,103.41693)"/>
<use xlink:href="#font_0_d" transform="matrix(33.20889,0,0,-33.20889,345.46116,103.74902)"/>
<use xlink:href="#font_0_1b" transform="matrix(33.20889,0,0,-33.20889,361.42918,103.41693)"/>
<use xlink:href="#font_0_13" transform="matrix(33.20889,0,0,-33.20889,370.32917,103.74902)"/>
<use xlink:href="#font_0_2" transform="matrix(33.20889,0,0,-33.20889,384.72895,103.41693)"/>
<use xlink:href="#font_0_20" transform="matrix(33.20889,0,0,-33.20889,404.55549,103.41693)"/>
<use xlink:href="#font_0_12" transform="matrix(33.20889,0,0,-33.20889,425.6944,103.41693)"/>
<use xlink:href="#font_0_9" transform="matrix(33.20889,0,0,-33.20889,449.72889,103.74902)"/>
<use xlink:href="#font_0_2" transform="matrix(33.20889,0,0,-33.20889,467.72895,103.41693)"/>
<use xlink:href="#font_0_e" transform="matrix(33.20889,0,0,-33.20889,495.59599,103.74902)"/>
<use xlink:href="#font_0_13" transform="matrix(33.20889,0,0,-33.20889,514.66207,103.74902)"/>
<use xlink:href="#font_0_8" transform="matrix(33.20889,0,0,-33.20889,528.5969,103.74902)"/>
<use xlink:href="#font_0_6" transform="matrix(33.20889,0,0,-33.20889,541.5957,103.41693)"/>
<use xlink:href="#font_0_d" transform="matrix(33.20889,0,0,-33.20889,554.7937,103.74902)"/>
<use xlink:href="#font_0_f" transform="matrix(33.20889,0,0,-33.20889,570.82827,103.74902)"/>
<use xlink:href="#font_0_16" transform="matrix(33.20889,0,0,-33.20889,584.06246,103.41693)"/>
<use xlink:href="#font_0_8" transform="matrix(33.20889,0,0,-33.20889,600.59738,103.74902)"/>
<use xlink:href="#font_0_13" transform="matrix(33.20889,0,0,-33.20889,613.6626,103.74902)"/>
<use xlink:href="#font_0_2" transform="matrix(33.20889,0,0,-33.20889,628.0624,103.41693)"/>
<use xlink:href="#font_0_c" transform="matrix(33.20889,0,0,-33.20889,655.5976,103.74902)"/>
<use xlink:href="#font_0_17" transform="matrix(33.20889,0,0,-33.20889,679.42916,103.41693)"/>
<use xlink:href="#font_0_6" transform="matrix(33.20889,0,0,-33.20889,688.2627,103.41693)"/>
<use xlink:href="#font_0_11" transform="matrix(33.20889,0,0,-33.20889,710.82876,103.74902)"/>
<use xlink:href="#font_0_17" transform="matrix(33.20889,0,0,-33.20889,728.7624,103.41693)"/>
<use xlink:href="#font_0_13" transform="matrix(33.20889,0,0,-33.20889,737.6624,103.74902)"/>
<use xlink:href="#font_0_5" transform="matrix(33.20889,0,0,-33.20889,762.0282,103.41693)"/>
<use xlink:href="#font_0_f" transform="matrix(33.20889,0,0,-33.20889,783.829,103.74902)"/>
<use xlink:href="#font_0_1a" transform="matrix(33.20889,0,0,-33.20889,796.9297,103.41693)"/>
<use xlink:href="#font_0_13" transform="matrix(33.20889,0,0,-33.20889,812.9965,103.74902)"/>
<use xlink:href="#font_1_1" transform="matrix(33.20889,0,0,-33.20889,3.2303076,139.74958)"/>
<use xlink:href="#font_3_1" transform="matrix(33.20889,0,0,-33.20889,26.090449,131.77944)"/>
<use xlink:href="#font_0_21" transform="matrix(33.20889,0,0,-33.20889,53.689008,139.41748)"/>
<use xlink:href="#font_0_20" transform="matrix(33.20889,0,0,-33.20889,69.88955,139.41748)"/>
<use xlink:href="#font_0_4" transform="matrix(33.20889,0,0,-33.20889,91.06104,139.41748)"/>
<use xlink:href="#font_0_17" transform="matrix(33.20889,0,0,-33.20889,115.76222,139.41748)"/>
<use xlink:href="#font_0_13" transform="matrix(33.20889,0,0,-33.20889,124.66221,139.74958)"/>
<use xlink:href="#font_0_7" transform="matrix(33.20889,0,0,-33.20889,139.0952,139.74958)"/>
<use xlink:href="#font_0_13" transform="matrix(33.20889,0,0,-33.20889,151.66228,139.74958)"/>
<use xlink:href="#font_0_1c" transform="matrix(33.20889,0,0,-33.20889,174.39542,139.41748)"/>
<use xlink:href="#font_0_9" transform="matrix(33.20889,0,0,-33.20889,200.39594,139.74958)"/>
<use xlink:href="#font_0_7" transform="matrix(33.20889,0,0,-33.20889,218.42919,139.74958)"/>
<use xlink:href="#font_0_7" transform="matrix(33.20889,0,0,-33.20889,231.09587,139.74958)"/>
<use xlink:href="#font_0_2" transform="matrix(33.20889,0,0,-33.20889,252.39585,139.41748)"/>
<use xlink:href="#font_0_3" transform="matrix(33.20889,0,0,-33.20889,270.3295,139.74958)"/>
<use xlink:href="#font_0_f" transform="matrix(33.20889,0,0,-33.20889,287.8287,139.74958)"/>
<use xlink:href="#font_0_16" transform="matrix(33.20889,0,0,-33.20889,301.06245,139.41748)"/>
<use xlink:href="#font_0_1c" transform="matrix(33.20889,0,0,-33.20889,327.06297,139.41748)"/>
<use xlink:href="#font_0_17" transform="matrix(33.20889,0,0,-33.20889,354.09626,139.41748)"/>
<use xlink:href="#font_0_8" transform="matrix(33.20889,0,0,-33.20889,362.59773,139.74958)"/>
<use xlink:href="#font_0_11" transform="matrix(33.20889,0,0,-33.20889,384.16236,139.74958)"/>
<use xlink:href="#font_0_13" transform="matrix(33.20889,0,0,-33.20889,401.9964,139.74958)"/>
<use xlink:href="#font_0_2" transform="matrix(33.20889,0,0,-33.20889,416.39619,139.41748)"/>
<use xlink:href="#font_0_5" transform="matrix(33.20889,0,0,-33.20889,443.02845,139.41748)"/>
<use xlink:href="#font_0_f" transform="matrix(33.20889,0,0,-33.20889,464.82923,139.74958)"/>
<use xlink:href="#font_0_1a" transform="matrix(33.20889,0,0,-33.20889,477.9299,139.41748)"/>
<use xlink:href="#font_0_13" transform="matrix(33.20889,0,0,-33.20889,493.9968,139.74958)"/>
<use xlink:href="#font_0_2" transform="matrix(33.20889,0,0,-33.20889,508.39659,139.41748)"/>
<use xlink:href="#font_0_21" transform="matrix(33.20889,0,0,-33.20889,537.02316,139.41748)"/>
<use xlink:href="#font_0_e" transform="matrix(33.20889,0,0,-33.20889,559.2648,139.74958)"/>
<use xlink:href="#font_0_17" transform="matrix(33.20889,0,0,-33.20889,577.4309,139.41748)"/>
<use xlink:href="#font_0_7" transform="matrix(33.20889,0,0,-33.20889,586.4305,139.74958)"/>
<use xlink:href="#font_1_1" transform="matrix(33.20889,0,0,-33.20889,607.2303,139.74958)"/>
<use xlink:href="#font_3_1" transform="matrix(33.20889,0,0,-33.20889,630.09048,131.77944)"/>
<symbol id="font_0_22">
<path d="M .39100004 .16800002 L .36900003 .16800002 C .36600004 .15100001 .358 .096 .34800003 .080000009 C .34100003 .071 .284 .071 .254 .071 L .069000009 .071 C .09600001 .094000007 .157 .158 .183 .18200001 C .335 .32200004 .39100004 .374 .39100004 .47300003 C .39100004 .588 .3 .665 .18400002 .665 C .068 .665 0 .56600007 0 .48000003 C 0 .42900003 .044 .42900003 .047 .42900003 C .068 .42900003 .094000007 .44400005 .094000007 .476 C .094000007 .504 .075 .523 .047 .523 C .038000004 .523 .036 .523 .033 .522 C .052 .59000006 .106 .63600006 .171 .63600006 C .256 .63600006 .30800004 .565 .30800004 .47300003 C .30800004 .388 .25900004 .314 .20200002 .25 L 0 .024 L 0 0 L .36500005 0 L .39100004 .16800002 Z "/>
</symbol>
<use xlink:href="#font_0_22" transform="matrix(33.20889,0,0,-33.20889,656.29428,139.41748)"/>
<use xlink:href="#font_0_b" transform="matrix(33.20889,0,0,-33.20889,679.59866,139.74958)"/>
<use xlink:href="#font_0_13" transform="matrix(33.20889,0,0,-33.20889,695.9976,139.74958)"/>
<use xlink:href="#font_0_6" transform="matrix(33.20889,0,0,-33.20889,710.26467,139.41748)"/>
<use xlink:href="#font_0_e" transform="matrix(33.20889,0,0,-33.20889,722.93136,139.74958)"/>
<use xlink:href="#font_0_9" transform="matrix(33.20889,0,0,-33.20889,741.06417,139.74958)"/>
<use xlink:href="#font_0_2" transform="matrix(33.20889,0,0,-33.20889,759.0642,139.41748)"/>
<use xlink:href="#font_0_11" transform="matrix(33.20889,0,0,-33.20889,777.1638,139.74958)"/>
<use xlink:href="#font_0_13" transform="matrix(33.20889,0,0,-33.20889,794.99789,139.74958)"/>
<use xlink:href="#font_0_2" transform="matrix(33.20889,0,0,-33.20889,809.3977,139.41748)"/>
<use xlink:href="#font_0_c" transform="matrix(33.20889,0,0,-33.20889,2.9314645,175.74903)"/>
<use xlink:href="#font_0_13" transform="matrix(33.20889,0,0,-33.20889,25.662934,175.74903)"/>
<use xlink:href="#font_0_6" transform="matrix(33.20889,0,0,-33.20889,39.929887,175.41693)"/>
<use xlink:href="#font_0_11" transform="matrix(33.20889,0,0,-33.20889,52.829053,175.74903)"/>
<use xlink:href="#font_0_13" transform="matrix(33.20889,0,0,-33.20889,70.663059,175.74903)"/>
<use xlink:href="#font_0_2" transform="matrix(33.20889,0,0,-33.20889,85.062839,175.41693)"/>
<use xlink:href="#font_0_1d" transform="matrix(33.20889,0,0,-33.20889,115.58847,183.75237)"/>
<use xlink:href="#font_0_11" transform="matrix(33.20889,0,0,-33.20889,126.16301,175.74903)"/>
<use xlink:href="#font_0_13" transform="matrix(33.20889,0,0,-33.20889,143.99701,175.74903)"/>
<use xlink:href="#font_0_2" transform="matrix(33.20889,0,0,-33.20889,158.3968,175.41693)"/>
<use xlink:href="#font_0_2" transform="matrix(33.20889,0,0,-33.20889,176.39685,175.41693)"/>
<use xlink:href="#font_0_1c" transform="matrix(33.20889,0,0,-33.20889,204.06317,175.41693)"/>
<use xlink:href="#font_0_17" transform="matrix(33.20889,0,0,-33.20889,231.09645,175.41693)"/>
<use xlink:href="#font_0_8" transform="matrix(33.20889,0,0,-33.20889,239.59795,175.74903)"/>
<use xlink:href="#font_0_11" transform="matrix(33.20889,0,0,-33.20889,262.49595,175.74903)"/>
<use xlink:href="#font_0_13" transform="matrix(33.20889,0,0,-33.20889,280.32994,175.74903)"/>
<use xlink:href="#font_0_6" transform="matrix(33.20889,0,0,-33.20889,294.5969,175.41693)"/>
<use xlink:href="#font_1_1" transform="matrix(33.20889,0,0,-33.20889,316.897,175.74903)"/>
<symbol id="font_2_1">
<path d="M .36800004 .29700003 C .36800004 .37100003 .34800003 .455 .22700003 .455 C .14800002 .455 .10000001 .409 .07700001 .379 L .07700001 .45000003 L 0 .45000003 L 0 0 L .083000008 0 L .083000008 .24400002 C .083000008 .31 .10900001 .39000003 .185 .39000003 C .28500004 .39000003 .28500004 .319 .28500004 .29000003 L .28500004 0 L .36800004 0 L .36800004 .29700003 Z "/>
</symbol>
<use xlink:href="#font_2_2" transform="matrix(24.90661,0,0,-24.90661,335.80738,163.69112)"/>
<use xlink:href="#font_2_3" transform="matrix(24.90661,0,0,-24.90661,345.53919,163.69112)"/>
<use xlink:href="#font_2_1" transform="matrix(24.90661,0,0,-24.90661,358.01823,163.41715)"/>
<use xlink:href="#font_0_5" transform="matrix(33.20889,0,0,-33.20889,381.36265,175.41693)"/>
<use xlink:href="#font_0_f" transform="matrix(33.20889,0,0,-33.20889,403.16343,175.74903)"/>
<use xlink:href="#font_0_1a" transform="matrix(33.20889,0,0,-33.20889,416.2641,175.41693)"/>
<use xlink:href="#font_0_13" transform="matrix(33.20889,0,0,-33.20889,432.331,175.74903)"/>
<use xlink:href="#font_0_17" transform="matrix(33.20889,0,0,-33.20889,457.09754,175.41693)"/>
<use xlink:href="#font_0_7" transform="matrix(33.20889,0,0,-33.20889,466.09715,175.74903)"/>
<use xlink:href="#font_0_8" transform="matrix(33.20889,0,0,-33.20889,478.26567,175.74903)"/>
<use xlink:href="#font_0_7" transform="matrix(33.20889,0,0,-33.20889,501.0967,175.74903)"/>
<use xlink:href="#font_0_17" transform="matrix(33.20889,0,0,-33.20889,513.76339,175.41693)"/>
<use xlink:href="#font_0_13" transform="matrix(33.20889,0,0,-33.20889,522.6633,175.74903)"/>
<use xlink:href="#font_0_19" transform="matrix(33.20889,0,0,-33.20889,544.8718,182.19155)"/>
<use xlink:href="#font_0_d" transform="matrix(33.20889,0,0,-33.20889,557.4621,175.74903)"/>
<use xlink:href="#font_0_7" transform="matrix(33.20889,0,0,-33.20889,582.7631,175.74903)"/>
<use xlink:href="#font_0_f" transform="matrix(33.20889,0,0,-33.20889,595.4963,175.74903)"/>
<use xlink:href="#font_0_16" transform="matrix(33.20889,0,0,-33.20889,608.73049,175.41693)"/>
<use xlink:href="#font_0_3" transform="matrix(33.20889,0,0,-33.20889,626.6641,175.74903)"/>
<use xlink:href="#font_0_2" transform="matrix(33.20889,0,0,-33.20889,643.06399,175.41693)"/>
<use xlink:href="#font_0_b" transform="matrix(33.20889,0,0,-33.20889,670.5987,175.74903)"/>
<use xlink:href="#font_0_13" transform="matrix(33.20889,0,0,-33.20889,686.9976,175.74903)"/>
<use xlink:href="#font_0_6" transform="matrix(33.20889,0,0,-33.20889,701.26467,175.41693)"/>
<use xlink:href="#font_0_e" transform="matrix(33.20889,0,0,-33.20889,713.93136,175.74903)"/>
<use xlink:href="#font_0_9" transform="matrix(33.20889,0,0,-33.20889,732.0642,175.74903)"/>
<use xlink:href="#font_0_2" transform="matrix(33.20889,0,0,-33.20889,750.0642,175.41693)"/>
<use xlink:href="#font_0_11" transform="matrix(33.20889,0,0,-33.20889,768.1639,175.74903)"/>
<use xlink:href="#font_0_13" transform="matrix(33.20889,0,0,-33.20889,785.99789,175.74903)"/>
<use xlink:href="#font_0_2" transform="matrix(33.20889,0,0,-33.20889,800.3977,175.41693)"/>
<use xlink:href="#font_0_20" transform="matrix(33.20889,0,0,-33.20889,820.22427,175.41693)"/>
<use xlink:href="#font_0_4" transform="matrix(33.20889,0,0,-33.20889,3.7291563,211.41748)"/>
<use xlink:href="#font_0_17" transform="matrix(33.20889,0,0,-33.20889,28.430348,211.41748)"/>
<use xlink:href="#font_0_13" transform="matrix(33.20889,0,0,-33.20889,37.33033,211.74958)"/>
<use xlink:href="#font_0_7" transform="matrix(33.20889,0,0,-33.20889,51.763326,211.74958)"/>
<use xlink:href="#font_0_15" transform="matrix(33.20889,0,0,-33.20889,76.564159,218.2253)"/>
<use xlink:href="#font_0_13" transform="matrix(33.20889,0,0,-33.20889,92.997158,211.74958)"/>
<use xlink:href="#font_0_16" transform="matrix(33.20889,0,0,-33.20889,107.39694,211.41748)"/>
<use xlink:href="#font_0_8" transform="matrix(33.20889,0,0,-33.20889,123.9325,211.74958)"/>
<use xlink:href="#font_0_7" transform="matrix(33.20889,0,0,-33.20889,149.0976,211.74958)"/>
<use xlink:href="#font_0_3" transform="matrix(33.20889,0,0,-33.20889,161.66466,211.74958)"/>
<use xlink:href="#font_0_c" transform="matrix(33.20889,0,0,-33.20889,189.93314,211.74958)"/>
<use xlink:href="#font_0_13" transform="matrix(33.20889,0,0,-33.20889,212.66458,211.74958)"/>
<use xlink:href="#font_0_17" transform="matrix(33.20889,0,0,-33.20889,227.09758,211.41748)"/>
<use xlink:href="#font_0_8" transform="matrix(33.20889,0,0,-33.20889,235.59906,211.74958)"/>
<use xlink:href="#font_0_13" transform="matrix(33.20889,0,0,-33.20889,248.66426,211.74958)"/>
<use xlink:href="#font_0_6" transform="matrix(33.20889,0,0,-33.20889,262.9312,211.41748)"/>
<use xlink:href="#font_0_9" transform="matrix(33.20889,0,0,-33.20889,288.0639,211.74958)"/>
<use xlink:href="#font_0_2" transform="matrix(33.20889,0,0,-33.20889,306.064,211.41748)"/>
<use xlink:href="#font_0_11" transform="matrix(33.20889,0,0,-33.20889,324.1637,211.74958)"/>
<use xlink:href="#font_0_1c" transform="matrix(33.20889,0,0,-33.20889,354.3977,211.41748)"/>
<use xlink:href="#font_0_d" transform="matrix(33.20889,0,0,-33.20889,381.79627,211.74958)"/>
<use xlink:href="#font_0_2" transform="matrix(33.20889,0,0,-33.20889,397.73118,211.41748)"/>
<use xlink:href="#font_0_13" transform="matrix(33.20889,0,0,-33.20889,427.66487,211.74958)"/>
<use xlink:href="#font_0_6" transform="matrix(33.20889,0,0,-33.20889,441.9318,211.41748)"/>
<use xlink:href="#font_0_16" transform="matrix(33.20889,0,0,-33.20889,454.7313,211.41748)"/>
<symbol id="font_4_2">
<path d="M .062000004 .37800003 C .08600001 .416 .13000001 .43600003 .17400001 .43600003 C .23100002 .43600003 .277 .37800003 .277 .323 L .277 .269 C .17600002 .269 0 .24100001 0 .104 L 0 .094000007 C .009 .026 .09200001 0 .15100001 0 C .20300001 0 .268 .032 .283 .087000008 L .284 .087000008 C .287 .040000004 .321 .0060000007 .361 .0060000007 C .403 .0060000007 .43600003 .042000005 .44 .083000008 L .44 .15600002 L .418 .15600002 L .418 .107 C .418 .078 .41300003 .035 .38 .035 C .34800003 .035 .341 .078 .341 .103 C .341 .114 .342 .125 .342 .136 L .342 .275 C .342 .286 .343 .298 .343 .30900003 C .343 .403 .256 .456 .17400001 .456 C .110000018 .456 .029000003 .418 .029000003 .34 C .029000003 .31100003 .048000006 .29500003 .072 .29500003 C .096000019 .29500003 .113000009 .314 .113000009 .337 C .113000009 .36200003 .09400001 .37800003 .07000001 .37800003 L .062000004 .37800003 M .277 .25100003 L .277 .15600002 C .277 .085 .23200001 .021000002 .16100002 .021000002 C .12300001 .021000002 .072 .051000004 .072 .102000009 C .072 .19000001 .15200001 .23500002 .23500003 .24700003 C .24900003 .24900002 .263 .24800001 .277 .25100003 M .09900001 .661 C .074 .657 .058000003 .637 .058000003 .614 C .058000003 .591 .075 .565 .104 .565 C .13100001 .565 .15500002 .58500006 .15500002 .61300006 C .15500002 .63600006 .13700001 .662 .10800001 .662 C .105000007 .662 .10200001 .661 .09900001 .661 M .289 .661 C .266 .658 .24700003 .638 .24700003 .614 C .24700003 .591 .26500003 .565 .294 .565 C .322 .565 .344 .586 .344 .61300006 C .344 .637 .326 .662 .297 .662 C .294 .662 .292 .661 .289 .661 Z "/>
</symbol>
<use xlink:href="#font_4_2" transform="matrix(33.20889,0,0,-33.20889,473.0957,211.74958)"/>
<symbol id="font_0_14">
<path d="M .141 .402 L .25400005 .402 L .25400005 .43100003 L .139 .43100003 L .139 .54800006 C .139 .638 .185 .684 .226 .684 C .23400001 .684 .249 .68200007 .26100005 .67600008 C .25700004 .675 .23200001 .666 .23200001 .637 C .23200001 .614 .24800001 .59800007 .27100004 .59800007 C .29500003 .59800007 .31100003 .614 .31100003 .638 C .31100003 .675 .27500005 .70400008 .22700002 .70400008 C .157 .70400008 .078 .65000006 .078 .54800006 L .078 .43100003 L 0 .43100003 L 0 .402 L .078 .402 L .078 .074 C .078 .029000001 .067 .029000001 .0019999985 .029000001 L .0019999985 0 C .030000003 .002 .085 .002 .11500001 .002 C .142 .002 .21300002 .002 .23600002 0 L .23600002 .029000001 L .216 .029000001 C .143 .029000001 .141 .040000004 .141 .076000008 L .141 .402 Z "/>
</symbol>
<use xlink:href="#font_0_1b" transform="matrix(33.20889,0,0,-33.20889,489.09718,211.41748)"/>
<use xlink:href="#font_0_8" transform="matrix(33.20889,0,0,-33.20889,497.5986,211.74958)"/>
<use xlink:href="#font_0_14" transform="matrix(33.20889,0,0,-33.20889,523.02999,211.41748)"/>
<symbol id="font_4_1">
<path d="M 0 .44 L 0 .411 L .013 .411 C .055000005 .411 .076000008 .407 .076000008 .347 L .076000008 .14700002 C .076000008 .116000007 .07700001 .084 .092999998 .057000005 C .119 .013 .17400001 0 .22100002 0 C .275 0 .33400003 .035 .349 .09 L .35000003 .0010000002 L .48900003 .011000001 L .48900003 .040000004 L .47000004 .040000004 C .441 .040000004 .41300003 .044000005 .41300003 .088 L .41300003 .451 L .272 .44 L .272 .411 L .284 .411 C .31800003 .411 .34800003 .409 .34800003 .361 L .34800003 .16300002 C .34300003 .093 .30400003 .022 .22600001 .022 C .18900001 .022 .153 .031000004 .143 .084 C .141 .103 .141 .123 .141 .142 L .141 .451 L 0 .44 M .142 .661 C .114999998 .657 .100999999 .635 .100999999 .614 C .100999999 .593 .117 .565 .148 .565 C .179 .565 .198 .58900007 .198 .61300006 C .198 .634 .18200001 .662 .15100001 .662 C .148 .662 .145 .661 .142 .661 M .33200003 .661 C .305 .657 .291 .635 .291 .614 C .291 .593 .307 .565 .338 .565 C .36900003 .565 .388 .58900007 .388 .614 C .388 .63600006 .37 .662 .34100003 .662 C .338 .662 .335 .661 .33200003 .661 Z "/>
</symbol>
<use xlink:href="#font_4_1" transform="matrix(33.20889,0,0,-33.20889,533.0634,211.74958)"/>
<use xlink:href="#font_0_6" transform="matrix(33.20889,0,0,-33.20889,550.93087,211.41748)"/>
<use xlink:href="#font_0_11" transform="matrix(33.20889,0,0,-33.20889,575.8302,211.74958)"/>
<use xlink:href="#font_0_17" transform="matrix(33.20889,0,0,-33.20889,593.7639,211.41748)"/>
<use xlink:href="#font_0_13" transform="matrix(33.20889,0,0,-33.20889,602.6639,211.74958)"/>
<use xlink:href="#font_0_1" transform="matrix(33.20889,0,0,-33.20889,629.0305,211.41748)"/>
<use xlink:href="#font_0_2" transform="matrix(33.20889,0,0,-33.20889,653.39718,211.41748)"/>
<use xlink:href="#font_0_10" transform="matrix(33.20889,0,0,-33.20889,671.2311,211.41748)"/>
<use xlink:href="#font_0_d" transform="matrix(33.20889,0,0,-33.20889,686.129,211.74958)"/>
<use xlink:href="#font_0_16" transform="matrix(33.20889,0,0,-33.20889,702.06399,211.41748)"/>
<use xlink:href="#font_0_1b" transform="matrix(33.20889,0,0,-33.20889,720.0972,211.41748)"/>
<use xlink:href="#font_0_18" transform="matrix(33.20889,0,0,-33.20889,742.12716,212.11487)"/>
<use xlink:href="#font_0_13" transform="matrix(33.20889,0,0,-33.20889,759.3302,211.74958)"/>
<use xlink:href="#font_0_17" transform="matrix(33.20889,0,0,-33.20889,773.7631,211.41748)"/>
<use xlink:href="#font_0_8" transform="matrix(33.20889,0,0,-33.20889,782.26467,211.74958)"/>
<use xlink:href="#font_0_13" transform="matrix(33.20889,0,0,-33.20889,795.32986,211.74958)"/>
<use xlink:href="#font_0_2" transform="matrix(33.20889,0,0,-33.20889,809.7296,211.41748)"/>
<use xlink:href="#font_0_9" transform="matrix(33.20889,0,0,-33.20889,3.3969825,247.74903)"/>
<use xlink:href="#font_0_2" transform="matrix(33.20889,0,0,-33.20889,21.397032,247.41693)"/>
<use xlink:href="#font_0_11" transform="matrix(33.20889,0,0,-33.20889,39.49671,247.74903)"/>
<use xlink:href="#font_0_4" transform="matrix(33.20889,0,0,-33.20889,68.72927,247.41693)"/>
<use xlink:href="#font_0_17" transform="matrix(33.20889,0,0,-33.20889,93.43046,247.41693)"/>
<use xlink:href="#font_0_d" transform="matrix(33.20889,0,0,-33.20889,102.795368,247.74903)"/>
<use xlink:href="#font_0_15" transform="matrix(33.20889,0,0,-33.20889,118.56418,254.22475)"/>
<use xlink:href="#font_0_3" transform="matrix(33.20889,0,0,-33.20889,134.99718,247.74903)"/>
<use xlink:href="#font_0_2" transform="matrix(33.20889,0,0,-33.20889,151.39698,247.41693)"/>
<use xlink:href="#font_0_d" transform="matrix(33.20889,0,0,-33.20889,169.79553,247.74903)"/>
<use xlink:href="#font_0_1b" transform="matrix(33.20889,0,0,-33.20889,185.7636,247.41693)"/>
<use xlink:href="#font_0_13" transform="matrix(33.20889,0,0,-33.20889,194.66358,247.74903)"/>
<use xlink:href="#font_0_2" transform="matrix(33.20889,0,0,-33.20889,209.06339,247.41693)"/>
<use xlink:href="#font_0_11" transform="matrix(33.20889,0,0,-33.20889,237.83019,247.74903)"/>
<use xlink:href="#font_0_17" transform="matrix(33.20889,0,0,-33.20889,255.76381,247.41693)"/>
<use xlink:href="#font_0_13" transform="matrix(33.20889,0,0,-33.20889,264.66383,247.74903)"/>
<use xlink:href="#font_0_4" transform="matrix(33.20889,0,0,-33.20889,290.7295,247.41693)"/>
<use xlink:href="#font_0_6" transform="matrix(33.20889,0,0,-33.20889,315.26466,247.41693)"/>
<use xlink:href="#font_0_13" transform="matrix(33.20889,0,0,-33.20889,327.99775,247.74903)"/>
<use xlink:href="#font_0_17" transform="matrix(33.20889,0,0,-33.20889,342.43074,247.41693)"/>
<use xlink:href="#font_0_13" transform="matrix(33.20889,0,0,-33.20889,351.33073,247.74903)"/>
<use xlink:href="#font_0_f" transform="matrix(33.20889,0,0,-33.20889,365.83018,247.74903)"/>
<use xlink:href="#font_0_1a" transform="matrix(33.20889,0,0,-33.20889,378.93086,247.41693)"/>
<use xlink:href="#font_0_7" transform="matrix(33.20889,0,0,-33.20889,396.09693,247.74903)"/>
<use xlink:href="#font_0_10" transform="matrix(33.20889,0,0,-33.20889,408.56437,247.41693)"/>
<use xlink:href="#font_0_d" transform="matrix(33.20889,0,0,-33.20889,423.4623,247.74903)"/>
<use xlink:href="#font_0_16" transform="matrix(33.20889,0,0,-33.20889,439.39717,247.41693)"/>
<use xlink:href="#font_0_1b" transform="matrix(33.20889,0,0,-33.20889,457.43043,247.41693)"/>
<symbol id="font_1_2">
<path d="M .11 .074 C .100999999 .039 .09900001 .029000001 .029000003 .029000001 C .010000002 .029000001 0 .029000001 0 .011000001 C 0 0 .006000001 0 .026000005 0 L .34300003 0 C .545 0 .74200007 .209 .74200007 .432 C .74200007 .57600006 .656 .683 .513 .683 L .192 .683 C .17300001 .683 .164 .683 .164 .66400006 C .164 .65400007 .17300001 .65400007 .18800001 .65400007 C .249 .65400007 .249 .646 .249 .63500007 C .249 .633 .249 .62700006 .24500002 .61200007 L .11 .074 M .32100005 .615 C .33 .652 .33400003 .65400007 .37300004 .65400007 L .48300005 .65400007 C .577 .65400007 .66300007 .60300007 .66300007 .46500004 C .66300007 .41500003 .64300009 .24100001 .54600009 .13100001 C .518 .098000008 .44200004 .029000001 .32700003 .029000001 L .21300002 .029000001 C .199 .029000001 .19700001 .029000001 .191 .030000002 C .18 .031000002 .179 .033 .179 .041 C .179 .048 .18100001 .054 .183 .063 L .32100005 .615 Z "/>
</symbol>
<use xlink:href="#font_1_2" transform="matrix(33.20889,0,0,-33.20889,478.22843,247.41693)"/>
<symbol id="font_5_1">
<path d="M .16000001 .16800002 C .171 .21500002 .19000001 .28800003 .19100002 .29600004 C .19300002 .30200003 .21800001 .35000003 .254 .38500003 C .283 .41200004 .321 .42800004 .36 .42800004 C .414 .42800004 .414 .37500004 .414 .358 C .414 .29700003 .367 .17500001 .356 .14400001 C .344 .113000009 .34 .10300001 .34 .08400001 C .34 .030000002 .381 0 .426 0 C .522 0 .56100007 .143 .56100007 .15400002 C .56100007 .15900001 .558 .16600001 .54800006 .16600001 C .53700008 .16600001 .536 .16100002 .53200009 .14800002 C .507 .063 .465 .025000003 .42900003 .025000003 C .42200003 .025000003 .404 .025000003 .404 .057000005 C .404 .082 .414 .108 .42200003 .13000001 C .442 .18100001 .48200003 .28700004 .48200003 .34300003 C .48200003 .43200005 .416 .45300005 .363 .45300005 C .27 .45300005 .221 .38700003 .20500002 .36600004 C .19900002 .42000003 .158 .45300005 .10800001 .45300005 C .06600001 .45300005 .045 .42200003 .031000002 .395 C .014 .36 0 .30300004 0 .29900003 C 0 .29000003 .007000001 .28700004 .014 .28700004 C .025 .28700004 .027 .29200004 .032000007 .31200005 C .051000008 .39100004 .072000008 .42800004 .106000009 .42800004 C .136 .42800004 .136 .39600004 .136 .381 C .136 .36 .128 .32900004 .12200001 .30300004 C .11500001 .277 .105000007 .23400001 .10100001 .22200002 L .061000006 .058000003 C .054000006 .034 .054000006 .032 .054000006 .029000003 C .054000006 .016 .06300001 0 .08500001 0 C .09900001 0 .11400001 .009000001 .12100001 .021000002 C .12400001 .027000003 .13200002 .059 .13700001 .079 L .16000001 .16800002 Z "/>
</symbol>
<use xlink:href="#font_5_1" transform="matrix(24.90661,0,0,-24.90661,504.38969,252.6909)"/>
<symbol id="font_6_1">
<path d="M .589 0 C .607 0 .626 0 .626 .022 C .626 .042999999 .606 .042999999 .589 .042999999 L .037 .042999999 C .020000004 .042999999 0 .042999999 0 .022 C 0 0 .019000002 0 .037 0 L .589 0 Z "/>
</symbol>
<use xlink:href="#font_6_1" transform="matrix(24.90661,0,0,-24.90661,521.14248,246.71332)"/>
<symbol id="font_7_1">
<path d="M .21100003 .63900008 C .21100003 .66400006 .21000001 .666 .18500003 .666 C .123 .60200008 .031000004 .60200008 0 .60200008 L 0 .57100006 C .019000002 .57100006 .080000009 .57100006 .134 .597 L .134 .080000009 C .134 .043 .13100001 .031000002 .03800001 .031000002 L .0060000049 .031000002 L .0060000049 0 C .042000005 .003 .13100001 .003 .17200002 .003 C .21300003 .003 .30300004 .003 .33900003 0 L .33900003 .031000002 L .307 .031000002 C .21400002 .031000002 .21100003 .043 .21100003 .080000009 L .21100003 .63900008 Z "/>
</symbol>
<use xlink:href="#font_7_1" transform="matrix(24.90661,0,0,-24.90661,541.31686,252.41693)"/>
<use xlink:href="#font_0_20" transform="matrix(33.20889,0,0,-33.20889,556.2234,247.41693)"/>
</g>
</svg>
