<?xml version="1.0" encoding="UTF-8" standalone="no"?>
<!DOCTYPE svg PUBLIC "-//W3C//DTD SVG 1.1//EN" "http://www.w3.org/Graphics/SVG/1.1/DTD/svg11.dtd">
<svg xmlns="http://www.w3.org/2000/svg" xmlns:xlink="http://www.w3.org/1999/xlink" version="1.1" width="830.2222pt" height="138.36112pt" viewBox="0 0 830.2222 138.36112">
<g enable-background="new">
<symbol id="font_0_4">
<path d="M 0 .683 L 0 .65400007 L .02 .65400007 C .092 .65400007 .095000009 .64400008 .095000009 .60700008 L .095000009 .076000008 C .095000009 .039 .092 .029000001 .02 .029000001 L 0 .029000001 L 0 0 L .35000003 0 C .517 0 .651 .15 .651 .335 C .651 .528 .51600006 .683 .35000003 .683 L 0 .683 M .22000003 .029000001 C .176 .029000001 .174 .036000004 .174 .069000009 L .174 .614 C .174 .647 .176 .65400007 .22000003 .65400007 L .32500003 .65400007 C .40800003 .65400007 .47400005 .614 .51500007 .54800006 C .56000009 .47700004 .56000009 .37600003 .56000009 .33600004 C .56000009 .28 .559 .186 .50200006 .112 C .46900005 .07 .40900005 .029000001 .32500003 .029000001 L .22000003 .029000001 Z "/>
</symbol>
<symbol id="font_0_a">
<path d="M .342 .277 C .342 .331 .342 .37100003 .298 .41 C .263 .442 .21800003 .456 .17400001 .456 C .09200001 .456 .029000003 .402 .029000003 .337 C .029000003 .308 .048000006 .294 .070999998 .294 C .09500001 .294 .112 .31100003 .112 .335 C .112 .37600003 .076000008 .37600003 .061 .37600003 C .08400001 .418 .13200002 .43600003 .172 .43600003 C .21800003 .43600003 .277 .398 .277 .308 L .277 .268 C .076000008 .26500003 0 .18100001 0 .104 C 0 .025000003 .09200001 0 .15300001 0 C .21900001 0 .26400004 .040000004 .28300003 .088 C .28700004 .041 .31800003 .0050000005 .36100004 .0050000005 C .38200004 .0050000005 .44000004 .019000002 .44000004 .099 L .44000004 .15500002 L .418 .15500002 L .418 .099 C .418 .042000005 .39400003 .034 .38000003 .034 C .342 .034 .342 .087000008 .342 .102000009 L .342 .277 M .277 .15100001 C .277 .053000004 .20400001 .020000002 .16100002 .020000002 C .112 .020000002 .070999998 .056000007 .070999998 .104 C .070999998 .23600002 .24100003 .24800001 .277 .25 L .277 .15100001 Z "/>
</symbol>
<symbol id="font_0_6">
<path d="M .29500003 .433 C .29500003 .451 .29500003 .456 .28500004 .456 C .277 .456 .25800003 .43400003 .25100003 .425 C .22000003 .45000003 .18900001 .456 .157 .456 C .036000007 .456 0 .39000003 0 .335 C 0 .324 0 .289 .038000004 .254 C .07000001 .22600001 .10400001 .21900001 .15 .21000001 C .20500002 .19900002 .21800003 .19600001 .24300003 .17600002 C .261 .16100002 .27400003 .13900002 .27400003 .111 C .27400003 .068 .24900002 .020000002 .16100002 .020000002 C .095000009 .020000002 .047000007 .058000003 .025000003 .158 C .021000002 .17600002 .021000002 .17700002 .020000004 .17800002 C .018000003 .18200001 .014000002 .18200001 .011000004 .18200001 C 0 .18200001 0 .17700002 0 .15900001 L 0 .023000002 C 0 .0050000005 0 0 .010000002 0 C .015000001 0 .016000003 .0010000002 .033 .022 C .038000004 .029000003 .038000004 .031000004 .053000004 .047000003 C .091000009 0 .14500001 0 .162 0 C .26700003 0 .31900005 .058000003 .31900005 .13700001 C .31900005 .19100002 .286 .22300002 .277 .23200003 C .24100003 .263 .21400002 .269 .148 .28100003 C .11800001 .287 .045 .301 .045 .361 C .045 .39200003 .06600001 .43800003 .15600002 .43800003 C .26500003 .43800003 .27100004 .345 .27300004 .314 C .27400003 .306 .28100003 .306 .284 .306 C .29500003 .306 .29500003 .31100003 .29500003 .329 L .29500003 .433 Z "/>
</symbol>
<symbol id="font_0_15">
<path d="M .154 .43800003 C .103 .451 .058000003 .50100007 .058000003 .56500008 C .058000003 .63500007 .11400001 .6980001 .192 .6980001 C .35600005 .6980001 .37800003 .5360001 .38400004 .49300004 C .38600005 .481 .38600005 .47700004 .39600004 .47700004 C .40700004 .47700004 .40700004 .48200003 .40700004 .50000008 L .40700004 .7020001 C .40700004 .7200001 .40700004 .7250001 .39700005 .7250001 C .39400003 .7250001 .39000006 .7250001 .38300003 .7120001 L .35000003 .6510001 C .30200003 .71300008 .23600002 .7250001 .192 .7250001 C .081 .7250001 0 .63600006 0 .53400006 C 0 .48600004 .017 .44200004 .054 .402 C .089 .363 .124 .354 .19500001 .33600004 C .23 .328 .28500004 .314 .29900003 .308 C .34600003 .285 .37700004 .231 .37700004 .17500001 C .37700004 .10000001 .32400004 .029000003 .24100001 .029000003 C .196 .029000003 .134 .040000004 .08500001 .083000008 C .026999999 .135 .023000006 .207 .022000004 .24000001 C .021000002 .24800001 .013 .24800001 .011000004 .24800001 C 0 .24800001 0 .24300002 0 .22500001 L 0 .023000002 C 0 .005000001 0 0 .010000002 0 C .015999999 0 .017 .0020000004 .024 .014000001 C .028 .022000002 .049000008 .059000005 .057000009 .074 C .092999998 .034 .156 0 .242 0 C .35400004 0 .43500004 .095 .43500004 .20500002 C .43500004 .266 .41200004 .31100003 .38500003 .344 C .34800003 .38900004 .30300004 .4 .26400004 .41000004 L .154 .43800003 Z "/>
</symbol>
<symbol id="font_0_8">
<path d="M .272 .44 L .272 .411 C .34 .411 .34800003 .404 .34800003 .35500003 L .34800003 .17600002 C .34800003 .091 .303 .020000002 .22800002 .020000002 C .146 .020000002 .141 .067 .141 .120000008 L .141 .451 L 0 .44 L 0 .411 C .076000008 .411 .076000008 .40800003 .076000008 .319 L .076000008 .16900002 C .076000008 .107 .076000008 .071 .106000009 .038000004 C .13 .012000001 .171 0 .222 0 C .23900002 0 .271 0 .305 .029000003 C .33400003 .052000006 .35000003 .09 .35000003 .09 L .35000003 0 L .48900003 .010000001 L .48900003 .039 C .421 .039 .41300003 .046000005 .41300003 .095 L .41300003 .451 L .272 .44 Z "/>
</symbol>
<symbol id="font_0_18">
<path d="M .685 .24300002 C .685 .33600004 .685 .36400003 .662 .39600004 C .633 .43500004 .586 .441 .55200007 .441 C .46900005 .441 .42700003 .381 .411 .342 C .397 .41900004 .34300003 .441 .28 .441 C .183 .441 .145 .358 .13700001 .33800004 L .136 .33800004 L .136 .441 L 0 .43 L 0 .40100003 C .068 .40100003 .076000008 .39400003 .076000008 .34500004 L .076000008 .074 C .076000008 .029000001 .065 .029000001 0 .029000001 L 0 0 C .026 .002 .08 .002 .107999999 .002 C .13700001 .002 .191 .002 .21700001 0 L .21700001 .029000001 C .153 .029000001 .141 .029000001 .141 .074 L .141 .26000003 C .141 .365 .21000001 .42100004 .272 .42100004 C .33400003 .42100004 .34800003 .37 .34800003 .30900003 L .34800003 .074 C .34800003 .029000001 .337 .029000001 .272 .029000001 L .272 0 C .298 .002 .352 .002 .38000003 .002 C .409 .002 .46300004 .002 .48900003 0 L .48900003 .029000001 C .425 .029000001 .41300003 .029000001 .41300003 .074 L .41300003 .26000003 C .41300003 .365 .482 .42100004 .544 .42100004 C .606 .42100004 .62 .37 .62 .30900003 L .62 .074 C .62 .029000001 .609 .029000001 .544 .029000001 L .544 0 C .57000008 .002 .624 .002 .652 .002 C .68100008 .002 .735 .002 .76100006 0 L .76100006 .029000001 C .711 .029000001 .68600007 .029000001 .685 .059000005 L .685 .24300002 Z "/>
</symbol>
<symbol id="font_0_f">
<path d="M .35300002 .24200002 C .37500004 .24200002 .377 .24200002 .377 .261 C .377 .36200003 .323 .456 .202 .456 C .08800001 .456 0 .35300002 0 .22900002 C 0 .097 .102 0 .21300002 0 C .33200003 0 .377 .108 .377 .12900001 C .377 .135 .372 .13900002 .36600004 .13900002 C .358 .13900002 .356 .134 .354 .12900001 C .328 .045 .261 .022 .21900001 .022 C .17700002 .022 .076000008 .050000006 .076000008 .22300002 L .076000008 .24200002 L .35300002 .24200002 M .07700001 .261 C .085 .418 .17300001 .43600003 .201 .43600003 C .30800004 .43600003 .314 .29500003 .31500004 .261 L .07700001 .261 Z "/>
</symbol>
<symbol id="font_0_d">
<path d="M .354 .40300004 C .363 .41400004 .363 .416 .363 .42000003 C .363 .43100003 .356 .43100003 .33900003 .43100003 L .025 .43100003 L .014 .272 L .036 .272 C .042000005 .374 .061000006 .411 .17000002 .411 L .286 .411 L 0 .018000002 C 0 0 .0020000004 0 .024000003 0 L .35 0 L .366 .18400002 L .344 .18400002 C .335 .07 .31800003 .022000002 .19900002 .022000002 L .078 .022000002 L .354 .40300004 Z "/>
</symbol>
<symbol id="font_0_9">
<path d="M .587 .34600003 C .609 .409 .653 .411 .67 .412 L .67 .441 C .64500007 .439 .62700006 .439 .596 .439 C .56700006 .439 .565 .439 .51100006 .441 L .51100006 .412 C .556 .41 .568 .38300003 .568 .364 C .568 .363 .568 .356 .564 .34600003 L .472 .084 L .372 .367 C .367 .379 .367 .381 .367 .384 C .367 .412 .404 .412 .425 .412 L .425 .441 C .397 .439 .356 .439 .32700003 .439 C .29500003 .439 .293 .439 .23700002 .441 L .23700002 .412 C .275 .412 .28800003 .41 .299 .397 C .30400003 .391 .316 .358 .323 .338 L .238 .094000007 L .142 .366 C .137 .379 .137 .381 .137 .38500003 C .137 .412 .176 .412 .19500001 .412 L .19500001 .441 C .17 .439 .12000001 .439 .09300001 .439 C .065000008 .439 .063 .439 0 .441 L 0 .412 C .051000008 .412 .061000006 .40800003 .072000008 .37600003 L .198 .018000002 C .202 .0070000009 .205 0 .216 0 C .22500001 0 .23 .0030000006 .23500002 .019000002 L .335 .304 L .435 .019000002 C .44000004 .0030000006 .44500003 0 .45400004 0 C .465 0 .46800003 .0070000009 .472 .018000002 L .587 .34600003 Z "/>
</symbol>
<symbol id="font_0_14">
<path d="M .141 .61600008 C .141 .642 .12000001 .665 .092 .665 C .06600001 .665 .044000009 .64400008 .044000009 .61700007 C .044000009 .587 .068 .568 .092 .568 C .123 .568 .141 .59400007 .141 .61600008 M .0030000024 .43 L .0030000024 .40100003 C .067 .40100003 .076000008 .395 .076000008 .34600003 L .076000008 .074 C .076000008 .029000001 .065000008 .029000001 0 .029000001 L 0 0 C .028000005 .002 .076000008 .002 .10500001 .002 C .116000007 .002 .17400003 .002 .208 0 L .208 .029000001 C .143 .029000001 .139 .034 .139 .07300001 L .139 .441 L .0030000024 .43 Z "/>
</symbol>
<symbol id="font_0_5">
<path d="M .13900002 .23300001 C .13900002 .33 .17900002 .42100004 .256 .42100004 C .26400004 .42100004 .266 .42100004 .27 .42000003 C .26200003 .416 .24600002 .41000004 .24600002 .38300003 C .24600002 .354 .26900003 .34300003 .28500004 .34300003 C .305 .34300003 .32500003 .356 .32500003 .38300003 C .32500003 .41300003 .298 .441 .25500003 .441 C .17000002 .441 .14100002 .349 .135 .33 L .134 .33 L .134 .441 L 0 .43 L 0 .40100003 C .068 .40100003 .076000008 .39400003 .076000008 .34500004 L .076000008 .074 C .076000008 .029000001 .065 .029000001 0 .029000001 L 0 0 C .028 .002 .083000008 .002 .113000009 .002 C .14000002 .002 .21100001 .002 .23400003 0 L .23400003 .029000001 L .21400002 .029000001 C .14100002 .029000001 .13900002 .040000004 .13900002 .076000008 L .13900002 .23300001 Z "/>
</symbol>
<symbol id="font_0_10">
<path d="M .141 .402 L .25400005 .402 L .25400005 .43100003 L .139 .43100003 L .139 .54800006 C .139 .638 .185 .684 .226 .684 C .23400001 .684 .249 .68200007 .26100005 .67600008 C .25700004 .675 .23200001 .666 .23200001 .637 C .23200001 .614 .24800001 .59800007 .27100004 .59800007 C .29500003 .59800007 .31100003 .614 .31100003 .638 C .31100003 .675 .27500005 .70400008 .22700002 .70400008 C .157 .70400008 .078 .65000006 .078 .54800006 L .078 .43100003 L 0 .43100003 L 0 .402 L .078 .402 L .078 .074 C .078 .029000001 .067 .029000001 .0019999985 .029000001 L .0019999985 0 C .030000003 .002 .085 .002 .11500001 .002 C .142 .002 .21300002 .002 .23600002 0 L .23600002 .029000001 L .216 .029000001 C .143 .029000001 .141 .040000004 .141 .076000008 L .141 .402 Z "/>
</symbol>
<symbol id="font_0_1">
<path d="M .41300003 .24300002 C .41300003 .33600004 .41300003 .36400003 .39000003 .39600004 C .361 .43500004 .314 .441 .28 .441 C .183 .441 .145 .358 .13700001 .33800004 L .136 .33800004 L .136 .441 L 0 .43 L 0 .40100003 C .068 .40100003 .076000008 .39400003 .076000008 .34500004 L .076000008 .074 C .076000008 .029000001 .065 .029000001 0 .029000001 L 0 0 C .026 .002 .08 .002 .107999999 .002 C .13700001 .002 .191 .002 .21700001 0 L .21700001 .029000001 C .153 .029000001 .141 .029000001 .141 .074 L .141 .26000003 C .141 .365 .21000001 .42100004 .272 .42100004 C .33400003 .42100004 .34800003 .37 .34800003 .30900003 L .34800003 .074 C .34800003 .029000001 .337 .029000001 .272 .029000001 L .272 0 C .298 .002 .352 .002 .38000003 .002 C .409 .002 .46300004 .002 .48900003 0 L .48900003 .029000001 C .439 .029000001 .414 .029000001 .41300003 .059000005 L .41300003 .24300002 Z "/>
</symbol>
<symbol id="font_0_e">
<path d="M .26500003 .693 L .26500003 .66400006 C .33300004 .66400006 .34100003 .657 .34100003 .60800006 L .34100003 .387 C .32000003 .416 .277 .451 .21600002 .451 C .10000001 .451 0 .35300002 0 .22500001 C 0 .098000008 .09500001 0 .20500002 0 C .28100003 0 .32500003 .050000006 .33900003 .069000009 L .33900003 0 L .48000006 .010000001 L .48000006 .039 C .41200004 .039 .404 .046000005 .404 .095 L .404 .704 L .26500003 .693 M .33900003 .127 C .33900003 .109000008 .33900003 .106 .32500003 .084 C .30100004 .049000004 .26000003 .020000002 .21000001 .020000002 C .18400002 .020000002 .076000008 .030000002 .076000008 .22400002 C .076000008 .296 .088 .336 .110000018 .36900003 C .13000001 .4 .17000002 .43100003 .22000003 .43100003 C .282 .43100003 .31700004 .386 .32700003 .37 C .33900003 .35300002 .33900003 .351 .33900003 .333 L .33900003 .127 Z "/>
</symbol>
<symbol id="font_0_2">
<path d="M .42900003 .22400002 C .42900003 .35300002 .33100004 .456 .215 .456 C .095 .456 0 .35 0 .22400002 C 0 .096 .10000001 0 .21400002 0 C .33200003 0 .42900003 .098000008 .42900003 .22400002 M .215 .022 C .178 .022 .133 .038000004 .104 .087000008 C .07700001 .13200002 .076000008 .19100002 .076000008 .23300001 C .076000008 .271 .076000008 .33200003 .10700001 .377 C .135 .42000003 .179 .43600003 .21400002 .43600003 C .25300003 .43600003 .29500003 .418 .32200004 .379 C .35300002 .333 .35300002 .27 .35300002 .23300001 C .35300002 .19800002 .35300002 .136 .32700003 .089 C .29900003 .041 .25300003 .022 .215 .022 Z "/>
</symbol>
<symbol id="font_0_17">
<path d="M .139 .694 L 0 .683 L 0 .65400007 C .068 .65400007 .076000008 .647 .076000008 .59800007 L .076000008 .074 C .076000008 .029000001 .065000008 .029000001 0 .029000001 L 0 0 C .028000005 .002 .07700001 .002 .107 .002 C .137 .002 .187 .002 .215 0 L .215 .029000001 C .15100003 .029000001 .139 .029000001 .139 .074 L .139 .694 Z "/>
</symbol>
<symbol id="font_0_11">
<path d="M .092 .38600005 C .13900002 .35500003 .17900002 .35500003 .19000001 .35500003 C .28 .35500003 .347 .42300005 .347 .5 C .347 .52700009 .33900003 .56500008 .307 .597 C .34600003 .637 .393 .637 .398 .637 C .402 .637 .407 .637 .411 .635 C .40100003 .63100007 .396 .62100008 .396 .61 C .396 .5960001 .40600003 .584 .42200003 .584 C .43 .584 .448 .589 .448 .61100009 C .448 .62900009 .43400003 .65700009 .39900003 .65700009 C .347 .65700009 .308 .625 .294 .61 C .264 .633 .22900002 .646 .19100002 .646 C .101 .646 .034 .57800009 .034 .50100007 C .034 .444 .069 .407 .079 .398 C .067 .38300003 .049000004 .35400004 .049000004 .31500004 C .049000004 .25700004 .08400001 .23200001 .092 .22700002 C .046000005 .21400002 0 .17800002 0 .12600002 C 0 .05700001 .094000007 0 .21700002 0 C .336 0 .435 .053000004 .435 .128 C .435 .15300001 .428 .21200001 .368 .24300002 C .317 .26900003 .267 .26900003 .18100001 .26900003 C .12 .26900003 .113 .26900003 .095000009 .28800003 C .085 .298 .076000008 .31700004 .076000008 .338 C .076000008 .35500003 .082 .37200005 .092 .38600005 M .19100002 .37600003 C .10300001 .37600003 .10300001 .47700004 .10300001 .5 C .10300001 .518 .10300001 .559 .12 .586 C .13900002 .615 .16900002 .625 .19000001 .625 C .278 .625 .278 .52400007 .278 .50100007 C .278 .48300005 .278 .44200004 .261 .41500003 C .24200003 .38600005 .21200001 .37600003 .19100002 .37600003 M .21800001 .020999998 C .122 .020999998 .049000004 .07000001 .049000004 .127 C .049000004 .13500002 .051 .17400001 .089 .20000002 C .11100001 .21400002 .12 .21400002 .19000001 .21400002 C .273 .21400002 .386 .21400002 .386 .127 C .386 .068 .31 .020999998 .21800001 .020999998 Z "/>
</symbol>
<symbol id="font_0_c">
<path d="M .32700003 .38 C .31500004 .38 .27800004 .38 .27800004 .33900003 C .27800004 .315 .29500003 .298 .319 .298 C .342 .298 .36100004 .312 .36100004 .34100003 C .36100004 .40800003 .291 .456 .21000001 .456 C .09300001 .456 0 .352 0 .22600001 C 0 .098000008 .096000019 0 .20900002 0 C .34100003 0 .37100003 .120000008 .37100003 .12900001 C .37100003 .13800001 .36400003 .13800001 .36100004 .13800001 C .35200004 .13800001 .351 .135 .34800003 .123 C .32600004 .052000006 .272 .022 .21800003 .022 C .157 .022 .076000008 .075 .076000008 .22700002 C .076000008 .393 .16100002 .43400003 .21100001 .43400003 C .24900002 .43400003 .30400003 .419 .32700003 .38 Z "/>
</symbol>
<symbol id="font_0_16">
<path d="M .252 .26500003 C .252 .266 .245 .27400003 .245 .275 C .245 .27800004 .30800004 .33200003 .316 .34 C .38500003 .4 .42900003 .40100003 .45000003 .402 L .45000003 .43100003 C .43000005 .42900003 .404 .42900003 .374 .42900003 C .34800003 .42900003 .29700003 .42900003 .27400003 .43100003 L .27400003 .402 C .291 .40100003 .30300004 .39200003 .30300004 .37600003 C .30300004 .356 .28300003 .33800004 .282 .33800004 L .13900002 .21200001 L .13900002 .694 L 0 .683 L 0 .65400007 C .068 .65400007 .076000008 .647 .076000008 .59800007 L .076000008 .074 C .076000008 .029000001 .065 .029000001 0 .029000001 L 0 0 C .028 .002 .076000008 .002 .106000009 .002 C .136 .002 .18400002 .002 .21200001 0 L .21200001 .029000001 C .14800002 .029000001 .136 .029000001 .136 .074 L .136 .18 L .20000002 .23600002 L .296 .098000008 C .31100003 .07700001 .31800003 .066 .31800003 .052 C .31800003 .034 .30400003 .029000001 .28300003 .029000001 L .28300003 0 C .30800004 .002 .35700003 .002 .38400004 .002 C .42700003 .002 .42900003 .002 .472 0 L .472 .029000001 C .44500003 .029000001 .41400004 .029000001 .38600005 .07 L .252 .26500003 Z "/>
</symbol>
<symbol id="font_0_13">
<path d="M .41300003 .24300002 C .41300003 .33600004 .41300003 .36400003 .39000003 .39600004 C .361 .43500004 .314 .441 .28 .441 C .194 .441 .154 .37600003 .14 .34500004 L .139 .34500004 L .139 .694 L 0 .683 L 0 .65400007 C .068 .65400007 .076000008 .647 .076000008 .59800007 L .076000008 .074 C .076000008 .029000001 .065 .029000001 0 .029000001 L 0 0 C .026 .002 .08 .002 .107999999 .002 C .13700001 .002 .191 .002 .21700001 0 L .21700001 .029000001 C .153 .029000001 .141 .029000001 .141 .074 L .141 .26000003 C .141 .365 .21000001 .42100004 .272 .42100004 C .33400003 .42100004 .34800003 .37 .34800003 .30900003 L .34800003 .074 C .34800003 .029000001 .337 .029000001 .272 .029000001 L .272 0 C .298 .002 .352 .002 .38000003 .002 C .409 .002 .46300004 .002 .48900003 0 L .48900003 .029000001 C .439 .029000001 .414 .029000001 .41300003 .059000005 L .41300003 .24300002 Z "/>
</symbol>
<symbol id="font_0_b">
<path d="M .13900002 .704 L 0 .693 L 0 .66400006 C .068 .66400006 .076000008 .657 .076000008 .60800006 L .076000008 .010000001 L .098000008 .010000001 C .10200001 .018000002 .13000001 .068 .134 .075 C .157 .038000004 .20000002 0 .26400004 0 C .379 0 .48000003 .097 .48000003 .22600001 C .48000003 .35300002 .38600005 .451 .275 .451 C .22000002 .451 .17300001 .426 .13900002 .384 L .13900002 .704 M .14100002 .33 C .14100002 .34800003 .14100002 .35 .15200001 .366 C .17600002 .402 .22000002 .43100003 .26900003 .43100003 C .29900003 .43100003 .404 .419 .404 .22700002 C .404 .16000001 .39400003 .118 .37000004 .082 C .35000003 .051000004 .31000004 .020000002 .26000003 .020000002 C .20600002 .020000002 .17100002 .055000005 .15400002 .082 C .14100002 .103 .14100002 .107 .14100002 .124000009 L .14100002 .33 Z "/>
</symbol>
<symbol id="font_0_12">
<path d="M .45000003 .2 C .558 .24700001 .653 .372 .653 .533 C .653 .74 .501 .89800009 .32700003 .89800009 C .149 .89800009 0 .73800006 0 .533 C 0 .33200003 .148 .17300001 .32700003 .17300001 C .36000005 .17300001 .39400003 .179 .42100004 .18800001 C .43700005 .086 .45000003 0 .54 0 C .657 0 .658 .17500001 .658 .184 C .658 .194 .658 .20300001 .648 .20300001 C .64 .20300001 .64 .19600001 .639 .18900001 C .632 .117 .583 .093 .54800006 .093 C .497 .093 .474 .13 .45000003 .2 M .26500003 .206 C .191 .23200001 .091000009 .31800003 .091000009 .53400006 C .091000009 .78300008 .226 .87600007 .32600004 .87600007 C .43100003 .87600007 .56200006 .78000006 .56200006 .53400006 C .56200006 .39100004 .518 .28800003 .43800003 .23200001 C .42100004 .282 .39300005 .34100003 .32800005 .34100003 C .27800004 .34100003 .249 .298 .249 .257 C .249 .23 .263 .209 .26500003 .206 M .41600005 .21800001 C .38600005 .202 .35400004 .19500001 .32700003 .19500001 C .28400005 .19500001 .26900003 .23400001 .26900003 .25800003 C .26900003 .287 .29000003 .321 .32800005 .321 C .38500003 .321 .40500004 .27400003 .41600005 .21800001 Z "/>
</symbol>
<symbol id="font_0_7">
<path d="M .15 .412 L .291 .412 L .291 .441 L .15 .441 L .15 .625 L .128 .625 C .127 .531 .091000009 .435 0 .432 L 0 .412 L .08500001 .412 L .08500001 .134 C .08500001 .023000002 .159 0 .212 0 C .275 0 .308 .062000004 .308 .134 L .308 .19100002 L .286 .19100002 L .286 .136 C .286 .064 .257 .022 .21800001 .022 C .15 .022 .15 .115 .15 .13200002 L .15 .412 Z "/>
</symbol>
<symbol id="font_0_19">
<path d="M .09700001 .049000004 C .09700001 .076000008 .07400001 .097 .049000004 .097 C .020000004 .097 0 .074 0 .049000004 C 0 .019000002 .024999999 0 .048 0 C .074999999 0 .09700001 .021000002 .09700001 .049000004 Z "/>
</symbol>
<use xlink:href="#font_0_4" transform="matrix(33.20889,0,0,-33.20889,3.7276734,25.36084)"/>
<use xlink:href="#font_0_a" transform="matrix(33.20889,0,0,-33.20889,28.79416,25.692929)"/>
<use xlink:href="#font_0_6" transform="matrix(33.20889,0,0,-33.20889,44.762239,25.692929)"/>
<use xlink:href="#font_0_15" transform="matrix(33.20889,0,0,-33.20889,75.45994,26.058228)"/>
<use xlink:href="#font_0_8" transform="matrix(33.20889,0,0,-33.20889,92.729389,25.692929)"/>
<use xlink:href="#font_0_18" transform="matrix(33.20889,0,0,-33.20889,110.72944,25.36084)"/>
<use xlink:href="#font_0_18" transform="matrix(33.20889,0,0,-33.20889,137.72953,25.36084)"/>
<use xlink:href="#font_0_f" transform="matrix(33.20889,0,0,-33.20889,164.66318,25.692929)"/>
<use xlink:href="#font_0_d" transform="matrix(33.20889,0,0,-33.20889,196.56342,25.36084)"/>
<use xlink:href="#font_0_9" transform="matrix(33.20889,0,0,-33.20889,210.5979,25.692929)"/>
<use xlink:href="#font_0_f" transform="matrix(33.20889,0,0,-33.20889,233.3298,25.692929)"/>
<use xlink:href="#font_0_14" transform="matrix(33.20889,0,0,-33.20889,247.76279,25.36084)"/>
<use xlink:href="#font_0_f" transform="matrix(33.20889,0,0,-33.20889,256.66279,25.692929)"/>
<use xlink:href="#font_0_5" transform="matrix(33.20889,0,0,-33.20889,270.92973,25.36084)"/>
<use xlink:href="#font_0_a" transform="matrix(33.20889,0,0,-33.20889,302.1278,25.692929)"/>
<use xlink:href="#font_0_8" transform="matrix(33.20889,0,0,-33.20889,318.06269,25.692929)"/>
<use xlink:href="#font_0_10" transform="matrix(33.20889,0,0,-33.20889,336.02955,25.36084)"/>
<use xlink:href="#font_0_f" transform="matrix(33.20889,0,0,-33.20889,345.99638,25.692929)"/>
<use xlink:href="#font_0_14" transform="matrix(33.20889,0,0,-33.20889,360.42933,25.36084)"/>
<use xlink:href="#font_0_1" transform="matrix(33.20889,0,0,-33.20889,369.39573,25.36084)"/>
<use xlink:href="#font_0_a" transform="matrix(33.20889,0,0,-33.20889,387.79426,25.692929)"/>
<use xlink:href="#font_0_1" transform="matrix(33.20889,0,0,-33.20889,403.72914,25.36084)"/>
<use xlink:href="#font_0_e" transform="matrix(33.20889,0,0,-33.20889,421.82887,25.692929)"/>
<use xlink:href="#font_0_f" transform="matrix(33.20889,0,0,-33.20889,439.66285,25.692929)"/>
<use xlink:href="#font_0_5" transform="matrix(33.20889,0,0,-33.20889,453.92979,25.36084)"/>
<use xlink:href="#font_0_10" transform="matrix(33.20889,0,0,-33.20889,466.69609,25.36084)"/>
<use xlink:href="#font_0_2" transform="matrix(33.20889,0,0,-33.20889,476.6629,25.692929)"/>
<use xlink:href="#font_0_17" transform="matrix(33.20889,0,0,-33.20889,493.0959,25.36084)"/>
<use xlink:href="#font_0_11" transform="matrix(33.20889,0,0,-33.20889,501.89625,32.168664)"/>
<use xlink:href="#font_0_f" transform="matrix(33.20889,0,0,-33.20889,518.3292,25.692929)"/>
<use xlink:href="#font_0_1" transform="matrix(33.20889,0,0,-33.20889,532.729,25.36084)"/>
<use xlink:href="#font_0_e" transform="matrix(33.20889,0,0,-33.20889,550.8287,25.692929)"/>
<use xlink:href="#font_0_f" transform="matrix(33.20889,0,0,-33.20889,568.6627,25.692929)"/>
<use xlink:href="#font_0_1" transform="matrix(33.20889,0,0,-33.20889,583.0625,25.36084)"/>
<use xlink:href="#font_0_4" transform="matrix(33.20889,0,0,-33.20889,619.0612,25.36084)"/>
<use xlink:href="#font_0_5" transform="matrix(33.20889,0,0,-33.20889,643.5964,25.36084)"/>
<use xlink:href="#font_0_f" transform="matrix(33.20889,0,0,-33.20889,656.32949,25.692929)"/>
<use xlink:href="#font_0_14" transform="matrix(33.20889,0,0,-33.20889,670.7625,25.36084)"/>
<use xlink:href="#font_0_f" transform="matrix(33.20889,0,0,-33.20889,679.6625,25.692929)"/>
<use xlink:href="#font_0_c" transform="matrix(33.20889,0,0,-33.20889,694.16189,25.692929)"/>
<use xlink:href="#font_0_16" transform="matrix(33.20889,0,0,-33.20889,707.2627,25.36084)"/>
<use xlink:href="#font_0_6" transform="matrix(33.20889,0,0,-33.20889,724.42868,25.692929)"/>
<use xlink:href="#font_0_d" transform="matrix(33.20889,0,0,-33.20889,736.8962,25.36084)"/>
<use xlink:href="#font_0_a" transform="matrix(33.20889,0,0,-33.20889,751.79409,25.692929)"/>
<use xlink:href="#font_0_13" transform="matrix(33.20889,0,0,-33.20889,767.729,25.36084)"/>
<use xlink:href="#font_0_17" transform="matrix(33.20889,0,0,-33.20889,785.7622,25.36084)"/>
<use xlink:href="#font_0_f" transform="matrix(33.20889,0,0,-33.20889,794.66226,25.692929)"/>
<use xlink:href="#font_0_1" transform="matrix(33.20889,0,0,-33.20889,809.0621,25.36084)"/>
<use xlink:href="#font_0_b" transform="matrix(33.20889,0,0,-33.20889,3.2627488,58.02682)"/>
<use xlink:href="#font_0_14" transform="matrix(33.20889,0,0,-33.20889,21.428843,57.694734)"/>
<use xlink:href="#font_0_17" transform="matrix(33.20889,0,0,-33.20889,30.428452,57.694734)"/>
<use xlink:href="#font_0_e" transform="matrix(33.20889,0,0,-33.20889,39.49448,58.02682)"/>
<use xlink:href="#font_0_f" transform="matrix(33.20889,0,0,-33.20889,57.32848,58.02682)"/>
<use xlink:href="#font_0_1" transform="matrix(33.20889,0,0,-33.20889,71.72827,57.694734)"/>
<use xlink:href="#font_0_f" transform="matrix(33.20889,0,0,-33.20889,104.32904,58.02682)"/>
<use xlink:href="#font_0_14" transform="matrix(33.20889,0,0,-33.20889,118.76204,57.694734)"/>
<use xlink:href="#font_0_1" transform="matrix(33.20889,0,0,-33.20889,127.72844,57.694734)"/>
<use xlink:href="#font_0_f" transform="matrix(33.20889,0,0,-33.20889,145.66207,58.02682)"/>
<use xlink:href="#font_0_12" transform="matrix(33.20889,0,0,-33.20889,175.45893,64.13726)"/>
<use xlink:href="#font_0_8" transform="matrix(33.20889,0,0,-33.20889,200.06174,58.02682)"/>
<use xlink:href="#font_0_a" transform="matrix(33.20889,0,0,-33.20889,218.46031,58.02682)"/>
<use xlink:href="#font_0_e" transform="matrix(33.20889,0,0,-33.20889,234.49478,58.02682)"/>
<use xlink:href="#font_0_5" transform="matrix(33.20889,0,0,-33.20889,252.26239,57.694734)"/>
<use xlink:href="#font_0_a" transform="matrix(33.20889,0,0,-33.20889,265.46043,58.02682)"/>
<use xlink:href="#font_0_7" transform="matrix(33.20889,0,0,-33.20889,280.93037,58.02682)"/>
<use xlink:href="#font_0_d" transform="matrix(33.20889,0,0,-33.20889,293.89598,57.694734)"/>
<use xlink:href="#font_0_a" transform="matrix(33.20889,0,0,-33.20889,308.79386,58.02682)"/>
<use xlink:href="#font_0_13" transform="matrix(33.20889,0,0,-33.20889,324.72874,57.694734)"/>
<use xlink:href="#font_0_17" transform="matrix(33.20889,0,0,-33.20889,342.762,57.694734)"/>
<use xlink:href="#font_0_19" transform="matrix(33.20889,0,0,-33.20889,353.55488,57.694734)"/>
<use xlink:href="#font_0_4" transform="matrix(33.20889,0,0,-33.20889,386.3937,57.694734)"/>
<use xlink:href="#font_0_14" transform="matrix(33.20889,0,0,-33.20889,411.0949,57.694734)"/>
<use xlink:href="#font_0_f" transform="matrix(33.20889,0,0,-33.20889,419.9949,58.02682)"/>
<use xlink:href="#font_0_15" transform="matrix(33.20889,0,0,-33.20889,449.45909,58.39212)"/>
<use xlink:href="#font_0_f" transform="matrix(33.20889,0,0,-33.20889,466.66218,58.02682)"/>
<use xlink:href="#font_0_14" transform="matrix(33.20889,0,0,-33.20889,481.09516,57.694734)"/>
<use xlink:href="#font_0_7" transform="matrix(33.20889,0,0,-33.20889,489.59663,58.02682)"/>
<use xlink:href="#font_0_f" transform="matrix(33.20889,0,0,-33.20889,502.6619,58.02682)"/>
<use xlink:href="#font_0_e" transform="matrix(33.20889,0,0,-33.20889,531.8282,58.02682)"/>
<use xlink:href="#font_0_f" transform="matrix(33.20889,0,0,-33.20889,549.66226,58.02682)"/>
<use xlink:href="#font_0_6" transform="matrix(33.20889,0,0,-33.20889,564.0953,58.02682)"/>
<use xlink:href="#font_0_12" transform="matrix(33.20889,0,0,-33.20889,592.1263,64.13726)"/>
<use xlink:href="#font_0_8" transform="matrix(33.20889,0,0,-33.20889,616.7291,58.02682)"/>
<use xlink:href="#font_0_a" transform="matrix(33.20889,0,0,-33.20889,635.1277,58.02682)"/>
<use xlink:href="#font_0_e" transform="matrix(33.20889,0,0,-33.20889,651.16226,58.02682)"/>
<use xlink:href="#font_0_5" transform="matrix(33.20889,0,0,-33.20889,668.9298,57.694734)"/>
<use xlink:href="#font_0_a" transform="matrix(33.20889,0,0,-33.20889,682.1278,58.02682)"/>
<use xlink:href="#font_0_7" transform="matrix(33.20889,0,0,-33.20889,697.59786,58.02682)"/>
<use xlink:href="#font_0_6" transform="matrix(33.20889,0,0,-33.20889,710.7626,58.02682)"/>
<use xlink:href="#font_0_14" transform="matrix(33.20889,0,0,-33.20889,737.7629,57.694734)"/>
<use xlink:href="#font_0_6" transform="matrix(33.20889,0,0,-33.20889,746.7625,58.02682)"/>
<use xlink:href="#font_0_7" transform="matrix(33.20889,0,0,-33.20889,758.93118,58.02682)"/>
<use xlink:href="#font_0_e" transform="matrix(33.20889,0,0,-33.20889,786.8287,58.02682)"/>
<use xlink:href="#font_0_14" transform="matrix(33.20889,0,0,-33.20889,804.76229,57.694734)"/>
<use xlink:href="#font_0_f" transform="matrix(33.20889,0,0,-33.20889,813.6623,58.02682)"/>
<use xlink:href="#font_0_11" transform="matrix(33.20889,0,0,-33.20889,3.2295399,96.83643)"/>
<use xlink:href="#font_0_5" transform="matrix(33.20889,0,0,-33.20889,19.596123,90.02861)"/>
<symbol id="font_1_1">
<path d="M .201 .455 C .094000007 .44500003 0 .35200004 0 .22500001 C 0 .11100001 .08400001 0 .216 0 C .336 0 .43 .106000009 .43 .22300002 C .43 .335 .347 .45600004 .21400002 .45600004 C .21000001 .45600004 .20500002 .455 .201 .455 M .07700001 .202 C .076000008 .21000001 .076000008 .21800001 .076000008 .22600001 C .076000008 .29500003 .083000008 .386 .16000001 .42200003 C .17700002 .43000005 .19600001 .43400003 .21400002 .43400003 C .252 .43400003 .289 .41700004 .314 .38700003 C .349 .34600003 .35300002 .29000003 .35300002 .23800002 C .35300002 .18200001 .352 .11800001 .314 .071 C .289 .040000004 .252 .022 .21400002 .022 C .13100001 .022 .08800001 .09700001 .080000009 .171 C .07800001 .18100001 .07800001 .19200002 .07700001 .202 M .113000009 .66 C .08800001 .656 .072000008 .63600006 .072000008 .61300006 C .072000008 .59000006 .08900001 .564 .118 .564 C .14500001 .564 .16900002 .58400008 .16900002 .61200007 C .16900002 .63500007 .15100001 .661 .12200001 .661 C .119 .661 .11600001 .66 .113000009 .66 M .303 .66 C .28 .657 .261 .637 .261 .61300006 C .261 .59000006 .279 .564 .308 .564 C .336 .564 .358 .58500006 .358 .61200007 C .358 .63600006 .34 .661 .311 .661 C .308 .661 .306 .66 .303 .66 Z "/>
</symbol>
<use xlink:href="#font_1_1" transform="matrix(33.20889,0,0,-33.20889,32.295404,90.32749)"/>
<symbol id="font_0_3">
<path d="M .48100005 .648 C .48900006 .661 .48900006 .66200008 .48900006 .669 C .48900006 .683 .48400007 .683 .46500007 .683 L .025000003 .683 L .014000002 .46 L .036000004 .46 C .043 .573 .074 .65400007 .23600002 .65400007 L .39600004 .65400007 L 0 .024 C 0 .001 .001000002 0 .024 0 L .47800002 0 L .49400006 .264 L .47200004 .264 C .46500007 .123 .44400005 .031000002 .26200003 .031000002 L .092999998 .031000002 L .48100005 .648 Z "/>
</symbol>
<use xlink:href="#font_0_6" transform="matrix(33.20889,0,0,-33.20889,48.761796,90.3607)"/>
<use xlink:href="#font_0_6" transform="matrix(33.20889,0,0,-33.20889,61.428499,90.3607)"/>
<use xlink:href="#font_0_f" transform="matrix(33.20889,0,0,-33.20889,73.99557,90.3607)"/>
<use xlink:href="#font_0_5" transform="matrix(33.20889,0,0,-33.20889,88.26252,90.02861)"/>
<use xlink:href="#font_0_f" transform="matrix(33.20889,0,0,-33.20889,100.99565,90.3607)"/>
<use xlink:href="#font_0_e" transform="matrix(33.20889,0,0,-33.20889,126.82864,90.3607)"/>
<use xlink:href="#font_0_f" transform="matrix(33.20889,0,0,-33.20889,144.66265,90.3607)"/>
<use xlink:href="#font_0_5" transform="matrix(33.20889,0,0,-33.20889,158.9296,90.02861)"/>
<use xlink:href="#font_0_d" transform="matrix(33.20889,0,0,-33.20889,182.56356,90.02861)"/>
<use xlink:href="#font_0_9" transform="matrix(33.20889,0,0,-33.20889,196.59806,90.3607)"/>
<use xlink:href="#font_0_f" transform="matrix(33.20889,0,0,-33.20889,219.32994,90.3607)"/>
<use xlink:href="#font_0_14" transform="matrix(33.20889,0,0,-33.20889,233.76293,90.02861)"/>
<use xlink:href="#font_0_7" transform="matrix(33.20889,0,0,-33.20889,253.598,90.3607)"/>
<use xlink:href="#font_0_14" transform="matrix(33.20889,0,0,-33.20889,266.76286,90.02861)"/>
<use xlink:href="#font_0_f" transform="matrix(33.20889,0,0,-33.20889,275.66285,90.3607)"/>
<use xlink:href="#font_0_10" transform="matrix(33.20889,0,0,-33.20889,290.02943,90.02861)"/>
<use xlink:href="#font_0_11" transform="matrix(33.20889,0,0,-33.20889,299.8966,96.83643)"/>
<use xlink:href="#font_0_f" transform="matrix(33.20889,0,0,-33.20889,316.32963,90.3607)"/>
<use xlink:href="#font_0_6" transform="matrix(33.20889,0,0,-33.20889,330.76258,90.3607)"/>
<use xlink:href="#font_0_7" transform="matrix(33.20889,0,0,-33.20889,342.93113,90.3607)"/>
<use xlink:href="#font_0_f" transform="matrix(33.20889,0,0,-33.20889,355.99635,90.3607)"/>
<use xlink:href="#font_0_17" transform="matrix(33.20889,0,0,-33.20889,370.42933,90.02861)"/>
<use xlink:href="#font_0_17" transform="matrix(33.20889,0,0,-33.20889,379.4289,90.02861)"/>
<use xlink:href="#font_0_7" transform="matrix(33.20889,0,0,-33.20889,387.93037,90.3607)"/>
<use xlink:href="#font_0_f" transform="matrix(33.20889,0,0,-33.20889,400.99559,90.3607)"/>
<use xlink:href="#font_0_1" transform="matrix(33.20889,0,0,-33.20889,415.3954,90.02861)"/>
<use xlink:href="#font_0_3" transform="matrix(33.20889,0,0,-33.20889,445.45896,90.02861)"/>
<use xlink:href="#font_0_a" transform="matrix(33.20889,0,0,-33.20889,465.12693,90.3607)"/>
<use xlink:href="#font_0_13" transform="matrix(33.20889,0,0,-33.20889,481.0618,90.02861)"/>
<use xlink:href="#font_0_17" transform="matrix(33.20889,0,0,-33.20889,499.09507,90.02861)"/>
<use xlink:href="#font_0_f" transform="matrix(33.20889,0,0,-33.20889,507.99504,90.3607)"/>
<use xlink:href="#font_0_1" transform="matrix(33.20889,0,0,-33.20889,522.39486,90.02861)"/>
<use xlink:href="#font_0_19" transform="matrix(33.20889,0,0,-33.20889,542.2213,90.02861)"/>
</g>
</svg>
