<?xml version="1.0" encoding="UTF-8" standalone="no"?>
<!DOCTYPE svg PUBLIC "-//W3C//DTD SVG 1.1//EN" "http://www.w3.org/Graphics/SVG/1.1/DTD/svg11.dtd">
<svg xmlns="http://www.w3.org/2000/svg" xmlns:xlink="http://www.w3.org/1999/xlink" version="1.1" width="830.2222pt" height="193.72222pt" viewBox="0 0 830.2222 193.72222">
<g enable-background="new">
<symbol id="font_0_b">
<path d="M .18100001 .60700008 C .18100001 .64400008 .18400002 .65400007 .259 .65400007 L .281 .65400007 L .281 .683 C .257 .68100008 .17100002 .68100008 .141 .68100008 C .111 .68100008 .024 .68100008 0 .683 L 0 .65400007 L .022 .65400007 C .097 .65400007 .10000001 .64400008 .10000001 .60700008 L .10000001 .076000008 C .10000001 .039 .097 .029000001 .022 .029000001 L 0 .029000001 L 0 0 C .024 .002 .110000018 .002 .14000002 .002 C .17000002 .002 .257 .002 .281 0 L .281 .029000001 L .259 .029000001 C .18400002 .029000001 .18100001 .039 .18100001 .076000008 L .18100001 .60700008 Z "/>
</symbol>
<symbol id="font_0_2">
<path d="M .41300003 .24300002 C .41300003 .33600004 .41300003 .36400003 .39000003 .39600004 C .361 .43500004 .314 .441 .28 .441 C .183 .441 .145 .358 .13700001 .33800004 L .136 .33800004 L .136 .441 L 0 .43 L 0 .40100003 C .068 .40100003 .076000008 .39400003 .076000008 .34500004 L .076000008 .074 C .076000008 .029000001 .065 .029000001 0 .029000001 L 0 0 C .026 .002 .08 .002 .107999999 .002 C .13700001 .002 .191 .002 .21700001 0 L .21700001 .029000001 C .153 .029000001 .141 .029000001 .141 .074 L .141 .26000003 C .141 .365 .21000001 .42100004 .272 .42100004 C .33400003 .42100004 .34800003 .37 .34800003 .30900003 L .34800003 .074 C .34800003 .029000001 .337 .029000001 .272 .029000001 L .272 0 C .298 .002 .352 .002 .38000003 .002 C .409 .002 .46300004 .002 .48900003 0 L .48900003 .029000001 C .439 .029000001 .414 .029000001 .41300003 .059000005 L .41300003 .24300002 Z "/>
</symbol>
<symbol id="font_0_12">
<path d="M .35300002 .24200002 C .37500004 .24200002 .377 .24200002 .377 .261 C .377 .36200003 .323 .456 .202 .456 C .08800001 .456 0 .35300002 0 .22900002 C 0 .097 .102 0 .21300002 0 C .33200003 0 .377 .108 .377 .12900001 C .377 .135 .372 .13900002 .36600004 .13900002 C .358 .13900002 .356 .134 .354 .12900001 C .328 .045 .261 .022 .21900001 .022 C .17700002 .022 .076000008 .050000006 .076000008 .22300002 L .076000008 .24200002 L .35300002 .24200002 M .07700001 .261 C .085 .418 .17300001 .43600003 .201 .43600003 C .30800004 .43600003 .314 .29500003 .31500004 .261 L .07700001 .261 Z "/>
</symbol>
<symbol id="font_0_15">
<path d="M .141 .61600008 C .141 .642 .12000001 .665 .092 .665 C .06600001 .665 .044000009 .64400008 .044000009 .61700007 C .044000009 .587 .068 .568 .092 .568 C .123 .568 .141 .59400007 .141 .61600008 M .0030000024 .43 L .0030000024 .40100003 C .067 .40100003 .076000008 .395 .076000008 .34600003 L .076000008 .074 C .076000008 .029000001 .065000008 .029000001 0 .029000001 L 0 0 C .028000005 .002 .076000008 .002 .10500001 .002 C .116000007 .002 .17400003 .002 .208 0 L .208 .029000001 C .143 .029000001 .139 .034 .139 .07300001 L .139 .441 L .0030000024 .43 Z "/>
</symbol>
<symbol id="font_0_19">
<path d="M .685 .24300002 C .685 .33600004 .685 .36400003 .662 .39600004 C .633 .43500004 .586 .441 .55200007 .441 C .46900005 .441 .42700003 .381 .411 .342 C .397 .41900004 .34300003 .441 .28 .441 C .183 .441 .145 .358 .13700001 .33800004 L .136 .33800004 L .136 .441 L 0 .43 L 0 .40100003 C .068 .40100003 .076000008 .39400003 .076000008 .34500004 L .076000008 .074 C .076000008 .029000001 .065 .029000001 0 .029000001 L 0 0 C .026 .002 .08 .002 .107999999 .002 C .13700001 .002 .191 .002 .21700001 0 L .21700001 .029000001 C .153 .029000001 .141 .029000001 .141 .074 L .141 .26000003 C .141 .365 .21000001 .42100004 .272 .42100004 C .33400003 .42100004 .34800003 .37 .34800003 .30900003 L .34800003 .074 C .34800003 .029000001 .337 .029000001 .272 .029000001 L .272 0 C .298 .002 .352 .002 .38000003 .002 C .409 .002 .46300004 .002 .48900003 0 L .48900003 .029000001 C .425 .029000001 .41300003 .029000001 .41300003 .074 L .41300003 .26000003 C .41300003 .365 .482 .42100004 .544 .42100004 C .606 .42100004 .62 .37 .62 .30900003 L .62 .074 C .62 .029000001 .609 .029000001 .544 .029000001 L .544 0 C .57000008 .002 .624 .002 .652 .002 C .68100008 .002 .735 .002 .76100006 0 L .76100006 .029000001 C .711 .029000001 .68600007 .029000001 .685 .059000005 L .685 .24300002 Z "/>
</symbol>
<use xlink:href="#font_0_b" transform="matrix(33.20889,0,0,-33.20889,3.52842,28.444443)"/>
<use xlink:href="#font_0_2" transform="matrix(33.20889,0,0,-33.20889,15.062283,28.444443)"/>
<use xlink:href="#font_0_12" transform="matrix(33.20889,0,0,-33.20889,43.995496,28.776532)"/>
<use xlink:href="#font_0_15" transform="matrix(33.20889,0,0,-33.20889,58.428495,28.444443)"/>
<use xlink:href="#font_0_2" transform="matrix(33.20889,0,0,-33.20889,67.3949,28.444443)"/>
<use xlink:href="#font_0_12" transform="matrix(33.20889,0,0,-33.20889,85.32854,28.776532)"/>
<use xlink:href="#font_0_19" transform="matrix(33.20889,0,0,-33.20889,99.72832,28.444443)"/>
<symbol id="font_1_1">
<path d="M .17900002 .303 C .18100001 .30900003 .20600002 .359 .24300002 .391 C .269 .41500003 .303 .43100003 .342 .43100003 C .382 .43100003 .396 .40100003 .396 .361 C .396 .304 .35500003 .19000001 .335 .136 C .326 .112 .321 .099 .321 .081 C .321 .036000004 .352 0 .4 0 C .49300004 0 .528 .14700002 .528 .15300001 C .528 .158 .524 .16200002 .518 .16200002 C .509 .16200002 .508 .15900001 .503 .142 C .48000003 .060000004 .442 .020000002 .403 .020000002 C .393 .020000002 .377 .021000002 .377 .053000004 C .377 .078 .388 .108 .39400003 .122 C .414 .17700002 .456 .289 .456 .34600003 C .456 .40600003 .421 .451 .345 .451 C .256 .451 .20900002 .388 .19100002 .363 C .18800001 .42000003 .14700002 .451 .10300001 .451 C .071 .451 .049000004 .432 .032000007 .398 C .014 .36200003 0 .30200003 0 .298 C 0 .294 .0040000008 .289 .011000002 .289 C .019000004 .289 .020000002 .29 .026000003 .313 C .042000005 .374 .060000004 .43100003 .1 .43100003 C .123 .43100003 .13100001 .41500003 .13100001 .38500003 C .13100001 .363 .121 .324 .114 .293 L .086 .18500002 C .082 .16600001 .071 .12100001 .066 .103 C .059 .077 .048 .030000002 .048 .025000003 C .048 .011000001 .059 0 .074 0 C .086 0 .1 .0060000007 .108 .021000002 C .11000001 .026 .11900001 .061000006 .124000009 .081 L .14600002 .17100002 L .17900002 .303 Z "/>
</symbol>
<use xlink:href="#font_1_1" transform="matrix(33.20889,0,0,-33.20889,137.89536,28.776532)"/>
<symbol id="font_0_1c">
<path d="M .26000003 0 L .26000003 .054000006 L 0 .054000006 L 0 0 L .26000003 0 Z "/>
</symbol>
<symbol id="font_0_6">
<path d="M .597 .256 L .57500007 .256 C .551 .1 .527 .029000001 .358 .029000001 L .222 .029000001 C .178 .029000001 .176 .036000004 .176 .069000009 L .176 .33900003 L .26700003 .33900003 C .363 .33900003 .374 .30800004 .374 .22200002 L .396 .22200002 L .396 .485 L .374 .485 C .374 .39900003 .363 .36800004 .26700003 .36800004 L .176 .36800004 L .176 .61200007 C .176 .64500007 .178 .652 .222 .652 L .35500003 .652 C .50200006 .652 .533 .60200008 .54800006 .45800004 L .57 .45800004 L .544 .68100008 L 0 .68100008 L 0 .652 L .020000004 .652 C .092 .652 .095000009 .642 .095000009 .605 L .095000009 .076000008 C .095000009 .039 .092 .029000001 .020000004 .029000001 L 0 .029000001 L 0 0 L .55700007 0 L .597 .256 Z "/>
</symbol>
<symbol id="font_0_f">
<path d="M .32700003 .38 C .31500004 .38 .27800004 .38 .27800004 .33900003 C .27800004 .315 .29500003 .298 .319 .298 C .342 .298 .36100004 .312 .36100004 .34100003 C .36100004 .40800003 .291 .456 .21000001 .456 C .09300001 .456 0 .352 0 .22600001 C 0 .098000008 .096000019 0 .20900002 0 C .34100003 0 .37100003 .120000008 .37100003 .12900001 C .37100003 .13800001 .36400003 .13800001 .36100004 .13800001 C .35200004 .13800001 .351 .135 .34800003 .123 C .32600004 .052000006 .272 .022 .21800003 .022 C .157 .022 .076000008 .075 .076000008 .22700002 C .076000008 .393 .16100002 .43400003 .21100001 .43400003 C .24900002 .43400003 .30400003 .419 .32700003 .38 Z "/>
</symbol>
<symbol id="font_0_17">
<path d="M .252 .26500003 C .252 .266 .245 .27400003 .245 .275 C .245 .27800004 .30800004 .33200003 .316 .34 C .38500003 .4 .42900003 .40100003 .45000003 .402 L .45000003 .43100003 C .43000005 .42900003 .404 .42900003 .374 .42900003 C .34800003 .42900003 .29700003 .42900003 .27400003 .43100003 L .27400003 .402 C .291 .40100003 .30300004 .39200003 .30300004 .37600003 C .30300004 .356 .28300003 .33800004 .282 .33800004 L .13900002 .21200001 L .13900002 .694 L 0 .683 L 0 .65400007 C .068 .65400007 .076000008 .647 .076000008 .59800007 L .076000008 .074 C .076000008 .029000001 .065 .029000001 0 .029000001 L 0 0 C .028 .002 .076000008 .002 .106000009 .002 C .136 .002 .18400002 .002 .21200001 0 L .21200001 .029000001 C .14800002 .029000001 .136 .029000001 .136 .074 L .136 .18 L .20000002 .23600002 L .296 .098000008 C .31100003 .07700001 .31800003 .066 .31800003 .052 C .31800003 .034 .30400003 .029000001 .28300003 .029000001 L .28300003 0 C .30800004 .002 .35700003 .002 .38400004 .002 C .42700003 .002 .42900003 .002 .472 0 L .472 .029000001 C .44500003 .029000001 .41400004 .029000001 .38600005 .07 L .252 .26500003 Z "/>
</symbol>
<symbol id="font_0_13">
<path d="M .092 .38600005 C .13900002 .35500003 .17900002 .35500003 .19000001 .35500003 C .28 .35500003 .347 .42300005 .347 .5 C .347 .52700009 .33900003 .56500008 .307 .597 C .34600003 .637 .393 .637 .398 .637 C .402 .637 .407 .637 .411 .635 C .40100003 .63100007 .396 .62100008 .396 .61 C .396 .5960001 .40600003 .584 .42200003 .584 C .43 .584 .448 .589 .448 .61100009 C .448 .62900009 .43400003 .65700009 .39900003 .65700009 C .347 .65700009 .308 .625 .294 .61 C .264 .633 .22900002 .646 .19100002 .646 C .101 .646 .034 .57800009 .034 .50100007 C .034 .444 .069 .407 .079 .398 C .067 .38300003 .049000004 .35400004 .049000004 .31500004 C .049000004 .25700004 .08400001 .23200001 .092 .22700002 C .046000005 .21400002 0 .17800002 0 .12600002 C 0 .05700001 .094000007 0 .21700002 0 C .336 0 .435 .053000004 .435 .128 C .435 .15300001 .428 .21200001 .368 .24300002 C .317 .26900003 .267 .26900003 .18100001 .26900003 C .12 .26900003 .113 .26900003 .095000009 .28800003 C .085 .298 .076000008 .31700004 .076000008 .338 C .076000008 .35500003 .082 .37200005 .092 .38600005 M .19100002 .37600003 C .10300001 .37600003 .10300001 .47700004 .10300001 .5 C .10300001 .518 .10300001 .559 .12 .586 C .13900002 .615 .16900002 .625 .19000001 .625 C .278 .625 .278 .52400007 .278 .50100007 C .278 .48300005 .278 .44200004 .261 .41500003 C .24200003 .38600005 .21200001 .37600003 .19100002 .37600003 M .21800001 .020999998 C .122 .020999998 .049000004 .07000001 .049000004 .127 C .049000004 .13500002 .051 .17400001 .089 .20000002 C .11100001 .21400002 .12 .21400002 .19000001 .21400002 C .273 .21400002 .386 .21400002 .386 .127 C .386 .068 .31 .020999998 .21800001 .020999998 Z "/>
</symbol>
<symbol id="font_0_e">
<path d="M .13900002 .704 L 0 .693 L 0 .66400006 C .068 .66400006 .076000008 .657 .076000008 .60800006 L .076000008 .010000001 L .098000008 .010000001 C .10200001 .018000002 .13000001 .068 .134 .075 C .157 .038000004 .20000002 0 .26400004 0 C .379 0 .48000003 .097 .48000003 .22600001 C .48000003 .35300002 .38600005 .451 .275 .451 C .22000002 .451 .17300001 .426 .13900002 .384 L .13900002 .704 M .14100002 .33 C .14100002 .34800003 .14100002 .35 .15200001 .366 C .17600002 .402 .22000002 .43100003 .26900003 .43100003 C .29900003 .43100003 .404 .419 .404 .22700002 C .404 .16000001 .39400003 .118 .37000004 .082 C .35000003 .051000004 .31000004 .020000002 .26000003 .020000002 C .20600002 .020000002 .17100002 .055000005 .15400002 .082 C .14100002 .103 .14100002 .107 .14100002 .124000009 L .14100002 .33 Z "/>
</symbol>
<symbol id="font_0_9">
<path d="M .15 .412 L .291 .412 L .291 .441 L .15 .441 L .15 .625 L .128 .625 C .127 .531 .091000009 .435 0 .432 L 0 .412 L .08500001 .412 L .08500001 .134 C .08500001 .023000002 .159 0 .212 0 C .275 0 .308 .062000004 .308 .134 L .308 .19100002 L .286 .19100002 L .286 .136 C .286 .064 .257 .022 .21800001 .022 C .15 .022 .15 .115 .15 .13200002 L .15 .412 Z "/>
</symbol>
<symbol id="font_0_8">
<path d="M .29500003 .433 C .29500003 .451 .29500003 .456 .28500004 .456 C .277 .456 .25800003 .43400003 .25100003 .425 C .22000003 .45000003 .18900001 .456 .157 .456 C .036000007 .456 0 .39000003 0 .335 C 0 .324 0 .289 .038000004 .254 C .07000001 .22600001 .10400001 .21900001 .15 .21000001 C .20500002 .19900002 .21800003 .19600001 .24300003 .17600002 C .261 .16100002 .27400003 .13900002 .27400003 .111 C .27400003 .068 .24900002 .020000002 .16100002 .020000002 C .095000009 .020000002 .047000007 .058000003 .025000003 .158 C .021000002 .17600002 .021000002 .17700002 .020000004 .17800002 C .018000003 .18200001 .014000002 .18200001 .011000004 .18200001 C 0 .18200001 0 .17700002 0 .15900001 L 0 .023000002 C 0 .0050000005 0 0 .010000002 0 C .015000001 0 .016000003 .0010000002 .033 .022 C .038000004 .029000003 .038000004 .031000004 .053000004 .047000003 C .091000009 0 .14500001 0 .162 0 C .26700003 0 .31900005 .058000003 .31900005 .13700001 C .31900005 .19100002 .286 .22300002 .277 .23200003 C .24100003 .263 .21400002 .269 .148 .28100003 C .11800001 .287 .045 .301 .045 .361 C .045 .39200003 .06600001 .43800003 .15600002 .43800003 C .26500003 .43800003 .27100004 .345 .27300004 .314 C .27400003 .306 .28100003 .306 .284 .306 C .29500003 .306 .29500003 .31100003 .29500003 .329 L .29500003 .433 Z "/>
</symbol>
<use xlink:href="#font_0_1c" transform="matrix(33.20889,0,0,-33.20889,156.6978,22.167963)"/>
<use xlink:href="#font_0_6" transform="matrix(33.20889,0,0,-33.20889,168.69408,28.444443)"/>
<use xlink:href="#font_0_f" transform="matrix(33.20889,0,0,-33.20889,190.4949,28.776532)"/>
<use xlink:href="#font_0_17" transform="matrix(33.20889,0,0,-33.20889,203.59604,28.444443)"/>
<use xlink:href="#font_0_13" transform="matrix(33.20889,0,0,-33.20889,231.89626,35.252267)"/>
<use xlink:href="#font_0_15" transform="matrix(33.20889,0,0,-33.20889,248.42888,28.444443)"/>
<use xlink:href="#font_0_e" transform="matrix(33.20889,0,0,-33.20889,257.26246,28.776532)"/>
<use xlink:href="#font_0_9" transform="matrix(33.20889,0,0,-33.20889,274.9304,28.776532)"/>
<use xlink:href="#font_0_12" transform="matrix(33.20889,0,0,-33.20889,298.66233,28.776532)"/>
<use xlink:href="#font_0_8" transform="matrix(33.20889,0,0,-33.20889,313.0953,28.776532)"/>
<use xlink:href="#font_1_1" transform="matrix(33.20889,0,0,-33.20889,336.89607,28.776532)"/>
<symbol id="font_0_a">
<path d="M .272 .44 L .272 .411 C .34 .411 .34800003 .404 .34800003 .35500003 L .34800003 .17600002 C .34800003 .091 .303 .020000002 .22800002 .020000002 C .146 .020000002 .141 .067 .141 .120000008 L .141 .451 L 0 .44 L 0 .411 C .076000008 .411 .076000008 .40800003 .076000008 .319 L .076000008 .16900002 C .076000008 .107 .076000008 .071 .106000009 .038000004 C .13 .012000001 .171 0 .222 0 C .23900002 0 .271 0 .305 .029000003 C .33400003 .052000006 .35000003 .09 .35000003 .09 L .35000003 0 L .48900003 .010000001 L .48900003 .039 C .421 .039 .41300003 .046000005 .41300003 .095 L .41300003 .451 L .272 .44 Z "/>
</symbol>
<symbol id="font_0_11">
<path d="M .26500003 .693 L .26500003 .66400006 C .33300004 .66400006 .34100003 .657 .34100003 .60800006 L .34100003 .387 C .32000003 .416 .277 .451 .21600002 .451 C .10000001 .451 0 .35300002 0 .22500001 C 0 .098000008 .09500001 0 .20500002 0 C .28100003 0 .32500003 .050000006 .33900003 .069000009 L .33900003 0 L .48000006 .010000001 L .48000006 .039 C .41200004 .039 .404 .046000005 .404 .095 L .404 .704 L .26500003 .693 M .33900003 .127 C .33900003 .109000008 .33900003 .106 .32500003 .084 C .30100004 .049000004 .26000003 .020000002 .21000001 .020000002 C .18400002 .020000002 .076000008 .030000002 .076000008 .22400002 C .076000008 .296 .088 .336 .110000018 .36900003 C .13000001 .4 .17000002 .43100003 .22000003 .43100003 C .282 .43100003 .31700004 .386 .32700003 .37 C .33900003 .35300002 .33900003 .351 .33900003 .333 L .33900003 .127 Z "/>
</symbol>
<symbol id="font_0_3">
<path d="M .42900003 .22400002 C .42900003 .35300002 .33100004 .456 .215 .456 C .095 .456 0 .35 0 .22400002 C 0 .096 .10000001 0 .21400002 0 C .33200003 0 .42900003 .098000008 .42900003 .22400002 M .215 .022 C .178 .022 .133 .038000004 .104 .087000008 C .07700001 .13200002 .076000008 .19100002 .076000008 .23300001 C .076000008 .271 .076000008 .33200003 .10700001 .377 C .135 .42000003 .179 .43600003 .21400002 .43600003 C .25300003 .43600003 .29500003 .418 .32200004 .379 C .35300002 .333 .35300002 .27 .35300002 .23300001 C .35300002 .19800002 .35300002 .136 .32700003 .089 C .29900003 .041 .25300003 .022 .215 .022 Z "/>
</symbol>
<use xlink:href="#font_0_6" transform="matrix(33.20889,0,0,-33.20889,367.361,28.444443)"/>
<use xlink:href="#font_0_f" transform="matrix(33.20889,0,0,-33.20889,389.16178,28.776532)"/>
<use xlink:href="#font_0_17" transform="matrix(33.20889,0,0,-33.20889,402.26249,28.444443)"/>
<use xlink:href="#font_0_12" transform="matrix(33.20889,0,0,-33.20889,418.32936,28.776532)"/>
<use xlink:href="#font_0_2" transform="matrix(33.20889,0,0,-33.20889,432.72917,28.444443)"/>
<use xlink:href="#font_0_a" transform="matrix(33.20889,0,0,-33.20889,462.39546,28.776532)"/>
<use xlink:href="#font_0_2" transform="matrix(33.20889,0,0,-33.20889,480.39555,28.444443)"/>
<use xlink:href="#font_0_11" transform="matrix(33.20889,0,0,-33.20889,498.4952,28.776532)"/>
<use xlink:href="#font_0_12" transform="matrix(33.20889,0,0,-33.20889,527.3292,28.776532)"/>
<use xlink:href="#font_0_e" transform="matrix(33.20889,0,0,-33.20889,541.5962,28.776532)"/>
<use xlink:href="#font_0_12" transform="matrix(33.20889,0,0,-33.20889,560.6627,28.776532)"/>
<use xlink:href="#font_0_2" transform="matrix(33.20889,0,0,-33.20889,575.06259,28.444443)"/>
<use xlink:href="#font_0_8" transform="matrix(33.20889,0,0,-33.20889,593.0957,28.776532)"/>
<use xlink:href="#font_0_3" transform="matrix(33.20889,0,0,-33.20889,605.66287,28.776532)"/>
<use xlink:href="#font_1_1" transform="matrix(33.20889,0,0,-33.20889,633.2297,28.776532)"/>
<symbol id="font_0_16">
<path d="M .154 .43800003 C .103 .451 .058000003 .50100007 .058000003 .56500008 C .058000003 .63500007 .11400001 .6980001 .192 .6980001 C .35600005 .6980001 .37800003 .5360001 .38400004 .49300004 C .38600005 .481 .38600005 .47700004 .39600004 .47700004 C .40700004 .47700004 .40700004 .48200003 .40700004 .50000008 L .40700004 .7020001 C .40700004 .7200001 .40700004 .7250001 .39700005 .7250001 C .39400003 .7250001 .39000006 .7250001 .38300003 .7120001 L .35000003 .6510001 C .30200003 .71300008 .23600002 .7250001 .192 .7250001 C .081 .7250001 0 .63600006 0 .53400006 C 0 .48600004 .017 .44200004 .054 .402 C .089 .363 .124 .354 .19500001 .33600004 C .23 .328 .28500004 .314 .29900003 .308 C .34600003 .285 .37700004 .231 .37700004 .17500001 C .37700004 .10000001 .32400004 .029000003 .24100001 .029000003 C .196 .029000003 .134 .040000004 .08500001 .083000008 C .026999999 .135 .023000006 .207 .022000004 .24000001 C .021000002 .24800001 .013 .24800001 .011000004 .24800001 C 0 .24800001 0 .24300002 0 .22500001 L 0 .023000002 C 0 .005000001 0 0 .010000002 0 C .015999999 0 .017 .0020000004 .024 .014000001 C .028 .022000002 .049000008 .059000005 .057000009 .074 C .092999998 .034 .156 0 .242 0 C .35400004 0 .43500004 .095 .43500004 .20500002 C .43500004 .266 .41200004 .31100003 .38500003 .344 C .34800003 .38900004 .30300004 .4 .26400004 .41000004 L .154 .43800003 Z "/>
</symbol>
<symbol id="font_0_1d">
<path d="M .09700001 .049000004 C .09700001 .076000008 .07400001 .097 .049000004 .097 C .020000004 .097 0 .074 0 .049000004 C 0 .019000002 .024999999 0 .048 0 C .074999999 0 .09700001 .021000002 .09700001 .049000004 Z "/>
</symbol>
<symbol id="font_0_5">
<path d="M 0 .683 L 0 .65400007 L .02 .65400007 C .092 .65400007 .095000009 .64400008 .095000009 .60700008 L .095000009 .076000008 C .095000009 .039 .092 .029000001 .02 .029000001 L 0 .029000001 L 0 0 L .35000003 0 C .517 0 .651 .15 .651 .335 C .651 .528 .51600006 .683 .35000003 .683 L 0 .683 M .22000003 .029000001 C .176 .029000001 .174 .036000004 .174 .069000009 L .174 .614 C .174 .647 .176 .65400007 .22000003 .65400007 L .32500003 .65400007 C .40800003 .65400007 .47400005 .614 .51500007 .54800006 C .56000009 .47700004 .56000009 .37600003 .56000009 .33600004 C .56000009 .28 .559 .186 .50200006 .112 C .46900005 .07 .40900005 .029000001 .32500003 .029000001 L .22000003 .029000001 Z "/>
</symbol>
<symbol id="font_0_1">
<path d="M .35600005 .69600006 C .35200004 .708 .35000003 .71400007 .33600004 .71400007 C .32200004 .71400007 .32000003 .711 .31500004 .69500008 L .106000009 .097 C .092 .056 .064 .030000002 0 .029000001 L 0 0 C .061000006 .002 .063 .002 .096 .002 C .124 .002 .172 .002 .19800002 0 L .19800002 .029000001 C .156 .030000002 .131 .051000004 .131 .079 C .131 .085 .131 .087000008 .136 .1 L .18200001 .23300001 L .43400005 .23300001 L .48900006 .076000008 C .49400006 .064 .49400006 .062000004 .49400006 .059000005 C .49400006 .029000001 .44300006 .029000001 .41800005 .029000001 L .41800005 0 C .44100005 .002 .52 .002 .54800006 .002 C .57600006 .002 .648 .002 .671 0 L .671 .029000001 C .606 .029000001 .588 .029000001 .574 .07 L .35600005 .69600006 M .30800004 .595 L .42400003 .26200003 L .192 .26200003 L .30800004 .595 Z "/>
</symbol>
<symbol id="font_0_10">
<path d="M .354 .40300004 C .363 .41400004 .363 .416 .363 .42000003 C .363 .43100003 .356 .43100003 .33900003 .43100003 L .025 .43100003 L .014 .272 L .036 .272 C .042000005 .374 .061000006 .411 .17000002 .411 L .286 .411 L 0 .018000002 C 0 0 .0020000004 0 .024000003 0 L .35 0 L .366 .18400002 L .344 .18400002 C .335 .07 .31800003 .022000002 .19900002 .022000002 L .078 .022000002 L .354 .40300004 Z "/>
</symbol>
<symbol id="font_0_d">
<path d="M .342 .277 C .342 .331 .342 .37100003 .298 .41 C .263 .442 .21800003 .456 .17400001 .456 C .09200001 .456 .029000003 .402 .029000003 .337 C .029000003 .308 .048000006 .294 .070999998 .294 C .09500001 .294 .112 .31100003 .112 .335 C .112 .37600003 .076000008 .37600003 .061 .37600003 C .08400001 .418 .13200002 .43600003 .172 .43600003 C .21800003 .43600003 .277 .398 .277 .308 L .277 .268 C .076000008 .26500003 0 .18100001 0 .104 C 0 .025000003 .09200001 0 .15300001 0 C .21900001 0 .26400004 .040000004 .28300003 .088 C .28700004 .041 .31800003 .0050000005 .36100004 .0050000005 C .38200004 .0050000005 .44000004 .019000002 .44000004 .099 L .44000004 .15500002 L .418 .15500002 L .418 .099 C .418 .042000005 .39400003 .034 .38000003 .034 C .342 .034 .342 .087000008 .342 .102000009 L .342 .277 M .277 .15100001 C .277 .053000004 .20400001 .020000002 .16100002 .020000002 C .112 .020000002 .070999998 .056000007 .070999998 .104 C .070999998 .23600002 .24100003 .24800001 .277 .25 L .277 .15100001 Z "/>
</symbol>
<symbol id="font_0_14">
<path d="M .41300003 .24300002 C .41300003 .33600004 .41300003 .36400003 .39000003 .39600004 C .361 .43500004 .314 .441 .28 .441 C .194 .441 .154 .37600003 .14 .34500004 L .139 .34500004 L .139 .694 L 0 .683 L 0 .65400007 C .068 .65400007 .076000008 .647 .076000008 .59800007 L .076000008 .074 C .076000008 .029000001 .065 .029000001 0 .029000001 L 0 0 C .026 .002 .08 .002 .107999999 .002 C .13700001 .002 .191 .002 .21700001 0 L .21700001 .029000001 C .153 .029000001 .141 .029000001 .141 .074 L .141 .26000003 C .141 .365 .21000001 .42100004 .272 .42100004 C .33400003 .42100004 .34800003 .37 .34800003 .30900003 L .34800003 .074 C .34800003 .029000001 .337 .029000001 .272 .029000001 L .272 0 C .298 .002 .352 .002 .38000003 .002 C .409 .002 .46300004 .002 .48900003 0 L .48900003 .029000001 C .439 .029000001 .414 .029000001 .41300003 .059000005 L .41300003 .24300002 Z "/>
</symbol>
<symbol id="font_0_18">
<path d="M .139 .694 L 0 .683 L 0 .65400007 C .068 .65400007 .076000008 .647 .076000008 .59800007 L .076000008 .074 C .076000008 .029000001 .065000008 .029000001 0 .029000001 L 0 0 C .028000005 .002 .07700001 .002 .107 .002 C .137 .002 .187 .002 .215 0 L .215 .029000001 C .15100003 .029000001 .139 .029000001 .139 .074 L .139 .694 Z "/>
</symbol>
<symbol id="font_0_7">
<path d="M .13900002 .23300001 C .13900002 .33 .17900002 .42100004 .256 .42100004 C .26400004 .42100004 .266 .42100004 .27 .42000003 C .26200003 .416 .24600002 .41000004 .24600002 .38300003 C .24600002 .354 .26900003 .34300003 .28500004 .34300003 C .305 .34300003 .32500003 .356 .32500003 .38300003 C .32500003 .41300003 .298 .441 .25500003 .441 C .17000002 .441 .14100002 .349 .135 .33 L .134 .33 L .134 .441 L 0 .43 L 0 .40100003 C .068 .40100003 .076000008 .39400003 .076000008 .34500004 L .076000008 .074 C .076000008 .029000001 .065 .029000001 0 .029000001 L 0 0 C .028 .002 .083000008 .002 .113000009 .002 C .14000002 .002 .21100001 .002 .23400003 0 L .23400003 .029000001 L .21400002 .029000001 C .14100002 .029000001 .13900002 .040000004 .13900002 .076000008 L .13900002 .23300001 Z "/>
</symbol>
<symbol id="font_0_1a">
<path d="M .22700002 .008000001 C .22700002 .011000007 .22700002 .013000011 .21000003 .030000002 C .11 .13100001 .054000006 .296 .054000006 .5 C .054000006 .694 .10100001 .86100009 .21700002 .9790001 C .22700002 .98800006 .22700002 .99 .22700002 .99300006 C .22700002 .9990001 .22200002 1.001 .21800001 1.001 C .205 1.001 .12300001 .929 .074 .8310001 C .023000002 .73 0 .623 0 .5 C 0 .411 .013999999 .29200004 .066 .18500002 C .125 .06500001 .207 0 .21800001 0 C .22200002 0 .22700002 .002000004 .22700002 .008000001 Z "/>
</symbol>
<use xlink:href="#font_0_16" transform="matrix(33.20889,0,0,-33.20889,664.45938,29.14183)"/>
<use xlink:href="#font_0_12" transform="matrix(33.20889,0,0,-33.20889,681.6624,28.776532)"/>
<use xlink:href="#font_0_15" transform="matrix(33.20889,0,0,-33.20889,696.0954,28.444443)"/>
<use xlink:href="#font_0_9" transform="matrix(33.20889,0,0,-33.20889,704.5969,28.776532)"/>
<use xlink:href="#font_0_12" transform="matrix(33.20889,0,0,-33.20889,717.66207,28.776532)"/>
<use xlink:href="#font_0_2" transform="matrix(33.20889,0,0,-33.20889,732.0619,28.444443)"/>
<use xlink:href="#font_0_1d" transform="matrix(33.20889,0,0,-33.20889,751.8884,28.444443)"/>
<use xlink:href="#font_0_5" transform="matrix(33.20889,0,0,-33.20889,3.7275456,64.44501)"/>
<use xlink:href="#font_0_15" transform="matrix(33.20889,0,0,-33.20889,28.428736,64.44501)"/>
<use xlink:href="#font_0_12" transform="matrix(33.20889,0,0,-33.20889,37.328718,64.7771)"/>
<use xlink:href="#font_0_1" transform="matrix(33.20889,0,0,-33.20889,68.02891,64.44501)"/>
<use xlink:href="#font_0_2" transform="matrix(33.20889,0,0,-33.20889,92.39551,64.44501)"/>
<use xlink:href="#font_0_10" transform="matrix(33.20889,0,0,-33.20889,110.2295,64.44501)"/>
<use xlink:href="#font_0_d" transform="matrix(33.20889,0,0,-33.20889,125.12742,64.7771)"/>
<use xlink:href="#font_0_14" transform="matrix(33.20889,0,0,-33.20889,141.06229,64.44501)"/>
<use xlink:href="#font_0_18" transform="matrix(33.20889,0,0,-33.20889,159.09554,64.44501)"/>
<use xlink:href="#font_0_11" transform="matrix(33.20889,0,0,-33.20889,184.4952,64.7771)"/>
<use xlink:href="#font_0_12" transform="matrix(33.20889,0,0,-33.20889,202.3292,64.7771)"/>
<use xlink:href="#font_0_7" transform="matrix(33.20889,0,0,-33.20889,216.59615,64.44501)"/>
<use xlink:href="#font_0_5" transform="matrix(33.20889,0,0,-33.20889,246.06137,64.44501)"/>
<use xlink:href="#font_0_15" transform="matrix(33.20889,0,0,-33.20889,270.76255,64.44501)"/>
<use xlink:href="#font_0_d" transform="matrix(33.20889,0,0,-33.20889,280.12745,64.7771)"/>
<use xlink:href="#font_0_13" transform="matrix(33.20889,0,0,-33.20889,295.89628,71.25283)"/>
<use xlink:href="#font_0_3" transform="matrix(33.20889,0,0,-33.20889,312.32926,64.7771)"/>
<use xlink:href="#font_0_2" transform="matrix(33.20889,0,0,-33.20889,328.729,64.44501)"/>
<use xlink:href="#font_0_d" transform="matrix(33.20889,0,0,-33.20889,347.1276,64.7771)"/>
<use xlink:href="#font_0_18" transform="matrix(33.20889,0,0,-33.20889,363.09565,64.44501)"/>
<use xlink:href="#font_0_12" transform="matrix(33.20889,0,0,-33.20889,371.9956,64.7771)"/>
<use xlink:href="#font_0_2" transform="matrix(33.20889,0,0,-33.20889,386.39543,64.44501)"/>
<use xlink:href="#font_0_1a" transform="matrix(33.20889,0,0,-33.20889,422.58757,72.78044)"/>
<use xlink:href="#font_0_3" transform="matrix(33.20889,0,0,-33.20889,432.99607,64.7771)"/>
<use xlink:href="#font_0_14" transform="matrix(33.20889,0,0,-33.20889,449.39585,64.44501)"/>
<use xlink:href="#font_0_2" transform="matrix(33.20889,0,0,-33.20889,467.39588,64.44501)"/>
<use xlink:href="#font_0_12" transform="matrix(33.20889,0,0,-33.20889,485.32957,64.7771)"/>
<use xlink:href="#font_0_11" transform="matrix(33.20889,0,0,-33.20889,516.16189,64.7771)"/>
<use xlink:href="#font_0_15" transform="matrix(33.20889,0,0,-33.20889,534.0955,64.44501)"/>
<use xlink:href="#font_0_12" transform="matrix(33.20889,0,0,-33.20889,542.99557,64.7771)"/>
<use xlink:href="#font_0_16" transform="matrix(33.20889,0,0,-33.20889,574.4597,65.142398)"/>
<use xlink:href="#font_0_12" transform="matrix(33.20889,0,0,-33.20889,591.6628,64.7771)"/>
<use xlink:href="#font_0_15" transform="matrix(33.20889,0,0,-33.20889,606.09579,64.44501)"/>
<use xlink:href="#font_0_9" transform="matrix(33.20889,0,0,-33.20889,614.5973,64.7771)"/>
<use xlink:href="#font_0_12" transform="matrix(33.20889,0,0,-33.20889,627.6624,64.7771)"/>
<use xlink:href="#font_0_2" transform="matrix(33.20889,0,0,-33.20889,642.0622,64.44501)"/>
<use xlink:href="#font_0_10" transform="matrix(33.20889,0,0,-33.20889,676.23007,64.44501)"/>
<use xlink:href="#font_0_a" transform="matrix(33.20889,0,0,-33.20889,690.7295,64.7771)"/>
<use xlink:href="#font_0_10" transform="matrix(33.20889,0,0,-33.20889,724.89669,64.44501)"/>
<symbol id="font_2_1">
<path d="M .062000004 .37800003 C .08600001 .416 .13000001 .43600003 .17400001 .43600003 C .23100002 .43600003 .277 .37800003 .277 .323 L .277 .269 C .17600002 .269 0 .24100001 0 .104 L 0 .094000007 C .009 .026 .09200001 0 .15100001 0 C .20300001 0 .268 .032 .283 .087000008 L .284 .087000008 C .287 .040000004 .321 .0060000007 .361 .0060000007 C .403 .0060000007 .43600003 .042000005 .44 .083000008 L .44 .15600002 L .418 .15600002 L .418 .107 C .418 .078 .41300003 .035 .38 .035 C .34800003 .035 .341 .078 .341 .103 C .341 .114 .342 .125 .342 .136 L .342 .275 C .342 .286 .343 .298 .343 .30900003 C .343 .403 .256 .456 .17400001 .456 C .110000018 .456 .029000003 .418 .029000003 .34 C .029000003 .31100003 .048000006 .29500003 .072 .29500003 C .096000019 .29500003 .113000009 .314 .113000009 .337 C .113000009 .36200003 .09400001 .37800003 .07000001 .37800003 L .062000004 .37800003 M .277 .25100003 L .277 .15600002 C .277 .085 .23200001 .021000002 .16100002 .021000002 C .12300001 .021000002 .072 .051000004 .072 .102000009 C .072 .19000001 .15200001 .23500002 .23500003 .24700003 C .24900003 .24900002 .263 .24800001 .277 .25100003 M .09900001 .661 C .074 .657 .058000003 .637 .058000003 .614 C .058000003 .591 .075 .565 .104 .565 C .13100001 .565 .15500002 .58500006 .15500002 .61300006 C .15500002 .63600006 .13700001 .662 .10800001 .662 C .105000007 .662 .10200001 .661 .09900001 .661 M .289 .661 C .266 .658 .24700003 .638 .24700003 .614 C .24700003 .591 .26500003 .565 .294 .565 C .322 .565 .344 .586 .344 .61300006 C .344 .637 .326 .662 .297 .662 C .294 .662 .292 .661 .289 .661 Z "/>
</symbol>
<use xlink:href="#font_2_1" transform="matrix(33.20889,0,0,-33.20889,739.7634,64.7771)"/>
<symbol id="font_0_1b">
<path d="M .227 .5 C .227 .57600006 .21700001 .70000007 .161 .816 C .102 .9360001 .02 1.001 .009 1.001 C .004999999 1.001 0 .9990001 0 .99300006 C 0 .99 0 .98800006 .017 .9710001 C .117 .87 .17300001 .70500007 .17300001 .50100007 C .17300001 .307 .126 .14000002 .010000002 .022 C 0 .013000011 0 .011000007 0 .008000001 C 0 .002000004 .004999999 0 .009 0 C .022000004 0 .104 .07200001 .153 .17000002 C .204 .272 .227 .38000003 .227 .5 Z "/>
</symbol>
<symbol id="font_0_4">
<path d="M .21700001 .029 C .15300001 .029 .14100002 .029 .14100002 .074 L .14100002 .24800001 C .15900001 .223 .20000002 .184 .26400004 .184 C .379 .184 .48000003 .28100003 .48000003 .41000004 C .48000003 .53700008 .38600005 .635 .277 .635 C .18900001 .635 .142 .572 .13900002 .568 L .13900002 .635 L 0 .624 L 0 .595 C .07000001 .595 .076000008 .58800008 .076000008 .544 L .076000008 .074 C .076000008 .029 .065 .029 0 .029 L 0 0 C .026 .002000004 .08 .002000004 .10800001 .002000004 C .13700001 .002000004 .19100002 .002000004 .21700001 0 L .21700001 .029 M .14100002 .513 C .14100002 .53200009 .14100002 .533 .15200001 .549 C .18200001 .594 .231 .61300006 .26900003 .61300006 C .344 .61300006 .404 .522 .404 .41000004 C .404 .291 .33600004 .20400001 .259 .20400001 C .22800002 .20400001 .19900002 .21700001 .17900002 .236 C .15600002 .259 .14100002 .279 .14100002 .307 L .14100002 .513 Z "/>
</symbol>
<use xlink:href="#font_0_14" transform="matrix(33.20889,0,0,-33.20889,755.7317,64.44501)"/>
<use xlink:href="#font_0_18" transform="matrix(33.20889,0,0,-33.20889,773.7649,64.44501)"/>
<use xlink:href="#font_0_12" transform="matrix(33.20889,0,0,-33.20889,782.6649,64.7771)"/>
<use xlink:href="#font_0_2" transform="matrix(33.20889,0,0,-33.20889,797.06478,64.44501)"/>
<use xlink:href="#font_0_1b" transform="matrix(33.20889,0,0,-33.20889,815.8286,72.78044)"/>
<use xlink:href="#font_0_17" transform="matrix(33.20889,0,0,-33.20889,3.2627483,100.44444)"/>
<use xlink:href="#font_0_d" transform="matrix(33.20889,0,0,-33.20889,19.127249,100.776538)"/>
<use xlink:href="#font_0_2" transform="matrix(33.20889,0,0,-33.20889,35.06212,100.44444)"/>
<use xlink:href="#font_0_2" transform="matrix(33.20889,0,0,-33.20889,53.062173,100.44444)"/>
<use xlink:href="#font_0_11" transform="matrix(33.20889,0,0,-33.20889,81.49565,100.776538)"/>
<use xlink:href="#font_0_d" transform="matrix(33.20889,0,0,-33.20889,99.794589,100.776538)"/>
<use xlink:href="#font_0_14" transform="matrix(33.20889,0,0,-33.20889,115.72945,100.44444)"/>
<use xlink:href="#font_0_12" transform="matrix(33.20889,0,0,-33.20889,133.66307,100.776538)"/>
<use xlink:href="#font_0_7" transform="matrix(33.20889,0,0,-33.20889,147.93004,100.44444)"/>
<use xlink:href="#font_0_d" transform="matrix(33.20889,0,0,-33.20889,171.79479,100.776538)"/>
<use xlink:href="#font_0_18" transform="matrix(33.20889,0,0,-33.20889,187.76285,100.44444)"/>
<use xlink:href="#font_0_8" transform="matrix(33.20889,0,0,-33.20889,196.76247,100.776538)"/>
<use xlink:href="#font_0_1" transform="matrix(33.20889,0,0,-33.20889,219.6961,100.44444)"/>
<use xlink:href="#font_0_2" transform="matrix(33.20889,0,0,-33.20889,244.0627,100.44444)"/>
<use xlink:href="#font_0_10" transform="matrix(33.20889,0,0,-33.20889,261.8967,100.44444)"/>
<use xlink:href="#font_0_d" transform="matrix(33.20889,0,0,-33.20889,276.79466,100.776538)"/>
<use xlink:href="#font_0_14" transform="matrix(33.20889,0,0,-33.20889,292.7295,100.44444)"/>
<use xlink:href="#font_0_18" transform="matrix(33.20889,0,0,-33.20889,310.7628,100.44444)"/>
<use xlink:href="#font_0_16" transform="matrix(33.20889,0,0,-33.20889,331.12605,101.14183)"/>
<use xlink:href="#font_0_12" transform="matrix(33.20889,0,0,-33.20889,348.32914,100.776538)"/>
<use xlink:href="#font_0_15" transform="matrix(33.20889,0,0,-33.20889,362.76213,100.44444)"/>
<use xlink:href="#font_0_9" transform="matrix(33.20889,0,0,-33.20889,371.26356,100.776538)"/>
<use xlink:href="#font_0_12" transform="matrix(33.20889,0,0,-33.20889,384.3288,100.776538)"/>
<use xlink:href="#font_0_2" transform="matrix(33.20889,0,0,-33.20889,398.72859,100.44444)"/>
<use xlink:href="#font_0_4" transform="matrix(33.20889,0,0,-33.20889,427.26228,106.88697)"/>
<use xlink:href="#font_0_18" transform="matrix(33.20889,0,0,-33.20889,445.42839,100.44444)"/>
<use xlink:href="#font_0_a" transform="matrix(33.20889,0,0,-33.20889,454.39479,100.776538)"/>
<use xlink:href="#font_0_8" transform="matrix(33.20889,0,0,-33.20889,472.42805,100.776538)"/>
<use xlink:href="#font_0_5" transform="matrix(33.20889,0,0,-33.20889,496.06028,100.44444)"/>
<use xlink:href="#font_0_15" transform="matrix(33.20889,0,0,-33.20889,520.7615,100.44444)"/>
<use xlink:href="#font_0_d" transform="matrix(33.20889,0,0,-33.20889,530.12637,100.776538)"/>
<use xlink:href="#font_0_13" transform="matrix(33.20889,0,0,-33.20889,545.8952,107.252269)"/>
<use xlink:href="#font_0_3" transform="matrix(33.20889,0,0,-33.20889,562.3282,100.776538)"/>
<use xlink:href="#font_0_2" transform="matrix(33.20889,0,0,-33.20889,578.728,100.44444)"/>
<use xlink:href="#font_0_d" transform="matrix(33.20889,0,0,-33.20889,597.1265,100.776538)"/>
<use xlink:href="#font_0_18" transform="matrix(33.20889,0,0,-33.20889,613.09469,100.44444)"/>
<use xlink:href="#font_0_12" transform="matrix(33.20889,0,0,-33.20889,621.9946,100.776538)"/>
<use xlink:href="#font_0_2" transform="matrix(33.20889,0,0,-33.20889,636.3944,100.44444)"/>
<use xlink:href="#font_0_1a" transform="matrix(33.20889,0,0,-33.20889,666.58609,108.77988)"/>
<use xlink:href="#font_0_11" transform="matrix(33.20889,0,0,-33.20889,677.16067,100.776538)"/>
<use xlink:href="#font_0_15" transform="matrix(33.20889,0,0,-33.20889,695.09426,100.44444)"/>
<use xlink:href="#font_0_12" transform="matrix(33.20889,0,0,-33.20889,703.9942,100.776538)"/>
<use xlink:href="#font_0_8" transform="matrix(33.20889,0,0,-33.20889,718.4272,100.776538)"/>
<use xlink:href="#font_0_15" transform="matrix(33.20889,0,0,-33.20889,741.76028,100.44444)"/>
<use xlink:href="#font_0_8" transform="matrix(33.20889,0,0,-33.20889,750.7599,100.776538)"/>
<use xlink:href="#font_0_9" transform="matrix(33.20889,0,0,-33.20889,762.9285,100.776538)"/>
<use xlink:href="#font_0_11" transform="matrix(33.20889,0,0,-33.20889,786.8265,100.776538)"/>
<use xlink:href="#font_0_15" transform="matrix(33.20889,0,0,-33.20889,804.7601,100.44444)"/>
<use xlink:href="#font_0_12" transform="matrix(33.20889,0,0,-33.20889,813.6601,100.776538)"/>
<use xlink:href="#font_0_5" transform="matrix(33.20889,0,0,-33.20889,3.7276729,136.11167)"/>
<use xlink:href="#font_0_7" transform="matrix(33.20889,0,0,-33.20889,28.26282,136.11167)"/>
<use xlink:href="#font_0_12" transform="matrix(33.20889,0,0,-33.20889,40.995935,136.44376)"/>
<use xlink:href="#font_0_15" transform="matrix(33.20889,0,0,-33.20889,55.428934,136.11167)"/>
<use xlink:href="#font_0_12" transform="matrix(33.20889,0,0,-33.20889,64.32892,136.44376)"/>
<use xlink:href="#font_0_f" transform="matrix(33.20889,0,0,-33.20889,78.82832,136.44376)"/>
<use xlink:href="#font_0_17" transform="matrix(33.20889,0,0,-33.20889,91.92902,136.11167)"/>
<use xlink:href="#font_0_8" transform="matrix(33.20889,0,0,-33.20889,109.095119,136.44376)"/>
<use xlink:href="#font_0_10" transform="matrix(33.20889,0,0,-33.20889,121.56256,136.11167)"/>
<use xlink:href="#font_0_d" transform="matrix(33.20889,0,0,-33.20889,136.4605,136.44376)"/>
<use xlink:href="#font_0_14" transform="matrix(33.20889,0,0,-33.20889,152.39534,136.11167)"/>
<use xlink:href="#font_0_18" transform="matrix(33.20889,0,0,-33.20889,170.42859,136.11167)"/>
<symbol id="font_1_2">
<path d="M .11 .074 C .100999999 .039 .09900001 .029000001 .029000003 .029000001 C .010000002 .029000001 0 .029000001 0 .011000001 C 0 0 .006000001 0 .026000005 0 L .34300003 0 C .545 0 .74200007 .209 .74200007 .432 C .74200007 .57600006 .656 .683 .513 .683 L .192 .683 C .17300001 .683 .164 .683 .164 .66400006 C .164 .65400007 .17300001 .65400007 .18800001 .65400007 C .249 .65400007 .249 .646 .249 .63500007 C .249 .633 .249 .62700006 .24500002 .61200007 L .11 .074 M .32100005 .615 C .33 .652 .33400003 .65400007 .37300004 .65400007 L .48300005 .65400007 C .577 .65400007 .66300007 .60300007 .66300007 .46500004 C .66300007 .41500003 .64300009 .24100001 .54600009 .13100001 C .518 .098000008 .44200004 .029000001 .32700003 .029000001 L .21300002 .029000001 C .199 .029000001 .19700001 .029000001 .191 .030000002 C .18 .031000002 .179 .033 .179 .041 C .179 .048 .18100001 .054 .183 .063 L .32100005 .615 Z "/>
</symbol>
<use xlink:href="#font_1_2" transform="matrix(33.20889,0,0,-33.20889,189.89316,136.11167)"/>
<symbol id="font_3_1">
<path d="M .16000001 .16800002 C .171 .21500002 .19000001 .28800003 .19100002 .29600004 C .19300002 .30200003 .21800001 .35000003 .254 .38500003 C .283 .41200004 .321 .42800004 .36 .42800004 C .414 .42800004 .414 .37500004 .414 .358 C .414 .29700003 .367 .17500001 .356 .14400001 C .344 .113000009 .34 .10300001 .34 .08400001 C .34 .030000002 .381 0 .426 0 C .522 0 .56100007 .143 .56100007 .15400002 C .56100007 .15900001 .558 .16600001 .54800006 .16600001 C .53700008 .16600001 .536 .16100002 .53200009 .14800002 C .507 .063 .465 .025000003 .42900003 .025000003 C .42200003 .025000003 .404 .025000003 .404 .057000005 C .404 .082 .414 .108 .42200003 .13000001 C .442 .18100001 .48200003 .28700004 .48200003 .34300003 C .48200003 .43200005 .416 .45300005 .363 .45300005 C .27 .45300005 .221 .38700003 .20500002 .36600004 C .19900002 .42000003 .158 .45300005 .10800001 .45300005 C .06600001 .45300005 .045 .42200003 .031000002 .395 C .014 .36 0 .30300004 0 .29900003 C 0 .29000003 .007000001 .28700004 .014 .28700004 C .025 .28700004 .027 .29200004 .032000007 .31200005 C .051000008 .39100004 .072000008 .42800004 .106000009 .42800004 C .136 .42800004 .136 .39600004 .136 .381 C .136 .36 .128 .32900004 .12200001 .30300004 C .11500001 .277 .105000007 .23400001 .10100001 .22200002 L .061000006 .058000003 C .054000006 .034 .054000006 .032 .054000006 .029000003 C .054000006 .016 .06300001 0 .08500001 0 C .09900001 0 .11400001 .009000001 .12100001 .021000002 C .12400001 .027000003 .13200002 .059 .13700001 .079 L .16000001 .16800002 Z "/>
</symbol>
<use xlink:href="#font_3_1" transform="matrix(24.90661,0,0,-24.90661,216.0555,141.38564)"/>
<symbol id="font_4_1">
<path d="M .589 0 C .607 0 .626 0 .626 .022 C .626 .042999999 .606 .042999999 .589 .042999999 L .037 .042999999 C .020000004 .042999999 0 .042999999 0 .022 C 0 0 .019000002 0 .037 0 L .589 0 Z "/>
</symbol>
<use xlink:href="#font_4_1" transform="matrix(24.90661,0,0,-24.90661,232.80829,135.40805)"/>
<symbol id="font_5_1">
<path d="M .21100003 .63900008 C .21100003 .66400006 .21000001 .666 .18500003 .666 C .123 .60200008 .031000004 .60200008 0 .60200008 L 0 .57100006 C .019000002 .57100006 .080000009 .57100006 .134 .597 L .134 .080000009 C .134 .043 .13100001 .031000002 .03800001 .031000002 L .0060000049 .031000002 L .0060000049 0 C .042000005 .003 .13100001 .003 .17200002 .003 C .21300003 .003 .30300004 .003 .33900003 0 L .33900003 .031000002 L .307 .031000002 C .21400002 .031000002 .21100003 .043 .21100003 .080000009 L .21100003 .63900008 Z "/>
</symbol>
<use xlink:href="#font_5_1" transform="matrix(24.90661,0,0,-24.90661,252.98262,141.11167)"/>
<symbol id="font_0_c">
<path d="M .587 .34600003 C .609 .409 .653 .411 .67 .412 L .67 .441 C .64500007 .439 .62700006 .439 .596 .439 C .56700006 .439 .565 .439 .51100006 .441 L .51100006 .412 C .556 .41 .568 .38300003 .568 .364 C .568 .363 .568 .356 .564 .34600003 L .472 .084 L .372 .367 C .367 .379 .367 .381 .367 .384 C .367 .412 .404 .412 .425 .412 L .425 .441 C .397 .439 .356 .439 .32700003 .439 C .29500003 .439 .293 .439 .23700002 .441 L .23700002 .412 C .275 .412 .28800003 .41 .299 .397 C .30400003 .391 .316 .358 .323 .338 L .238 .094000007 L .142 .366 C .137 .379 .137 .381 .137 .38500003 C .137 .412 .176 .412 .19500001 .412 L .19500001 .441 C .17 .439 .12000001 .439 .09300001 .439 C .065000008 .439 .063 .439 0 .441 L 0 .412 C .051000008 .412 .061000006 .40800003 .072000008 .37600003 L .198 .018000002 C .202 .0070000009 .205 0 .216 0 C .22500001 0 .23 .0030000006 .23500002 .019000002 L .335 .304 L .435 .019000002 C .44000004 .0030000006 .44500003 0 .45400004 0 C .465 0 .46800003 .0070000009 .472 .018000002 L .587 .34600003 Z "/>
</symbol>
<use xlink:href="#font_0_1b" transform="matrix(33.20889,0,0,-33.20889,266.49345,144.4471)"/>
<use xlink:href="#font_0_19" transform="matrix(33.20889,0,0,-33.20889,287.7295,136.11167)"/>
<use xlink:href="#font_0_15" transform="matrix(33.20889,0,0,-33.20889,314.7628,136.11167)"/>
<use xlink:href="#font_0_2" transform="matrix(33.20889,0,0,-33.20889,323.7292,136.11167)"/>
<use xlink:href="#font_0_a" transform="matrix(33.20889,0,0,-33.20889,340.7295,136.44376)"/>
<use xlink:href="#font_0_8" transform="matrix(33.20889,0,0,-33.20889,358.7628,136.44376)"/>
<use xlink:href="#font_0_11" transform="matrix(33.20889,0,0,-33.20889,380.82923,136.44376)"/>
<use xlink:href="#font_0_15" transform="matrix(33.20889,0,0,-33.20889,398.76286,136.11167)"/>
<use xlink:href="#font_0_12" transform="matrix(33.20889,0,0,-33.20889,407.6628,136.44376)"/>
<use xlink:href="#font_0_1" transform="matrix(33.20889,0,0,-33.20889,431.36238,136.11167)"/>
<use xlink:href="#font_0_2" transform="matrix(33.20889,0,0,-33.20889,455.72895,136.11167)"/>
<use xlink:href="#font_0_10" transform="matrix(33.20889,0,0,-33.20889,473.56297,136.11167)"/>
<use xlink:href="#font_0_d" transform="matrix(33.20889,0,0,-33.20889,488.46089,136.44376)"/>
<use xlink:href="#font_0_14" transform="matrix(33.20889,0,0,-33.20889,504.39573,136.11167)"/>
<use xlink:href="#font_0_18" transform="matrix(33.20889,0,0,-33.20889,522.429,136.11167)"/>
<use xlink:href="#font_0_11" transform="matrix(33.20889,0,0,-33.20889,540.8288,136.44376)"/>
<use xlink:href="#font_0_12" transform="matrix(33.20889,0,0,-33.20889,558.66287,136.44376)"/>
<use xlink:href="#font_0_7" transform="matrix(33.20889,0,0,-33.20889,572.9299,136.11167)"/>
<use xlink:href="#font_0_16" transform="matrix(33.20889,0,0,-33.20889,595.79379,136.80905)"/>
<use xlink:href="#font_0_12" transform="matrix(33.20889,0,0,-33.20889,612.9968,136.44376)"/>
<use xlink:href="#font_0_15" transform="matrix(33.20889,0,0,-33.20889,627.4298,136.11167)"/>
<use xlink:href="#font_0_9" transform="matrix(33.20889,0,0,-33.20889,635.9313,136.44376)"/>
<use xlink:href="#font_0_12" transform="matrix(33.20889,0,0,-33.20889,648.99649,136.44376)"/>
<use xlink:href="#font_0_2" transform="matrix(33.20889,0,0,-33.20889,663.3963,136.11167)"/>
<use xlink:href="#font_0_e" transform="matrix(33.20889,0,0,-33.20889,690.59646,136.44376)"/>
<use xlink:href="#font_0_12" transform="matrix(33.20889,0,0,-33.20889,709.6624,136.44376)"/>
<use xlink:href="#font_0_7" transform="matrix(33.20889,0,0,-33.20889,723.9295,136.11167)"/>
<use xlink:href="#font_0_12" transform="matrix(33.20889,0,0,-33.20889,736.66256,136.44376)"/>
<use xlink:href="#font_0_f" transform="matrix(33.20889,0,0,-33.20889,751.162,136.44376)"/>
<use xlink:href="#font_0_14" transform="matrix(33.20889,0,0,-33.20889,764.39596,136.11167)"/>
<use xlink:href="#font_0_2" transform="matrix(33.20889,0,0,-33.20889,782.396,136.11167)"/>
<use xlink:href="#font_0_12" transform="matrix(33.20889,0,0,-33.20889,800.3296,136.44376)"/>
<use xlink:href="#font_0_9" transform="matrix(33.20889,0,0,-33.20889,814.26449,136.44376)"/>
<use xlink:href="#font_0_c" transform="matrix(33.20889,0,0,-33.20889,2.9308289,172.4432)"/>
<use xlink:href="#font_0_12" transform="matrix(33.20889,0,0,-33.20889,25.662299,172.4432)"/>
<use xlink:href="#font_0_7" transform="matrix(33.20889,0,0,-33.20889,39.92925,172.11112)"/>
<use xlink:href="#font_0_11" transform="matrix(33.20889,0,0,-33.20889,52.828416,172.4432)"/>
<use xlink:href="#font_0_12" transform="matrix(33.20889,0,0,-33.20889,70.66242,172.4432)"/>
<use xlink:href="#font_0_2" transform="matrix(33.20889,0,0,-33.20889,85.062198,172.11112)"/>
<use xlink:href="#font_0_1d" transform="matrix(33.20889,0,0,-33.20889,104.88873,172.11112)"/>
</g>
</svg>
