<?xml version="1.0" encoding="UTF-8" standalone="no"?>
<!DOCTYPE svg PUBLIC "-//W3C//DTD SVG 1.1//EN" "http://www.w3.org/Graphics/SVG/1.1/DTD/svg11.dtd">
<svg xmlns="http://www.w3.org/2000/svg" xmlns:xlink="http://www.w3.org/1999/xlink" version="1.1" width="229.69445pt" height="229.69445pt" viewBox="0 0 229.69445 229.69445">
<g enable-background="new">
<path transform="matrix(.27777777,0,0,-.27777777,0,229.69445)" stroke-width="199.253" stroke-linecap="butt" stroke-miterlimit="10" stroke-linejoin="miter" fill="none" stroke="#e6e6e6" d="M 13.3828 115.609 L 212.633 115.609 "/>
<path transform="matrix(.27777777,0,0,-.27777777,0,229.69445)" stroke-width="199.253" stroke-linecap="butt" stroke-miterlimit="10" stroke-linejoin="miter" fill="none" stroke="#ffffff" d="M 212.633 115.609 L 411.887 115.609 "/>
<path transform="matrix(.27777777,0,0,-.27777777,0,229.69445)" stroke-width="199.253" stroke-linecap="butt" stroke-miterlimit="10" stroke-linejoin="miter" fill="none" stroke="#e6e6e6" d="M 411.887 115.609 L 611.141 115.609 "/>
<path transform="matrix(.27777777,0,0,-.27777777,0,229.69445)" stroke-width="199.253" stroke-linecap="butt" stroke-miterlimit="10" stroke-linejoin="miter" fill="none" stroke="#ffffff" d="M 611.141 115.609 L 810.391 115.609 "/>
<path transform="matrix(.27777777,0,0,-.27777777,0,229.69445)" stroke-width="199.253" stroke-linecap="butt" stroke-miterlimit="10" stroke-linejoin="miter" fill="none" stroke="#ffffff" d="M 13.3828 314.859 L 212.633 314.859 "/>
<path transform="matrix(.27777777,0,0,-.27777777,0,229.69445)" stroke-width="199.253" stroke-linecap="butt" stroke-miterlimit="10" stroke-linejoin="miter" fill="none" stroke="#e6e6e6" d="M 212.633 314.859 L 411.887 314.859 "/>
<path transform="matrix(.27777777,0,0,-.27777777,0,229.69445)" stroke-width="199.253" stroke-linecap="butt" stroke-miterlimit="10" stroke-linejoin="miter" fill="none" stroke="#ffffff" d="M 411.887 314.859 L 611.141 314.859 "/>
<path transform="matrix(.27777777,0,0,-.27777777,0,229.69445)" stroke-width="199.253" stroke-linecap="butt" stroke-miterlimit="10" stroke-linejoin="miter" fill="none" stroke="#e6e6e6" d="M 611.141 314.859 L 810.391 314.859 "/>
<path transform="matrix(.27777777,0,0,-.27777777,0,229.69445)" stroke-width="199.253" stroke-linecap="butt" stroke-miterlimit="10" stroke-linejoin="miter" fill="none" stroke="#e6e6e6" d="M 13.3828 514.113 L 212.633 514.113 "/>
<path transform="matrix(.27777777,0,0,-.27777777,0,229.69445)" stroke-width="199.253" stroke-linecap="butt" stroke-miterlimit="10" stroke-linejoin="miter" fill="none" stroke="#ffffff" d="M 212.633 514.113 L 411.887 514.113 "/>
<path transform="matrix(.27777777,0,0,-.27777777,0,229.69445)" stroke-width="199.253" stroke-linecap="butt" stroke-miterlimit="10" stroke-linejoin="miter" fill="none" stroke="#e6e6e6" d="M 411.887 514.113 L 611.141 514.113 "/>
<path transform="matrix(.27777777,0,0,-.27777777,0,229.69445)" stroke-width="199.253" stroke-linecap="butt" stroke-miterlimit="10" stroke-linejoin="miter" fill="none" stroke="#ffffff" d="M 611.141 514.113 L 810.391 514.113 "/>
<path transform="matrix(.27777777,0,0,-.27777777,0,229.69445)" stroke-width="199.253" stroke-linecap="butt" stroke-miterlimit="10" stroke-linejoin="miter" fill="none" stroke="#ffffff" d="M 13.3828 713.367 L 212.633 713.367 "/>
<path transform="matrix(.27777777,0,0,-.27777777,0,229.69445)" stroke-width="199.253" stroke-linecap="butt" stroke-miterlimit="10" stroke-linejoin="miter" fill="none" stroke="#e6e6e6" d="M 212.633 713.367 L 411.887 713.367 "/>
<path transform="matrix(.27777777,0,0,-.27777777,0,229.69445)" stroke-width="199.253" stroke-linecap="butt" stroke-miterlimit="10" stroke-linejoin="miter" fill="none" stroke="#ffffff" d="M 411.887 713.367 L 611.141 713.367 "/>
<path transform="matrix(.27777777,0,0,-.27777777,0,229.69445)" stroke-width="199.253" stroke-linecap="butt" stroke-miterlimit="10" stroke-linejoin="miter" fill="none" stroke="#e6e6e6" d="M 611.141 713.367 L 810.391 713.367 "/>
<path transform="matrix(.27777777,0,0,-.27777777,0,229.69445)" stroke-width="9.96264" stroke-linecap="butt" stroke-miterlimit="10" stroke-linejoin="miter" fill="none" stroke="#000000" d="M 13.3828 15.9805 L 810.391 15.9805 L 810.391 812.992 L 13.3828 812.992 L 13.3828 15.9805 Z "/>
<path transform="matrix(.27777777,0,0,-.27777777,0,229.69445)" stroke-width="9.96264" stroke-linecap="butt" stroke-miterlimit="10" stroke-linejoin="miter" fill="none" stroke="#000000" d="M 13.3828 215.234 L 212.633 215.234 L 212.633 15.9805 "/>
<path transform="matrix(.27777777,0,0,-.27777777,0,229.69445)" stroke-width="9.96264" stroke-linecap="butt" stroke-miterlimit="10" stroke-linejoin="miter" fill="none" stroke="#000000" d="M 13.3828 414.488 L 411.887 414.488 L 411.887 15.9805 "/>
<path transform="matrix(.27777777,0,0,-.27777777,0,229.69445)" stroke-width="9.96264" stroke-linecap="butt" stroke-miterlimit="10" stroke-linejoin="miter" fill="none" stroke="#000000" d="M 13.3828 613.738 L 611.141 613.738 L 611.141 15.9805 "/>
<symbol id="font_0_3">
<path d="M .19700001 .64100006 C .19700001 .66400006 .19700001 .665 .177 .665 C .15300001 .638 .103 .601 0 .601 L 0 .572 C .023000002 .572 .073 .572 .128 .59800007 L .128 .07700001 C .128 .041 .125 .029000001 .037 .029000001 L .0059999974 .029000001 L .0059999974 0 C .033 .002 .13000001 .002 .163 .002 C .196 .002 .292 .002 .319 0 L .319 .029000001 L .288 .029000001 C .2 .029000001 .19700001 .041 .19700001 .07700001 L .19700001 .64100006 Z "/>
</symbol>
<symbol id="font_0_4">
<path d="M .143 .38000003 C .12600002 .379 .122 .37800003 .122 .36900003 C .122 .35900004 .127 .35900004 .14500001 .35900004 L .19100002 .35900004 C .276 .35900004 .314 .289 .314 .193 C .314 .062000004 .24599999 .027000003 .197 .027000003 C .14900002 .027000003 .067 .050000006 .038000004 .11600001 C .07000001 .111 .099 .12900001 .099 .165 C .099 .194 .078 .214 .050000006 .214 C .026 .214 0 .2 0 .162 C 0 .073 .08900001 0 .20000002 0 C .319 0 .407 .091000009 .407 .192 C .407 .284 .333 .356 .23700002 .37300004 C .324 .398 .38000003 .47100003 .38000003 .549 C .38000003 .6280001 .298 .68600007 .201 .68600007 C .101 .68600007 .027000003 .62500008 .027000003 .55200007 C .027000003 .512 .058000007 .504 .07300001 .504 C .094000007 .504 .11800001 .51900008 .11800001 .549 C .11800001 .58100005 .094000007 .595 .072000008 .595 C .06600001 .595 .064 .595 .061000006 .59400007 C .099 .66200008 .19300002 .66200008 .19800002 .66200008 C .231 .66200008 .296 .6470001 .296 .549 C .296 .53000006 .293 .474 .264 .43100003 C .234 .38700003 .20000002 .384 .17300001 .38300003 L .143 .38000003 Z "/>
</symbol>
<symbol id="font_0_1">
<path d="M .079 .59400007 C .122 .58000007 .157 .57900008 .16800002 .57900008 C .28100003 .57900008 .35300002 .66200008 .35300002 .67600008 C .35300002 .68000009 .351 .68500009 .34500004 .68500009 C .34300003 .68500009 .34100003 .68500009 .33200003 .68100008 C .27600003 .65700009 .22800002 .65400007 .20200002 .65400007 C .136 .65400007 .08900001 .6740001 .07 .68200007 C .063 .68500009 .061000006 .68500009 .060000004 .68500009 C .052 .68500009 .052 .6790001 .052 .66300007 L .052 .36600004 C .052 .34800003 .052 .342 .064 .342 C .069000009 .342 .07 .34300003 .080000009 .35500003 C .108 .39600004 .155 .42000003 .20500002 .42000003 C .25800003 .42000003 .284 .37100003 .29200004 .354 C .30900003 .315 .31000004 .266 .31000004 .22800002 C .31000004 .19000001 .31000004 .133 .28200004 .088 C .26000003 .052 .22100002 .027000003 .17700002 .027000003 C .11100001 .027000003 .046000005 .072000008 .028000005 .14500001 C .033 .143 .039000006 .142 .044 .142 C .061000006 .142 .08800001 .15200001 .08800001 .186 C .08800001 .214 .069000009 .23 .044 .23 C .026 .23 0 .221 0 .18200001 C 0 .097 .068 0 .17900002 0 C .29200004 0 .39100004 .095 .39100004 .222 C .39100004 .34100003 .31100003 .44000004 .20600003 .44000004 C .14900002 .44000004 .10500001 .41500003 .079 .38700003 L .079 .59400007 Z "/>
</symbol>
<symbol id="font_0_2">
<path d="M .42100004 .6420001 L .42100004 .6650001 L .18 .6650001 C .059000005 .6650001 .057000009 .67800006 .053000008 .6970001 L .031 .6970001 L 0 .497 L .022000004 .497 C .025000003 .51500007 .034000007 .5770001 .047000003 .58800008 C .055000005 .59400007 .13000001 .59400007 .14400001 .59400007 L .35600005 .59400007 L .25000004 .44200004 C .223 .40300004 .12200001 .23900001 .12200001 .051000004 C .12200001 .040000004 .12200001 0 .163 0 C .205 0 .205 .039000006 .205 .052 L .205 .102 C .205 .25100003 .22900002 .367 .27600003 .43400003 L .42100004 .6420001 Z "/>
</symbol>
<use xlink:href="#font_0_3" transform="matrix(33.20889,0,0,-33.20889,26.355341,208.30556)"/>
<use xlink:href="#font_0_4" transform="matrix(33.20889,0,0,-33.20889,80.027957,153.66989)"/>
<use xlink:href="#font_0_1" transform="matrix(33.20889,0,0,-33.20889,135.62668,98.33682)"/>
<use xlink:href="#font_0_2" transform="matrix(33.20889,0,0,-33.20889,191.12686,42.669618)"/>
<path transform="matrix(.27777777,0,0,-.27777777,0,229.69445)" stroke-width="4.98132" stroke-linecap="butt" stroke-miterlimit="10" stroke-linejoin="miter" fill="none" stroke="#000000" d="M 312.262 235.16 L 312.262 142.008 "/>
<path transform="matrix(.27777777,0,0,-.27777777,0,229.69445)" d="M 312.262 119.156 L 300.672 150.059 L 312.262 137.695 L 323.852 150.059 L 312.262 119.156 "/>
<path transform="matrix(.27777777,0,0,-.27777777,0,229.69445)" stroke-width="2.49066" stroke-linecap="butt" stroke-miterlimit="10" stroke-linejoin="miter" fill="none" stroke="#000000" d="M 312.262 119.156 L 300.672 150.059 L 312.262 137.695 L 323.852 150.059 L 312.262 119.156 Z "/>
<path transform="matrix(.27777777,0,0,-.27777777,0,229.69445)" d="M 312.262 139.52 L 309.77 142.176 L 314.75 142.176 "/>
<path transform="matrix(.27777777,0,0,-.27777777,0,229.69445)" stroke-width="4.98132" stroke-linecap="butt" stroke-miterlimit="10" stroke-linejoin="miter" fill="none" stroke="#000000" d="M 232.559 314.859 L 139.41 314.859 "/>
<path transform="matrix(.27777777,0,0,-.27777777,0,229.69445)" d="M 116.555 314.859 L 147.461 326.449 L 135.098 314.859 L 147.461 303.27 L 116.555 314.859 "/>
<path transform="matrix(.27777777,0,0,-.27777777,0,229.69445)" stroke-width="2.49066" stroke-linecap="butt" stroke-miterlimit="10" stroke-linejoin="miter" fill="none" stroke="#000000" d="M 116.555 314.859 L 147.461 326.449 L 135.098 314.859 L 147.461 303.27 L 116.555 314.859 Z "/>
<path transform="matrix(.27777777,0,0,-.27777777,0,229.69445)" d="M 136.918 314.859 L 139.574 317.352 L 139.574 312.371 "/>
<path transform="matrix(.27777777,0,0,-.27777777,0,229.69445)" stroke-width="4.98132" stroke-linecap="butt" stroke-miterlimit="10" stroke-linejoin="miter" fill="none" stroke="#000000" d="M 511.512 434.414 L 511.512 142.008 "/>
<path transform="matrix(.27777777,0,0,-.27777777,0,229.69445)" d="M 511.512 119.156 L 499.926 150.059 L 511.512 137.695 L 523.102 150.059 L 511.512 119.156 "/>
<path transform="matrix(.27777777,0,0,-.27777777,0,229.69445)" stroke-width="2.49066" stroke-linecap="butt" stroke-miterlimit="10" stroke-linejoin="miter" fill="none" stroke="#000000" d="M 511.512 119.156 L 499.926 150.059 L 511.512 137.695 L 523.102 150.059 L 511.512 119.156 Z "/>
<path transform="matrix(.27777777,0,0,-.27777777,0,229.69445)" d="M 511.512 139.52 L 509.023 142.176 L 514.004 142.176 "/>
<path transform="matrix(.27777777,0,0,-.27777777,0,229.69445)" stroke-width="4.98132" stroke-linecap="butt" stroke-miterlimit="10" stroke-linejoin="miter" fill="none" stroke="#000000" d="M 431.813 514.113 L 139.41 514.113 "/>
<path transform="matrix(.27777777,0,0,-.27777777,0,229.69445)" d="M 116.555 514.113 L 147.461 525.703 L 135.098 514.113 L 147.461 502.523 L 116.555 514.113 "/>
<path transform="matrix(.27777777,0,0,-.27777777,0,229.69445)" stroke-width="2.49066" stroke-linecap="butt" stroke-miterlimit="10" stroke-linejoin="miter" fill="none" stroke="#000000" d="M 116.555 514.113 L 147.461 525.703 L 135.098 514.113 L 147.461 502.523 L 116.555 514.113 Z "/>
<path transform="matrix(.27777777,0,0,-.27777777,0,229.69445)" d="M 136.918 514.113 L 139.574 516.605 L 139.574 511.621 "/>
<path transform="matrix(.27777777,0,0,-.27777777,0,229.69445)" stroke-width="4.98132" stroke-linecap="butt" stroke-miterlimit="10" stroke-linejoin="miter" fill="none" stroke="#000000" d="M 710.766 633.664 L 710.766 142.008 "/>
<path transform="matrix(.27777777,0,0,-.27777777,0,229.69445)" d="M 710.766 119.156 L 699.176 150.059 L 710.766 137.695 L 722.355 150.059 L 710.766 119.156 "/>
<path transform="matrix(.27777777,0,0,-.27777777,0,229.69445)" stroke-width="2.49066" stroke-linecap="butt" stroke-miterlimit="10" stroke-linejoin="miter" fill="none" stroke="#000000" d="M 710.766 119.156 L 699.176 150.059 L 710.766 137.695 L 722.355 150.059 L 710.766 119.156 Z "/>
<path transform="matrix(.27777777,0,0,-.27777777,0,229.69445)" d="M 710.766 139.52 L 708.277 142.176 L 713.258 142.176 "/>
<path transform="matrix(.27777777,0,0,-.27777777,0,229.69445)" stroke-width="4.98132" stroke-linecap="butt" stroke-miterlimit="10" stroke-linejoin="miter" fill="none" stroke="#000000" d="M 631.066 713.367 L 139.41 713.367 "/>
<path transform="matrix(.27777777,0,0,-.27777777,0,229.69445)" d="M 116.555 713.367 L 147.461 724.957 L 135.098 713.367 L 147.461 701.777 L 116.555 713.367 "/>
<path transform="matrix(.27777777,0,0,-.27777777,0,229.69445)" stroke-width="2.49066" stroke-linecap="butt" stroke-miterlimit="10" stroke-linejoin="miter" fill="none" stroke="#000000" d="M 116.555 713.367 L 147.461 724.957 L 135.098 713.367 L 147.461 701.777 L 116.555 713.367 Z "/>
<path transform="matrix(.27777777,0,0,-.27777777,0,229.69445)" d="M 136.918 713.367 L 139.574 715.855 L 139.574 710.875 "/>
</g>
</svg>
